<?xml version="1.0" encoding="utf-8" standalone="no"?>
<!DOCTYPE svg PUBLIC "-//W3C//DTD SVG 1.1//EN"
  "http://www.w3.org/Graphics/SVG/1.1/DTD/svg11.dtd">
<svg xmlns:xlink="http://www.w3.org/1999/xlink" width="897.383906pt" height="507.31875pt" viewBox="0 0 897.383906 507.31875" xmlns="http://www.w3.org/2000/svg" version="1.1">
 <metadata>
  <rdf:RDF xmlns:dc="http://purl.org/dc/elements/1.1/" xmlns:cc="http://creativecommons.org/ns#" xmlns:rdf="http://www.w3.org/1999/02/22-rdf-syntax-ns#">
   <cc:Work>
    <dc:type rdf:resource="http://purl.org/dc/dcmitype/StillImage"/>
    <dc:date>2024-06-06T17:56:44.269498</dc:date>
    <dc:format>image/svg+xml</dc:format>
    <dc:creator>
     <cc:Agent>
      <dc:title>Matplotlib v3.9.0, https://matplotlib.org/</dc:title>
     </cc:Agent>
    </dc:creator>
   </cc:Work>
  </rdf:RDF>
 </metadata>
 <defs>
  <style type="text/css">*{stroke-linejoin: round; stroke-linecap: butt}</style>
 </defs>
 <g id="figure_1">
  <g id="patch_1">
   <path d="M 0 507.31875 
L 897.383906 507.31875 
L 897.383906 0 
L 0 0 
z
" style="fill: #ffffff"/>
  </g>
  <g id="axes_1">
   <g id="patch_2">
    <path d="M 220.583906 465.455625 
L 890.183906 465.455625 
L 890.183906 21.935625 
L 220.583906 21.935625 
z
" style="fill: #ffffff"/>
   </g>
   <g id="matplotlib.axis_1">
    <g id="xtick_1">
     <g id="text_1">
      <!-- Positive -->
      <g style="fill: #262626" transform="translate(285.026172 482.829219) scale(0.11 -0.11)">
       <defs>
        <path id="ArialMT-50" d="M 494 0 
L 494 4581 
L 2222 4581 
Q 2678 4581 2919 4538 
Q 3256 4481 3484 4323 
Q 3713 4166 3852 3881 
Q 3991 3597 3991 3256 
Q 3991 2672 3619 2267 
Q 3247 1863 2275 1863 
L 1100 1863 
L 1100 0 
L 494 0 
z
M 1100 2403 
L 2284 2403 
Q 2872 2403 3119 2622 
Q 3366 2841 3366 3238 
Q 3366 3525 3220 3729 
Q 3075 3934 2838 4000 
Q 2684 4041 2272 4041 
L 1100 4041 
L 1100 2403 
z
" transform="scale(0.015625)"/>
        <path id="ArialMT-6f" d="M 213 1659 
Q 213 2581 725 3025 
Q 1153 3394 1769 3394 
Q 2453 3394 2887 2945 
Q 3322 2497 3322 1706 
Q 3322 1066 3130 698 
Q 2938 331 2570 128 
Q 2203 -75 1769 -75 
Q 1072 -75 642 372 
Q 213 819 213 1659 
z
M 791 1659 
Q 791 1022 1069 705 
Q 1347 388 1769 388 
Q 2188 388 2466 706 
Q 2744 1025 2744 1678 
Q 2744 2294 2464 2611 
Q 2184 2928 1769 2928 
Q 1347 2928 1069 2612 
Q 791 2297 791 1659 
z
" transform="scale(0.015625)"/>
        <path id="ArialMT-73" d="M 197 991 
L 753 1078 
Q 800 744 1014 566 
Q 1228 388 1613 388 
Q 2000 388 2187 545 
Q 2375 703 2375 916 
Q 2375 1106 2209 1216 
Q 2094 1291 1634 1406 
Q 1016 1563 777 1677 
Q 538 1791 414 1992 
Q 291 2194 291 2438 
Q 291 2659 392 2848 
Q 494 3038 669 3163 
Q 800 3259 1026 3326 
Q 1253 3394 1513 3394 
Q 1903 3394 2198 3281 
Q 2494 3169 2634 2976 
Q 2775 2784 2828 2463 
L 2278 2388 
Q 2241 2644 2061 2787 
Q 1881 2931 1553 2931 
Q 1166 2931 1000 2803 
Q 834 2675 834 2503 
Q 834 2394 903 2306 
Q 972 2216 1119 2156 
Q 1203 2125 1616 2013 
Q 2213 1853 2448 1751 
Q 2684 1650 2818 1456 
Q 2953 1263 2953 975 
Q 2953 694 2789 445 
Q 2625 197 2315 61 
Q 2006 -75 1616 -75 
Q 969 -75 630 194 
Q 291 463 197 991 
z
" transform="scale(0.015625)"/>
        <path id="ArialMT-69" d="M 425 3934 
L 425 4581 
L 988 4581 
L 988 3934 
L 425 3934 
z
M 425 0 
L 425 3319 
L 988 3319 
L 988 0 
L 425 0 
z
" transform="scale(0.015625)"/>
        <path id="ArialMT-74" d="M 1650 503 
L 1731 6 
Q 1494 -44 1306 -44 
Q 1000 -44 831 53 
Q 663 150 594 308 
Q 525 466 525 972 
L 525 2881 
L 113 2881 
L 113 3319 
L 525 3319 
L 525 4141 
L 1084 4478 
L 1084 3319 
L 1650 3319 
L 1650 2881 
L 1084 2881 
L 1084 941 
Q 1084 700 1114 631 
Q 1144 563 1211 522 
Q 1278 481 1403 481 
Q 1497 481 1650 503 
z
" transform="scale(0.015625)"/>
        <path id="ArialMT-76" d="M 1344 0 
L 81 3319 
L 675 3319 
L 1388 1331 
Q 1503 1009 1600 663 
Q 1675 925 1809 1294 
L 2547 3319 
L 3125 3319 
L 1869 0 
L 1344 0 
z
" transform="scale(0.015625)"/>
        <path id="ArialMT-65" d="M 2694 1069 
L 3275 997 
Q 3138 488 2766 206 
Q 2394 -75 1816 -75 
Q 1088 -75 661 373 
Q 234 822 234 1631 
Q 234 2469 665 2931 
Q 1097 3394 1784 3394 
Q 2450 3394 2872 2941 
Q 3294 2488 3294 1666 
Q 3294 1616 3291 1516 
L 816 1516 
Q 847 969 1125 678 
Q 1403 388 1819 388 
Q 2128 388 2347 550 
Q 2566 713 2694 1069 
z
M 847 1978 
L 2700 1978 
Q 2663 2397 2488 2606 
Q 2219 2931 1791 2931 
Q 1403 2931 1139 2672 
Q 875 2413 847 1978 
z
" transform="scale(0.015625)"/>
       </defs>
       <use xlink:href="#ArialMT-50"/>
       <use xlink:href="#ArialMT-6f" x="66.699219"/>
       <use xlink:href="#ArialMT-73" x="122.314453"/>
       <use xlink:href="#ArialMT-69" x="172.314453"/>
       <use xlink:href="#ArialMT-74" x="194.53125"/>
       <use xlink:href="#ArialMT-69" x="222.314453"/>
       <use xlink:href="#ArialMT-76" x="244.53125"/>
       <use xlink:href="#ArialMT-65" x="294.53125"/>
      </g>
     </g>
    </g>
    <g id="xtick_2">
     <g id="text_2">
      <!-- Neutral -->
      <g style="fill: #262626" transform="translate(453.955 482.829219) scale(0.11 -0.11)">
       <defs>
        <path id="ArialMT-4e" d="M 488 0 
L 488 4581 
L 1109 4581 
L 3516 984 
L 3516 4581 
L 4097 4581 
L 4097 0 
L 3475 0 
L 1069 3600 
L 1069 0 
L 488 0 
z
" transform="scale(0.015625)"/>
        <path id="ArialMT-75" d="M 2597 0 
L 2597 488 
Q 2209 -75 1544 -75 
Q 1250 -75 995 37 
Q 741 150 617 320 
Q 494 491 444 738 
Q 409 903 409 1263 
L 409 3319 
L 972 3319 
L 972 1478 
Q 972 1038 1006 884 
Q 1059 663 1231 536 
Q 1403 409 1656 409 
Q 1909 409 2131 539 
Q 2353 669 2445 892 
Q 2538 1116 2538 1541 
L 2538 3319 
L 3100 3319 
L 3100 0 
L 2597 0 
z
" transform="scale(0.015625)"/>
        <path id="ArialMT-72" d="M 416 0 
L 416 3319 
L 922 3319 
L 922 2816 
Q 1116 3169 1280 3281 
Q 1444 3394 1641 3394 
Q 1925 3394 2219 3213 
L 2025 2691 
Q 1819 2813 1613 2813 
Q 1428 2813 1281 2702 
Q 1134 2591 1072 2394 
Q 978 2094 978 1738 
L 978 0 
L 416 0 
z
" transform="scale(0.015625)"/>
        <path id="ArialMT-61" d="M 2588 409 
Q 2275 144 1986 34 
Q 1697 -75 1366 -75 
Q 819 -75 525 192 
Q 231 459 231 875 
Q 231 1119 342 1320 
Q 453 1522 633 1644 
Q 813 1766 1038 1828 
Q 1203 1872 1538 1913 
Q 2219 1994 2541 2106 
Q 2544 2222 2544 2253 
Q 2544 2597 2384 2738 
Q 2169 2928 1744 2928 
Q 1347 2928 1158 2789 
Q 969 2650 878 2297 
L 328 2372 
Q 403 2725 575 2942 
Q 747 3159 1072 3276 
Q 1397 3394 1825 3394 
Q 2250 3394 2515 3294 
Q 2781 3194 2906 3042 
Q 3031 2891 3081 2659 
Q 3109 2516 3109 2141 
L 3109 1391 
Q 3109 606 3145 398 
Q 3181 191 3288 0 
L 2700 0 
Q 2613 175 2588 409 
z
M 2541 1666 
Q 2234 1541 1622 1453 
Q 1275 1403 1131 1340 
Q 988 1278 909 1158 
Q 831 1038 831 891 
Q 831 666 1001 516 
Q 1172 366 1500 366 
Q 1825 366 2078 508 
Q 2331 650 2450 897 
Q 2541 1088 2541 1459 
L 2541 1666 
z
" transform="scale(0.015625)"/>
        <path id="ArialMT-6c" d="M 409 0 
L 409 4581 
L 972 4581 
L 972 0 
L 409 0 
z
" transform="scale(0.015625)"/>
       </defs>
       <use xlink:href="#ArialMT-4e"/>
       <use xlink:href="#ArialMT-65" x="72.216797"/>
       <use xlink:href="#ArialMT-75" x="127.832031"/>
       <use xlink:href="#ArialMT-74" x="183.447266"/>
       <use xlink:href="#ArialMT-72" x="211.230469"/>
       <use xlink:href="#ArialMT-61" x="244.53125"/>
       <use xlink:href="#ArialMT-6c" x="300.146484"/>
      </g>
     </g>
    </g>
    <g id="xtick_3">
     <g id="text_3">
      <!-- Negative -->
      <g style="fill: #262626" transform="translate(617.377813 482.829219) scale(0.11 -0.11)">
       <defs>
        <path id="ArialMT-67" d="M 319 -275 
L 866 -356 
Q 900 -609 1056 -725 
Q 1266 -881 1628 -881 
Q 2019 -881 2231 -725 
Q 2444 -569 2519 -288 
Q 2563 -116 2559 434 
Q 2191 0 1641 0 
Q 956 0 581 494 
Q 206 988 206 1678 
Q 206 2153 378 2554 
Q 550 2956 876 3175 
Q 1203 3394 1644 3394 
Q 2231 3394 2613 2919 
L 2613 3319 
L 3131 3319 
L 3131 450 
Q 3131 -325 2973 -648 
Q 2816 -972 2473 -1159 
Q 2131 -1347 1631 -1347 
Q 1038 -1347 672 -1080 
Q 306 -813 319 -275 
z
M 784 1719 
Q 784 1066 1043 766 
Q 1303 466 1694 466 
Q 2081 466 2343 764 
Q 2606 1063 2606 1700 
Q 2606 2309 2336 2618 
Q 2066 2928 1684 2928 
Q 1309 2928 1046 2623 
Q 784 2319 784 1719 
z
" transform="scale(0.015625)"/>
       </defs>
       <use xlink:href="#ArialMT-4e"/>
       <use xlink:href="#ArialMT-65" x="72.216797"/>
       <use xlink:href="#ArialMT-67" x="127.832031"/>
       <use xlink:href="#ArialMT-61" x="183.447266"/>
       <use xlink:href="#ArialMT-74" x="239.0625"/>
       <use xlink:href="#ArialMT-69" x="266.845703"/>
       <use xlink:href="#ArialMT-76" x="289.0625"/>
       <use xlink:href="#ArialMT-65" x="339.0625"/>
      </g>
     </g>
    </g>
    <g id="xtick_4">
     <g id="text_4">
      <!-- Irrelevant -->
      <g style="fill: #262626" transform="translate(783.559219 482.829219) scale(0.11 -0.11)">
       <defs>
        <path id="ArialMT-49" d="M 597 0 
L 597 4581 
L 1203 4581 
L 1203 0 
L 597 0 
z
" transform="scale(0.015625)"/>
        <path id="ArialMT-6e" d="M 422 0 
L 422 3319 
L 928 3319 
L 928 2847 
Q 1294 3394 1984 3394 
Q 2284 3394 2536 3286 
Q 2788 3178 2913 3003 
Q 3038 2828 3088 2588 
Q 3119 2431 3119 2041 
L 3119 0 
L 2556 0 
L 2556 2019 
Q 2556 2363 2490 2533 
Q 2425 2703 2258 2804 
Q 2091 2906 1866 2906 
Q 1506 2906 1245 2678 
Q 984 2450 984 1813 
L 984 0 
L 422 0 
z
" transform="scale(0.015625)"/>
       </defs>
       <use xlink:href="#ArialMT-49"/>
       <use xlink:href="#ArialMT-72" x="27.783203"/>
       <use xlink:href="#ArialMT-72" x="61.083984"/>
       <use xlink:href="#ArialMT-65" x="94.384766"/>
       <use xlink:href="#ArialMT-6c" x="150"/>
       <use xlink:href="#ArialMT-65" x="172.216797"/>
       <use xlink:href="#ArialMT-76" x="227.832031"/>
       <use xlink:href="#ArialMT-61" x="277.832031"/>
       <use xlink:href="#ArialMT-6e" x="333.447266"/>
       <use xlink:href="#ArialMT-74" x="389.0625"/>
      </g>
     </g>
    </g>
    <g id="text_5">
     <!-- Sentiment -->
     <g style="fill: #262626" transform="translate(528.370781 497.73375) scale(0.12 -0.12)">
      <defs>
       <path id="ArialMT-53" d="M 288 1472 
L 859 1522 
Q 900 1178 1048 958 
Q 1197 738 1509 602 
Q 1822 466 2213 466 
Q 2559 466 2825 569 
Q 3091 672 3220 851 
Q 3350 1031 3350 1244 
Q 3350 1459 3225 1620 
Q 3100 1781 2813 1891 
Q 2628 1963 1997 2114 
Q 1366 2266 1113 2400 
Q 784 2572 623 2826 
Q 463 3081 463 3397 
Q 463 3744 659 4045 
Q 856 4347 1234 4503 
Q 1613 4659 2075 4659 
Q 2584 4659 2973 4495 
Q 3363 4331 3572 4012 
Q 3781 3694 3797 3291 
L 3216 3247 
Q 3169 3681 2898 3903 
Q 2628 4125 2100 4125 
Q 1550 4125 1298 3923 
Q 1047 3722 1047 3438 
Q 1047 3191 1225 3031 
Q 1400 2872 2139 2705 
Q 2878 2538 3153 2413 
Q 3553 2228 3743 1945 
Q 3934 1663 3934 1294 
Q 3934 928 3725 604 
Q 3516 281 3123 101 
Q 2731 -78 2241 -78 
Q 1619 -78 1198 103 
Q 778 284 539 648 
Q 300 1013 288 1472 
z
" transform="scale(0.015625)"/>
       <path id="ArialMT-6d" d="M 422 0 
L 422 3319 
L 925 3319 
L 925 2853 
Q 1081 3097 1340 3245 
Q 1600 3394 1931 3394 
Q 2300 3394 2536 3241 
Q 2772 3088 2869 2813 
Q 3263 3394 3894 3394 
Q 4388 3394 4653 3120 
Q 4919 2847 4919 2278 
L 4919 0 
L 4359 0 
L 4359 2091 
Q 4359 2428 4304 2576 
Q 4250 2725 4106 2815 
Q 3963 2906 3769 2906 
Q 3419 2906 3187 2673 
Q 2956 2441 2956 1928 
L 2956 0 
L 2394 0 
L 2394 2156 
Q 2394 2531 2256 2718 
Q 2119 2906 1806 2906 
Q 1569 2906 1367 2781 
Q 1166 2656 1075 2415 
Q 984 2175 984 1722 
L 984 0 
L 422 0 
z
" transform="scale(0.015625)"/>
      </defs>
      <use xlink:href="#ArialMT-53"/>
      <use xlink:href="#ArialMT-65" x="66.699219"/>
      <use xlink:href="#ArialMT-6e" x="122.314453"/>
      <use xlink:href="#ArialMT-74" x="177.929688"/>
      <use xlink:href="#ArialMT-69" x="205.712891"/>
      <use xlink:href="#ArialMT-6d" x="227.929688"/>
      <use xlink:href="#ArialMT-65" x="311.230469"/>
      <use xlink:href="#ArialMT-6e" x="366.845703"/>
      <use xlink:href="#ArialMT-74" x="422.460938"/>
     </g>
    </g>
   </g>
   <g id="matplotlib.axis_2">
    <g id="ytick_1">
     <g id="line2d_1">
      <path d="M 220.583906 42.095625 
L 890.183906 42.095625 
" clip-path="url(#pc6d151fa55)" style="fill: none; stroke: #cccccc; stroke-linecap: round"/>
     </g>
     <g id="text_6">
      <!-- Borderlands -->
      <g style="fill: #262626" transform="translate(151.775 46.032422) scale(0.11 -0.11)">
       <defs>
        <path id="ArialMT-42" d="M 469 0 
L 469 4581 
L 2188 4581 
Q 2713 4581 3030 4442 
Q 3347 4303 3526 4014 
Q 3706 3725 3706 3409 
Q 3706 3116 3547 2856 
Q 3388 2597 3066 2438 
Q 3481 2316 3704 2022 
Q 3928 1728 3928 1328 
Q 3928 1006 3792 729 
Q 3656 453 3456 303 
Q 3256 153 2954 76 
Q 2653 0 2216 0 
L 469 0 
z
M 1075 2656 
L 2066 2656 
Q 2469 2656 2644 2709 
Q 2875 2778 2992 2937 
Q 3109 3097 3109 3338 
Q 3109 3566 3000 3739 
Q 2891 3913 2687 3977 
Q 2484 4041 1991 4041 
L 1075 4041 
L 1075 2656 
z
M 1075 541 
L 2216 541 
Q 2509 541 2628 563 
Q 2838 600 2978 687 
Q 3119 775 3209 942 
Q 3300 1109 3300 1328 
Q 3300 1584 3169 1773 
Q 3038 1963 2805 2039 
Q 2572 2116 2134 2116 
L 1075 2116 
L 1075 541 
z
" transform="scale(0.015625)"/>
        <path id="ArialMT-64" d="M 2575 0 
L 2575 419 
Q 2259 -75 1647 -75 
Q 1250 -75 917 144 
Q 584 363 401 755 
Q 219 1147 219 1656 
Q 219 2153 384 2558 
Q 550 2963 881 3178 
Q 1213 3394 1622 3394 
Q 1922 3394 2156 3267 
Q 2391 3141 2538 2938 
L 2538 4581 
L 3097 4581 
L 3097 0 
L 2575 0 
z
M 797 1656 
Q 797 1019 1065 703 
Q 1334 388 1700 388 
Q 2069 388 2326 689 
Q 2584 991 2584 1609 
Q 2584 2291 2321 2609 
Q 2059 2928 1675 2928 
Q 1300 2928 1048 2622 
Q 797 2316 797 1656 
z
" transform="scale(0.015625)"/>
       </defs>
       <use xlink:href="#ArialMT-42"/>
       <use xlink:href="#ArialMT-6f" x="66.699219"/>
       <use xlink:href="#ArialMT-72" x="122.314453"/>
       <use xlink:href="#ArialMT-64" x="155.615234"/>
       <use xlink:href="#ArialMT-65" x="211.230469"/>
       <use xlink:href="#ArialMT-72" x="266.845703"/>
       <use xlink:href="#ArialMT-6c" x="300.146484"/>
       <use xlink:href="#ArialMT-61" x="322.363281"/>
       <use xlink:href="#ArialMT-6e" x="377.978516"/>
       <use xlink:href="#ArialMT-64" x="433.59375"/>
       <use xlink:href="#ArialMT-73" x="489.208984"/>
      </g>
     </g>
    </g>
    <g id="ytick_2">
     <g id="line2d_2">
      <path d="M 220.583906 55.102077 
L 890.183906 55.102077 
" clip-path="url(#pc6d151fa55)" style="fill: none; stroke: #cccccc; stroke-linecap: round"/>
     </g>
     <g id="text_7">
      <!-- CallOfDutyBlackopsColdWar -->
      <g style="fill: #262626" transform="translate(70.900937 59.109342) scale(0.11 -0.11)">
       <defs>
        <path id="ArialMT-43" d="M 3763 1606 
L 4369 1453 
Q 4178 706 3683 314 
Q 3188 -78 2472 -78 
Q 1731 -78 1267 223 
Q 803 525 561 1097 
Q 319 1669 319 2325 
Q 319 3041 592 3573 
Q 866 4106 1370 4382 
Q 1875 4659 2481 4659 
Q 3169 4659 3637 4309 
Q 4106 3959 4291 3325 
L 3694 3184 
Q 3534 3684 3231 3912 
Q 2928 4141 2469 4141 
Q 1941 4141 1586 3887 
Q 1231 3634 1087 3207 
Q 944 2781 944 2328 
Q 944 1744 1114 1308 
Q 1284 872 1643 656 
Q 2003 441 2422 441 
Q 2931 441 3284 734 
Q 3638 1028 3763 1606 
z
" transform="scale(0.015625)"/>
        <path id="ArialMT-4f" d="M 309 2231 
Q 309 3372 921 4017 
Q 1534 4663 2503 4663 
Q 3138 4663 3647 4359 
Q 4156 4056 4423 3514 
Q 4691 2972 4691 2284 
Q 4691 1588 4409 1038 
Q 4128 488 3612 205 
Q 3097 -78 2500 -78 
Q 1853 -78 1343 234 
Q 834 547 571 1087 
Q 309 1628 309 2231 
z
M 934 2222 
Q 934 1394 1379 917 
Q 1825 441 2497 441 
Q 3181 441 3623 922 
Q 4066 1403 4066 2288 
Q 4066 2847 3877 3264 
Q 3688 3681 3323 3911 
Q 2959 4141 2506 4141 
Q 1863 4141 1398 3698 
Q 934 3256 934 2222 
z
" transform="scale(0.015625)"/>
        <path id="ArialMT-66" d="M 556 0 
L 556 2881 
L 59 2881 
L 59 3319 
L 556 3319 
L 556 3672 
Q 556 4006 616 4169 
Q 697 4388 901 4523 
Q 1106 4659 1475 4659 
Q 1713 4659 2000 4603 
L 1916 4113 
Q 1741 4144 1584 4144 
Q 1328 4144 1222 4034 
Q 1116 3925 1116 3625 
L 1116 3319 
L 1763 3319 
L 1763 2881 
L 1116 2881 
L 1116 0 
L 556 0 
z
" transform="scale(0.015625)"/>
        <path id="ArialMT-44" d="M 494 0 
L 494 4581 
L 2072 4581 
Q 2606 4581 2888 4516 
Q 3281 4425 3559 4188 
Q 3922 3881 4101 3404 
Q 4281 2928 4281 2316 
Q 4281 1794 4159 1391 
Q 4038 988 3847 723 
Q 3656 459 3429 307 
Q 3203 156 2883 78 
Q 2563 0 2147 0 
L 494 0 
z
M 1100 541 
L 2078 541 
Q 2531 541 2789 625 
Q 3047 709 3200 863 
Q 3416 1078 3536 1442 
Q 3656 1806 3656 2325 
Q 3656 3044 3420 3430 
Q 3184 3816 2847 3947 
Q 2603 4041 2063 4041 
L 1100 4041 
L 1100 541 
z
" transform="scale(0.015625)"/>
        <path id="ArialMT-79" d="M 397 -1278 
L 334 -750 
Q 519 -800 656 -800 
Q 844 -800 956 -737 
Q 1069 -675 1141 -563 
Q 1194 -478 1313 -144 
Q 1328 -97 1363 -6 
L 103 3319 
L 709 3319 
L 1400 1397 
Q 1534 1031 1641 628 
Q 1738 1016 1872 1384 
L 2581 3319 
L 3144 3319 
L 1881 -56 
Q 1678 -603 1566 -809 
Q 1416 -1088 1222 -1217 
Q 1028 -1347 759 -1347 
Q 597 -1347 397 -1278 
z
" transform="scale(0.015625)"/>
        <path id="ArialMT-63" d="M 2588 1216 
L 3141 1144 
Q 3050 572 2676 248 
Q 2303 -75 1759 -75 
Q 1078 -75 664 370 
Q 250 816 250 1647 
Q 250 2184 428 2587 
Q 606 2991 970 3192 
Q 1334 3394 1763 3394 
Q 2303 3394 2647 3120 
Q 2991 2847 3088 2344 
L 2541 2259 
Q 2463 2594 2264 2762 
Q 2066 2931 1784 2931 
Q 1359 2931 1093 2626 
Q 828 2322 828 1663 
Q 828 994 1084 691 
Q 1341 388 1753 388 
Q 2084 388 2306 591 
Q 2528 794 2588 1216 
z
" transform="scale(0.015625)"/>
        <path id="ArialMT-6b" d="M 425 0 
L 425 4581 
L 988 4581 
L 988 1969 
L 2319 3319 
L 3047 3319 
L 1778 2088 
L 3175 0 
L 2481 0 
L 1384 1697 
L 988 1316 
L 988 0 
L 425 0 
z
" transform="scale(0.015625)"/>
        <path id="ArialMT-70" d="M 422 -1272 
L 422 3319 
L 934 3319 
L 934 2888 
Q 1116 3141 1344 3267 
Q 1572 3394 1897 3394 
Q 2322 3394 2647 3175 
Q 2972 2956 3137 2557 
Q 3303 2159 3303 1684 
Q 3303 1175 3120 767 
Q 2938 359 2589 142 
Q 2241 -75 1856 -75 
Q 1575 -75 1351 44 
Q 1128 163 984 344 
L 984 -1272 
L 422 -1272 
z
M 931 1641 
Q 931 1000 1190 694 
Q 1450 388 1819 388 
Q 2194 388 2461 705 
Q 2728 1022 2728 1688 
Q 2728 2322 2467 2637 
Q 2206 2953 1844 2953 
Q 1484 2953 1207 2617 
Q 931 2281 931 1641 
z
" transform="scale(0.015625)"/>
        <path id="ArialMT-57" d="M 1294 0 
L 78 4581 
L 700 4581 
L 1397 1578 
Q 1509 1106 1591 641 
Q 1766 1375 1797 1488 
L 2669 4581 
L 3400 4581 
L 4056 2263 
Q 4303 1400 4413 641 
Q 4500 1075 4641 1638 
L 5359 4581 
L 5969 4581 
L 4713 0 
L 4128 0 
L 3163 3491 
Q 3041 3928 3019 4028 
Q 2947 3713 2884 3491 
L 1913 0 
L 1294 0 
z
" transform="scale(0.015625)"/>
       </defs>
       <use xlink:href="#ArialMT-43"/>
       <use xlink:href="#ArialMT-61" x="72.216797"/>
       <use xlink:href="#ArialMT-6c" x="127.832031"/>
       <use xlink:href="#ArialMT-6c" x="150.048828"/>
       <use xlink:href="#ArialMT-4f" x="172.265625"/>
       <use xlink:href="#ArialMT-66" x="250.048828"/>
       <use xlink:href="#ArialMT-44" x="277.832031"/>
       <use xlink:href="#ArialMT-75" x="350.048828"/>
       <use xlink:href="#ArialMT-74" x="405.664062"/>
       <use xlink:href="#ArialMT-79" x="433.447266"/>
       <use xlink:href="#ArialMT-42" x="483.447266"/>
       <use xlink:href="#ArialMT-6c" x="550.146484"/>
       <use xlink:href="#ArialMT-61" x="572.363281"/>
       <use xlink:href="#ArialMT-63" x="627.978516"/>
       <use xlink:href="#ArialMT-6b" x="677.978516"/>
       <use xlink:href="#ArialMT-6f" x="727.978516"/>
       <use xlink:href="#ArialMT-70" x="783.59375"/>
       <use xlink:href="#ArialMT-73" x="839.208984"/>
       <use xlink:href="#ArialMT-43" x="889.208984"/>
       <use xlink:href="#ArialMT-6f" x="961.425781"/>
       <use xlink:href="#ArialMT-6c" x="1017.041016"/>
       <use xlink:href="#ArialMT-64" x="1039.257812"/>
       <use xlink:href="#ArialMT-57" x="1094.873047"/>
       <use xlink:href="#ArialMT-61" x="1185.507812"/>
       <use xlink:href="#ArialMT-72" x="1241.123047"/>
      </g>
     </g>
    </g>
    <g id="ytick_3">
     <g id="line2d_3">
      <path d="M 220.583906 68.108528 
L 890.183906 68.108528 
" clip-path="url(#pc6d151fa55)" style="fill: none; stroke: #cccccc; stroke-linecap: round"/>
     </g>
     <g id="text_8">
      <!-- Amazon -->
      <g style="fill: #262626" transform="translate(170.732813 72.045325) scale(0.11 -0.11)">
       <defs>
        <path id="ArialMT-41" d="M -9 0 
L 1750 4581 
L 2403 4581 
L 4278 0 
L 3588 0 
L 3053 1388 
L 1138 1388 
L 634 0 
L -9 0 
z
M 1313 1881 
L 2866 1881 
L 2388 3150 
Q 2169 3728 2063 4100 
Q 1975 3659 1816 3225 
L 1313 1881 
z
" transform="scale(0.015625)"/>
        <path id="ArialMT-7a" d="M 125 0 
L 125 456 
L 2238 2881 
Q 1878 2863 1603 2863 
L 250 2863 
L 250 3319 
L 2963 3319 
L 2963 2947 
L 1166 841 
L 819 456 
Q 1197 484 1528 484 
L 3063 484 
L 3063 0 
L 125 0 
z
" transform="scale(0.015625)"/>
       </defs>
       <use xlink:href="#ArialMT-41"/>
       <use xlink:href="#ArialMT-6d" x="66.699219"/>
       <use xlink:href="#ArialMT-61" x="150"/>
       <use xlink:href="#ArialMT-7a" x="205.615234"/>
       <use xlink:href="#ArialMT-6f" x="255.615234"/>
       <use xlink:href="#ArialMT-6e" x="311.230469"/>
      </g>
     </g>
    </g>
    <g id="ytick_4">
     <g id="line2d_4">
      <path d="M 220.583906 81.11498 
L 890.183906 81.11498 
" clip-path="url(#pc6d151fa55)" style="fill: none; stroke: #cccccc; stroke-linecap: round"/>
     </g>
     <g id="text_9">
      <!-- Overwatch -->
      <g style="fill: #262626" transform="translate(158.514219 85.051777) scale(0.11 -0.11)">
       <defs>
        <path id="ArialMT-77" d="M 1034 0 
L 19 3319 
L 600 3319 
L 1128 1403 
L 1325 691 
Q 1338 744 1497 1375 
L 2025 3319 
L 2603 3319 
L 3100 1394 
L 3266 759 
L 3456 1400 
L 4025 3319 
L 4572 3319 
L 3534 0 
L 2950 0 
L 2422 1988 
L 2294 2553 
L 1622 0 
L 1034 0 
z
" transform="scale(0.015625)"/>
        <path id="ArialMT-68" d="M 422 0 
L 422 4581 
L 984 4581 
L 984 2938 
Q 1378 3394 1978 3394 
Q 2347 3394 2619 3248 
Q 2891 3103 3008 2847 
Q 3125 2591 3125 2103 
L 3125 0 
L 2563 0 
L 2563 2103 
Q 2563 2525 2380 2717 
Q 2197 2909 1863 2909 
Q 1613 2909 1392 2779 
Q 1172 2650 1078 2428 
Q 984 2206 984 1816 
L 984 0 
L 422 0 
z
" transform="scale(0.015625)"/>
       </defs>
       <use xlink:href="#ArialMT-4f"/>
       <use xlink:href="#ArialMT-76" x="77.783203"/>
       <use xlink:href="#ArialMT-65" x="127.783203"/>
       <use xlink:href="#ArialMT-72" x="183.398438"/>
       <use xlink:href="#ArialMT-77" x="216.699219"/>
       <use xlink:href="#ArialMT-61" x="288.916016"/>
       <use xlink:href="#ArialMT-74" x="344.53125"/>
       <use xlink:href="#ArialMT-63" x="372.314453"/>
       <use xlink:href="#ArialMT-68" x="422.314453"/>
      </g>
     </g>
    </g>
    <g id="ytick_5">
     <g id="line2d_5">
      <path d="M 220.583906 94.121431 
L 890.183906 94.121431 
" clip-path="url(#pc6d151fa55)" style="fill: none; stroke: #cccccc; stroke-linecap: round"/>
     </g>
     <g id="text_10">
      <!-- Xbox(Xseries) -->
      <g style="fill: #262626" transform="translate(142.009063 98.12526) scale(0.11 -0.11)">
       <defs>
        <path id="ArialMT-58" d="M 28 0 
L 1800 2388 
L 238 4581 
L 959 4581 
L 1791 3406 
Q 2050 3041 2159 2844 
Q 2313 3094 2522 3366 
L 3444 4581 
L 4103 4581 
L 2494 2422 
L 4228 0 
L 3478 0 
L 2325 1634 
Q 2228 1775 2125 1941 
Q 1972 1691 1906 1597 
L 756 0 
L 28 0 
z
" transform="scale(0.015625)"/>
        <path id="ArialMT-62" d="M 941 0 
L 419 0 
L 419 4581 
L 981 4581 
L 981 2947 
Q 1338 3394 1891 3394 
Q 2197 3394 2470 3270 
Q 2744 3147 2920 2923 
Q 3097 2700 3197 2384 
Q 3297 2069 3297 1709 
Q 3297 856 2875 390 
Q 2453 -75 1863 -75 
Q 1275 -75 941 416 
L 941 0 
z
M 934 1684 
Q 934 1088 1097 822 
Q 1363 388 1816 388 
Q 2184 388 2453 708 
Q 2722 1028 2722 1663 
Q 2722 2313 2464 2622 
Q 2206 2931 1841 2931 
Q 1472 2931 1203 2611 
Q 934 2291 934 1684 
z
" transform="scale(0.015625)"/>
        <path id="ArialMT-78" d="M 47 0 
L 1259 1725 
L 138 3319 
L 841 3319 
L 1350 2541 
Q 1494 2319 1581 2169 
Q 1719 2375 1834 2534 
L 2394 3319 
L 3066 3319 
L 1919 1756 
L 3153 0 
L 2463 0 
L 1781 1031 
L 1600 1309 
L 728 0 
L 47 0 
z
" transform="scale(0.015625)"/>
        <path id="ArialMT-28" d="M 1497 -1347 
Q 1031 -759 709 28 
Q 388 816 388 1659 
Q 388 2403 628 3084 
Q 909 3875 1497 4659 
L 1900 4659 
Q 1522 4009 1400 3731 
Q 1209 3300 1100 2831 
Q 966 2247 966 1656 
Q 966 153 1900 -1347 
L 1497 -1347 
z
" transform="scale(0.015625)"/>
        <path id="ArialMT-29" d="M 791 -1347 
L 388 -1347 
Q 1322 153 1322 1656 
Q 1322 2244 1188 2822 
Q 1081 3291 891 3722 
Q 769 4003 388 4659 
L 791 4659 
Q 1378 3875 1659 3084 
Q 1900 2403 1900 1659 
Q 1900 816 1576 28 
Q 1253 -759 791 -1347 
z
" transform="scale(0.015625)"/>
       </defs>
       <use xlink:href="#ArialMT-58"/>
       <use xlink:href="#ArialMT-62" x="66.699219"/>
       <use xlink:href="#ArialMT-6f" x="122.314453"/>
       <use xlink:href="#ArialMT-78" x="177.929688"/>
       <use xlink:href="#ArialMT-28" x="227.929688"/>
       <use xlink:href="#ArialMT-58" x="261.230469"/>
       <use xlink:href="#ArialMT-73" x="327.929688"/>
       <use xlink:href="#ArialMT-65" x="377.929688"/>
       <use xlink:href="#ArialMT-72" x="433.544922"/>
       <use xlink:href="#ArialMT-69" x="466.845703"/>
       <use xlink:href="#ArialMT-65" x="489.0625"/>
       <use xlink:href="#ArialMT-73" x="544.677734"/>
       <use xlink:href="#ArialMT-29" x="594.677734"/>
      </g>
     </g>
    </g>
    <g id="ytick_6">
     <g id="line2d_6">
      <path d="M 220.583906 107.127883 
L 890.183906 107.127883 
" clip-path="url(#pc6d151fa55)" style="fill: none; stroke: #cccccc; stroke-linecap: round"/>
     </g>
     <g id="text_11">
      <!-- NBA2K -->
      <g style="fill: #262626" transform="translate(175.010781 111.06468) scale(0.11 -0.11)">
       <defs>
        <path id="ArialMT-32" d="M 3222 541 
L 3222 0 
L 194 0 
Q 188 203 259 391 
Q 375 700 629 1000 
Q 884 1300 1366 1694 
Q 2113 2306 2375 2664 
Q 2638 3022 2638 3341 
Q 2638 3675 2398 3904 
Q 2159 4134 1775 4134 
Q 1369 4134 1125 3890 
Q 881 3647 878 3216 
L 300 3275 
Q 359 3922 746 4261 
Q 1134 4600 1788 4600 
Q 2447 4600 2831 4234 
Q 3216 3869 3216 3328 
Q 3216 3053 3103 2787 
Q 2991 2522 2730 2228 
Q 2469 1934 1863 1422 
Q 1356 997 1212 845 
Q 1069 694 975 541 
L 3222 541 
z
" transform="scale(0.015625)"/>
        <path id="ArialMT-4b" d="M 469 0 
L 469 4581 
L 1075 4581 
L 1075 2309 
L 3350 4581 
L 4172 4581 
L 2250 2725 
L 4256 0 
L 3456 0 
L 1825 2319 
L 1075 1588 
L 1075 0 
L 469 0 
z
" transform="scale(0.015625)"/>
       </defs>
       <use xlink:href="#ArialMT-4e"/>
       <use xlink:href="#ArialMT-42" x="72.216797"/>
       <use xlink:href="#ArialMT-41" x="138.916016"/>
       <use xlink:href="#ArialMT-32" x="205.615234"/>
       <use xlink:href="#ArialMT-4b" x="261.230469"/>
      </g>
     </g>
    </g>
    <g id="ytick_7">
     <g id="line2d_7">
      <path d="M 220.583906 120.134335 
L 890.183906 120.134335 
" clip-path="url(#pc6d151fa55)" style="fill: none; stroke: #cccccc; stroke-linecap: round"/>
     </g>
     <g id="text_12">
      <!-- Dota2 -->
      <g style="fill: #262626" transform="translate(181.732813 124.071132) scale(0.11 -0.11)">
       <use xlink:href="#ArialMT-44"/>
       <use xlink:href="#ArialMT-6f" x="72.216797"/>
       <use xlink:href="#ArialMT-74" x="127.832031"/>
       <use xlink:href="#ArialMT-61" x="155.615234"/>
       <use xlink:href="#ArialMT-32" x="211.230469"/>
      </g>
     </g>
    </g>
    <g id="ytick_8">
     <g id="line2d_8">
      <path d="M 220.583906 133.140786 
L 890.183906 133.140786 
" clip-path="url(#pc6d151fa55)" style="fill: none; stroke: #cccccc; stroke-linecap: round"/>
     </g>
     <g id="text_13">
      <!-- PlayStation5(PS5) -->
      <g style="fill: #262626" transform="translate(121.207031 137.144614) scale(0.11 -0.11)">
       <defs>
        <path id="ArialMT-35" d="M 266 1200 
L 856 1250 
Q 922 819 1161 601 
Q 1400 384 1738 384 
Q 2144 384 2425 690 
Q 2706 997 2706 1503 
Q 2706 1984 2436 2262 
Q 2166 2541 1728 2541 
Q 1456 2541 1237 2417 
Q 1019 2294 894 2097 
L 366 2166 
L 809 4519 
L 3088 4519 
L 3088 3981 
L 1259 3981 
L 1013 2750 
Q 1425 3038 1878 3038 
Q 2478 3038 2890 2622 
Q 3303 2206 3303 1553 
Q 3303 931 2941 478 
Q 2500 -78 1738 -78 
Q 1113 -78 717 272 
Q 322 622 266 1200 
z
" transform="scale(0.015625)"/>
       </defs>
       <use xlink:href="#ArialMT-50"/>
       <use xlink:href="#ArialMT-6c" x="66.699219"/>
       <use xlink:href="#ArialMT-61" x="88.916016"/>
       <use xlink:href="#ArialMT-79" x="144.53125"/>
       <use xlink:href="#ArialMT-53" x="194.53125"/>
       <use xlink:href="#ArialMT-74" x="261.230469"/>
       <use xlink:href="#ArialMT-61" x="289.013672"/>
       <use xlink:href="#ArialMT-74" x="344.628906"/>
       <use xlink:href="#ArialMT-69" x="372.412109"/>
       <use xlink:href="#ArialMT-6f" x="394.628906"/>
       <use xlink:href="#ArialMT-6e" x="450.244141"/>
       <use xlink:href="#ArialMT-35" x="505.859375"/>
       <use xlink:href="#ArialMT-28" x="561.474609"/>
       <use xlink:href="#ArialMT-50" x="594.775391"/>
       <use xlink:href="#ArialMT-53" x="661.474609"/>
       <use xlink:href="#ArialMT-35" x="728.173828"/>
       <use xlink:href="#ArialMT-29" x="783.789062"/>
      </g>
     </g>
    </g>
    <g id="ytick_9">
     <g id="line2d_9">
      <path d="M 220.583906 146.147238 
L 890.183906 146.147238 
" clip-path="url(#pc6d151fa55)" style="fill: none; stroke: #cccccc; stroke-linecap: round"/>
     </g>
     <g id="text_14">
      <!-- WorldOfCraft -->
      <g style="fill: #262626" transform="translate(147.105156 150.084035) scale(0.11 -0.11)">
       <use xlink:href="#ArialMT-57"/>
       <use xlink:href="#ArialMT-6f" x="92.634766"/>
       <use xlink:href="#ArialMT-72" x="148.25"/>
       <use xlink:href="#ArialMT-6c" x="181.550781"/>
       <use xlink:href="#ArialMT-64" x="203.767578"/>
       <use xlink:href="#ArialMT-4f" x="259.382812"/>
       <use xlink:href="#ArialMT-66" x="337.166016"/>
       <use xlink:href="#ArialMT-43" x="364.949219"/>
       <use xlink:href="#ArialMT-72" x="437.166016"/>
       <use xlink:href="#ArialMT-61" x="470.466797"/>
       <use xlink:href="#ArialMT-66" x="526.082031"/>
       <use xlink:href="#ArialMT-74" x="553.865234"/>
      </g>
     </g>
    </g>
    <g id="ytick_10">
     <g id="line2d_10">
      <path d="M 220.583906 159.15369 
L 890.183906 159.15369 
" clip-path="url(#pc6d151fa55)" style="fill: none; stroke: #cccccc; stroke-linecap: round"/>
     </g>
     <g id="text_15">
      <!-- CS-GO -->
      <g style="fill: #262626" transform="translate(175.027969 163.090486) scale(0.11 -0.11)">
       <defs>
        <path id="ArialMT-2d" d="M 203 1375 
L 203 1941 
L 1931 1941 
L 1931 1375 
L 203 1375 
z
" transform="scale(0.015625)"/>
        <path id="ArialMT-47" d="M 2638 1797 
L 2638 2334 
L 4578 2338 
L 4578 638 
Q 4131 281 3656 101 
Q 3181 -78 2681 -78 
Q 2006 -78 1454 211 
Q 903 500 622 1047 
Q 341 1594 341 2269 
Q 341 2938 620 3517 
Q 900 4097 1425 4378 
Q 1950 4659 2634 4659 
Q 3131 4659 3532 4498 
Q 3934 4338 4162 4050 
Q 4391 3763 4509 3300 
L 3963 3150 
Q 3859 3500 3706 3700 
Q 3553 3900 3268 4020 
Q 2984 4141 2638 4141 
Q 2222 4141 1919 4014 
Q 1616 3888 1430 3681 
Q 1244 3475 1141 3228 
Q 966 2803 966 2306 
Q 966 1694 1177 1281 
Q 1388 869 1791 669 
Q 2194 469 2647 469 
Q 3041 469 3416 620 
Q 3791 772 3984 944 
L 3984 1797 
L 2638 1797 
z
" transform="scale(0.015625)"/>
       </defs>
       <use xlink:href="#ArialMT-43"/>
       <use xlink:href="#ArialMT-53" x="72.216797"/>
       <use xlink:href="#ArialMT-2d" x="138.916016"/>
       <use xlink:href="#ArialMT-47" x="172.216797"/>
       <use xlink:href="#ArialMT-4f" x="250"/>
      </g>
     </g>
    </g>
    <g id="ytick_11">
     <g id="line2d_11">
      <path d="M 220.583906 172.160141 
L 890.183906 172.160141 
" clip-path="url(#pc6d151fa55)" style="fill: none; stroke: #cccccc; stroke-linecap: round"/>
     </g>
     <g id="text_16">
      <!-- Google -->
      <g style="fill: #262626" transform="translate(175.615781 176.163969) scale(0.11 -0.11)">
       <use xlink:href="#ArialMT-47"/>
       <use xlink:href="#ArialMT-6f" x="77.783203"/>
       <use xlink:href="#ArialMT-6f" x="133.398438"/>
       <use xlink:href="#ArialMT-67" x="189.013672"/>
       <use xlink:href="#ArialMT-6c" x="244.628906"/>
       <use xlink:href="#ArialMT-65" x="266.845703"/>
      </g>
     </g>
    </g>
    <g id="ytick_12">
     <g id="line2d_12">
      <path d="M 220.583906 185.166593 
L 890.183906 185.166593 
" clip-path="url(#pc6d151fa55)" style="fill: none; stroke: #cccccc; stroke-linecap: round"/>
     </g>
     <g id="text_17">
      <!-- AssassinsCreed -->
      <g style="fill: #262626" transform="translate(131.610625 189.10339) scale(0.11 -0.11)">
       <use xlink:href="#ArialMT-41"/>
       <use xlink:href="#ArialMT-73" x="66.699219"/>
       <use xlink:href="#ArialMT-73" x="116.699219"/>
       <use xlink:href="#ArialMT-61" x="166.699219"/>
       <use xlink:href="#ArialMT-73" x="222.314453"/>
       <use xlink:href="#ArialMT-73" x="272.314453"/>
       <use xlink:href="#ArialMT-69" x="322.314453"/>
       <use xlink:href="#ArialMT-6e" x="344.53125"/>
       <use xlink:href="#ArialMT-73" x="400.146484"/>
       <use xlink:href="#ArialMT-43" x="450.146484"/>
       <use xlink:href="#ArialMT-72" x="522.363281"/>
       <use xlink:href="#ArialMT-65" x="555.664062"/>
       <use xlink:href="#ArialMT-65" x="611.279297"/>
       <use xlink:href="#ArialMT-64" x="666.894531"/>
      </g>
     </g>
    </g>
    <g id="ytick_13">
     <g id="line2d_13">
      <path d="M 220.583906 198.173044 
L 890.183906 198.173044 
" clip-path="url(#pc6d151fa55)" style="fill: none; stroke: #cccccc; stroke-linecap: round"/>
     </g>
     <g id="text_18">
      <!-- ApexLegends -->
      <g style="fill: #262626" transform="translate(143.810313 202.109841) scale(0.11 -0.11)">
       <defs>
        <path id="ArialMT-4c" d="M 469 0 
L 469 4581 
L 1075 4581 
L 1075 541 
L 3331 541 
L 3331 0 
L 469 0 
z
" transform="scale(0.015625)"/>
       </defs>
       <use xlink:href="#ArialMT-41"/>
       <use xlink:href="#ArialMT-70" x="66.699219"/>
       <use xlink:href="#ArialMT-65" x="122.314453"/>
       <use xlink:href="#ArialMT-78" x="177.929688"/>
       <use xlink:href="#ArialMT-4c" x="227.929688"/>
       <use xlink:href="#ArialMT-65" x="283.544922"/>
       <use xlink:href="#ArialMT-67" x="339.160156"/>
       <use xlink:href="#ArialMT-65" x="394.775391"/>
       <use xlink:href="#ArialMT-6e" x="450.390625"/>
       <use xlink:href="#ArialMT-64" x="506.005859"/>
       <use xlink:href="#ArialMT-73" x="561.621094"/>
      </g>
     </g>
    </g>
    <g id="ytick_14">
     <g id="line2d_14">
      <path d="M 220.583906 211.179496 
L 890.183906 211.179496 
" clip-path="url(#pc6d151fa55)" style="fill: none; stroke: #cccccc; stroke-linecap: round"/>
     </g>
     <g id="text_19">
      <!-- LeagueOfLegends -->
      <g style="fill: #262626" transform="translate(120.567656 215.186762) scale(0.11 -0.11)">
       <use xlink:href="#ArialMT-4c"/>
       <use xlink:href="#ArialMT-65" x="55.615234"/>
       <use xlink:href="#ArialMT-61" x="111.230469"/>
       <use xlink:href="#ArialMT-67" x="166.845703"/>
       <use xlink:href="#ArialMT-75" x="222.460938"/>
       <use xlink:href="#ArialMT-65" x="278.076172"/>
       <use xlink:href="#ArialMT-4f" x="333.691406"/>
       <use xlink:href="#ArialMT-66" x="411.474609"/>
       <use xlink:href="#ArialMT-4c" x="439.257812"/>
       <use xlink:href="#ArialMT-65" x="494.873047"/>
       <use xlink:href="#ArialMT-67" x="550.488281"/>
       <use xlink:href="#ArialMT-65" x="606.103516"/>
       <use xlink:href="#ArialMT-6e" x="661.71875"/>
       <use xlink:href="#ArialMT-64" x="717.333984"/>
       <use xlink:href="#ArialMT-73" x="772.949219"/>
      </g>
     </g>
    </g>
    <g id="ytick_15">
     <g id="line2d_15">
      <path d="M 220.583906 224.185948 
L 890.183906 224.185948 
" clip-path="url(#pc6d151fa55)" style="fill: none; stroke: #cccccc; stroke-linecap: round"/>
     </g>
     <g id="text_20">
      <!-- Fortnite -->
      <g style="fill: #262626" transform="translate(173.795625 228.122744) scale(0.11 -0.11)">
       <defs>
        <path id="ArialMT-46" d="M 525 0 
L 525 4581 
L 3616 4581 
L 3616 4041 
L 1131 4041 
L 1131 2622 
L 3281 2622 
L 3281 2081 
L 1131 2081 
L 1131 0 
L 525 0 
z
" transform="scale(0.015625)"/>
       </defs>
       <use xlink:href="#ArialMT-46"/>
       <use xlink:href="#ArialMT-6f" x="61.083984"/>
       <use xlink:href="#ArialMT-72" x="116.699219"/>
       <use xlink:href="#ArialMT-74" x="150"/>
       <use xlink:href="#ArialMT-6e" x="177.783203"/>
       <use xlink:href="#ArialMT-69" x="233.398438"/>
       <use xlink:href="#ArialMT-74" x="255.615234"/>
       <use xlink:href="#ArialMT-65" x="283.398438"/>
      </g>
     </g>
    </g>
    <g id="ytick_16">
     <g id="line2d_16">
      <path d="M 220.583906 237.192399 
L 890.183906 237.192399 
" clip-path="url(#pc6d151fa55)" style="fill: none; stroke: #cccccc; stroke-linecap: round"/>
     </g>
     <g id="text_21">
      <!-- Microsoft -->
      <g style="fill: #262626" transform="translate(166.468594 241.129196) scale(0.11 -0.11)">
       <defs>
        <path id="ArialMT-4d" d="M 475 0 
L 475 4581 
L 1388 4581 
L 2472 1338 
Q 2622 884 2691 659 
Q 2769 909 2934 1394 
L 4031 4581 
L 4847 4581 
L 4847 0 
L 4263 0 
L 4263 3834 
L 2931 0 
L 2384 0 
L 1059 3900 
L 1059 0 
L 475 0 
z
" transform="scale(0.015625)"/>
       </defs>
       <use xlink:href="#ArialMT-4d"/>
       <use xlink:href="#ArialMT-69" x="83.300781"/>
       <use xlink:href="#ArialMT-63" x="105.517578"/>
       <use xlink:href="#ArialMT-72" x="155.517578"/>
       <use xlink:href="#ArialMT-6f" x="188.818359"/>
       <use xlink:href="#ArialMT-73" x="244.433594"/>
       <use xlink:href="#ArialMT-6f" x="294.433594"/>
       <use xlink:href="#ArialMT-66" x="350.048828"/>
       <use xlink:href="#ArialMT-74" x="377.832031"/>
      </g>
     </g>
    </g>
    <g id="ytick_17">
     <g id="line2d_17">
      <path d="M 220.583906 250.198851 
L 890.183906 250.198851 
" clip-path="url(#pc6d151fa55)" style="fill: none; stroke: #cccccc; stroke-linecap: round"/>
     </g>
     <g id="text_22">
      <!-- Hearthstone -->
      <g style="fill: #262626" transform="translate(151.163125 254.135648) scale(0.11 -0.11)">
       <defs>
        <path id="ArialMT-48" d="M 513 0 
L 513 4581 
L 1119 4581 
L 1119 2700 
L 3500 2700 
L 3500 4581 
L 4106 4581 
L 4106 0 
L 3500 0 
L 3500 2159 
L 1119 2159 
L 1119 0 
L 513 0 
z
" transform="scale(0.015625)"/>
       </defs>
       <use xlink:href="#ArialMT-48"/>
       <use xlink:href="#ArialMT-65" x="72.216797"/>
       <use xlink:href="#ArialMT-61" x="127.832031"/>
       <use xlink:href="#ArialMT-72" x="183.447266"/>
       <use xlink:href="#ArialMT-74" x="216.748047"/>
       <use xlink:href="#ArialMT-68" x="244.53125"/>
       <use xlink:href="#ArialMT-73" x="300.146484"/>
       <use xlink:href="#ArialMT-74" x="350.146484"/>
       <use xlink:href="#ArialMT-6f" x="377.929688"/>
       <use xlink:href="#ArialMT-6e" x="433.544922"/>
       <use xlink:href="#ArialMT-65" x="489.160156"/>
      </g>
     </g>
    </g>
    <g id="ytick_18">
     <g id="line2d_18">
      <path d="M 220.583906 263.205302 
L 890.183906 263.205302 
" clip-path="url(#pc6d151fa55)" style="fill: none; stroke: #cccccc; stroke-linecap: round"/>
     </g>
     <g id="text_23">
      <!-- Battlefield -->
      <g style="fill: #262626" transform="translate(162.778437 267.142099) scale(0.11 -0.11)">
       <use xlink:href="#ArialMT-42"/>
       <use xlink:href="#ArialMT-61" x="66.699219"/>
       <use xlink:href="#ArialMT-74" x="122.314453"/>
       <use xlink:href="#ArialMT-74" x="150.097656"/>
       <use xlink:href="#ArialMT-6c" x="177.880859"/>
       <use xlink:href="#ArialMT-65" x="200.097656"/>
       <use xlink:href="#ArialMT-66" x="255.712891"/>
       <use xlink:href="#ArialMT-69" x="283.496094"/>
       <use xlink:href="#ArialMT-65" x="305.712891"/>
       <use xlink:href="#ArialMT-6c" x="361.328125"/>
       <use xlink:href="#ArialMT-64" x="383.544922"/>
      </g>
     </g>
    </g>
    <g id="ytick_19">
     <g id="line2d_19">
      <path d="M 220.583906 276.211754 
L 890.183906 276.211754 
" clip-path="url(#pc6d151fa55)" style="fill: none; stroke: #cccccc; stroke-linecap: round"/>
     </g>
     <g id="text_24">
      <!-- PlayerUnknownsBattlegrounds(PUBG) -->
      <g style="fill: #262626" transform="translate(22.174375 280.215582) scale(0.11 -0.11)">
       <defs>
        <path id="ArialMT-55" d="M 3500 4581 
L 4106 4581 
L 4106 1934 
Q 4106 1244 3950 837 
Q 3794 431 3386 176 
Q 2978 -78 2316 -78 
Q 1672 -78 1262 144 
Q 853 366 678 786 
Q 503 1206 503 1934 
L 503 4581 
L 1109 4581 
L 1109 1938 
Q 1109 1341 1220 1058 
Q 1331 775 1601 622 
Q 1872 469 2263 469 
Q 2931 469 3215 772 
Q 3500 1075 3500 1938 
L 3500 4581 
z
" transform="scale(0.015625)"/>
       </defs>
       <use xlink:href="#ArialMT-50"/>
       <use xlink:href="#ArialMT-6c" x="66.699219"/>
       <use xlink:href="#ArialMT-61" x="88.916016"/>
       <use xlink:href="#ArialMT-79" x="144.53125"/>
       <use xlink:href="#ArialMT-65" x="194.53125"/>
       <use xlink:href="#ArialMT-72" x="250.146484"/>
       <use xlink:href="#ArialMT-55" x="283.447266"/>
       <use xlink:href="#ArialMT-6e" x="355.664062"/>
       <use xlink:href="#ArialMT-6b" x="411.279297"/>
       <use xlink:href="#ArialMT-6e" x="461.279297"/>
       <use xlink:href="#ArialMT-6f" x="516.894531"/>
       <use xlink:href="#ArialMT-77" x="572.509766"/>
       <use xlink:href="#ArialMT-6e" x="644.726562"/>
       <use xlink:href="#ArialMT-73" x="700.341797"/>
       <use xlink:href="#ArialMT-42" x="750.341797"/>
       <use xlink:href="#ArialMT-61" x="817.041016"/>
       <use xlink:href="#ArialMT-74" x="872.65625"/>
       <use xlink:href="#ArialMT-74" x="900.439453"/>
       <use xlink:href="#ArialMT-6c" x="928.222656"/>
       <use xlink:href="#ArialMT-65" x="950.439453"/>
       <use xlink:href="#ArialMT-67" x="1006.054688"/>
       <use xlink:href="#ArialMT-72" x="1061.669922"/>
       <use xlink:href="#ArialMT-6f" x="1094.970703"/>
       <use xlink:href="#ArialMT-75" x="1150.585938"/>
       <use xlink:href="#ArialMT-6e" x="1206.201172"/>
       <use xlink:href="#ArialMT-64" x="1261.816406"/>
       <use xlink:href="#ArialMT-73" x="1317.431641"/>
       <use xlink:href="#ArialMT-28" x="1367.431641"/>
       <use xlink:href="#ArialMT-50" x="1400.732422"/>
       <use xlink:href="#ArialMT-55" x="1467.431641"/>
       <use xlink:href="#ArialMT-42" x="1539.648438"/>
       <use xlink:href="#ArialMT-47" x="1606.347656"/>
       <use xlink:href="#ArialMT-29" x="1684.130859"/>
      </g>
     </g>
    </g>
    <g id="ytick_20">
     <g id="line2d_20">
      <path d="M 220.583906 289.218206 
L 890.183906 289.218206 
" clip-path="url(#pc6d151fa55)" style="fill: none; stroke: #cccccc; stroke-linecap: round"/>
     </g>
     <g id="text_25">
      <!-- Verizon -->
      <g style="fill: #262626" transform="translate(174.39375 293.155003) scale(0.11 -0.11)">
       <defs>
        <path id="ArialMT-56" d="M 1803 0 
L 28 4581 
L 684 4581 
L 1875 1253 
Q 2019 853 2116 503 
Q 2222 878 2363 1253 
L 3600 4581 
L 4219 4581 
L 2425 0 
L 1803 0 
z
" transform="scale(0.015625)"/>
       </defs>
       <use xlink:href="#ArialMT-56"/>
       <use xlink:href="#ArialMT-65" x="61.199219"/>
       <use xlink:href="#ArialMT-72" x="116.814453"/>
       <use xlink:href="#ArialMT-69" x="150.115234"/>
       <use xlink:href="#ArialMT-7a" x="172.332031"/>
       <use xlink:href="#ArialMT-6f" x="222.332031"/>
       <use xlink:href="#ArialMT-6e" x="277.947266"/>
      </g>
     </g>
    </g>
    <g id="ytick_21">
     <g id="line2d_21">
      <path d="M 220.583906 302.224657 
L 890.183906 302.224657 
" clip-path="url(#pc6d151fa55)" style="fill: none; stroke: #cccccc; stroke-linecap: round"/>
     </g>
     <g id="text_26">
      <!-- HomeDepot -->
      <g style="fill: #262626" transform="translate(152.392031 306.161454) scale(0.11 -0.11)">
       <use xlink:href="#ArialMT-48"/>
       <use xlink:href="#ArialMT-6f" x="72.216797"/>
       <use xlink:href="#ArialMT-6d" x="127.832031"/>
       <use xlink:href="#ArialMT-65" x="211.132812"/>
       <use xlink:href="#ArialMT-44" x="266.748047"/>
       <use xlink:href="#ArialMT-65" x="338.964844"/>
       <use xlink:href="#ArialMT-70" x="394.580078"/>
       <use xlink:href="#ArialMT-6f" x="450.195312"/>
       <use xlink:href="#ArialMT-74" x="505.810547"/>
      </g>
     </g>
    </g>
    <g id="ytick_22">
     <g id="line2d_22">
      <path d="M 220.583906 315.231109 
L 890.183906 315.231109 
" clip-path="url(#pc6d151fa55)" style="fill: none; stroke: #cccccc; stroke-linecap: round"/>
     </g>
     <g id="text_27">
      <!-- FIFA -->
      <g style="fill: #262626" transform="translate(187.858438 319.167906) scale(0.11 -0.11)">
       <use xlink:href="#ArialMT-46"/>
       <use xlink:href="#ArialMT-49" x="61.083984"/>
       <use xlink:href="#ArialMT-46" x="88.867188"/>
       <use xlink:href="#ArialMT-41" x="144.451172"/>
      </g>
     </g>
    </g>
    <g id="ytick_23">
     <g id="line2d_23">
      <path d="M 220.583906 328.23756 
L 890.183906 328.23756 
" clip-path="url(#pc6d151fa55)" style="fill: none; stroke: #cccccc; stroke-linecap: round"/>
     </g>
     <g id="text_28">
      <!-- RedDeadRedemption(RDR) -->
      <g style="fill: #262626" transform="translate(74.144219 332.241389) scale(0.11 -0.11)">
       <defs>
        <path id="ArialMT-52" d="M 503 0 
L 503 4581 
L 2534 4581 
Q 3147 4581 3465 4457 
Q 3784 4334 3975 4021 
Q 4166 3709 4166 3331 
Q 4166 2844 3850 2509 
Q 3534 2175 2875 2084 
Q 3116 1969 3241 1856 
Q 3506 1613 3744 1247 
L 4541 0 
L 3778 0 
L 3172 953 
Q 2906 1366 2734 1584 
Q 2563 1803 2427 1890 
Q 2291 1978 2150 2013 
Q 2047 2034 1813 2034 
L 1109 2034 
L 1109 0 
L 503 0 
z
M 1109 2559 
L 2413 2559 
Q 2828 2559 3062 2645 
Q 3297 2731 3419 2920 
Q 3541 3109 3541 3331 
Q 3541 3656 3305 3865 
Q 3069 4075 2559 4075 
L 1109 4075 
L 1109 2559 
z
" transform="scale(0.015625)"/>
       </defs>
       <use xlink:href="#ArialMT-52"/>
       <use xlink:href="#ArialMT-65" x="72.216797"/>
       <use xlink:href="#ArialMT-64" x="127.832031"/>
       <use xlink:href="#ArialMT-44" x="183.447266"/>
       <use xlink:href="#ArialMT-65" x="255.664062"/>
       <use xlink:href="#ArialMT-61" x="311.279297"/>
       <use xlink:href="#ArialMT-64" x="366.894531"/>
       <use xlink:href="#ArialMT-52" x="422.509766"/>
       <use xlink:href="#ArialMT-65" x="494.726562"/>
       <use xlink:href="#ArialMT-64" x="550.341797"/>
       <use xlink:href="#ArialMT-65" x="605.957031"/>
       <use xlink:href="#ArialMT-6d" x="661.572266"/>
       <use xlink:href="#ArialMT-70" x="744.873047"/>
       <use xlink:href="#ArialMT-74" x="800.488281"/>
       <use xlink:href="#ArialMT-69" x="828.271484"/>
       <use xlink:href="#ArialMT-6f" x="850.488281"/>
       <use xlink:href="#ArialMT-6e" x="906.103516"/>
       <use xlink:href="#ArialMT-28" x="961.71875"/>
       <use xlink:href="#ArialMT-52" x="995.019531"/>
       <use xlink:href="#ArialMT-44" x="1067.236328"/>
       <use xlink:href="#ArialMT-52" x="1139.453125"/>
       <use xlink:href="#ArialMT-29" x="1211.669922"/>
      </g>
     </g>
    </g>
    <g id="ytick_24">
     <g id="line2d_24">
      <path d="M 220.583906 341.244012 
L 890.183906 341.244012 
" clip-path="url(#pc6d151fa55)" style="fill: none; stroke: #cccccc; stroke-linecap: round"/>
     </g>
     <g id="text_29">
      <!-- CallOfDuty -->
      <g style="fill: #262626" transform="translate(157.905781 345.251278) scale(0.11 -0.11)">
       <use xlink:href="#ArialMT-43"/>
       <use xlink:href="#ArialMT-61" x="72.216797"/>
       <use xlink:href="#ArialMT-6c" x="127.832031"/>
       <use xlink:href="#ArialMT-6c" x="150.048828"/>
       <use xlink:href="#ArialMT-4f" x="172.265625"/>
       <use xlink:href="#ArialMT-66" x="250.048828"/>
       <use xlink:href="#ArialMT-44" x="277.832031"/>
       <use xlink:href="#ArialMT-75" x="350.048828"/>
       <use xlink:href="#ArialMT-74" x="405.664062"/>
       <use xlink:href="#ArialMT-79" x="433.447266"/>
      </g>
     </g>
    </g>
    <g id="ytick_25">
     <g id="line2d_25">
      <path d="M 220.583906 354.250464 
L 890.183906 354.250464 
" clip-path="url(#pc6d151fa55)" style="fill: none; stroke: #cccccc; stroke-linecap: round"/>
     </g>
     <g id="text_30">
      <!-- TomClancysRainbowSix -->
      <g style="fill: #262626" transform="translate(93.105469 358.254292) scale(0.11 -0.11)">
       <defs>
        <path id="ArialMT-54" d="M 1659 0 
L 1659 4041 
L 150 4041 
L 150 4581 
L 3781 4581 
L 3781 4041 
L 2266 4041 
L 2266 0 
L 1659 0 
z
" transform="scale(0.015625)"/>
       </defs>
       <use xlink:href="#ArialMT-54"/>
       <use xlink:href="#ArialMT-6f" x="49.958984"/>
       <use xlink:href="#ArialMT-6d" x="105.574219"/>
       <use xlink:href="#ArialMT-43" x="188.875"/>
       <use xlink:href="#ArialMT-6c" x="261.091797"/>
       <use xlink:href="#ArialMT-61" x="283.308594"/>
       <use xlink:href="#ArialMT-6e" x="338.923828"/>
       <use xlink:href="#ArialMT-63" x="394.539062"/>
       <use xlink:href="#ArialMT-79" x="444.539062"/>
       <use xlink:href="#ArialMT-73" x="494.539062"/>
       <use xlink:href="#ArialMT-52" x="544.539062"/>
       <use xlink:href="#ArialMT-61" x="616.755859"/>
       <use xlink:href="#ArialMT-69" x="672.371094"/>
       <use xlink:href="#ArialMT-6e" x="694.587891"/>
       <use xlink:href="#ArialMT-62" x="750.203125"/>
       <use xlink:href="#ArialMT-6f" x="805.818359"/>
       <use xlink:href="#ArialMT-77" x="861.433594"/>
       <use xlink:href="#ArialMT-53" x="933.650391"/>
       <use xlink:href="#ArialMT-69" x="1000.349609"/>
       <use xlink:href="#ArialMT-78" x="1022.566406"/>
      </g>
     </g>
    </g>
    <g id="ytick_26">
     <g id="line2d_26">
      <path d="M 220.583906 367.256915 
L 890.183906 367.256915 
" clip-path="url(#pc6d151fa55)" style="fill: none; stroke: #cccccc; stroke-linecap: round"/>
     </g>
     <g id="text_31">
      <!-- Facebook -->
      <g style="fill: #262626" transform="translate(162.780156 371.193712) scale(0.11 -0.11)">
       <use xlink:href="#ArialMT-46"/>
       <use xlink:href="#ArialMT-61" x="61.083984"/>
       <use xlink:href="#ArialMT-63" x="116.699219"/>
       <use xlink:href="#ArialMT-65" x="166.699219"/>
       <use xlink:href="#ArialMT-62" x="222.314453"/>
       <use xlink:href="#ArialMT-6f" x="277.929688"/>
       <use xlink:href="#ArialMT-6f" x="333.544922"/>
       <use xlink:href="#ArialMT-6b" x="389.160156"/>
      </g>
     </g>
    </g>
    <g id="ytick_27">
     <g id="line2d_27">
      <path d="M 220.583906 380.263367 
L 890.183906 380.263367 
" clip-path="url(#pc6d151fa55)" style="fill: none; stroke: #cccccc; stroke-linecap: round"/>
     </g>
     <g id="text_32">
      <!-- GrandTheftAuto(GTA) -->
      <g style="fill: #262626" transform="translate(103.696406 384.267195) scale(0.11 -0.11)">
       <use xlink:href="#ArialMT-47"/>
       <use xlink:href="#ArialMT-72" x="77.783203"/>
       <use xlink:href="#ArialMT-61" x="111.083984"/>
       <use xlink:href="#ArialMT-6e" x="166.699219"/>
       <use xlink:href="#ArialMT-64" x="222.314453"/>
       <use xlink:href="#ArialMT-54" x="277.929688"/>
       <use xlink:href="#ArialMT-68" x="339.013672"/>
       <use xlink:href="#ArialMT-65" x="394.628906"/>
       <use xlink:href="#ArialMT-66" x="450.244141"/>
       <use xlink:href="#ArialMT-74" x="478.027344"/>
       <use xlink:href="#ArialMT-41" x="505.810547"/>
       <use xlink:href="#ArialMT-75" x="572.509766"/>
       <use xlink:href="#ArialMT-74" x="628.125"/>
       <use xlink:href="#ArialMT-6f" x="655.908203"/>
       <use xlink:href="#ArialMT-28" x="711.523438"/>
       <use xlink:href="#ArialMT-47" x="744.824219"/>
       <use xlink:href="#ArialMT-54" x="822.607422"/>
       <use xlink:href="#ArialMT-41" x="876.316406"/>
       <use xlink:href="#ArialMT-29" x="943.015625"/>
      </g>
     </g>
    </g>
    <g id="ytick_28">
     <g id="line2d_28">
      <path d="M 220.583906 393.269819 
L 890.183906 393.269819 
" clip-path="url(#pc6d151fa55)" style="fill: none; stroke: #cccccc; stroke-linecap: round"/>
     </g>
     <g id="text_33">
      <!-- MaddenNFL -->
      <g style="fill: #262626" transform="translate(150.556406 397.206615) scale(0.11 -0.11)">
       <use xlink:href="#ArialMT-4d"/>
       <use xlink:href="#ArialMT-61" x="83.300781"/>
       <use xlink:href="#ArialMT-64" x="138.916016"/>
       <use xlink:href="#ArialMT-64" x="194.53125"/>
       <use xlink:href="#ArialMT-65" x="250.146484"/>
       <use xlink:href="#ArialMT-6e" x="305.761719"/>
       <use xlink:href="#ArialMT-4e" x="361.376953"/>
       <use xlink:href="#ArialMT-46" x="433.59375"/>
       <use xlink:href="#ArialMT-4c" x="494.677734"/>
      </g>
     </g>
    </g>
    <g id="ytick_29">
     <g id="line2d_29">
      <path d="M 220.583906 406.27627 
L 890.183906 406.27627 
" clip-path="url(#pc6d151fa55)" style="fill: none; stroke: #cccccc; stroke-linecap: round"/>
     </g>
     <g id="text_34">
      <!-- johnson&amp;johnson -->
      <g style="fill: #262626" transform="translate(126.688125 410.280098) scale(0.11 -0.11)">
       <defs>
        <path id="ArialMT-6a" d="M 419 3928 
L 419 4581 
L 981 4581 
L 981 3928 
L 419 3928 
z
M -294 -1288 
L -188 -809 
Q -19 -853 78 -853 
Q 250 -853 334 -739 
Q 419 -625 419 -169 
L 419 3319 
L 981 3319 
L 981 -181 
Q 981 -794 822 -1034 
Q 619 -1347 147 -1347 
Q -81 -1347 -294 -1288 
z
" transform="scale(0.015625)"/>
        <path id="ArialMT-26" d="M 3041 541 
Q 2763 231 2434 76 
Q 2106 -78 1725 -78 
Q 1022 -78 609 397 
Q 275 784 275 1263 
Q 275 1688 548 2030 
Q 822 2372 1366 2631 
Q 1056 2988 953 3209 
Q 850 3431 850 3638 
Q 850 4050 1173 4354 
Q 1497 4659 1988 4659 
Q 2456 4659 2754 4371 
Q 3053 4084 3053 3681 
Q 3053 3028 2188 2566 
L 3009 1519 
Q 3150 1794 3228 2156 
L 3813 2031 
Q 3663 1431 3406 1044 
Q 3722 625 4122 341 
L 3744 -106 
Q 3403 113 3041 541 
z
M 1897 2928 
Q 2263 3144 2370 3306 
Q 2478 3469 2478 3666 
Q 2478 3900 2329 4048 
Q 2181 4197 1959 4197 
Q 1731 4197 1579 4050 
Q 1428 3903 1428 3691 
Q 1428 3584 1483 3467 
Q 1538 3350 1647 3219 
L 1897 2928 
z
M 2688 984 
L 1656 2263 
Q 1200 1991 1040 1758 
Q 881 1525 881 1297 
Q 881 1019 1103 719 
Q 1325 419 1731 419 
Q 1984 419 2254 576 
Q 2525 734 2688 984 
z
" transform="scale(0.015625)"/>
       </defs>
       <use xlink:href="#ArialMT-6a"/>
       <use xlink:href="#ArialMT-6f" x="22.216797"/>
       <use xlink:href="#ArialMT-68" x="77.832031"/>
       <use xlink:href="#ArialMT-6e" x="133.447266"/>
       <use xlink:href="#ArialMT-73" x="189.0625"/>
       <use xlink:href="#ArialMT-6f" x="239.0625"/>
       <use xlink:href="#ArialMT-6e" x="294.677734"/>
       <use xlink:href="#ArialMT-26" x="350.292969"/>
       <use xlink:href="#ArialMT-6a" x="416.992188"/>
       <use xlink:href="#ArialMT-6f" x="439.208984"/>
       <use xlink:href="#ArialMT-68" x="494.824219"/>
       <use xlink:href="#ArialMT-6e" x="550.439453"/>
       <use xlink:href="#ArialMT-73" x="606.054688"/>
       <use xlink:href="#ArialMT-6f" x="656.054688"/>
       <use xlink:href="#ArialMT-6e" x="711.669922"/>
      </g>
     </g>
    </g>
    <g id="ytick_30">
     <g id="line2d_30">
      <path d="M 220.583906 419.282722 
L 890.183906 419.282722 
" clip-path="url(#pc6d151fa55)" style="fill: none; stroke: #cccccc; stroke-linecap: round"/>
     </g>
     <g id="text_35">
      <!-- Cyberpunk2077 -->
      <g style="fill: #262626" transform="translate(133.423906 423.28655) scale(0.11 -0.11)">
       <defs>
        <path id="ArialMT-30" d="M 266 2259 
Q 266 3072 433 3567 
Q 600 4063 929 4331 
Q 1259 4600 1759 4600 
Q 2128 4600 2406 4451 
Q 2684 4303 2865 4023 
Q 3047 3744 3150 3342 
Q 3253 2941 3253 2259 
Q 3253 1453 3087 958 
Q 2922 463 2592 192 
Q 2263 -78 1759 -78 
Q 1097 -78 719 397 
Q 266 969 266 2259 
z
M 844 2259 
Q 844 1131 1108 757 
Q 1372 384 1759 384 
Q 2147 384 2411 759 
Q 2675 1134 2675 2259 
Q 2675 3391 2411 3762 
Q 2147 4134 1753 4134 
Q 1366 4134 1134 3806 
Q 844 3388 844 2259 
z
" transform="scale(0.015625)"/>
        <path id="ArialMT-37" d="M 303 3981 
L 303 4522 
L 3269 4522 
L 3269 4084 
Q 2831 3619 2401 2847 
Q 1972 2075 1738 1259 
Q 1569 684 1522 0 
L 944 0 
Q 953 541 1156 1306 
Q 1359 2072 1739 2783 
Q 2119 3494 2547 3981 
L 303 3981 
z
" transform="scale(0.015625)"/>
       </defs>
       <use xlink:href="#ArialMT-43"/>
       <use xlink:href="#ArialMT-79" x="72.216797"/>
       <use xlink:href="#ArialMT-62" x="122.216797"/>
       <use xlink:href="#ArialMT-65" x="177.832031"/>
       <use xlink:href="#ArialMT-72" x="233.447266"/>
       <use xlink:href="#ArialMT-70" x="266.748047"/>
       <use xlink:href="#ArialMT-75" x="322.363281"/>
       <use xlink:href="#ArialMT-6e" x="377.978516"/>
       <use xlink:href="#ArialMT-6b" x="433.59375"/>
       <use xlink:href="#ArialMT-32" x="483.59375"/>
       <use xlink:href="#ArialMT-30" x="539.208984"/>
       <use xlink:href="#ArialMT-37" x="594.824219"/>
       <use xlink:href="#ArialMT-37" x="650.439453"/>
      </g>
     </g>
    </g>
    <g id="ytick_31">
     <g id="line2d_31">
      <path d="M 220.583906 432.289173 
L 890.183906 432.289173 
" clip-path="url(#pc6d151fa55)" style="fill: none; stroke: #cccccc; stroke-linecap: round"/>
     </g>
     <g id="text_36">
      <!-- TomClancysGhostRecon -->
      <g style="fill: #262626" transform="translate(90.046094 436.293002) scale(0.11 -0.11)">
       <use xlink:href="#ArialMT-54"/>
       <use xlink:href="#ArialMT-6f" x="49.958984"/>
       <use xlink:href="#ArialMT-6d" x="105.574219"/>
       <use xlink:href="#ArialMT-43" x="188.875"/>
       <use xlink:href="#ArialMT-6c" x="261.091797"/>
       <use xlink:href="#ArialMT-61" x="283.308594"/>
       <use xlink:href="#ArialMT-6e" x="338.923828"/>
       <use xlink:href="#ArialMT-63" x="394.539062"/>
       <use xlink:href="#ArialMT-79" x="444.539062"/>
       <use xlink:href="#ArialMT-73" x="494.539062"/>
       <use xlink:href="#ArialMT-47" x="544.539062"/>
       <use xlink:href="#ArialMT-68" x="622.322266"/>
       <use xlink:href="#ArialMT-6f" x="677.9375"/>
       <use xlink:href="#ArialMT-73" x="733.552734"/>
       <use xlink:href="#ArialMT-74" x="783.552734"/>
       <use xlink:href="#ArialMT-52" x="811.335938"/>
       <use xlink:href="#ArialMT-65" x="883.552734"/>
       <use xlink:href="#ArialMT-63" x="939.167969"/>
       <use xlink:href="#ArialMT-6f" x="989.167969"/>
       <use xlink:href="#ArialMT-6e" x="1044.783203"/>
      </g>
     </g>
    </g>
    <g id="ytick_32">
     <g id="line2d_32">
      <path d="M 220.583906 445.295625 
L 890.183906 445.295625 
" clip-path="url(#pc6d151fa55)" style="fill: none; stroke: #cccccc; stroke-linecap: round"/>
     </g>
     <g id="text_37">
      <!-- Nvidia -->
      <g style="fill: #262626" transform="translate(180.517656 449.232422) scale(0.11 -0.11)">
       <use xlink:href="#ArialMT-4e"/>
       <use xlink:href="#ArialMT-76" x="72.216797"/>
       <use xlink:href="#ArialMT-69" x="122.216797"/>
       <use xlink:href="#ArialMT-64" x="144.433594"/>
       <use xlink:href="#ArialMT-69" x="200.048828"/>
       <use xlink:href="#ArialMT-61" x="222.265625"/>
      </g>
     </g>
    </g>
    <g id="text_38">
     <!-- Branch -->
     <g style="fill: #262626" transform="translate(15.789375 262.705312) rotate(-90) scale(0.12 -0.12)">
      <use xlink:href="#ArialMT-42"/>
      <use xlink:href="#ArialMT-72" x="66.699219"/>
      <use xlink:href="#ArialMT-61" x="100"/>
      <use xlink:href="#ArialMT-6e" x="155.615234"/>
      <use xlink:href="#ArialMT-63" x="211.230469"/>
      <use xlink:href="#ArialMT-68" x="261.230469"/>
     </g>
    </g>
   </g>
   <g id="patch_3">
    <path d="M 237.323906 133.140786 
L 371.243906 133.140786 
L 371.243906 328.23756 
L 237.323906 328.23756 
L 237.323906 133.140786 
z
" clip-path="url(#pc6d151fa55)" style="fill: #5875a4; stroke: #4c4c4c; stroke-linejoin: miter"/>
   </g>
   <g id="line2d_33">
    <path d="M 304.283906 133.140786 
L 304.283906 42.095625 
" clip-path="url(#pc6d151fa55)" style="fill: none; stroke: #4c4c4c"/>
   </g>
   <g id="line2d_34">
    <path d="M 304.283906 328.23756 
L 304.283906 445.295625 
" clip-path="url(#pc6d151fa55)" style="fill: none; stroke: #4c4c4c"/>
   </g>
   <g id="line2d_35">
    <path d="M 270.803906 42.095625 
L 337.763906 42.095625 
" clip-path="url(#pc6d151fa55)" style="fill: none; stroke: #4c4c4c; stroke-linecap: round"/>
   </g>
   <g id="line2d_36">
    <path d="M 270.803906 445.295625 
L 337.763906 445.295625 
" clip-path="url(#pc6d151fa55)" style="fill: none; stroke: #4c4c4c; stroke-linecap: round"/>
   </g>
   <g id="line2d_37"/>
   <g id="patch_4">
    <path d="M 404.723906 146.147238 
L 538.643906 146.147238 
L 538.643906 354.250464 
L 404.723906 354.250464 
L 404.723906 146.147238 
z
" clip-path="url(#pc6d151fa55)" style="fill: #5875a4; stroke: #4c4c4c; stroke-linejoin: miter"/>
   </g>
   <g id="line2d_38">
    <path d="M 471.683906 146.147238 
L 471.683906 42.095625 
" clip-path="url(#pc6d151fa55)" style="fill: none; stroke: #4c4c4c"/>
   </g>
   <g id="line2d_39">
    <path d="M 471.683906 354.250464 
L 471.683906 445.295625 
" clip-path="url(#pc6d151fa55)" style="fill: none; stroke: #4c4c4c"/>
   </g>
   <g id="line2d_40">
    <path d="M 438.203906 42.095625 
L 505.163906 42.095625 
" clip-path="url(#pc6d151fa55)" style="fill: none; stroke: #4c4c4c; stroke-linecap: round"/>
   </g>
   <g id="line2d_41">
    <path d="M 438.203906 445.295625 
L 505.163906 445.295625 
" clip-path="url(#pc6d151fa55)" style="fill: none; stroke: #4c4c4c; stroke-linecap: round"/>
   </g>
   <g id="line2d_42"/>
   <g id="patch_5">
    <path d="M 572.123906 159.15369 
L 706.043906 159.15369 
L 706.043906 367.256915 
L 572.123906 367.256915 
L 572.123906 159.15369 
z
" clip-path="url(#pc6d151fa55)" style="fill: #5875a4; stroke: #4c4c4c; stroke-linejoin: miter"/>
   </g>
   <g id="line2d_43">
    <path d="M 639.083906 159.15369 
L 639.083906 42.095625 
" clip-path="url(#pc6d151fa55)" style="fill: none; stroke: #4c4c4c"/>
   </g>
   <g id="line2d_44">
    <path d="M 639.083906 367.256915 
L 639.083906 445.295625 
" clip-path="url(#pc6d151fa55)" style="fill: none; stroke: #4c4c4c"/>
   </g>
   <g id="line2d_45">
    <path d="M 605.603906 42.095625 
L 672.563906 42.095625 
" clip-path="url(#pc6d151fa55)" style="fill: none; stroke: #4c4c4c; stroke-linecap: round"/>
   </g>
   <g id="line2d_46">
    <path d="M 605.603906 445.295625 
L 672.563906 445.295625 
" clip-path="url(#pc6d151fa55)" style="fill: none; stroke: #4c4c4c; stroke-linecap: round"/>
   </g>
   <g id="line2d_47"/>
   <g id="patch_6">
    <path d="M 739.523906 133.140786 
L 873.443906 133.140786 
L 873.443906 328.23756 
L 739.523906 328.23756 
L 739.523906 133.140786 
z
" clip-path="url(#pc6d151fa55)" style="fill: #5875a4; stroke: #4c4c4c; stroke-linejoin: miter"/>
   </g>
   <g id="line2d_48">
    <path d="M 806.483906 133.140786 
L 806.483906 42.095625 
" clip-path="url(#pc6d151fa55)" style="fill: none; stroke: #4c4c4c"/>
   </g>
   <g id="line2d_49">
    <path d="M 806.483906 328.23756 
L 806.483906 445.295625 
" clip-path="url(#pc6d151fa55)" style="fill: none; stroke: #4c4c4c"/>
   </g>
   <g id="line2d_50">
    <path d="M 773.003906 42.095625 
L 839.963906 42.095625 
" clip-path="url(#pc6d151fa55)" style="fill: none; stroke: #4c4c4c; stroke-linecap: round"/>
   </g>
   <g id="line2d_51">
    <path d="M 773.003906 445.295625 
L 839.963906 445.295625 
" clip-path="url(#pc6d151fa55)" style="fill: none; stroke: #4c4c4c; stroke-linecap: round"/>
   </g>
   <g id="line2d_52"/>
   <g id="line2d_53">
    <path d="M 237.323906 224.185948 
L 371.243906 224.185948 
" clip-path="url(#pc6d151fa55)" style="fill: none; stroke: #4c4c4c"/>
   </g>
   <g id="line2d_54">
    <path d="M 404.723906 237.192399 
L 538.643906 237.192399 
" clip-path="url(#pc6d151fa55)" style="fill: none; stroke: #4c4c4c"/>
   </g>
   <g id="line2d_55">
    <path d="M 572.123906 276.211754 
L 706.043906 276.211754 
" clip-path="url(#pc6d151fa55)" style="fill: none; stroke: #4c4c4c"/>
   </g>
   <g id="line2d_56">
    <path d="M 739.523906 237.192399 
L 873.443906 237.192399 
" clip-path="url(#pc6d151fa55)" style="fill: none; stroke: #4c4c4c"/>
   </g>
   <g id="patch_7">
    <path d="M 220.583906 465.455625 
L 220.583906 21.935625 
" style="fill: none; stroke: #cccccc; stroke-width: 1.25; stroke-linejoin: miter; stroke-linecap: square"/>
   </g>
   <g id="patch_8">
    <path d="M 890.183906 465.455625 
L 890.183906 21.935625 
" style="fill: none; stroke: #cccccc; stroke-width: 1.25; stroke-linejoin: miter; stroke-linecap: square"/>
   </g>
   <g id="patch_9">
    <path d="M 220.583906 465.455625 
L 890.183906 465.455625 
" style="fill: none; stroke: #cccccc; stroke-width: 1.25; stroke-linejoin: miter; stroke-linecap: square"/>
   </g>
   <g id="patch_10">
    <path d="M 220.583906 21.935625 
L 890.183906 21.935625 
" style="fill: none; stroke: #cccccc; stroke-width: 1.25; stroke-linejoin: miter; stroke-linecap: square"/>
   </g>
   <g id="text_39">
    <!-- Box Plot of Tweets Distribution per Branch and Sentiment -->
    <g style="fill: #262626" transform="translate(402.751406 15.935625) scale(0.12 -0.12)">
     <defs>
      <path id="ArialMT-20" transform="scale(0.015625)"/>
     </defs>
     <use xlink:href="#ArialMT-42"/>
     <use xlink:href="#ArialMT-6f" x="66.699219"/>
     <use xlink:href="#ArialMT-78" x="122.314453"/>
     <use xlink:href="#ArialMT-20" x="172.314453"/>
     <use xlink:href="#ArialMT-50" x="200.097656"/>
     <use xlink:href="#ArialMT-6c" x="266.796875"/>
     <use xlink:href="#ArialMT-6f" x="289.013672"/>
     <use xlink:href="#ArialMT-74" x="344.628906"/>
     <use xlink:href="#ArialMT-20" x="372.412109"/>
     <use xlink:href="#ArialMT-6f" x="400.195312"/>
     <use xlink:href="#ArialMT-66" x="455.810547"/>
     <use xlink:href="#ArialMT-20" x="483.59375"/>
     <use xlink:href="#ArialMT-54" x="509.626953"/>
     <use xlink:href="#ArialMT-77" x="565.210938"/>
     <use xlink:href="#ArialMT-65" x="637.427734"/>
     <use xlink:href="#ArialMT-65" x="693.042969"/>
     <use xlink:href="#ArialMT-74" x="748.658203"/>
     <use xlink:href="#ArialMT-73" x="776.441406"/>
     <use xlink:href="#ArialMT-20" x="826.441406"/>
     <use xlink:href="#ArialMT-44" x="854.224609"/>
     <use xlink:href="#ArialMT-69" x="926.441406"/>
     <use xlink:href="#ArialMT-73" x="948.658203"/>
     <use xlink:href="#ArialMT-74" x="998.658203"/>
     <use xlink:href="#ArialMT-72" x="1026.441406"/>
     <use xlink:href="#ArialMT-69" x="1059.742188"/>
     <use xlink:href="#ArialMT-62" x="1081.958984"/>
     <use xlink:href="#ArialMT-75" x="1137.574219"/>
     <use xlink:href="#ArialMT-74" x="1193.189453"/>
     <use xlink:href="#ArialMT-69" x="1220.972656"/>
     <use xlink:href="#ArialMT-6f" x="1243.189453"/>
     <use xlink:href="#ArialMT-6e" x="1298.804688"/>
     <use xlink:href="#ArialMT-20" x="1354.419922"/>
     <use xlink:href="#ArialMT-70" x="1382.203125"/>
     <use xlink:href="#ArialMT-65" x="1437.818359"/>
     <use xlink:href="#ArialMT-72" x="1493.433594"/>
     <use xlink:href="#ArialMT-20" x="1526.734375"/>
     <use xlink:href="#ArialMT-42" x="1554.517578"/>
     <use xlink:href="#ArialMT-72" x="1621.216797"/>
     <use xlink:href="#ArialMT-61" x="1654.517578"/>
     <use xlink:href="#ArialMT-6e" x="1710.132812"/>
     <use xlink:href="#ArialMT-63" x="1765.748047"/>
     <use xlink:href="#ArialMT-68" x="1815.748047"/>
     <use xlink:href="#ArialMT-20" x="1871.363281"/>
     <use xlink:href="#ArialMT-61" x="1899.146484"/>
     <use xlink:href="#ArialMT-6e" x="1954.761719"/>
     <use xlink:href="#ArialMT-64" x="2010.376953"/>
     <use xlink:href="#ArialMT-20" x="2065.992188"/>
     <use xlink:href="#ArialMT-53" x="2093.775391"/>
     <use xlink:href="#ArialMT-65" x="2160.474609"/>
     <use xlink:href="#ArialMT-6e" x="2216.089844"/>
     <use xlink:href="#ArialMT-74" x="2271.705078"/>
     <use xlink:href="#ArialMT-69" x="2299.488281"/>
     <use xlink:href="#ArialMT-6d" x="2321.705078"/>
     <use xlink:href="#ArialMT-65" x="2405.005859"/>
     <use xlink:href="#ArialMT-6e" x="2460.621094"/>
     <use xlink:href="#ArialMT-74" x="2516.236328"/>
    </g>
   </g>
  </g>
 </g>
 <defs>
  <clipPath id="pc6d151fa55">
   <rect x="220.583906" y="21.935625" width="669.6" height="443.52"/>
  </clipPath>
 </defs>
</svg>
