<?xml version="1.0" encoding="utf-8" standalone="no"?>
<!DOCTYPE svg PUBLIC "-//W3C//DTD SVG 1.1//EN"
  "http://www.w3.org/Graphics/SVG/1.1/DTD/svg11.dtd">
<svg xmlns:xlink="http://www.w3.org/1999/xlink" width="435.893125pt" height="329.635594pt" viewBox="0 0 435.893125 329.635594" xmlns="http://www.w3.org/2000/svg" version="1.1">
 <metadata>
  <rdf:RDF xmlns:dc="http://purl.org/dc/elements/1.1/" xmlns:cc="http://creativecommons.org/ns#" xmlns:rdf="http://www.w3.org/1999/02/22-rdf-syntax-ns#">
   <cc:Work>
    <dc:type rdf:resource="http://purl.org/dc/dcmitype/StillImage"/>
    <dc:date>2024-06-06T17:55:47.620426</dc:date>
    <dc:format>image/svg+xml</dc:format>
    <dc:creator>
     <cc:Agent>
      <dc:title>Matplotlib v3.9.0, https://matplotlib.org/</dc:title>
     </cc:Agent>
    </dc:creator>
   </cc:Work>
  </rdf:RDF>
 </metadata>
 <defs>
  <style type="text/css">*{stroke-linejoin: round; stroke-linecap: butt}</style>
 </defs>
 <g id="figure_1">
  <g id="patch_1">
   <path d="M 0 329.635594 
L 435.893125 329.635594 
L 435.893125 0 
L 0 0 
z
" style="fill: #ffffff"/>
  </g>
  <g id="axes_1">
   <g id="patch_2">
    <path d="M 71.573125 287.901375 
L 428.693125 287.901375 
L 428.693125 21.789375 
L 71.573125 21.789375 
z
" style="fill: #ffffff"/>
   </g>
   <g id="matplotlib.axis_1">
    <g id="xtick_1">
     <g id="line2d_1">
      <path d="M 87.805852 287.901375 
L 87.805852 21.789375 
" clip-path="url(#p52fe4be9d7)" style="fill: none; stroke: #cccccc; stroke-linecap: round"/>
     </g>
     <g id="text_1">
      <!-- 0 -->
      <g style="fill: #262626" transform="translate(84.747337 305.274969) scale(0.11 -0.11)">
       <defs>
        <path id="ArialMT-30" d="M 266 2259 
Q 266 3072 433 3567 
Q 600 4063 929 4331 
Q 1259 4600 1759 4600 
Q 2128 4600 2406 4451 
Q 2684 4303 2865 4023 
Q 3047 3744 3150 3342 
Q 3253 2941 3253 2259 
Q 3253 1453 3087 958 
Q 2922 463 2592 192 
Q 2263 -78 1759 -78 
Q 1097 -78 719 397 
Q 266 969 266 2259 
z
M 844 2259 
Q 844 1131 1108 757 
Q 1372 384 1759 384 
Q 2147 384 2411 759 
Q 2675 1134 2675 2259 
Q 2675 3391 2411 3762 
Q 2147 4134 1753 4134 
Q 1366 4134 1134 3806 
Q 844 3388 844 2259 
z
" transform="scale(0.015625)"/>
       </defs>
       <use xlink:href="#ArialMT-30"/>
      </g>
     </g>
    </g>
    <g id="xtick_2">
     <g id="line2d_2">
      <path d="M 159.816886 287.901375 
L 159.816886 21.789375 
" clip-path="url(#p52fe4be9d7)" style="fill: none; stroke: #cccccc; stroke-linecap: round"/>
     </g>
     <g id="text_2">
      <!-- 5000 -->
      <g style="fill: #262626" transform="translate(147.582824 305.274969) scale(0.11 -0.11)">
       <defs>
        <path id="ArialMT-35" d="M 266 1200 
L 856 1250 
Q 922 819 1161 601 
Q 1400 384 1738 384 
Q 2144 384 2425 690 
Q 2706 997 2706 1503 
Q 2706 1984 2436 2262 
Q 2166 2541 1728 2541 
Q 1456 2541 1237 2417 
Q 1019 2294 894 2097 
L 366 2166 
L 809 4519 
L 3088 4519 
L 3088 3981 
L 1259 3981 
L 1013 2750 
Q 1425 3038 1878 3038 
Q 2478 3038 2890 2622 
Q 3303 2206 3303 1553 
Q 3303 931 2941 478 
Q 2500 -78 1738 -78 
Q 1113 -78 717 272 
Q 322 622 266 1200 
z
" transform="scale(0.015625)"/>
       </defs>
       <use xlink:href="#ArialMT-35"/>
       <use xlink:href="#ArialMT-30" x="55.615234"/>
       <use xlink:href="#ArialMT-30" x="111.230469"/>
       <use xlink:href="#ArialMT-30" x="166.845703"/>
      </g>
     </g>
    </g>
    <g id="xtick_3">
     <g id="line2d_3">
      <path d="M 231.82792 287.901375 
L 231.82792 21.789375 
" clip-path="url(#p52fe4be9d7)" style="fill: none; stroke: #cccccc; stroke-linecap: round"/>
     </g>
     <g id="text_3">
      <!-- 10000 -->
      <g style="fill: #262626" transform="translate(216.535342 305.274969) scale(0.11 -0.11)">
       <defs>
        <path id="ArialMT-31" d="M 2384 0 
L 1822 0 
L 1822 3584 
Q 1619 3391 1289 3197 
Q 959 3003 697 2906 
L 697 3450 
Q 1169 3672 1522 3987 
Q 1875 4303 2022 4600 
L 2384 4600 
L 2384 0 
z
" transform="scale(0.015625)"/>
       </defs>
       <use xlink:href="#ArialMT-31"/>
       <use xlink:href="#ArialMT-30" x="55.615234"/>
       <use xlink:href="#ArialMT-30" x="111.230469"/>
       <use xlink:href="#ArialMT-30" x="166.845703"/>
       <use xlink:href="#ArialMT-30" x="222.460938"/>
      </g>
     </g>
    </g>
    <g id="xtick_4">
     <g id="line2d_4">
      <path d="M 303.838954 287.901375 
L 303.838954 21.789375 
" clip-path="url(#p52fe4be9d7)" style="fill: none; stroke: #cccccc; stroke-linecap: round"/>
     </g>
     <g id="text_4">
      <!-- 15000 -->
      <g style="fill: #262626" transform="translate(288.546376 305.274969) scale(0.11 -0.11)">
       <use xlink:href="#ArialMT-31"/>
       <use xlink:href="#ArialMT-35" x="55.615234"/>
       <use xlink:href="#ArialMT-30" x="111.230469"/>
       <use xlink:href="#ArialMT-30" x="166.845703"/>
       <use xlink:href="#ArialMT-30" x="222.460938"/>
      </g>
     </g>
    </g>
    <g id="xtick_5">
     <g id="line2d_5">
      <path d="M 375.849988 287.901375 
L 375.849988 21.789375 
" clip-path="url(#p52fe4be9d7)" style="fill: none; stroke: #cccccc; stroke-linecap: round"/>
     </g>
     <g id="text_5">
      <!-- 20000 -->
      <g style="fill: #262626" transform="translate(360.55741 305.274969) scale(0.11 -0.11)">
       <defs>
        <path id="ArialMT-32" d="M 3222 541 
L 3222 0 
L 194 0 
Q 188 203 259 391 
Q 375 700 629 1000 
Q 884 1300 1366 1694 
Q 2113 2306 2375 2664 
Q 2638 3022 2638 3341 
Q 2638 3675 2398 3904 
Q 2159 4134 1775 4134 
Q 1369 4134 1125 3890 
Q 881 3647 878 3216 
L 300 3275 
Q 359 3922 746 4261 
Q 1134 4600 1788 4600 
Q 2447 4600 2831 4234 
Q 3216 3869 3216 3328 
Q 3216 3053 3103 2787 
Q 2991 2522 2730 2228 
Q 2469 1934 1863 1422 
Q 1356 997 1212 845 
Q 1069 694 975 541 
L 3222 541 
z
" transform="scale(0.015625)"/>
       </defs>
       <use xlink:href="#ArialMT-32"/>
       <use xlink:href="#ArialMT-30" x="55.615234"/>
       <use xlink:href="#ArialMT-30" x="111.230469"/>
       <use xlink:href="#ArialMT-30" x="166.845703"/>
       <use xlink:href="#ArialMT-30" x="222.460938"/>
      </g>
     </g>
    </g>
    <g id="text_6">
     <!-- Sentiment Counts -->
     <g style="fill: #262626" transform="translate(202.443438 320.050594) scale(0.12 -0.12)">
      <defs>
       <path id="ArialMT-53" d="M 288 1472 
L 859 1522 
Q 900 1178 1048 958 
Q 1197 738 1509 602 
Q 1822 466 2213 466 
Q 2559 466 2825 569 
Q 3091 672 3220 851 
Q 3350 1031 3350 1244 
Q 3350 1459 3225 1620 
Q 3100 1781 2813 1891 
Q 2628 1963 1997 2114 
Q 1366 2266 1113 2400 
Q 784 2572 623 2826 
Q 463 3081 463 3397 
Q 463 3744 659 4045 
Q 856 4347 1234 4503 
Q 1613 4659 2075 4659 
Q 2584 4659 2973 4495 
Q 3363 4331 3572 4012 
Q 3781 3694 3797 3291 
L 3216 3247 
Q 3169 3681 2898 3903 
Q 2628 4125 2100 4125 
Q 1550 4125 1298 3923 
Q 1047 3722 1047 3438 
Q 1047 3191 1225 3031 
Q 1400 2872 2139 2705 
Q 2878 2538 3153 2413 
Q 3553 2228 3743 1945 
Q 3934 1663 3934 1294 
Q 3934 928 3725 604 
Q 3516 281 3123 101 
Q 2731 -78 2241 -78 
Q 1619 -78 1198 103 
Q 778 284 539 648 
Q 300 1013 288 1472 
z
" transform="scale(0.015625)"/>
       <path id="ArialMT-65" d="M 2694 1069 
L 3275 997 
Q 3138 488 2766 206 
Q 2394 -75 1816 -75 
Q 1088 -75 661 373 
Q 234 822 234 1631 
Q 234 2469 665 2931 
Q 1097 3394 1784 3394 
Q 2450 3394 2872 2941 
Q 3294 2488 3294 1666 
Q 3294 1616 3291 1516 
L 816 1516 
Q 847 969 1125 678 
Q 1403 388 1819 388 
Q 2128 388 2347 550 
Q 2566 713 2694 1069 
z
M 847 1978 
L 2700 1978 
Q 2663 2397 2488 2606 
Q 2219 2931 1791 2931 
Q 1403 2931 1139 2672 
Q 875 2413 847 1978 
z
" transform="scale(0.015625)"/>
       <path id="ArialMT-6e" d="M 422 0 
L 422 3319 
L 928 3319 
L 928 2847 
Q 1294 3394 1984 3394 
Q 2284 3394 2536 3286 
Q 2788 3178 2913 3003 
Q 3038 2828 3088 2588 
Q 3119 2431 3119 2041 
L 3119 0 
L 2556 0 
L 2556 2019 
Q 2556 2363 2490 2533 
Q 2425 2703 2258 2804 
Q 2091 2906 1866 2906 
Q 1506 2906 1245 2678 
Q 984 2450 984 1813 
L 984 0 
L 422 0 
z
" transform="scale(0.015625)"/>
       <path id="ArialMT-74" d="M 1650 503 
L 1731 6 
Q 1494 -44 1306 -44 
Q 1000 -44 831 53 
Q 663 150 594 308 
Q 525 466 525 972 
L 525 2881 
L 113 2881 
L 113 3319 
L 525 3319 
L 525 4141 
L 1084 4478 
L 1084 3319 
L 1650 3319 
L 1650 2881 
L 1084 2881 
L 1084 941 
Q 1084 700 1114 631 
Q 1144 563 1211 522 
Q 1278 481 1403 481 
Q 1497 481 1650 503 
z
" transform="scale(0.015625)"/>
       <path id="ArialMT-69" d="M 425 3934 
L 425 4581 
L 988 4581 
L 988 3934 
L 425 3934 
z
M 425 0 
L 425 3319 
L 988 3319 
L 988 0 
L 425 0 
z
" transform="scale(0.015625)"/>
       <path id="ArialMT-6d" d="M 422 0 
L 422 3319 
L 925 3319 
L 925 2853 
Q 1081 3097 1340 3245 
Q 1600 3394 1931 3394 
Q 2300 3394 2536 3241 
Q 2772 3088 2869 2813 
Q 3263 3394 3894 3394 
Q 4388 3394 4653 3120 
Q 4919 2847 4919 2278 
L 4919 0 
L 4359 0 
L 4359 2091 
Q 4359 2428 4304 2576 
Q 4250 2725 4106 2815 
Q 3963 2906 3769 2906 
Q 3419 2906 3187 2673 
Q 2956 2441 2956 1928 
L 2956 0 
L 2394 0 
L 2394 2156 
Q 2394 2531 2256 2718 
Q 2119 2906 1806 2906 
Q 1569 2906 1367 2781 
Q 1166 2656 1075 2415 
Q 984 2175 984 1722 
L 984 0 
L 422 0 
z
" transform="scale(0.015625)"/>
       <path id="ArialMT-20" transform="scale(0.015625)"/>
       <path id="ArialMT-43" d="M 3763 1606 
L 4369 1453 
Q 4178 706 3683 314 
Q 3188 -78 2472 -78 
Q 1731 -78 1267 223 
Q 803 525 561 1097 
Q 319 1669 319 2325 
Q 319 3041 592 3573 
Q 866 4106 1370 4382 
Q 1875 4659 2481 4659 
Q 3169 4659 3637 4309 
Q 4106 3959 4291 3325 
L 3694 3184 
Q 3534 3684 3231 3912 
Q 2928 4141 2469 4141 
Q 1941 4141 1586 3887 
Q 1231 3634 1087 3207 
Q 944 2781 944 2328 
Q 944 1744 1114 1308 
Q 1284 872 1643 656 
Q 2003 441 2422 441 
Q 2931 441 3284 734 
Q 3638 1028 3763 1606 
z
" transform="scale(0.015625)"/>
       <path id="ArialMT-6f" d="M 213 1659 
Q 213 2581 725 3025 
Q 1153 3394 1769 3394 
Q 2453 3394 2887 2945 
Q 3322 2497 3322 1706 
Q 3322 1066 3130 698 
Q 2938 331 2570 128 
Q 2203 -75 1769 -75 
Q 1072 -75 642 372 
Q 213 819 213 1659 
z
M 791 1659 
Q 791 1022 1069 705 
Q 1347 388 1769 388 
Q 2188 388 2466 706 
Q 2744 1025 2744 1678 
Q 2744 2294 2464 2611 
Q 2184 2928 1769 2928 
Q 1347 2928 1069 2612 
Q 791 2297 791 1659 
z
" transform="scale(0.015625)"/>
       <path id="ArialMT-75" d="M 2597 0 
L 2597 488 
Q 2209 -75 1544 -75 
Q 1250 -75 995 37 
Q 741 150 617 320 
Q 494 491 444 738 
Q 409 903 409 1263 
L 409 3319 
L 972 3319 
L 972 1478 
Q 972 1038 1006 884 
Q 1059 663 1231 536 
Q 1403 409 1656 409 
Q 1909 409 2131 539 
Q 2353 669 2445 892 
Q 2538 1116 2538 1541 
L 2538 3319 
L 3100 3319 
L 3100 0 
L 2597 0 
z
" transform="scale(0.015625)"/>
       <path id="ArialMT-73" d="M 197 991 
L 753 1078 
Q 800 744 1014 566 
Q 1228 388 1613 388 
Q 2000 388 2187 545 
Q 2375 703 2375 916 
Q 2375 1106 2209 1216 
Q 2094 1291 1634 1406 
Q 1016 1563 777 1677 
Q 538 1791 414 1992 
Q 291 2194 291 2438 
Q 291 2659 392 2848 
Q 494 3038 669 3163 
Q 800 3259 1026 3326 
Q 1253 3394 1513 3394 
Q 1903 3394 2198 3281 
Q 2494 3169 2634 2976 
Q 2775 2784 2828 2463 
L 2278 2388 
Q 2241 2644 2061 2787 
Q 1881 2931 1553 2931 
Q 1166 2931 1000 2803 
Q 834 2675 834 2503 
Q 834 2394 903 2306 
Q 972 2216 1119 2156 
Q 1203 2125 1616 2013 
Q 2213 1853 2448 1751 
Q 2684 1650 2818 1456 
Q 2953 1263 2953 975 
Q 2953 694 2789 445 
Q 2625 197 2315 61 
Q 2006 -75 1616 -75 
Q 969 -75 630 194 
Q 291 463 197 991 
z
" transform="scale(0.015625)"/>
      </defs>
      <use xlink:href="#ArialMT-53"/>
      <use xlink:href="#ArialMT-65" x="66.699219"/>
      <use xlink:href="#ArialMT-6e" x="122.314453"/>
      <use xlink:href="#ArialMT-74" x="177.929688"/>
      <use xlink:href="#ArialMT-69" x="205.712891"/>
      <use xlink:href="#ArialMT-6d" x="227.929688"/>
      <use xlink:href="#ArialMT-65" x="311.230469"/>
      <use xlink:href="#ArialMT-6e" x="366.845703"/>
      <use xlink:href="#ArialMT-74" x="422.460938"/>
      <use xlink:href="#ArialMT-20" x="450.244141"/>
      <use xlink:href="#ArialMT-43" x="478.027344"/>
      <use xlink:href="#ArialMT-6f" x="550.244141"/>
      <use xlink:href="#ArialMT-75" x="605.859375"/>
      <use xlink:href="#ArialMT-6e" x="661.474609"/>
      <use xlink:href="#ArialMT-74" x="717.089844"/>
      <use xlink:href="#ArialMT-73" x="744.873047"/>
     </g>
    </g>
   </g>
   <g id="matplotlib.axis_2">
    <g id="ytick_1">
     <g id="line2d_6">
      <path d="M 71.573125 287.901375 
L 428.693125 287.901375 
" clip-path="url(#p52fe4be9d7)" style="fill: none; stroke: #cccccc; stroke-linecap: round"/>
     </g>
     <g id="text_7">
      <!-- 0.00000 -->
      <g style="fill: #262626" transform="translate(22.315 291.838172) scale(0.11 -0.11)">
       <defs>
        <path id="ArialMT-2e" d="M 581 0 
L 581 641 
L 1222 641 
L 1222 0 
L 581 0 
z
" transform="scale(0.015625)"/>
       </defs>
       <use xlink:href="#ArialMT-30"/>
       <use xlink:href="#ArialMT-2e" x="55.615234"/>
       <use xlink:href="#ArialMT-30" x="83.398438"/>
       <use xlink:href="#ArialMT-30" x="139.013672"/>
       <use xlink:href="#ArialMT-30" x="194.628906"/>
       <use xlink:href="#ArialMT-30" x="250.244141"/>
       <use xlink:href="#ArialMT-30" x="305.859375"/>
      </g>
     </g>
    </g>
    <g id="ytick_2">
     <g id="line2d_7">
      <path d="M 71.573125 239.484197 
L 428.693125 239.484197 
" clip-path="url(#p52fe4be9d7)" style="fill: none; stroke: #cccccc; stroke-linecap: round"/>
     </g>
     <g id="text_8">
      <!-- 0.00005 -->
      <g style="fill: #262626" transform="translate(22.315 243.420994) scale(0.11 -0.11)">
       <use xlink:href="#ArialMT-30"/>
       <use xlink:href="#ArialMT-2e" x="55.615234"/>
       <use xlink:href="#ArialMT-30" x="83.398438"/>
       <use xlink:href="#ArialMT-30" x="139.013672"/>
       <use xlink:href="#ArialMT-30" x="194.628906"/>
       <use xlink:href="#ArialMT-30" x="250.244141"/>
       <use xlink:href="#ArialMT-35" x="305.859375"/>
      </g>
     </g>
    </g>
    <g id="ytick_3">
     <g id="line2d_8">
      <path d="M 71.573125 191.06702 
L 428.693125 191.06702 
" clip-path="url(#p52fe4be9d7)" style="fill: none; stroke: #cccccc; stroke-linecap: round"/>
     </g>
     <g id="text_9">
      <!-- 0.00010 -->
      <g style="fill: #262626" transform="translate(22.315 195.003817) scale(0.11 -0.11)">
       <use xlink:href="#ArialMT-30"/>
       <use xlink:href="#ArialMT-2e" x="55.615234"/>
       <use xlink:href="#ArialMT-30" x="83.398438"/>
       <use xlink:href="#ArialMT-30" x="139.013672"/>
       <use xlink:href="#ArialMT-30" x="194.628906"/>
       <use xlink:href="#ArialMT-31" x="250.244141"/>
       <use xlink:href="#ArialMT-30" x="305.859375"/>
      </g>
     </g>
    </g>
    <g id="ytick_4">
     <g id="line2d_9">
      <path d="M 71.573125 142.649842 
L 428.693125 142.649842 
" clip-path="url(#p52fe4be9d7)" style="fill: none; stroke: #cccccc; stroke-linecap: round"/>
     </g>
     <g id="text_10">
      <!-- 0.00015 -->
      <g style="fill: #262626" transform="translate(22.315 146.586639) scale(0.11 -0.11)">
       <use xlink:href="#ArialMT-30"/>
       <use xlink:href="#ArialMT-2e" x="55.615234"/>
       <use xlink:href="#ArialMT-30" x="83.398438"/>
       <use xlink:href="#ArialMT-30" x="139.013672"/>
       <use xlink:href="#ArialMT-30" x="194.628906"/>
       <use xlink:href="#ArialMT-31" x="250.244141"/>
       <use xlink:href="#ArialMT-35" x="305.859375"/>
      </g>
     </g>
    </g>
    <g id="ytick_5">
     <g id="line2d_10">
      <path d="M 71.573125 94.232665 
L 428.693125 94.232665 
" clip-path="url(#p52fe4be9d7)" style="fill: none; stroke: #cccccc; stroke-linecap: round"/>
     </g>
     <g id="text_11">
      <!-- 0.00020 -->
      <g style="fill: #262626" transform="translate(22.315 98.169461) scale(0.11 -0.11)">
       <use xlink:href="#ArialMT-30"/>
       <use xlink:href="#ArialMT-2e" x="55.615234"/>
       <use xlink:href="#ArialMT-30" x="83.398438"/>
       <use xlink:href="#ArialMT-30" x="139.013672"/>
       <use xlink:href="#ArialMT-30" x="194.628906"/>
       <use xlink:href="#ArialMT-32" x="250.244141"/>
       <use xlink:href="#ArialMT-30" x="305.859375"/>
      </g>
     </g>
    </g>
    <g id="ytick_6">
     <g id="line2d_11">
      <path d="M 71.573125 45.815487 
L 428.693125 45.815487 
" clip-path="url(#p52fe4be9d7)" style="fill: none; stroke: #cccccc; stroke-linecap: round"/>
     </g>
     <g id="text_12">
      <!-- 0.00025 -->
      <g style="fill: #262626" transform="translate(22.315 49.752284) scale(0.11 -0.11)">
       <use xlink:href="#ArialMT-30"/>
       <use xlink:href="#ArialMT-2e" x="55.615234"/>
       <use xlink:href="#ArialMT-30" x="83.398438"/>
       <use xlink:href="#ArialMT-30" x="139.013672"/>
       <use xlink:href="#ArialMT-30" x="194.628906"/>
       <use xlink:href="#ArialMT-32" x="250.244141"/>
       <use xlink:href="#ArialMT-35" x="305.859375"/>
      </g>
     </g>
    </g>
    <g id="text_13">
     <!-- Density -->
     <g style="fill: #262626" transform="translate(15.789375 174.851625) rotate(-90) scale(0.12 -0.12)">
      <defs>
       <path id="ArialMT-44" d="M 494 0 
L 494 4581 
L 2072 4581 
Q 2606 4581 2888 4516 
Q 3281 4425 3559 4188 
Q 3922 3881 4101 3404 
Q 4281 2928 4281 2316 
Q 4281 1794 4159 1391 
Q 4038 988 3847 723 
Q 3656 459 3429 307 
Q 3203 156 2883 78 
Q 2563 0 2147 0 
L 494 0 
z
M 1100 541 
L 2078 541 
Q 2531 541 2789 625 
Q 3047 709 3200 863 
Q 3416 1078 3536 1442 
Q 3656 1806 3656 2325 
Q 3656 3044 3420 3430 
Q 3184 3816 2847 3947 
Q 2603 4041 2063 4041 
L 1100 4041 
L 1100 541 
z
" transform="scale(0.015625)"/>
       <path id="ArialMT-79" d="M 397 -1278 
L 334 -750 
Q 519 -800 656 -800 
Q 844 -800 956 -737 
Q 1069 -675 1141 -563 
Q 1194 -478 1313 -144 
Q 1328 -97 1363 -6 
L 103 3319 
L 709 3319 
L 1400 1397 
Q 1534 1031 1641 628 
Q 1738 1016 1872 1384 
L 2581 3319 
L 3144 3319 
L 1881 -56 
Q 1678 -603 1566 -809 
Q 1416 -1088 1222 -1217 
Q 1028 -1347 759 -1347 
Q 597 -1347 397 -1278 
z
" transform="scale(0.015625)"/>
      </defs>
      <use xlink:href="#ArialMT-44"/>
      <use xlink:href="#ArialMT-65" x="72.216797"/>
      <use xlink:href="#ArialMT-6e" x="127.832031"/>
      <use xlink:href="#ArialMT-73" x="183.447266"/>
      <use xlink:href="#ArialMT-69" x="233.447266"/>
      <use xlink:href="#ArialMT-74" x="255.664062"/>
      <use xlink:href="#ArialMT-79" x="283.447266"/>
     </g>
    </g>
   </g>
   <g id="patch_3">
    <path d="M 274.890518 287.901375 
L 288.647506 287.901375 
L 288.647506 34.461375 
L 274.890518 34.461375 
z
" clip-path="url(#p52fe4be9d7)" style="fill: #55a868; opacity: 0.5; stroke: #ffffff; stroke-linejoin: miter"/>
   </g>
   <g id="patch_4">
    <path d="M 288.647506 287.901375 
L 302.404494 287.901375 
L 302.404494 287.901375 
L 288.647506 287.901375 
z
" clip-path="url(#p52fe4be9d7)" style="fill: #55a868; opacity: 0.5; stroke: #ffffff; stroke-linejoin: miter"/>
   </g>
   <g id="patch_5">
    <path d="M 302.404494 287.901375 
L 316.161482 287.901375 
L 316.161482 287.901375 
L 302.404494 287.901375 
z
" clip-path="url(#p52fe4be9d7)" style="fill: #55a868; opacity: 0.5; stroke: #ffffff; stroke-linejoin: miter"/>
   </g>
   <g id="patch_6">
    <path d="M 316.161482 287.901375 
L 329.91847 287.901375 
L 329.91847 287.901375 
L 316.161482 287.901375 
z
" clip-path="url(#p52fe4be9d7)" style="fill: #55a868; opacity: 0.5; stroke: #ffffff; stroke-linejoin: miter"/>
   </g>
   <g id="patch_7">
    <path d="M 329.91847 287.901375 
L 343.675458 287.901375 
L 343.675458 287.901375 
L 329.91847 287.901375 
z
" clip-path="url(#p52fe4be9d7)" style="fill: #55a868; opacity: 0.5; stroke: #ffffff; stroke-linejoin: miter"/>
   </g>
   <g id="patch_8">
    <path d="M 343.675458 287.901375 
L 357.432446 287.901375 
L 357.432446 34.461375 
L 343.675458 34.461375 
z
" clip-path="url(#p52fe4be9d7)" style="fill: #55a868; opacity: 0.5; stroke: #ffffff; stroke-linejoin: miter"/>
   </g>
   <g id="patch_9">
    <path d="M 357.432446 287.901375 
L 371.189434 287.901375 
L 371.189434 287.901375 
L 357.432446 287.901375 
z
" clip-path="url(#p52fe4be9d7)" style="fill: #55a868; opacity: 0.5; stroke: #ffffff; stroke-linejoin: miter"/>
   </g>
   <g id="patch_10">
    <path d="M 371.189434 287.901375 
L 384.946422 287.901375 
L 384.946422 287.901375 
L 371.189434 287.901375 
z
" clip-path="url(#p52fe4be9d7)" style="fill: #55a868; opacity: 0.5; stroke: #ffffff; stroke-linejoin: miter"/>
   </g>
   <g id="patch_11">
    <path d="M 384.946422 287.901375 
L 398.70341 287.901375 
L 398.70341 34.461375 
L 384.946422 34.461375 
z
" clip-path="url(#p52fe4be9d7)" style="fill: #55a868; opacity: 0.5; stroke: #ffffff; stroke-linejoin: miter"/>
   </g>
   <g id="patch_12">
    <path d="M 398.70341 287.901375 
L 412.460398 287.901375 
L 412.460398 34.461375 
L 398.70341 34.461375 
z
" clip-path="url(#p52fe4be9d7)" style="fill: #55a868; opacity: 0.5; stroke: #ffffff; stroke-linejoin: miter"/>
   </g>
   <g id="line2d_12">
    <path d="M 87.805852 287.901212 
L 91.085191 287.901149 
L 94.36453 287.901064 
L 97.643869 287.900948 
L 100.923208 287.900791 
L 104.202546 287.900579 
L 107.481885 287.900296 
L 110.761224 287.899917 
L 114.040563 287.899413 
L 117.319902 287.898746 
L 120.599241 287.897865 
L 123.87858 287.896709 
L 127.157918 287.895196 
L 130.437257 287.893225 
L 133.716596 287.890667 
L 136.995935 287.887363 
L 140.275274 287.883113 
L 143.554613 287.877668 
L 146.833951 287.870722 
L 150.11329 287.861898 
L 153.392629 287.850737 
L 156.671968 287.836678 
L 159.951307 287.819045 
L 163.230646 287.797022 
L 166.509985 287.769634 
L 169.789323 287.735719 
L 173.068662 287.693902 
L 176.348001 287.642561 
L 179.62734 287.5798 
L 182.906679 287.503408 
L 186.186018 287.410828 
L 189.465356 287.299114 
L 192.744695 287.1649 
L 196.024034 287.004356 
L 199.303373 286.81316 
L 202.582712 286.58646 
L 205.862051 286.318852 
L 209.141389 286.004353 
L 212.420728 285.636395 
L 215.700067 285.207818 
L 218.979406 284.710883 
L 222.258745 284.137295 
L 225.538084 283.478244 
L 228.817423 282.724467 
L 232.096761 281.866325 
L 235.3761 280.893909 
L 238.655439 279.797162 
L 241.934778 278.566028 
L 245.214117 277.190627 
L 248.493456 275.661447 
L 251.772794 273.969562 
L 255.052133 272.106865 
L 258.331472 270.066321 
L 261.610811 267.842231 
L 264.89015 265.430493 
L 268.169489 262.828879 
L 271.448827 260.037293 
L 274.728166 257.058017 
L 278.007505 253.895944 
L 281.286844 250.558766 
L 284.566183 247.057141 
L 287.845522 243.404799 
L 291.124861 239.618608 
L 294.404199 235.718567 
L 297.683538 231.727748 
L 300.962877 227.672157 
L 304.242216 223.580534 
L 307.521555 219.484075 
L 310.800894 215.416085 
L 314.080232 211.411569 
L 317.359571 207.506758 
L 320.63891 203.738587 
L 323.918249 200.144129 
L 327.197588 196.759997 
L 330.476927 193.621733 
L 333.756265 190.763188 
L 337.035604 188.215921 
L 340.314943 186.008617 
L 343.594282 184.16655 
L 346.873621 182.711106 
L 350.15296 181.659362 
L 353.432299 181.023763 
L 356.711637 180.811867 
L 359.990976 181.0262 
L 363.270315 181.664207 
L 366.549654 182.7183 
L 369.828993 184.17601 
L 373.108332 186.020232 
L 376.38767 188.229557 
L 379.667009 190.77869 
L 382.946348 193.638928 
L 386.225687 196.778697 
L 389.505026 200.164135 
L 392.784365 203.759692 
L 396.063704 207.528751 
L 399.343042 211.434237 
L 402.622381 215.439218 
L 405.90172 219.507469 
L 409.181059 223.603994 
L 412.460398 227.695497 
" clip-path="url(#p52fe4be9d7)" style="fill: none; stroke: #4c72b0; stroke-width: 1.5; stroke-linecap: round"/>
   </g>
   <g id="line2d_13">
    <path d="M 87.805852 287.901375 
L 91.085191 287.901375 
L 94.36453 287.901375 
L 97.643869 287.901375 
L 100.923208 287.901375 
L 104.202546 287.901375 
L 107.481885 287.901375 
L 110.761224 287.901375 
L 114.040563 287.901375 
L 117.319902 287.901375 
L 120.599241 287.901375 
L 123.87858 287.901375 
L 127.157918 287.901375 
L 130.437257 287.901375 
L 133.716596 287.901375 
L 136.995935 287.901375 
L 140.275274 287.901375 
L 143.554613 287.901375 
L 146.833951 287.901375 
L 150.11329 287.901375 
L 153.392629 287.901375 
L 156.671968 287.901375 
L 159.951307 287.901375 
L 163.230646 287.901375 
L 166.509985 287.901375 
L 169.789323 287.901375 
L 173.068662 287.901375 
L 176.348001 287.901375 
L 179.62734 287.901375 
L 182.906679 287.901375 
L 186.186018 287.901375 
L 189.465356 287.901375 
L 192.744695 287.901375 
L 196.024034 287.901375 
L 199.303373 287.901375 
L 202.582712 287.901375 
L 205.862051 287.901375 
L 209.141389 287.901375 
L 212.420728 287.901375 
L 215.700067 287.901375 
L 218.979406 287.901375 
L 222.258745 287.901375 
L 225.538084 287.901375 
L 228.817423 287.901375 
L 232.096761 287.901375 
L 235.3761 287.901375 
L 238.655439 287.901375 
L 241.934778 287.901375 
L 245.214117 287.901375 
L 248.493456 287.901375 
L 251.772794 287.901375 
L 255.052133 287.901375 
L 258.331472 287.901375 
L 261.610811 287.901375 
L 264.89015 287.901375 
L 268.169489 287.901375 
L 271.448827 287.901375 
L 274.728166 287.901375 
L 278.007505 123.805941 
L 281.286844 130.253453 
L 284.566183 136.447634 
L 287.845522 142.398438 
L 291.124861 148.115428 
L 294.404199 153.60779 
L 297.683538 158.88435 
L 300.962877 163.953588 
L 304.242216 168.823649 
L 307.521555 173.502359 
L 310.800894 177.997237 
L 314.080232 182.315506 
L 317.359571 186.464105 
L 320.63891 190.4497 
L 323.918249 194.278697 
L 327.197588 197.957247 
L 330.476927 201.491262 
L 333.756265 204.886422 
L 337.035604 208.148182 
L 340.314943 211.281783 
L 343.594282 214.292261 
L 346.873621 217.184454 
L 350.15296 219.963009 
L 353.432299 222.632391 
L 356.711637 225.19689 
L 359.990976 227.660626 
L 363.270315 230.027559 
L 366.549654 232.301493 
L 369.828993 234.486081 
L 373.108332 236.584833 
L 376.38767 238.601123 
L 379.667009 240.538191 
L 382.946348 242.399149 
L 386.225687 244.186987 
L 389.505026 245.904579 
L 392.784365 247.554685 
L 396.063704 249.139956 
L 399.343042 250.66294 
L 402.622381 252.126084 
L 405.90172 253.531739 
L 409.181059 254.882165 
L 412.460398 256.17953 
" clip-path="url(#p52fe4be9d7)" style="fill: none; stroke: #dd8452; stroke-width: 1.5; stroke-linecap: round"/>
   </g>
   <g id="line2d_14">
    <path d="M 87.805852 287.901362 
L 91.085191 287.901355 
L 94.36453 287.901345 
L 97.643869 287.901328 
L 100.923208 287.901304 
L 104.202546 287.901267 
L 107.481885 287.901213 
L 110.761224 287.901134 
L 114.040563 287.901018 
L 117.319902 287.900851 
L 120.599241 287.900612 
L 123.87858 287.900271 
L 127.157918 287.899789 
L 130.437257 287.899113 
L 133.716596 287.898171 
L 136.995935 287.896869 
L 140.275274 287.895081 
L 143.554613 287.892642 
L 146.833951 287.88934 
L 150.11329 287.8849 
L 153.392629 287.878969 
L 156.671968 287.8711 
L 159.951307 287.860732 
L 163.230646 287.847159 
L 166.509985 287.829511 
L 169.789323 287.806713 
L 173.068662 287.777453 
L 176.348001 287.740141 
L 179.62734 287.692868 
L 182.906679 287.633354 
L 186.186018 287.558902 
L 189.465356 287.466346 
L 192.744695 287.352002 
L 196.024034 287.211613 
L 199.303373 287.040308 
L 202.582712 286.832556 
L 205.862051 286.582136 
L 209.141389 286.28211 
L 212.420728 285.924817 
L 215.700067 285.501876 
L 218.979406 285.004212 
L 222.258745 284.422107 
L 225.538084 283.745267 
L 228.817423 282.962927 
L 232.096761 282.063974 
L 235.3761 281.037105 
L 238.655439 279.871016 
L 241.934778 278.554612 
L 245.214117 277.077255 
L 248.493456 275.429021 
L 251.772794 273.600991 
L 255.052133 271.585543 
L 258.331472 269.37666 
L 261.610811 266.970232 
L 264.89015 264.364355 
L 268.169489 261.559604 
L 271.448827 258.559285 
L 274.728166 255.369652 
L 278.007505 252.000074 
L 281.286844 248.463151 
L 284.566183 244.774768 
L 287.845522 240.954086 
L 291.124861 237.023455 
L 294.404199 233.008258 
L 297.683538 228.93668 
L 300.962877 224.839402 
L 304.242216 220.749227 
L 307.521555 216.700644 
L 310.800894 212.729336 
L 314.080232 208.871644 
L 317.359571 205.163996 
L 320.63891 201.642321 
L 323.918249 198.341446 
L 327.197588 195.294516 
L 330.476927 192.532419 
L 333.756265 190.083263 
L 337.035604 187.971887 
L 340.314943 186.219446 
L 343.594282 184.843055 
L 346.873621 183.855519 
L 350.15296 183.265143 
L 353.432299 183.075633 
L 356.711637 183.286083 
L 359.990976 183.89105 
L 363.270315 184.880717 
L 366.549654 186.241127 
L 369.828993 187.954497 
L 373.108332 189.999582 
L 376.38767 192.352106 
L 379.667009 194.985215 
L 382.946348 197.869976 
L 386.225687 200.975876 
L 389.505026 204.271339 
L 392.784365 207.724229 
L 396.063704 211.302336 
L 399.343042 214.973837 
L 402.622381 218.707727 
L 405.90172 222.474196 
L 409.181059 226.244974 
L 412.460398 229.993616 
" clip-path="url(#p52fe4be9d7)" style="fill: none; stroke: #55a868; stroke-width: 1.5; stroke-linecap: round"/>
   </g>
   <g id="line2d_15">
    <path d="M 87.805852 287.901375 
L 91.085191 287.901375 
L 94.36453 287.901375 
L 97.643869 287.901375 
L 100.923208 287.901375 
L 104.202546 287.901375 
L 107.481885 287.901375 
L 110.761224 287.901375 
L 114.040563 287.901375 
L 117.319902 287.901375 
L 120.599241 287.901375 
L 123.87858 287.901375 
L 127.157918 287.901375 
L 130.437257 287.901375 
L 133.716596 287.901375 
L 136.995935 287.901375 
L 140.275274 287.901375 
L 143.554613 287.901375 
L 146.833951 287.901375 
L 150.11329 287.901375 
L 153.392629 287.901375 
L 156.671968 287.901375 
L 159.951307 287.901375 
L 163.230646 287.901375 
L 166.509985 287.901375 
L 169.789323 287.901375 
L 173.068662 287.901375 
L 176.348001 287.901375 
L 179.62734 287.901375 
L 182.906679 287.901375 
L 186.186018 287.901375 
L 189.465356 287.901375 
L 192.744695 287.901375 
L 196.024034 287.901375 
L 199.303373 287.901375 
L 202.582712 287.901375 
L 205.862051 287.901375 
L 209.141389 287.901375 
L 212.420728 287.901375 
L 215.700067 287.901375 
L 218.979406 287.901375 
L 222.258745 287.901375 
L 225.538084 287.901375 
L 228.817423 287.901375 
L 232.096761 287.901375 
L 235.3761 287.901375 
L 238.655439 287.901375 
L 241.934778 287.901375 
L 245.214117 287.901375 
L 248.493456 287.901375 
L 251.772794 287.901375 
L 255.052133 287.901375 
L 258.331472 287.901375 
L 261.610811 287.901375 
L 264.89015 287.901375 
L 268.169489 287.901375 
L 271.448827 287.901375 
L 274.728166 287.901375 
L 278.007505 287.901375 
L 281.286844 287.901375 
L 284.566183 287.901375 
L 287.845522 287.901375 
L 291.124861 287.901375 
L 294.404199 287.901375 
L 297.683538 287.901375 
L 300.962877 287.901375 
L 304.242216 287.901375 
L 307.521555 287.901375 
L 310.800894 287.901375 
L 314.080232 287.901375 
L 317.359571 287.901375 
L 320.63891 287.901375 
L 323.918249 287.901375 
L 327.197588 287.901375 
L 330.476927 287.901375 
L 333.756265 287.901375 
L 337.035604 287.901375 
L 340.314943 287.901375 
L 343.594282 287.901375 
L 346.873621 287.901375 
L 350.15296 287.901375 
L 353.432299 287.901375 
L 356.711637 287.901375 
L 359.990976 287.901375 
L 363.270315 287.901375 
L 366.549654 287.901375 
L 369.828993 287.901375 
L 373.108332 287.901375 
L 376.38767 287.901375 
L 379.667009 287.901375 
L 382.946348 287.901375 
L 386.225687 287.901375 
L 389.505026 287.901375 
L 392.784365 287.901375 
L 396.063704 287.901375 
L 399.343042 287.901375 
L 402.622381 287.901375 
L 405.90172 287.901375 
L 409.181059 287.901375 
L 412.460398 287.901375 
" clip-path="url(#p52fe4be9d7)" style="fill: none; stroke: #c44e52; stroke-width: 1.5; stroke-linecap: round"/>
   </g>
   <g id="patch_13">
    <path d="M 71.573125 287.901375 
L 71.573125 21.789375 
" style="fill: none; stroke: #cccccc; stroke-width: 1.25; stroke-linejoin: miter; stroke-linecap: square"/>
   </g>
   <g id="patch_14">
    <path d="M 428.693125 287.901375 
L 428.693125 21.789375 
" style="fill: none; stroke: #cccccc; stroke-width: 1.25; stroke-linejoin: miter; stroke-linecap: square"/>
   </g>
   <g id="patch_15">
    <path d="M 71.573125 287.901375 
L 428.693125 287.901375 
" style="fill: none; stroke: #cccccc; stroke-width: 1.25; stroke-linejoin: miter; stroke-linecap: square"/>
   </g>
   <g id="patch_16">
    <path d="M 71.573125 21.789375 
L 428.693125 21.789375 
" style="fill: none; stroke: #cccccc; stroke-width: 1.25; stroke-linejoin: miter; stroke-linecap: square"/>
   </g>
   <g id="text_14">
    <!-- Fitted Distributions to Sentiment Counts -->
    <g style="fill: #262626" transform="translate(144.424375 15.789375) scale(0.12 -0.12)">
     <defs>
      <path id="ArialMT-46" d="M 525 0 
L 525 4581 
L 3616 4581 
L 3616 4041 
L 1131 4041 
L 1131 2622 
L 3281 2622 
L 3281 2081 
L 1131 2081 
L 1131 0 
L 525 0 
z
" transform="scale(0.015625)"/>
      <path id="ArialMT-64" d="M 2575 0 
L 2575 419 
Q 2259 -75 1647 -75 
Q 1250 -75 917 144 
Q 584 363 401 755 
Q 219 1147 219 1656 
Q 219 2153 384 2558 
Q 550 2963 881 3178 
Q 1213 3394 1622 3394 
Q 1922 3394 2156 3267 
Q 2391 3141 2538 2938 
L 2538 4581 
L 3097 4581 
L 3097 0 
L 2575 0 
z
M 797 1656 
Q 797 1019 1065 703 
Q 1334 388 1700 388 
Q 2069 388 2326 689 
Q 2584 991 2584 1609 
Q 2584 2291 2321 2609 
Q 2059 2928 1675 2928 
Q 1300 2928 1048 2622 
Q 797 2316 797 1656 
z
" transform="scale(0.015625)"/>
      <path id="ArialMT-72" d="M 416 0 
L 416 3319 
L 922 3319 
L 922 2816 
Q 1116 3169 1280 3281 
Q 1444 3394 1641 3394 
Q 1925 3394 2219 3213 
L 2025 2691 
Q 1819 2813 1613 2813 
Q 1428 2813 1281 2702 
Q 1134 2591 1072 2394 
Q 978 2094 978 1738 
L 978 0 
L 416 0 
z
" transform="scale(0.015625)"/>
      <path id="ArialMT-62" d="M 941 0 
L 419 0 
L 419 4581 
L 981 4581 
L 981 2947 
Q 1338 3394 1891 3394 
Q 2197 3394 2470 3270 
Q 2744 3147 2920 2923 
Q 3097 2700 3197 2384 
Q 3297 2069 3297 1709 
Q 3297 856 2875 390 
Q 2453 -75 1863 -75 
Q 1275 -75 941 416 
L 941 0 
z
M 934 1684 
Q 934 1088 1097 822 
Q 1363 388 1816 388 
Q 2184 388 2453 708 
Q 2722 1028 2722 1663 
Q 2722 2313 2464 2622 
Q 2206 2931 1841 2931 
Q 1472 2931 1203 2611 
Q 934 2291 934 1684 
z
" transform="scale(0.015625)"/>
     </defs>
     <use xlink:href="#ArialMT-46"/>
     <use xlink:href="#ArialMT-69" x="61.083984"/>
     <use xlink:href="#ArialMT-74" x="83.300781"/>
     <use xlink:href="#ArialMT-74" x="111.083984"/>
     <use xlink:href="#ArialMT-65" x="138.867188"/>
     <use xlink:href="#ArialMT-64" x="194.482422"/>
     <use xlink:href="#ArialMT-20" x="250.097656"/>
     <use xlink:href="#ArialMT-44" x="277.880859"/>
     <use xlink:href="#ArialMT-69" x="350.097656"/>
     <use xlink:href="#ArialMT-73" x="372.314453"/>
     <use xlink:href="#ArialMT-74" x="422.314453"/>
     <use xlink:href="#ArialMT-72" x="450.097656"/>
     <use xlink:href="#ArialMT-69" x="483.398438"/>
     <use xlink:href="#ArialMT-62" x="505.615234"/>
     <use xlink:href="#ArialMT-75" x="561.230469"/>
     <use xlink:href="#ArialMT-74" x="616.845703"/>
     <use xlink:href="#ArialMT-69" x="644.628906"/>
     <use xlink:href="#ArialMT-6f" x="666.845703"/>
     <use xlink:href="#ArialMT-6e" x="722.460938"/>
     <use xlink:href="#ArialMT-73" x="778.076172"/>
     <use xlink:href="#ArialMT-20" x="828.076172"/>
     <use xlink:href="#ArialMT-74" x="855.859375"/>
     <use xlink:href="#ArialMT-6f" x="883.642578"/>
     <use xlink:href="#ArialMT-20" x="939.257812"/>
     <use xlink:href="#ArialMT-53" x="967.041016"/>
     <use xlink:href="#ArialMT-65" x="1033.740234"/>
     <use xlink:href="#ArialMT-6e" x="1089.355469"/>
     <use xlink:href="#ArialMT-74" x="1144.970703"/>
     <use xlink:href="#ArialMT-69" x="1172.753906"/>
     <use xlink:href="#ArialMT-6d" x="1194.970703"/>
     <use xlink:href="#ArialMT-65" x="1278.271484"/>
     <use xlink:href="#ArialMT-6e" x="1333.886719"/>
     <use xlink:href="#ArialMT-74" x="1389.501953"/>
     <use xlink:href="#ArialMT-20" x="1417.285156"/>
     <use xlink:href="#ArialMT-43" x="1445.068359"/>
     <use xlink:href="#ArialMT-6f" x="1517.285156"/>
     <use xlink:href="#ArialMT-75" x="1572.900391"/>
     <use xlink:href="#ArialMT-6e" x="1628.515625"/>
     <use xlink:href="#ArialMT-74" x="1684.130859"/>
     <use xlink:href="#ArialMT-73" x="1711.914062"/>
    </g>
   </g>
   <g id="legend_1">
    <g id="patch_17">
     <path d="M 79.273125 108.5175 
L 152.385313 108.5175 
Q 154.585313 108.5175 154.585313 106.3175 
L 154.585313 29.489375 
Q 154.585313 27.289375 152.385313 27.289375 
L 79.273125 27.289375 
Q 77.073125 27.289375 77.073125 29.489375 
L 77.073125 106.3175 
Q 77.073125 108.5175 79.273125 108.5175 
z
" style="fill: #ffffff; opacity: 0.8; stroke: #cccccc; stroke-linejoin: miter"/>
    </g>
    <g id="patch_18">
     <path d="M 81.473125 39.562969 
L 103.473125 39.562969 
L 103.473125 31.862969 
L 81.473125 31.862969 
z
" style="fill: #55a868; opacity: 0.5; stroke: #ffffff; stroke-linejoin: miter"/>
    </g>
    <g id="text_15">
     <!-- Data -->
     <g style="fill: #262626" transform="translate(112.273125 39.562969) scale(0.11 -0.11)">
      <defs>
       <path id="ArialMT-61" d="M 2588 409 
Q 2275 144 1986 34 
Q 1697 -75 1366 -75 
Q 819 -75 525 192 
Q 231 459 231 875 
Q 231 1119 342 1320 
Q 453 1522 633 1644 
Q 813 1766 1038 1828 
Q 1203 1872 1538 1913 
Q 2219 1994 2541 2106 
Q 2544 2222 2544 2253 
Q 2544 2597 2384 2738 
Q 2169 2928 1744 2928 
Q 1347 2928 1158 2789 
Q 969 2650 878 2297 
L 328 2372 
Q 403 2725 575 2942 
Q 747 3159 1072 3276 
Q 1397 3394 1825 3394 
Q 2250 3394 2515 3294 
Q 2781 3194 2906 3042 
Q 3031 2891 3081 2659 
Q 3109 2516 3109 2141 
L 3109 1391 
Q 3109 606 3145 398 
Q 3181 191 3288 0 
L 2700 0 
Q 2613 175 2588 409 
z
M 2541 1666 
Q 2234 1541 1622 1453 
Q 1275 1403 1131 1340 
Q 988 1278 909 1158 
Q 831 1038 831 891 
Q 831 666 1001 516 
Q 1172 366 1500 366 
Q 1825 366 2078 508 
Q 2331 650 2450 897 
Q 2541 1088 2541 1459 
L 2541 1666 
z
" transform="scale(0.015625)"/>
      </defs>
      <use xlink:href="#ArialMT-44"/>
      <use xlink:href="#ArialMT-61" x="72.216797"/>
      <use xlink:href="#ArialMT-74" x="127.832031"/>
      <use xlink:href="#ArialMT-61" x="155.615234"/>
     </g>
    </g>
    <g id="line2d_16">
     <path d="M 81.473125 51.272812 
L 92.473125 51.272812 
L 103.473125 51.272812 
" style="fill: none; stroke: #4c72b0; stroke-width: 1.5; stroke-linecap: round"/>
    </g>
    <g id="text_16">
     <!-- norm -->
     <g style="fill: #262626" transform="translate(112.273125 55.122812) scale(0.11 -0.11)">
      <use xlink:href="#ArialMT-6e"/>
      <use xlink:href="#ArialMT-6f" x="55.615234"/>
      <use xlink:href="#ArialMT-72" x="111.230469"/>
      <use xlink:href="#ArialMT-6d" x="144.53125"/>
     </g>
    </g>
    <g id="line2d_17">
     <path d="M 81.473125 66.832656 
L 92.473125 66.832656 
L 103.473125 66.832656 
" style="fill: none; stroke: #dd8452; stroke-width: 1.5; stroke-linecap: round"/>
    </g>
    <g id="text_17">
     <!-- expon -->
     <g style="fill: #262626" transform="translate(112.273125 70.682656) scale(0.11 -0.11)">
      <defs>
       <path id="ArialMT-78" d="M 47 0 
L 1259 1725 
L 138 3319 
L 841 3319 
L 1350 2541 
Q 1494 2319 1581 2169 
Q 1719 2375 1834 2534 
L 2394 3319 
L 3066 3319 
L 1919 1756 
L 3153 0 
L 2463 0 
L 1781 1031 
L 1600 1309 
L 728 0 
L 47 0 
z
" transform="scale(0.015625)"/>
       <path id="ArialMT-70" d="M 422 -1272 
L 422 3319 
L 934 3319 
L 934 2888 
Q 1116 3141 1344 3267 
Q 1572 3394 1897 3394 
Q 2322 3394 2647 3175 
Q 2972 2956 3137 2557 
Q 3303 2159 3303 1684 
Q 3303 1175 3120 767 
Q 2938 359 2589 142 
Q 2241 -75 1856 -75 
Q 1575 -75 1351 44 
Q 1128 163 984 344 
L 984 -1272 
L 422 -1272 
z
M 931 1641 
Q 931 1000 1190 694 
Q 1450 388 1819 388 
Q 2194 388 2461 705 
Q 2728 1022 2728 1688 
Q 2728 2322 2467 2637 
Q 2206 2953 1844 2953 
Q 1484 2953 1207 2617 
Q 931 2281 931 1641 
z
" transform="scale(0.015625)"/>
      </defs>
      <use xlink:href="#ArialMT-65"/>
      <use xlink:href="#ArialMT-78" x="55.615234"/>
      <use xlink:href="#ArialMT-70" x="105.615234"/>
      <use xlink:href="#ArialMT-6f" x="161.230469"/>
      <use xlink:href="#ArialMT-6e" x="216.845703"/>
     </g>
    </g>
    <g id="line2d_18">
     <path d="M 81.473125 82.3925 
L 92.473125 82.3925 
L 103.473125 82.3925 
" style="fill: none; stroke: #55a868; stroke-width: 1.5; stroke-linecap: round"/>
    </g>
    <g id="text_18">
     <!-- gamma -->
     <g style="fill: #262626" transform="translate(112.273125 86.2425) scale(0.11 -0.11)">
      <defs>
       <path id="ArialMT-67" d="M 319 -275 
L 866 -356 
Q 900 -609 1056 -725 
Q 1266 -881 1628 -881 
Q 2019 -881 2231 -725 
Q 2444 -569 2519 -288 
Q 2563 -116 2559 434 
Q 2191 0 1641 0 
Q 956 0 581 494 
Q 206 988 206 1678 
Q 206 2153 378 2554 
Q 550 2956 876 3175 
Q 1203 3394 1644 3394 
Q 2231 3394 2613 2919 
L 2613 3319 
L 3131 3319 
L 3131 450 
Q 3131 -325 2973 -648 
Q 2816 -972 2473 -1159 
Q 2131 -1347 1631 -1347 
Q 1038 -1347 672 -1080 
Q 306 -813 319 -275 
z
M 784 1719 
Q 784 1066 1043 766 
Q 1303 466 1694 466 
Q 2081 466 2343 764 
Q 2606 1063 2606 1700 
Q 2606 2309 2336 2618 
Q 2066 2928 1684 2928 
Q 1309 2928 1046 2623 
Q 784 2319 784 1719 
z
" transform="scale(0.015625)"/>
      </defs>
      <use xlink:href="#ArialMT-67"/>
      <use xlink:href="#ArialMT-61" x="55.615234"/>
      <use xlink:href="#ArialMT-6d" x="111.230469"/>
      <use xlink:href="#ArialMT-6d" x="194.53125"/>
      <use xlink:href="#ArialMT-61" x="277.832031"/>
     </g>
    </g>
    <g id="line2d_19">
     <path d="M 81.473125 98.08125 
L 92.473125 98.08125 
L 103.473125 98.08125 
" style="fill: none; stroke: #c44e52; stroke-width: 1.5; stroke-linecap: round"/>
    </g>
    <g id="text_19">
     <!-- poisson -->
     <g style="fill: #262626" transform="translate(112.273125 101.93125) scale(0.11 -0.11)">
      <use xlink:href="#ArialMT-70"/>
      <use xlink:href="#ArialMT-6f" x="55.615234"/>
      <use xlink:href="#ArialMT-69" x="111.230469"/>
      <use xlink:href="#ArialMT-73" x="133.447266"/>
      <use xlink:href="#ArialMT-73" x="183.447266"/>
      <use xlink:href="#ArialMT-6f" x="233.447266"/>
      <use xlink:href="#ArialMT-6e" x="289.0625"/>
     </g>
    </g>
   </g>
  </g>
 </g>
 <defs>
  <clipPath id="p52fe4be9d7">
   <rect x="71.573125" y="21.789375" width="357.12" height="266.112"/>
  </clipPath>
 </defs>
</svg>
