<?xml version="1.0" encoding="utf-8" standalone="no"?>
<!DOCTYPE svg PUBLIC "-//W3C//DTD SVG 1.1//EN"
  "http://www.w3.org/Graphics/SVG/1.1/DTD/svg11.dtd">
<svg xmlns:xlink="http://www.w3.org/1999/xlink" width="524.278125pt" height="301.263281pt" viewBox="0 0 524.278125 301.263281" xmlns="http://www.w3.org/2000/svg" version="1.1">
 <metadata>
  <rdf:RDF xmlns:dc="http://purl.org/dc/elements/1.1/" xmlns:cc="http://creativecommons.org/ns#" xmlns:rdf="http://www.w3.org/1999/02/22-rdf-syntax-ns#">
   <cc:Work>
    <dc:type rdf:resource="http://purl.org/dc/dcmitype/StillImage"/>
    <dc:date>2024-06-06T17:57:08.536961</dc:date>
    <dc:format>image/svg+xml</dc:format>
    <dc:creator>
     <cc:Agent>
      <dc:title>Matplotlib v3.9.0, https://matplotlib.org/</dc:title>
     </cc:Agent>
    </dc:creator>
   </cc:Work>
  </rdf:RDF>
 </metadata>
 <defs>
  <style type="text/css">*{stroke-linejoin: round; stroke-linecap: butt}</style>
 </defs>
 <g id="figure_1">
  <g id="patch_1">
   <path d="M -0 301.263281 
L 524.278125 301.263281 
L 524.278125 0 
L -0 0 
z
" style="fill: #ffffff"/>
  </g>
  <g id="axes_1">
   <g id="patch_2">
    <path d="M 66.347262 257.7 
L 435.575058 257.7 
L 435.575058 25.8 
L 66.347262 25.8 
z
" style="fill: #ffffff"/>
   </g>
   <g id="matplotlib.axis_1">
    <g id="xtick_1">
     <g id="line2d_1">
      <path d="M 116.941973 257.7 
L 116.941973 25.8 
" clip-path="url(#pf1e2a4be83)" style="fill: none; stroke: #cccccc; stroke-linecap: round"/>
     </g>
     <g id="text_1">
      <!-- 0 -->
      <g style="fill: #262626" transform="translate(113.883457 275.073594) scale(0.11 -0.11)">
       <defs>
        <path id="ArialMT-30" d="M 266 2259 
Q 266 3072 433 3567 
Q 600 4063 929 4331 
Q 1259 4600 1759 4600 
Q 2128 4600 2406 4451 
Q 2684 4303 2865 4023 
Q 3047 3744 3150 3342 
Q 3253 2941 3253 2259 
Q 3253 1453 3087 958 
Q 2922 463 2592 192 
Q 2263 -78 1759 -78 
Q 1097 -78 719 397 
Q 266 969 266 2259 
z
M 844 2259 
Q 844 1131 1108 757 
Q 1372 384 1759 384 
Q 2147 384 2411 759 
Q 2675 1134 2675 2259 
Q 2675 3391 2411 3762 
Q 2147 4134 1753 4134 
Q 1366 4134 1134 3806 
Q 844 3388 844 2259 
z
" transform="scale(0.015625)"/>
       </defs>
       <use xlink:href="#ArialMT-30"/>
      </g>
     </g>
    </g>
    <g id="xtick_2">
     <g id="line2d_2">
      <path d="M 167.706817 257.7 
L 167.706817 25.8 
" clip-path="url(#pf1e2a4be83)" style="fill: none; stroke: #cccccc; stroke-linecap: round"/>
     </g>
     <g id="text_2">
      <!-- 2500 -->
      <g style="fill: #262626" transform="translate(155.472754 275.073594) scale(0.11 -0.11)">
       <defs>
        <path id="ArialMT-32" d="M 3222 541 
L 3222 0 
L 194 0 
Q 188 203 259 391 
Q 375 700 629 1000 
Q 884 1300 1366 1694 
Q 2113 2306 2375 2664 
Q 2638 3022 2638 3341 
Q 2638 3675 2398 3904 
Q 2159 4134 1775 4134 
Q 1369 4134 1125 3890 
Q 881 3647 878 3216 
L 300 3275 
Q 359 3922 746 4261 
Q 1134 4600 1788 4600 
Q 2447 4600 2831 4234 
Q 3216 3869 3216 3328 
Q 3216 3053 3103 2787 
Q 2991 2522 2730 2228 
Q 2469 1934 1863 1422 
Q 1356 997 1212 845 
Q 1069 694 975 541 
L 3222 541 
z
" transform="scale(0.015625)"/>
        <path id="ArialMT-35" d="M 266 1200 
L 856 1250 
Q 922 819 1161 601 
Q 1400 384 1738 384 
Q 2144 384 2425 690 
Q 2706 997 2706 1503 
Q 2706 1984 2436 2262 
Q 2166 2541 1728 2541 
Q 1456 2541 1237 2417 
Q 1019 2294 894 2097 
L 366 2166 
L 809 4519 
L 3088 4519 
L 3088 3981 
L 1259 3981 
L 1013 2750 
Q 1425 3038 1878 3038 
Q 2478 3038 2890 2622 
Q 3303 2206 3303 1553 
Q 3303 931 2941 478 
Q 2500 -78 1738 -78 
Q 1113 -78 717 272 
Q 322 622 266 1200 
z
" transform="scale(0.015625)"/>
       </defs>
       <use xlink:href="#ArialMT-32"/>
       <use xlink:href="#ArialMT-35" x="55.615234"/>
       <use xlink:href="#ArialMT-30" x="111.230469"/>
       <use xlink:href="#ArialMT-30" x="166.845703"/>
      </g>
     </g>
    </g>
    <g id="xtick_3">
     <g id="line2d_3">
      <path d="M 218.47166 257.7 
L 218.47166 25.8 
" clip-path="url(#pf1e2a4be83)" style="fill: none; stroke: #cccccc; stroke-linecap: round"/>
     </g>
     <g id="text_3">
      <!-- 5000 -->
      <g style="fill: #262626" transform="translate(206.237598 275.073594) scale(0.11 -0.11)">
       <use xlink:href="#ArialMT-35"/>
       <use xlink:href="#ArialMT-30" x="55.615234"/>
       <use xlink:href="#ArialMT-30" x="111.230469"/>
       <use xlink:href="#ArialMT-30" x="166.845703"/>
      </g>
     </g>
    </g>
    <g id="xtick_4">
     <g id="line2d_4">
      <path d="M 269.236504 257.7 
L 269.236504 25.8 
" clip-path="url(#pf1e2a4be83)" style="fill: none; stroke: #cccccc; stroke-linecap: round"/>
     </g>
     <g id="text_4">
      <!-- 7500 -->
      <g style="fill: #262626" transform="translate(257.002441 275.073594) scale(0.11 -0.11)">
       <defs>
        <path id="ArialMT-37" d="M 303 3981 
L 303 4522 
L 3269 4522 
L 3269 4084 
Q 2831 3619 2401 2847 
Q 1972 2075 1738 1259 
Q 1569 684 1522 0 
L 944 0 
Q 953 541 1156 1306 
Q 1359 2072 1739 2783 
Q 2119 3494 2547 3981 
L 303 3981 
z
" transform="scale(0.015625)"/>
       </defs>
       <use xlink:href="#ArialMT-37"/>
       <use xlink:href="#ArialMT-35" x="55.615234"/>
       <use xlink:href="#ArialMT-30" x="111.230469"/>
       <use xlink:href="#ArialMT-30" x="166.845703"/>
      </g>
     </g>
    </g>
    <g id="xtick_5">
     <g id="line2d_5">
      <path d="M 320.001347 257.7 
L 320.001347 25.8 
" clip-path="url(#pf1e2a4be83)" style="fill: none; stroke: #cccccc; stroke-linecap: round"/>
     </g>
     <g id="text_5">
      <!-- 10000 -->
      <g style="fill: #262626" transform="translate(304.708769 275.073594) scale(0.11 -0.11)">
       <defs>
        <path id="ArialMT-31" d="M 2384 0 
L 1822 0 
L 1822 3584 
Q 1619 3391 1289 3197 
Q 959 3003 697 2906 
L 697 3450 
Q 1169 3672 1522 3987 
Q 1875 4303 2022 4600 
L 2384 4600 
L 2384 0 
z
" transform="scale(0.015625)"/>
       </defs>
       <use xlink:href="#ArialMT-31"/>
       <use xlink:href="#ArialMT-30" x="55.615234"/>
       <use xlink:href="#ArialMT-30" x="111.230469"/>
       <use xlink:href="#ArialMT-30" x="166.845703"/>
       <use xlink:href="#ArialMT-30" x="222.460938"/>
      </g>
     </g>
    </g>
    <g id="xtick_6">
     <g id="line2d_6">
      <path d="M 370.766191 257.7 
L 370.766191 25.8 
" clip-path="url(#pf1e2a4be83)" style="fill: none; stroke: #cccccc; stroke-linecap: round"/>
     </g>
     <g id="text_6">
      <!-- 12500 -->
      <g style="fill: #262626" transform="translate(355.473613 275.073594) scale(0.11 -0.11)">
       <use xlink:href="#ArialMT-31"/>
       <use xlink:href="#ArialMT-32" x="55.615234"/>
       <use xlink:href="#ArialMT-35" x="111.230469"/>
       <use xlink:href="#ArialMT-30" x="166.845703"/>
       <use xlink:href="#ArialMT-30" x="222.460938"/>
      </g>
     </g>
    </g>
    <g id="xtick_7">
     <g id="line2d_7">
      <path d="M 421.531035 257.7 
L 421.531035 25.8 
" clip-path="url(#pf1e2a4be83)" style="fill: none; stroke: #cccccc; stroke-linecap: round"/>
     </g>
     <g id="text_7">
      <!-- 15000 -->
      <g style="fill: #262626" transform="translate(406.238456 275.073594) scale(0.11 -0.11)">
       <use xlink:href="#ArialMT-31"/>
       <use xlink:href="#ArialMT-35" x="55.615234"/>
       <use xlink:href="#ArialMT-30" x="111.230469"/>
       <use xlink:href="#ArialMT-30" x="166.845703"/>
       <use xlink:href="#ArialMT-30" x="222.460938"/>
      </g>
     </g>
    </g>
    <g id="text_8">
     <!-- id -->
     <g style="fill: #262626" transform="translate(245.513191 291.280781) scale(0.14 -0.14)">
      <defs>
       <path id="ArialMT-69" d="M 425 3934 
L 425 4581 
L 988 4581 
L 988 3934 
L 425 3934 
z
M 425 0 
L 425 3319 
L 988 3319 
L 988 0 
L 425 0 
z
" transform="scale(0.015625)"/>
       <path id="ArialMT-64" d="M 2575 0 
L 2575 419 
Q 2259 -75 1647 -75 
Q 1250 -75 917 144 
Q 584 363 401 755 
Q 219 1147 219 1656 
Q 219 2153 384 2558 
Q 550 2963 881 3178 
Q 1213 3394 1622 3394 
Q 1922 3394 2156 3267 
Q 2391 3141 2538 2938 
L 2538 4581 
L 3097 4581 
L 3097 0 
L 2575 0 
z
M 797 1656 
Q 797 1019 1065 703 
Q 1334 388 1700 388 
Q 2069 388 2326 689 
Q 2584 991 2584 1609 
Q 2584 2291 2321 2609 
Q 2059 2928 1675 2928 
Q 1300 2928 1048 2622 
Q 797 2316 797 1656 
z
" transform="scale(0.015625)"/>
      </defs>
      <use xlink:href="#ArialMT-69"/>
      <use xlink:href="#ArialMT-64" x="22.216797"/>
     </g>
    </g>
   </g>
   <g id="matplotlib.axis_2">
    <g id="ytick_1">
     <g id="line2d_8">
      <path d="M 66.347262 257.7 
L 435.575058 257.7 
" clip-path="url(#pf1e2a4be83)" style="fill: none; stroke: #cccccc; stroke-linecap: round"/>
     </g>
     <g id="text_9">
      <!-- 0.0 -->
      <g style="fill: #262626" transform="translate(41.557263 261.636797) scale(0.11 -0.11)">
       <defs>
        <path id="ArialMT-2e" d="M 581 0 
L 581 641 
L 1222 641 
L 1222 0 
L 581 0 
z
" transform="scale(0.015625)"/>
       </defs>
       <use xlink:href="#ArialMT-30"/>
       <use xlink:href="#ArialMT-2e" x="55.615234"/>
       <use xlink:href="#ArialMT-30" x="83.398438"/>
      </g>
     </g>
    </g>
    <g id="ytick_2">
     <g id="line2d_9">
      <path d="M 66.347262 211.32 
L 435.575058 211.32 
" clip-path="url(#pf1e2a4be83)" style="fill: none; stroke: #cccccc; stroke-linecap: round"/>
     </g>
     <g id="text_10">
      <!-- 0.2 -->
      <g style="fill: #262626" transform="translate(41.557263 215.256797) scale(0.11 -0.11)">
       <use xlink:href="#ArialMT-30"/>
       <use xlink:href="#ArialMT-2e" x="55.615234"/>
       <use xlink:href="#ArialMT-32" x="83.398438"/>
      </g>
     </g>
    </g>
    <g id="ytick_3">
     <g id="line2d_10">
      <path d="M 66.347262 164.94 
L 435.575058 164.94 
" clip-path="url(#pf1e2a4be83)" style="fill: none; stroke: #cccccc; stroke-linecap: round"/>
     </g>
     <g id="text_11">
      <!-- 0.4 -->
      <g style="fill: #262626" transform="translate(41.557263 168.876797) scale(0.11 -0.11)">
       <defs>
        <path id="ArialMT-34" d="M 2069 0 
L 2069 1097 
L 81 1097 
L 81 1613 
L 2172 4581 
L 2631 4581 
L 2631 1613 
L 3250 1613 
L 3250 1097 
L 2631 1097 
L 2631 0 
L 2069 0 
z
M 2069 1613 
L 2069 3678 
L 634 1613 
L 2069 1613 
z
" transform="scale(0.015625)"/>
       </defs>
       <use xlink:href="#ArialMT-30"/>
       <use xlink:href="#ArialMT-2e" x="55.615234"/>
       <use xlink:href="#ArialMT-34" x="83.398438"/>
      </g>
     </g>
    </g>
    <g id="ytick_4">
     <g id="line2d_11">
      <path d="M 66.347262 118.56 
L 435.575058 118.56 
" clip-path="url(#pf1e2a4be83)" style="fill: none; stroke: #cccccc; stroke-linecap: round"/>
     </g>
     <g id="text_12">
      <!-- 0.6 -->
      <g style="fill: #262626" transform="translate(41.557263 122.496797) scale(0.11 -0.11)">
       <defs>
        <path id="ArialMT-36" d="M 3184 3459 
L 2625 3416 
Q 2550 3747 2413 3897 
Q 2184 4138 1850 4138 
Q 1581 4138 1378 3988 
Q 1113 3794 959 3422 
Q 806 3050 800 2363 
Q 1003 2672 1297 2822 
Q 1591 2972 1913 2972 
Q 2475 2972 2870 2558 
Q 3266 2144 3266 1488 
Q 3266 1056 3080 686 
Q 2894 316 2569 119 
Q 2244 -78 1831 -78 
Q 1128 -78 684 439 
Q 241 956 241 2144 
Q 241 3472 731 4075 
Q 1159 4600 1884 4600 
Q 2425 4600 2770 4297 
Q 3116 3994 3184 3459 
z
M 888 1484 
Q 888 1194 1011 928 
Q 1134 663 1356 523 
Q 1578 384 1822 384 
Q 2178 384 2434 671 
Q 2691 959 2691 1453 
Q 2691 1928 2437 2201 
Q 2184 2475 1800 2475 
Q 1419 2475 1153 2201 
Q 888 1928 888 1484 
z
" transform="scale(0.015625)"/>
       </defs>
       <use xlink:href="#ArialMT-30"/>
       <use xlink:href="#ArialMT-2e" x="55.615234"/>
       <use xlink:href="#ArialMT-36" x="83.398438"/>
      </g>
     </g>
    </g>
    <g id="ytick_5">
     <g id="line2d_12">
      <path d="M 66.347262 72.18 
L 435.575058 72.18 
" clip-path="url(#pf1e2a4be83)" style="fill: none; stroke: #cccccc; stroke-linecap: round"/>
     </g>
     <g id="text_13">
      <!-- 0.8 -->
      <g style="fill: #262626" transform="translate(41.557263 76.116797) scale(0.11 -0.11)">
       <defs>
        <path id="ArialMT-38" d="M 1131 2484 
Q 781 2613 612 2850 
Q 444 3088 444 3419 
Q 444 3919 803 4259 
Q 1163 4600 1759 4600 
Q 2359 4600 2725 4251 
Q 3091 3903 3091 3403 
Q 3091 3084 2923 2848 
Q 2756 2613 2416 2484 
Q 2838 2347 3058 2040 
Q 3278 1734 3278 1309 
Q 3278 722 2862 322 
Q 2447 -78 1769 -78 
Q 1091 -78 675 323 
Q 259 725 259 1325 
Q 259 1772 486 2073 
Q 713 2375 1131 2484 
z
M 1019 3438 
Q 1019 3113 1228 2906 
Q 1438 2700 1772 2700 
Q 2097 2700 2305 2904 
Q 2513 3109 2513 3406 
Q 2513 3716 2298 3927 
Q 2084 4138 1766 4138 
Q 1444 4138 1231 3931 
Q 1019 3725 1019 3438 
z
M 838 1322 
Q 838 1081 952 856 
Q 1066 631 1291 507 
Q 1516 384 1775 384 
Q 2178 384 2440 643 
Q 2703 903 2703 1303 
Q 2703 1709 2433 1975 
Q 2163 2241 1756 2241 
Q 1359 2241 1098 1978 
Q 838 1716 838 1322 
z
" transform="scale(0.015625)"/>
       </defs>
       <use xlink:href="#ArialMT-30"/>
       <use xlink:href="#ArialMT-2e" x="55.615234"/>
       <use xlink:href="#ArialMT-38" x="83.398438"/>
      </g>
     </g>
    </g>
    <g id="ytick_6">
     <g id="line2d_13">
      <path d="M 66.347262 25.8 
L 435.575058 25.8 
" clip-path="url(#pf1e2a4be83)" style="fill: none; stroke: #cccccc; stroke-linecap: round"/>
     </g>
     <g id="text_14">
      <!-- 1.0 -->
      <g style="fill: #262626" transform="translate(41.557263 29.736797) scale(0.11 -0.11)">
       <use xlink:href="#ArialMT-31"/>
       <use xlink:href="#ArialMT-2e" x="55.615234"/>
       <use xlink:href="#ArialMT-30" x="83.398438"/>
      </g>
     </g>
    </g>
    <g id="text_15">
     <!-- id -->
     <g style="fill: #262626" transform="translate(34.774763 147.197969) rotate(-90) scale(0.14 -0.14)">
      <use xlink:href="#ArialMT-69"/>
      <use xlink:href="#ArialMT-64" x="22.216797"/>
     </g>
    </g>
   </g>
   <g id="patch_3">
    <path d="M 66.347262 257.7 
L 66.347262 25.8 
" style="fill: none; stroke: #cccccc; stroke-width: 1.25; stroke-linejoin: miter; stroke-linecap: square"/>
   </g>
   <g id="patch_4">
    <path d="M 66.347262 257.7 
L 435.575058 257.7 
" style="fill: none; stroke: #cccccc; stroke-width: 1.25; stroke-linejoin: miter; stroke-linecap: square"/>
   </g>
  </g>
  <g id="axes_2">
   <g id="PolyCollection_1">
    <defs>
     <path id="meadbbdd971" d="M 83.90658 -43.611381 
L 83.90658 -43.563281 
L 85.58603 -43.563281 
L 87.265481 -43.563281 
L 88.944932 -43.563281 
L 90.624383 -43.563281 
L 92.303833 -43.563281 
L 93.983284 -43.563281 
L 95.662735 -43.563281 
L 97.342185 -43.563281 
L 99.021636 -43.563281 
L 100.701087 -43.563281 
L 102.380538 -43.563281 
L 104.059988 -43.563281 
L 105.739439 -43.563281 
L 107.41889 -43.563281 
L 109.09834 -43.563281 
L 110.777791 -43.563281 
L 112.457242 -43.563281 
L 114.136692 -43.563281 
L 115.816143 -43.563281 
L 117.495594 -43.563281 
L 119.175045 -43.563281 
L 120.854495 -43.563281 
L 122.533946 -43.563281 
L 124.213397 -43.563281 
L 125.892847 -43.563281 
L 127.572298 -43.563281 
L 129.251749 -43.563281 
L 130.9312 -43.563281 
L 132.61065 -43.563281 
L 134.290101 -43.563281 
L 135.969552 -43.563281 
L 137.649002 -43.563281 
L 139.328453 -43.563281 
L 141.007904 -43.563281 
L 142.687354 -43.563281 
L 144.366805 -43.563281 
L 146.046256 -43.563281 
L 147.725707 -43.563281 
L 149.405157 -43.563281 
L 151.084608 -43.563281 
L 152.764059 -43.563281 
L 154.443509 -43.563281 
L 156.12296 -43.563281 
L 157.802411 -43.563281 
L 159.481861 -43.563281 
L 161.161312 -43.563281 
L 162.840763 -43.563281 
L 164.520214 -43.563281 
L 166.199664 -43.563281 
L 167.879115 -43.563281 
L 169.558566 -43.563281 
L 171.238016 -43.563281 
L 172.917467 -43.563281 
L 174.596918 -43.563281 
L 176.276369 -43.563281 
L 177.955819 -43.563281 
L 179.63527 -43.563281 
L 181.314721 -43.563281 
L 182.994171 -43.563281 
L 184.673622 -43.563281 
L 186.353073 -43.563281 
L 188.032523 -43.563281 
L 189.711974 -43.563281 
L 191.391425 -43.563281 
L 193.070876 -43.563281 
L 194.750326 -43.563281 
L 196.429777 -43.563281 
L 198.109228 -43.563281 
L 199.788678 -43.563281 
L 201.468129 -43.563281 
L 203.14758 -43.563281 
L 204.827031 -43.563281 
L 206.506481 -43.563281 
L 208.185932 -43.563281 
L 209.865383 -43.563281 
L 211.544833 -43.563281 
L 213.224284 -43.563281 
L 214.903735 -43.563281 
L 216.583185 -43.563281 
L 218.262636 -43.563281 
L 219.942087 -43.563281 
L 221.621538 -43.563281 
L 223.300988 -43.563281 
L 224.980439 -43.563281 
L 226.65989 -43.563281 
L 228.33934 -43.563281 
L 230.018791 -43.563281 
L 231.698242 -43.563281 
L 233.377692 -43.563281 
L 235.057143 -43.563281 
L 236.736594 -43.563281 
L 238.416045 -43.563281 
L 240.095495 -43.563281 
L 241.774946 -43.563281 
L 243.454397 -43.563281 
L 245.133847 -43.563281 
L 246.813298 -43.563281 
L 248.492749 -43.563281 
L 250.1722 -43.563281 
L 251.85165 -43.563281 
L 253.531101 -43.563281 
L 255.210552 -43.563281 
L 256.890002 -43.563281 
L 258.569453 -43.563281 
L 260.248904 -43.563281 
L 261.928354 -43.563281 
L 263.607805 -43.563281 
L 265.287256 -43.563281 
L 266.966707 -43.563281 
L 268.646157 -43.563281 
L 270.325608 -43.563281 
L 272.005059 -43.563281 
L 273.684509 -43.563281 
L 275.36396 -43.563281 
L 277.043411 -43.563281 
L 278.722862 -43.563281 
L 280.402312 -43.563281 
L 282.081763 -43.563281 
L 283.761214 -43.563281 
L 285.440664 -43.563281 
L 287.120115 -43.563281 
L 288.799566 -43.563281 
L 290.479016 -43.563281 
L 292.158467 -43.563281 
L 293.837918 -43.563281 
L 295.517369 -43.563281 
L 297.196819 -43.563281 
L 298.87627 -43.563281 
L 300.555721 -43.563281 
L 302.235171 -43.563281 
L 303.914622 -43.563281 
L 305.594073 -43.563281 
L 307.273523 -43.563281 
L 308.952974 -43.563281 
L 310.632425 -43.563281 
L 312.311876 -43.563281 
L 313.991326 -43.563281 
L 315.670777 -43.563281 
L 317.350228 -43.563281 
L 319.029678 -43.563281 
L 320.709129 -43.563281 
L 322.38858 -43.563281 
L 324.068031 -43.563281 
L 325.747481 -43.563281 
L 327.426932 -43.563281 
L 329.106383 -43.563281 
L 330.785833 -43.563281 
L 332.465284 -43.563281 
L 334.144735 -43.563281 
L 335.824185 -43.563281 
L 337.503636 -43.563281 
L 339.183087 -43.563281 
L 340.862538 -43.563281 
L 342.541988 -43.563281 
L 344.221439 -43.563281 
L 345.90089 -43.563281 
L 347.58034 -43.563281 
L 349.259791 -43.563281 
L 350.939242 -43.563281 
L 352.618693 -43.563281 
L 354.298143 -43.563281 
L 355.977594 -43.563281 
L 357.657045 -43.563281 
L 359.336495 -43.563281 
L 361.015946 -43.563281 
L 362.695397 -43.563281 
L 364.374847 -43.563281 
L 366.054298 -43.563281 
L 367.733749 -43.563281 
L 369.4132 -43.563281 
L 371.09265 -43.563281 
L 372.772101 -43.563281 
L 374.451552 -43.563281 
L 376.131002 -43.563281 
L 377.810453 -43.563281 
L 379.489904 -43.563281 
L 381.169354 -43.563281 
L 382.848805 -43.563281 
L 384.528256 -43.563281 
L 386.207707 -43.563281 
L 387.887157 -43.563281 
L 389.566608 -43.563281 
L 391.246059 -43.563281 
L 392.925509 -43.563281 
L 394.60496 -43.563281 
L 396.284411 -43.563281 
L 397.963862 -43.563281 
L 399.643312 -43.563281 
L 401.322763 -43.563281 
L 403.002214 -43.563281 
L 404.681664 -43.563281 
L 406.361115 -43.563281 
L 408.040566 -43.563281 
L 409.720016 -43.563281 
L 411.399467 -43.563281 
L 413.078918 -43.563281 
L 414.758369 -43.563281 
L 416.437819 -43.563281 
L 418.11727 -43.563281 
L 418.11727 -43.766384 
L 418.11727 -43.766384 
L 416.437819 -43.891266 
L 414.758369 -44.081328 
L 413.078918 -44.363636 
L 411.399467 -44.772809 
L 409.720016 -45.351386 
L 408.040566 -46.149345 
L 406.361115 -47.22245 
L 404.681664 -48.629138 
L 403.002214 -50.4258 
L 401.322763 -52.660542 
L 399.643312 -55.365787 
L 397.963862 -58.550422 
L 396.284411 -62.192481 
L 394.60496 -66.233556 
L 392.925509 -70.576161 
L 391.246059 -75.085055 
L 389.566608 -79.593149 
L 387.887157 -83.911956 
L 386.207707 -87.845858 
L 384.528256 -91.208757 
L 382.848805 -93.841164 
L 381.169354 -95.625522 
L 379.489904 -96.497677 
L 377.810453 -96.452904 
L 376.131002 -95.545622 
L 374.451552 -93.882863 
L 372.772101 -91.612468 
L 371.09265 -88.907716 
L 369.4132 -85.950539 
L 367.733749 -82.915569 
L 366.054298 -79.957013 
L 364.374847 -77.199786 
L 362.695397 -74.735629 
L 361.015946 -72.624158 
L 359.336495 -70.8981 
L 357.657045 -69.571454 
L 355.977594 -68.648993 
L 354.298143 -68.135503 
L 352.618693 -68.043281 
L 350.939242 -68.396769 
L 349.259791 -69.23366 
L 347.58034 -70.602285 
L 345.90089 -72.555626 
L 344.221439 -75.14271 
L 342.541988 -78.398529 
L 340.862538 -82.333839 
L 339.183087 -86.926257 
L 337.503636 -92.114014 
L 335.824185 -97.793396 
L 334.144735 -103.820503 
L 332.465284 -110.017388 
L 330.785833 -116.182036 
L 329.106383 -122.101113 
L 327.426932 -127.564016 
L 325.747481 -132.376602 
L 324.068031 -136.373085 
L 322.38858 -139.424957 
L 320.709129 -141.446305 
L 319.029678 -142.395518 
L 317.350228 -142.273863 
L 315.670777 -141.121761 
L 313.991326 -139.013681 
L 312.311876 -136.052445 
L 310.632425 -132.363447 
L 308.952974 -128.088958 
L 307.273523 -123.382436 
L 305.594073 -118.402661 
L 303.914622 -113.307554 
L 302.235171 -108.24779 
L 300.555721 -103.360537 
L 298.87627 -98.763899 
L 297.196819 -94.552732 
L 295.517369 -90.79639 
L 293.837918 -87.538772 
L 292.158467 -84.800618 
L 290.479016 -82.583695 
L 288.799566 -80.876194 
L 287.120115 -79.658495 
L 285.440664 -78.908512 
L 283.761214 -78.605948 
L 282.081763 -78.735099 
L 280.402312 -79.286124 
L 278.722862 -80.254932 
L 277.043411 -81.64199 
L 275.36396 -83.450379 
L 273.684509 -85.683343 
L 272.005059 -88.341473 
L 270.325608 -91.419523 
L 268.646157 -94.902877 
L 266.966707 -98.763715 
L 265.287256 -102.957125 
L 263.607805 -107.417642 
L 261.928354 -112.056905 
L 260.248904 -116.763241 
L 258.569453 -121.403918 
L 256.890002 -125.830582 
L 255.210552 -129.887919 
L 253.531101 -133.425078 
L 251.85165 -136.308814 
L 250.1722 -138.436904 
L 248.492749 -139.750123 
L 246.813298 -140.241139 
L 245.133847 -139.958968 
L 243.454397 -139.008122 
L 241.774946 -137.542276 
L 240.095495 -135.752897 
L 238.416045 -133.853914 
L 236.736594 -132.063953 
L 235.057143 -130.587925 
L 233.377692 -129.599823 
L 231.698242 -129.22845 
L 230.018791 -129.547469 
L 228.33934 -130.570753 
L 226.65989 -132.253397 
L 224.980439 -134.498212 
L 223.300988 -137.166873 
L 221.621538 -140.094429 
L 219.942087 -143.105502 
L 218.262636 -146.030352 
L 216.583185 -148.719103 
L 214.903735 -151.052706 
L 213.224284 -152.949739 
L 211.544833 -154.368709 
L 209.865383 -155.306113 
L 208.185932 -155.790972 
L 206.506481 -155.876892 
L 204.827031 -155.632816 
L 203.14758 -155.133604 
L 201.468129 -154.451411 
L 199.788678 -153.648635 
L 198.109228 -152.772952 
L 196.429777 -151.854781 
L 194.750326 -150.907278 
L 193.070876 -149.928804 
L 191.391425 -148.907571 
L 189.711974 -147.827924 
L 188.032523 -146.677514 
L 186.353073 -145.454365 
L 184.673622 -144.17279 
L 182.994171 -142.867133 
L 181.314721 -141.592574 
L 179.63527 -140.422611 
L 177.955819 -139.44334 
L 176.276369 -138.745174 
L 174.596918 -138.41304 
L 172.917467 -138.516355 
L 171.238016 -139.100081 
L 169.558566 -140.177938 
L 167.879115 -141.728479 
L 166.199664 -143.694282 
L 164.520214 -145.984051 
L 162.840763 -148.477168 
L 161.161312 -151.030036 
L 159.481861 -153.483643 
L 157.802411 -155.671839 
L 156.12296 -157.430035 
L 154.443509 -158.604104 
L 152.764059 -159.059238 
L 151.084608 -158.68842 
L 149.405157 -157.419948 
L 147.725707 -155.22325 
L 146.046256 -152.112172 
L 144.366805 -148.145 
L 142.687354 -143.420766 
L 141.007904 -138.0719 
L 139.328453 -132.25379 
L 137.649002 -126.132375 
L 135.969552 -119.871221 
L 134.290101 -113.619676 
L 132.61065 -107.503515 
L 130.9312 -101.619085 
L 129.251749 -96.031403 
L 127.572298 -90.776 
L 125.892847 -85.86381 
L 124.213397 -81.287962 
L 122.533946 -77.03123 
L 120.854495 -73.072922 
L 119.175045 -69.394306 
L 117.495594 -65.982004 
L 115.816143 -62.829254 
L 114.136692 -59.935267 
L 112.457242 -57.303226 
L 110.777791 -54.937557 
L 109.09834 -52.841139 
L 107.41889 -51.012979 
L 105.739439 -49.446695 
L 104.059988 -48.129966 
L 102.380538 -47.044876 
L 100.701087 -46.16898 
L 99.021636 -45.476813 
L 97.342185 -44.941563 
L 95.662735 -44.536658 
L 93.983284 -44.237086 
L 92.303833 -44.020354 
L 90.624383 -43.867045 
L 88.944932 -43.761023 
L 87.265481 -43.689347 
L 85.58603 -43.64198 
L 83.90658 -43.611381 
z
" style="stroke: #ee8468"/>
    </defs>
    <g clip-path="url(#pf1e2a4be83)">
     <use xlink:href="#meadbbdd971" x="0" y="301.263281" style="fill: #ee8468; fill-opacity: 0.25; stroke: #ee8468"/>
    </g>
   </g>
   <g id="PolyCollection_2">
    <defs>
     <path id="m687fe0d602" d="M 88.411121 -43.698983 
L 88.411121 -43.563281 
L 90.044279 -43.563281 
L 91.677438 -43.563281 
L 93.310596 -43.563281 
L 94.943755 -43.563281 
L 96.576913 -43.563281 
L 98.210072 -43.563281 
L 99.84323 -43.563281 
L 101.476389 -43.563281 
L 103.109547 -43.563281 
L 104.742706 -43.563281 
L 106.375864 -43.563281 
L 108.009023 -43.563281 
L 109.642182 -43.563281 
L 111.27534 -43.563281 
L 112.908499 -43.563281 
L 114.541657 -43.563281 
L 116.174816 -43.563281 
L 117.807974 -43.563281 
L 119.441133 -43.563281 
L 121.074291 -43.563281 
L 122.70745 -43.563281 
L 124.340608 -43.563281 
L 125.973767 -43.563281 
L 127.606925 -43.563281 
L 129.240084 -43.563281 
L 130.873243 -43.563281 
L 132.506401 -43.563281 
L 134.13956 -43.563281 
L 135.772718 -43.563281 
L 137.405877 -43.563281 
L 139.039035 -43.563281 
L 140.672194 -43.563281 
L 142.305352 -43.563281 
L 143.938511 -43.563281 
L 145.571669 -43.563281 
L 147.204828 -43.563281 
L 148.837986 -43.563281 
L 150.471145 -43.563281 
L 152.104304 -43.563281 
L 153.737462 -43.563281 
L 155.370621 -43.563281 
L 157.003779 -43.563281 
L 158.636938 -43.563281 
L 160.270096 -43.563281 
L 161.903255 -43.563281 
L 163.536413 -43.563281 
L 165.169572 -43.563281 
L 166.80273 -43.563281 
L 168.435889 -43.563281 
L 170.069047 -43.563281 
L 171.702206 -43.563281 
L 173.335365 -43.563281 
L 174.968523 -43.563281 
L 176.601682 -43.563281 
L 178.23484 -43.563281 
L 179.867999 -43.563281 
L 181.501157 -43.563281 
L 183.134316 -43.563281 
L 184.767474 -43.563281 
L 186.400633 -43.563281 
L 188.033791 -43.563281 
L 189.66695 -43.563281 
L 191.300109 -43.563281 
L 192.933267 -43.563281 
L 194.566426 -43.563281 
L 196.199584 -43.563281 
L 197.832743 -43.563281 
L 199.465901 -43.563281 
L 201.09906 -43.563281 
L 202.732218 -43.563281 
L 204.365377 -43.563281 
L 205.998535 -43.563281 
L 207.631694 -43.563281 
L 209.264852 -43.563281 
L 210.898011 -43.563281 
L 212.53117 -43.563281 
L 214.164328 -43.563281 
L 215.797487 -43.563281 
L 217.430645 -43.563281 
L 219.063804 -43.563281 
L 220.696962 -43.563281 
L 222.330121 -43.563281 
L 223.963279 -43.563281 
L 225.596438 -43.563281 
L 227.229596 -43.563281 
L 228.862755 -43.563281 
L 230.495913 -43.563281 
L 232.129072 -43.563281 
L 233.762231 -43.563281 
L 235.395389 -43.563281 
L 237.028548 -43.563281 
L 238.661706 -43.563281 
L 240.294865 -43.563281 
L 241.928023 -43.563281 
L 243.561182 -43.563281 
L 245.19434 -43.563281 
L 246.827499 -43.563281 
L 248.460657 -43.563281 
L 250.093816 -43.563281 
L 251.726974 -43.563281 
L 253.360133 -43.563281 
L 254.993292 -43.563281 
L 256.62645 -43.563281 
L 258.259609 -43.563281 
L 259.892767 -43.563281 
L 261.525926 -43.563281 
L 263.159084 -43.563281 
L 264.792243 -43.563281 
L 266.425401 -43.563281 
L 268.05856 -43.563281 
L 269.691718 -43.563281 
L 271.324877 -43.563281 
L 272.958035 -43.563281 
L 274.591194 -43.563281 
L 276.224353 -43.563281 
L 277.857511 -43.563281 
L 279.49067 -43.563281 
L 281.123828 -43.563281 
L 282.756987 -43.563281 
L 284.390145 -43.563281 
L 286.023304 -43.563281 
L 287.656462 -43.563281 
L 289.289621 -43.563281 
L 290.922779 -43.563281 
L 292.555938 -43.563281 
L 294.189096 -43.563281 
L 295.822255 -43.563281 
L 297.455414 -43.563281 
L 299.088572 -43.563281 
L 300.721731 -43.563281 
L 302.354889 -43.563281 
L 303.988048 -43.563281 
L 305.621206 -43.563281 
L 307.254365 -43.563281 
L 308.887523 -43.563281 
L 310.520682 -43.563281 
L 312.15384 -43.563281 
L 313.786999 -43.563281 
L 315.420157 -43.563281 
L 317.053316 -43.563281 
L 318.686475 -43.563281 
L 320.319633 -43.563281 
L 321.952792 -43.563281 
L 323.58595 -43.563281 
L 325.219109 -43.563281 
L 326.852267 -43.563281 
L 328.485426 -43.563281 
L 330.118584 -43.563281 
L 331.751743 -43.563281 
L 333.384901 -43.563281 
L 335.01806 -43.563281 
L 336.651219 -43.563281 
L 338.284377 -43.563281 
L 339.917536 -43.563281 
L 341.550694 -43.563281 
L 343.183853 -43.563281 
L 344.817011 -43.563281 
L 346.45017 -43.563281 
L 348.083328 -43.563281 
L 349.716487 -43.563281 
L 351.349645 -43.563281 
L 352.982804 -43.563281 
L 354.615962 -43.563281 
L 356.249121 -43.563281 
L 357.88228 -43.563281 
L 359.515438 -43.563281 
L 361.148597 -43.563281 
L 362.781755 -43.563281 
L 364.414914 -43.563281 
L 366.048072 -43.563281 
L 367.681231 -43.563281 
L 369.314389 -43.563281 
L 370.947548 -43.563281 
L 372.580706 -43.563281 
L 374.213865 -43.563281 
L 375.847023 -43.563281 
L 377.480182 -43.563281 
L 379.113341 -43.563281 
L 380.746499 -43.563281 
L 382.379658 -43.563281 
L 384.012816 -43.563281 
L 385.645975 -43.563281 
L 387.279133 -43.563281 
L 388.912292 -43.563281 
L 390.54545 -43.563281 
L 392.178609 -43.563281 
L 393.811767 -43.563281 
L 395.444926 -43.563281 
L 397.078084 -43.563281 
L 398.711243 -43.563281 
L 400.344402 -43.563281 
L 401.97756 -43.563281 
L 403.610719 -43.563281 
L 405.243877 -43.563281 
L 406.877036 -43.563281 
L 408.510194 -43.563281 
L 410.143353 -43.563281 
L 411.776511 -43.563281 
L 413.40967 -43.563281 
L 413.40967 -43.683296 
L 413.40967 -43.683296 
L 411.776511 -43.769206 
L 410.143353 -43.907056 
L 408.510194 -44.121756 
L 406.877036 -44.446312 
L 405.243877 -44.922449 
L 403.610719 -45.600269 
L 401.97756 -46.536471 
L 400.344402 -47.790814 
L 398.711243 -49.420672 
L 397.078084 -51.473921 
L 395.444926 -53.980792 
L 393.811767 -56.945818 
L 392.178609 -60.341363 
L 390.54545 -64.10434 
L 388.912292 -68.137658 
L 387.279133 -72.317372 
L 385.645975 -76.505756 
L 384.012816 -80.569449 
L 382.379658 -84.400749 
L 380.746499 -87.939123 
L 379.113341 -91.189434 
L 377.480182 -94.233225 
L 375.847023 -97.229966 
L 374.213865 -100.40632 
L 372.580706 -104.033218 
L 370.947548 -108.392571 
L 369.314389 -113.737464 
L 367.681231 -120.251305 
L 366.048072 -128.012165 
L 364.414914 -136.968257 
L 362.781755 -146.929088 
L 361.148597 -157.574393 
L 359.515438 -168.480095 
L 357.88228 -179.157722 
L 356.249121 -189.101618 
L 354.615962 -197.837284 
L 352.982804 -204.964501 
L 351.349645 -210.190306 
L 349.716487 -213.348988 
L 348.083328 -214.408524 
L 346.45017 -213.464719 
L 344.817011 -210.725483 
L 343.183853 -206.488093 
L 341.550694 -201.112072 
L 339.917536 -194.989934 
L 338.284377 -188.517625 
L 336.651219 -182.066404 
L 335.01806 -175.958013 
L 333.384901 -170.445168 
L 331.751743 -165.69939 
L 330.118584 -161.807728 
L 328.485426 -158.778933 
L 326.852267 -156.558309 
L 325.219109 -155.049014 
L 323.58595 -154.136524 
L 321.952792 -153.712469 
L 320.319633 -153.694393 
L 318.686475 -154.038969 
L 317.053316 -154.747532 
L 315.420157 -155.864142 
L 313.786999 -157.467359 
L 312.15384 -159.657377 
L 310.520682 -162.540241 
L 308.887523 -166.210683 
L 307.254365 -170.73502 
L 305.621206 -176.135713 
L 303.988048 -182.379442 
L 302.354889 -189.370824 
L 300.721731 -196.95372 
L 299.088572 -204.921213 
L 297.455414 -213.033784 
L 295.822255 -221.04324 
L 294.189096 -228.718115 
L 292.555938 -235.865286 
L 290.922779 -242.342951 
L 289.289621 -248.061929 
L 287.656462 -252.975279 
L 286.023304 -257.059485 
L 284.390145 -260.293075 
L 282.756987 -262.639503 
L 281.123828 -264.040146 
L 279.49067 -264.420424 
L 277.857511 -263.708179 
L 276.224353 -261.85978 
L 274.591194 -258.886934 
L 272.958035 -254.876753 
L 271.324877 -249.999299 
L 269.691718 -244.500102 
L 268.05856 -238.678902 
L 266.425401 -232.859162 
L 264.792243 -227.354608 
L 263.159084 -222.439075 
L 261.525926 -218.324207 
L 259.892767 -215.147064 
L 258.259609 -212.967033 
L 256.62645 -211.769653 
L 254.993292 -211.474315 
L 253.360133 -211.94331 
L 251.726974 -212.991042 
L 250.093816 -214.393631 
L 248.460657 -215.900121 
L 246.827499 -217.246687 
L 245.19434 -218.174479 
L 243.561182 -218.450441 
L 241.928023 -217.888955 
L 240.294865 -216.371124 
L 238.661706 -213.858153 
L 237.028548 -210.395927 
L 235.395389 -206.109266 
L 233.762231 -201.186187 
L 232.129072 -195.854336 
L 230.495913 -190.353209 
L 228.862755 -184.906417 
L 227.229596 -179.698131 
L 225.596438 -174.85691 
L 223.963279 -170.44871 
L 222.330121 -166.479267 
L 220.696962 -162.90463 
L 219.063804 -159.647518 
L 217.430645 -156.616684 
L 215.797487 -153.726345 
L 214.164328 -150.91314 
L 212.53117 -148.148649 
L 210.898011 -145.446251 
L 209.264852 -142.861818 
L 207.631694 -140.488468 
L 205.998535 -138.446148 
L 204.365377 -136.867379 
L 202.732218 -135.880816 
L 201.09906 -135.594527 
L 199.465901 -136.080882 
L 197.832743 -137.364829 
L 196.199584 -139.416935 
L 194.566426 -142.152091 
L 192.933267 -145.43421 
L 191.300109 -149.086588 
L 189.66695 -152.907045 
L 188.033791 -156.686375 
L 186.400633 -160.228218 
L 184.767474 -163.368109 
L 183.134316 -165.98933 
L 181.501157 -168.03331 
L 179.867999 -169.502769 
L 178.23484 -170.456643 
L 176.601682 -170.996981 
L 174.968523 -171.249394 
L 173.335365 -171.339902 
L 171.702206 -171.371984 
L 170.069047 -171.40789 
L 168.435889 -171.457727 
L 166.80273 -171.478469 
L 165.169572 -171.383135 
L 163.536413 -171.058355 
L 161.903255 -170.386868 
L 160.270096 -169.270587 
L 158.636938 -167.649965 
L 157.003779 -165.516411 
L 155.370621 -162.916107 
L 153.737462 -159.945426 
L 152.104304 -156.739599 
L 150.471145 -153.45722 
L 148.837986 -150.263263 
L 147.204828 -147.312844 
L 145.571669 -144.737126 
L 143.938511 -142.63196 
L 142.305352 -141.049274 
L 140.672194 -139.991109 
L 139.039035 -139.406355 
L 137.405877 -139.190629 
L 135.772718 -139.190021 
L 134.13956 -139.209451 
L 132.506401 -139.026022 
L 130.873243 -138.40703 
L 129.240084 -137.131369 
L 127.606925 -135.012167 
L 125.973767 -131.917855 
L 124.340608 -127.788686 
L 122.70745 -122.646102 
L 121.074291 -116.593247 
L 119.441133 -109.806205 
L 117.807974 -102.516976 
L 116.174816 -94.990491 
L 114.541657 -87.498853 
L 112.908499 -80.296343 
L 111.27534 -73.598414 
L 109.642182 -67.567051 
L 108.009023 -62.303719 
L 106.375864 -57.849795 
L 104.742706 -54.193319 
L 103.109547 -51.2801 
L 101.476389 -49.026955 
L 99.84323 -47.334968 
L 98.210072 -46.101121 
L 96.576913 -45.227284 
L 94.943755 -44.626198 
L 93.310596 -44.224586 
L 91.677438 -43.963936 
L 90.044279 -43.799614 
L 88.411121 -43.698983 
z
" style="stroke: #f2cbb7"/>
    </defs>
    <g clip-path="url(#pf1e2a4be83)">
     <use xlink:href="#m687fe0d602" x="0" y="301.263281" style="fill: #f2cbb7; fill-opacity: 0.25; stroke: #f2cbb7"/>
    </g>
   </g>
   <g id="PolyCollection_3">
    <defs>
     <path id="m6cfdbf4d1d" d="M 83.130344 -43.904333 
L 83.130344 -43.563281 
L 84.817086 -43.563281 
L 86.503828 -43.563281 
L 88.19057 -43.563281 
L 89.877312 -43.563281 
L 91.564053 -43.563281 
L 93.250795 -43.563281 
L 94.937537 -43.563281 
L 96.624279 -43.563281 
L 98.311021 -43.563281 
L 99.997763 -43.563281 
L 101.684505 -43.563281 
L 103.371247 -43.563281 
L 105.057988 -43.563281 
L 106.74473 -43.563281 
L 108.431472 -43.563281 
L 110.118214 -43.563281 
L 111.804956 -43.563281 
L 113.491698 -43.563281 
L 115.17844 -43.563281 
L 116.865181 -43.563281 
L 118.551923 -43.563281 
L 120.238665 -43.563281 
L 121.925407 -43.563281 
L 123.612149 -43.563281 
L 125.298891 -43.563281 
L 126.985633 -43.563281 
L 128.672375 -43.563281 
L 130.359116 -43.563281 
L 132.045858 -43.563281 
L 133.7326 -43.563281 
L 135.419342 -43.563281 
L 137.106084 -43.563281 
L 138.792826 -43.563281 
L 140.479568 -43.563281 
L 142.16631 -43.563281 
L 143.853051 -43.563281 
L 145.539793 -43.563281 
L 147.226535 -43.563281 
L 148.913277 -43.563281 
L 150.600019 -43.563281 
L 152.286761 -43.563281 
L 153.973503 -43.563281 
L 155.660244 -43.563281 
L 157.346986 -43.563281 
L 159.033728 -43.563281 
L 160.72047 -43.563281 
L 162.407212 -43.563281 
L 164.093954 -43.563281 
L 165.780696 -43.563281 
L 167.467438 -43.563281 
L 169.154179 -43.563281 
L 170.840921 -43.563281 
L 172.527663 -43.563281 
L 174.214405 -43.563281 
L 175.901147 -43.563281 
L 177.587889 -43.563281 
L 179.274631 -43.563281 
L 180.961372 -43.563281 
L 182.648114 -43.563281 
L 184.334856 -43.563281 
L 186.021598 -43.563281 
L 187.70834 -43.563281 
L 189.395082 -43.563281 
L 191.081824 -43.563281 
L 192.768566 -43.563281 
L 194.455307 -43.563281 
L 196.142049 -43.563281 
L 197.828791 -43.563281 
L 199.515533 -43.563281 
L 201.202275 -43.563281 
L 202.889017 -43.563281 
L 204.575759 -43.563281 
L 206.262501 -43.563281 
L 207.949242 -43.563281 
L 209.635984 -43.563281 
L 211.322726 -43.563281 
L 213.009468 -43.563281 
L 214.69621 -43.563281 
L 216.382952 -43.563281 
L 218.069694 -43.563281 
L 219.756435 -43.563281 
L 221.443177 -43.563281 
L 223.129919 -43.563281 
L 224.816661 -43.563281 
L 226.503403 -43.563281 
L 228.190145 -43.563281 
L 229.876887 -43.563281 
L 231.563629 -43.563281 
L 233.25037 -43.563281 
L 234.937112 -43.563281 
L 236.623854 -43.563281 
L 238.310596 -43.563281 
L 239.997338 -43.563281 
L 241.68408 -43.563281 
L 243.370822 -43.563281 
L 245.057563 -43.563281 
L 246.744305 -43.563281 
L 248.431047 -43.563281 
L 250.117789 -43.563281 
L 251.804531 -43.563281 
L 253.491273 -43.563281 
L 255.178015 -43.563281 
L 256.864757 -43.563281 
L 258.551498 -43.563281 
L 260.23824 -43.563281 
L 261.924982 -43.563281 
L 263.611724 -43.563281 
L 265.298466 -43.563281 
L 266.985208 -43.563281 
L 268.67195 -43.563281 
L 270.358692 -43.563281 
L 272.045433 -43.563281 
L 273.732175 -43.563281 
L 275.418917 -43.563281 
L 277.105659 -43.563281 
L 278.792401 -43.563281 
L 280.479143 -43.563281 
L 282.165885 -43.563281 
L 283.852626 -43.563281 
L 285.539368 -43.563281 
L 287.22611 -43.563281 
L 288.912852 -43.563281 
L 290.599594 -43.563281 
L 292.286336 -43.563281 
L 293.973078 -43.563281 
L 295.65982 -43.563281 
L 297.346561 -43.563281 
L 299.033303 -43.563281 
L 300.720045 -43.563281 
L 302.406787 -43.563281 
L 304.093529 -43.563281 
L 305.780271 -43.563281 
L 307.467013 -43.563281 
L 309.153755 -43.563281 
L 310.840496 -43.563281 
L 312.527238 -43.563281 
L 314.21398 -43.563281 
L 315.900722 -43.563281 
L 317.587464 -43.563281 
L 319.274206 -43.563281 
L 320.960948 -43.563281 
L 322.647689 -43.563281 
L 324.334431 -43.563281 
L 326.021173 -43.563281 
L 327.707915 -43.563281 
L 329.394657 -43.563281 
L 331.081399 -43.563281 
L 332.768141 -43.563281 
L 334.454883 -43.563281 
L 336.141624 -43.563281 
L 337.828366 -43.563281 
L 339.515108 -43.563281 
L 341.20185 -43.563281 
L 342.888592 -43.563281 
L 344.575334 -43.563281 
L 346.262076 -43.563281 
L 347.948817 -43.563281 
L 349.635559 -43.563281 
L 351.322301 -43.563281 
L 353.009043 -43.563281 
L 354.695785 -43.563281 
L 356.382527 -43.563281 
L 358.069269 -43.563281 
L 359.756011 -43.563281 
L 361.442752 -43.563281 
L 363.129494 -43.563281 
L 364.816236 -43.563281 
L 366.502978 -43.563281 
L 368.18972 -43.563281 
L 369.876462 -43.563281 
L 371.563204 -43.563281 
L 373.249946 -43.563281 
L 374.936687 -43.563281 
L 376.623429 -43.563281 
L 378.310171 -43.563281 
L 379.996913 -43.563281 
L 381.683655 -43.563281 
L 383.370397 -43.563281 
L 385.057139 -43.563281 
L 386.74388 -43.563281 
L 388.430622 -43.563281 
L 390.117364 -43.563281 
L 391.804106 -43.563281 
L 393.490848 -43.563281 
L 395.17759 -43.563281 
L 396.864332 -43.563281 
L 398.551074 -43.563281 
L 400.237815 -43.563281 
L 401.924557 -43.563281 
L 403.611299 -43.563281 
L 405.298041 -43.563281 
L 406.984783 -43.563281 
L 408.671525 -43.563281 
L 410.358267 -43.563281 
L 412.045009 -43.563281 
L 413.73175 -43.563281 
L 415.418492 -43.563281 
L 417.105234 -43.563281 
L 418.791976 -43.563281 
L 418.791976 -43.681209 
L 418.791976 -43.681209 
L 417.105234 -43.756101 
L 415.418492 -43.872313 
L 413.73175 -44.048815 
L 412.045009 -44.31119 
L 410.358267 -44.692922 
L 408.671525 -45.236467 
L 406.984783 -45.993862 
L 405.298041 -47.026559 
L 403.611299 -48.404171 
L 401.924557 -50.201831 
L 400.237815 -52.495952 
L 398.551074 -55.358341 
L 396.864332 -58.848877 
L 395.17759 -63.007196 
L 393.490848 -67.844196 
L 391.804106 -73.334369 
L 390.117364 -79.410212 
L 388.430622 -85.959914 
L 386.74388 -92.829365 
L 385.057139 -99.829129 
L 383.370397 -106.746363 
L 381.683655 -113.361007 
L 379.996913 -119.464749 
L 378.310171 -124.880684 
L 376.623429 -129.48121 
L 374.936687 -133.201671 
L 373.249946 -136.047699 
L 371.563204 -138.094941 
L 369.876462 -139.480925 
L 368.18972 -140.389947 
L 366.502978 -141.032866 
L 364.816236 -141.624441 
L 363.129494 -142.361088 
L 361.442752 -143.401794 
L 359.756011 -144.854259 
L 358.069269 -146.767496 
L 356.382527 -149.131056 
L 354.695785 -151.880192 
L 353.009043 -154.905573 
L 351.322301 -158.065842 
L 349.635559 -161.20131 
L 347.948817 -164.147326 
L 346.262076 -166.746325 
L 344.575334 -168.857954 
L 342.888592 -170.367095 
L 341.20185 -171.18982 
L 339.515108 -171.277399 
L 337.828366 -170.618467 
L 336.141624 -169.239367 
L 334.454883 -167.202629 
L 332.768141 -164.603523 
L 331.081399 -161.564755 
L 329.394657 -158.229471 
L 327.707915 -154.752976 
L 326.021173 -151.293703 
L 324.334431 -148.004088 
L 322.647689 -145.022011 
L 320.960948 -142.46337 
L 319.274206 -140.416257 
L 317.587464 -138.936991 
L 315.900722 -138.048192 
L 314.21398 -137.738917 
L 312.527238 -137.966846 
L 310.840496 -138.662427 
L 309.153755 -139.734791 
L 307.467013 -141.079121 
L 305.780271 -142.584991 
L 304.093529 -144.144996 
L 302.406787 -145.66288 
L 300.720045 -147.06036 
L 299.033303 -148.281957 
L 297.346561 -149.297419 
L 295.65982 -150.101682 
L 293.973078 -150.712671 
L 292.286336 -151.167502 
L 290.599594 -151.517772 
L 288.912852 -151.824506 
L 287.22611 -152.153131 
L 285.539368 -152.56853 
L 283.852626 -153.129985 
L 282.165885 -153.885749 
L 280.479143 -154.867097 
L 278.792401 -156.082033 
L 277.105659 -157.509253 
L 275.418917 -159.093378 
L 273.732175 -160.742711 
L 272.045433 -162.330717 
L 270.358692 -163.702118 
L 268.67195 -164.68378 
L 266.985208 -165.099848 
L 265.298466 -164.789684 
L 263.611724 -163.626584 
L 261.924982 -161.534835 
L 260.23824 -158.502769 
L 258.551498 -154.589859 
L 256.864757 -149.926662 
L 255.178015 -144.707353 
L 253.491273 -139.17556 
L 251.804531 -133.60506 
L 250.117789 -128.277502 
L 248.431047 -123.459619 
L 246.744305 -119.382354 
L 245.057563 -116.223993 
L 243.370822 -114.098821 
L 241.68408 -113.052158 
L 239.997338 -113.061857 
L 238.310596 -114.045695 
L 236.623854 -115.873486 
L 234.937112 -118.382329 
L 233.25037 -121.393185 
L 231.563629 -124.726924 
L 229.876887 -128.218201 
L 228.190145 -131.725848 
L 226.503403 -135.139033 
L 224.816661 -138.379023 
L 223.129919 -141.397001 
L 221.443177 -144.168952 
L 219.756435 -146.688928 
L 218.069694 -148.962134 
L 216.382952 -150.99911 
L 214.69621 -152.811864 
L 213.009468 -154.412275 
L 211.322726 -155.812495 
L 209.635984 -157.026622 
L 207.949242 -158.072611 
L 206.262501 -158.973431 
L 204.575759 -159.756712 
L 202.889017 -160.45257 
L 201.202275 -161.089862 
L 199.515533 -161.691527 
L 197.828791 -162.270026 
L 196.142049 -162.823881 
L 194.455307 -163.336137 
L 192.768566 -163.77517 
L 191.081824 -164.097768 
L 189.395082 -164.253954 
L 187.70834 -164.192702 
L 186.021598 -163.86759 
L 184.334856 -163.241514 
L 182.648114 -162.289891 
L 180.961372 -161.00211 
L 179.274631 -159.381381 
L 177.587889 -157.443385 
L 175.901147 -155.214271 
L 174.214405 -152.728512 
L 172.527663 -150.027019 
L 170.840921 -147.155689 
L 169.154179 -144.164414 
L 167.467438 -141.106432 
L 165.780696 -138.037868 
L 164.093954 -135.01738 
L 162.407212 -132.105871 
L 160.72047 -129.366344 
L 159.033728 -126.863946 
L 157.346986 -124.66624 
L 155.660244 -122.843515 
L 153.973503 -121.468833 
L 152.286761 -120.617278 
L 150.600019 -120.363811 
L 148.913277 -120.779203 
L 147.226535 -121.923716 
L 145.539793 -123.838649 
L 143.853051 -126.536315 
L 142.16631 -129.989546 
L 140.479568 -134.122242 
L 138.792826 -138.802681 
L 137.106084 -143.841253 
L 135.419342 -148.993915 
L 133.7326 -153.972057 
L 132.045858 -158.458608 
L 130.359116 -162.129356 
L 128.672375 -164.677577 
L 126.985633 -165.839495 
L 125.298891 -165.417711 
L 123.612149 -163.29988 
L 121.925407 -159.470288 
L 120.238665 -154.012854 
L 118.551923 -147.10504 
L 116.865181 -139.003328 
L 115.17844 -130.021903 
L 113.491698 -120.507034 
L 111.804956 -110.810039 
L 110.118214 -101.261783 
L 108.431472 -92.151273 
L 106.74473 -83.71019 
L 105.057988 -76.104309 
L 103.371247 -69.431837 
L 101.684505 -63.727811 
L 99.997763 -58.973151 
L 98.311021 -55.106603 
L 96.624279 -52.037805 
L 94.937537 -49.659902 
L 93.250795 -47.860565 
L 91.564053 -46.530679 
L 89.877312 -45.570454 
L 88.19057 -44.893045 
L 86.503828 -44.426067 
L 84.817086 -44.11147 
L 83.130344 -43.904333 
z
" style="stroke: #c0d4f5"/>
    </defs>
    <g clip-path="url(#pf1e2a4be83)">
     <use xlink:href="#m6cfdbf4d1d" x="0" y="301.263281" style="fill: #c0d4f5; fill-opacity: 0.25; stroke: #c0d4f5"/>
    </g>
   </g>
   <g id="PolyCollection_4">
    <defs>
     <path id="m7599e3c7c7" d="M 85.08134 -43.655086 
L 85.08134 -43.563281 
L 86.749494 -43.563281 
L 88.417648 -43.563281 
L 90.085803 -43.563281 
L 91.753957 -43.563281 
L 93.422111 -43.563281 
L 95.090265 -43.563281 
L 96.75842 -43.563281 
L 98.426574 -43.563281 
L 100.094728 -43.563281 
L 101.762883 -43.563281 
L 103.431037 -43.563281 
L 105.099191 -43.563281 
L 106.767345 -43.563281 
L 108.4355 -43.563281 
L 110.103654 -43.563281 
L 111.771808 -43.563281 
L 113.439962 -43.563281 
L 115.108117 -43.563281 
L 116.776271 -43.563281 
L 118.444425 -43.563281 
L 120.11258 -43.563281 
L 121.780734 -43.563281 
L 123.448888 -43.563281 
L 125.117042 -43.563281 
L 126.785197 -43.563281 
L 128.453351 -43.563281 
L 130.121505 -43.563281 
L 131.789659 -43.563281 
L 133.457814 -43.563281 
L 135.125968 -43.563281 
L 136.794122 -43.563281 
L 138.462277 -43.563281 
L 140.130431 -43.563281 
L 141.798585 -43.563281 
L 143.466739 -43.563281 
L 145.134894 -43.563281 
L 146.803048 -43.563281 
L 148.471202 -43.563281 
L 150.139356 -43.563281 
L 151.807511 -43.563281 
L 153.475665 -43.563281 
L 155.143819 -43.563281 
L 156.811973 -43.563281 
L 158.480128 -43.563281 
L 160.148282 -43.563281 
L 161.816436 -43.563281 
L 163.484591 -43.563281 
L 165.152745 -43.563281 
L 166.820899 -43.563281 
L 168.489053 -43.563281 
L 170.157208 -43.563281 
L 171.825362 -43.563281 
L 173.493516 -43.563281 
L 175.16167 -43.563281 
L 176.829825 -43.563281 
L 178.497979 -43.563281 
L 180.166133 -43.563281 
L 181.834288 -43.563281 
L 183.502442 -43.563281 
L 185.170596 -43.563281 
L 186.83875 -43.563281 
L 188.506905 -43.563281 
L 190.175059 -43.563281 
L 191.843213 -43.563281 
L 193.511367 -43.563281 
L 195.179522 -43.563281 
L 196.847676 -43.563281 
L 198.51583 -43.563281 
L 200.183984 -43.563281 
L 201.852139 -43.563281 
L 203.520293 -43.563281 
L 205.188447 -43.563281 
L 206.856602 -43.563281 
L 208.524756 -43.563281 
L 210.19291 -43.563281 
L 211.861064 -43.563281 
L 213.529219 -43.563281 
L 215.197373 -43.563281 
L 216.865527 -43.563281 
L 218.533681 -43.563281 
L 220.201836 -43.563281 
L 221.86999 -43.563281 
L 223.538144 -43.563281 
L 225.206299 -43.563281 
L 226.874453 -43.563281 
L 228.542607 -43.563281 
L 230.210761 -43.563281 
L 231.878916 -43.563281 
L 233.54707 -43.563281 
L 235.215224 -43.563281 
L 236.883378 -43.563281 
L 238.551533 -43.563281 
L 240.219687 -43.563281 
L 241.887841 -43.563281 
L 243.555996 -43.563281 
L 245.22415 -43.563281 
L 246.892304 -43.563281 
L 248.560458 -43.563281 
L 250.228613 -43.563281 
L 251.896767 -43.563281 
L 253.564921 -43.563281 
L 255.233075 -43.563281 
L 256.90123 -43.563281 
L 258.569384 -43.563281 
L 260.237538 -43.563281 
L 261.905692 -43.563281 
L 263.573847 -43.563281 
L 265.242001 -43.563281 
L 266.910155 -43.563281 
L 268.57831 -43.563281 
L 270.246464 -43.563281 
L 271.914618 -43.563281 
L 273.582772 -43.563281 
L 275.250927 -43.563281 
L 276.919081 -43.563281 
L 278.587235 -43.563281 
L 280.255389 -43.563281 
L 281.923544 -43.563281 
L 283.591698 -43.563281 
L 285.259852 -43.563281 
L 286.928007 -43.563281 
L 288.596161 -43.563281 
L 290.264315 -43.563281 
L 291.932469 -43.563281 
L 293.600624 -43.563281 
L 295.268778 -43.563281 
L 296.936932 -43.563281 
L 298.605086 -43.563281 
L 300.273241 -43.563281 
L 301.941395 -43.563281 
L 303.609549 -43.563281 
L 305.277703 -43.563281 
L 306.945858 -43.563281 
L 308.614012 -43.563281 
L 310.282166 -43.563281 
L 311.950321 -43.563281 
L 313.618475 -43.563281 
L 315.286629 -43.563281 
L 316.954783 -43.563281 
L 318.622938 -43.563281 
L 320.291092 -43.563281 
L 321.959246 -43.563281 
L 323.6274 -43.563281 
L 325.295555 -43.563281 
L 326.963709 -43.563281 
L 328.631863 -43.563281 
L 330.300018 -43.563281 
L 331.968172 -43.563281 
L 333.636326 -43.563281 
L 335.30448 -43.563281 
L 336.972635 -43.563281 
L 338.640789 -43.563281 
L 340.308943 -43.563281 
L 341.977097 -43.563281 
L 343.645252 -43.563281 
L 345.313406 -43.563281 
L 346.98156 -43.563281 
L 348.649715 -43.563281 
L 350.317869 -43.563281 
L 351.986023 -43.563281 
L 353.654177 -43.563281 
L 355.322332 -43.563281 
L 356.990486 -43.563281 
L 358.65864 -43.563281 
L 360.326794 -43.563281 
L 361.994949 -43.563281 
L 363.663103 -43.563281 
L 365.331257 -43.563281 
L 366.999411 -43.563281 
L 368.667566 -43.563281 
L 370.33572 -43.563281 
L 372.003874 -43.563281 
L 373.672029 -43.563281 
L 375.340183 -43.563281 
L 377.008337 -43.563281 
L 378.676491 -43.563281 
L 380.344646 -43.563281 
L 382.0128 -43.563281 
L 383.680954 -43.563281 
L 385.349108 -43.563281 
L 387.017263 -43.563281 
L 388.685417 -43.563281 
L 390.353571 -43.563281 
L 392.021726 -43.563281 
L 393.68988 -43.563281 
L 395.358034 -43.563281 
L 397.026188 -43.563281 
L 398.694343 -43.563281 
L 400.362497 -43.563281 
L 402.030651 -43.563281 
L 403.698805 -43.563281 
L 405.36696 -43.563281 
L 407.035114 -43.563281 
L 408.703268 -43.563281 
L 410.371422 -43.563281 
L 412.039577 -43.563281 
L 413.707731 -43.563281 
L 415.375885 -43.563281 
L 417.04404 -43.563281 
L 417.04404 -43.755047 
L 417.04404 -43.755047 
L 415.375885 -43.880394 
L 413.707731 -44.075947 
L 412.039577 -44.373635 
L 410.371422 -44.815787 
L 408.703268 -45.456485 
L 407.035114 -46.362124 
L 405.36696 -47.610692 
L 403.698805 -49.289286 
L 402.030651 -51.489448 
L 400.362497 -54.300145 
L 398.694343 -57.798524 
L 397.026188 -62.038996 
L 395.358034 -67.041688 
L 393.68988 -72.781709 
L 392.021726 -79.180942 
L 390.353571 -86.104122 
L 388.685417 -93.360688 
L 387.017263 -100.71329 
L 385.349108 -107.893001 
L 383.680954 -114.62024 
L 382.0128 -120.629448 
L 380.344646 -125.69472 
L 378.676491 -129.653185 
L 377.008337 -132.422956 
L 375.340183 -134.013037 
L 373.672029 -134.523583 
L 372.003874 -134.136236 
L 370.33572 -133.095678 
L 368.667566 -131.68478 
L 366.999411 -130.196637 
L 365.331257 -128.907108 
L 363.663103 -128.051257 
L 361.994949 -127.806298 
L 360.326794 -128.282493 
L 358.65864 -129.522146 
L 356.990486 -131.505606 
L 355.322332 -134.162326 
L 353.654177 -137.384574 
L 351.986023 -141.041473 
L 350.317869 -144.991554 
L 348.649715 -149.092759 
L 346.98156 -153.209677 
L 345.313406 -157.218474 
L 343.645252 -161.0104 
L 341.977097 -164.494772 
L 340.308943 -167.602075 
L 338.640789 -170.287299 
L 336.972635 -172.533074 
L 335.30448 -174.351714 
L 333.636326 -175.785129 
L 331.968172 -176.901704 
L 330.300018 -177.789746 
L 328.631863 -178.547769 
L 326.963709 -179.27264 
L 325.295555 -180.047164 
L 323.6274 -180.928978 
L 321.959246 -181.942485 
L 320.291092 -183.075116 
L 318.622938 -184.278453 
L 316.954783 -185.473955 
L 315.286629 -186.562306 
L 313.618475 -187.434933 
L 311.950321 -187.986077 
L 310.282166 -188.123903 
L 308.614012 -187.779486 
L 306.945858 -186.912917 
L 305.277703 -185.516214 
L 303.609549 -183.613077 
L 301.941395 -181.25579 
L 300.273241 -178.519782 
L 298.605086 -175.496479 
L 296.936932 -172.285222 
L 295.268778 -168.985084 
L 293.600624 -165.68742 
L 291.932469 -162.469932 
L 290.264315 -159.392778 
L 288.596161 -156.49701 
L 286.928007 -153.805226 
L 285.259852 -151.324029 
L 283.591698 -149.047673 
L 281.923544 -146.962194 
L 280.255389 -145.049439 
L 278.587235 -143.290601 
L 276.919081 -141.669125 
L 275.250927 -140.173034 
L 273.582772 -138.796805 
L 271.914618 -137.542896 
L 270.246464 -136.422867 
L 268.57831 -135.457914 
L 266.910155 -134.678519 
L 265.242001 -134.122968 
L 263.573847 -133.83465 
L 261.905692 -133.858309 
L 260.237538 -134.235681 
L 258.569384 -135.001145 
L 256.90123 -136.178015 
L 255.233075 -137.776002 
L 253.564921 -139.790011 
L 251.896767 -142.200174 
L 250.228613 -144.972676 
L 248.560458 -148.060811 
L 246.892304 -151.405789 
L 245.22415 -154.937026 
L 243.555996 -158.572032 
L 241.887841 -162.216365 
L 240.219687 -165.764371 
L 238.551533 -169.101461 
L 236.883378 -172.108544 
L 235.215224 -174.668789 
L 233.54707 -176.67646 
L 231.878916 -178.047011 
L 230.210761 -178.727234 
L 228.542607 -178.704028 
L 226.874453 -178.010343 
L 225.206299 -176.727075 
L 223.538144 -174.980133 
L 221.86999 -172.932419 
L 220.201836 -170.771108 
L 218.533681 -168.691234 
L 216.865527 -166.877109 
L 215.197373 -165.483534 
L 213.529219 -164.618969 
L 211.861064 -164.3328 
L 210.19291 -164.608572 
L 208.524756 -165.364485 
L 206.856602 -166.461661 
L 205.188447 -167.719705 
L 203.520293 -168.938104 
L 201.852139 -169.921048 
L 200.183984 -170.502612 
L 198.51583 -170.568947 
L 196.847676 -170.074335 
L 195.179522 -169.048648 
L 193.511367 -167.594901 
L 191.843213 -165.876963 
L 190.175059 -164.098986 
L 188.506905 -162.479365 
L 186.83875 -161.222939 
L 185.170596 -160.495426 
L 183.502442 -160.403768 
L 181.834288 -160.985101 
L 180.166133 -162.205715 
L 178.497979 -163.969782 
L 176.829825 -166.136141 
L 175.16167 -168.540226 
L 173.493516 -171.017623 
L 171.825362 -173.425693 
L 170.157208 -175.660284 
L 168.489053 -177.665582 
L 166.820899 -179.436409 
L 165.152745 -181.013491 
L 163.484591 -182.473158 
L 161.816436 -183.913504 
L 160.148282 -185.439079 
L 158.480128 -187.145891 
L 156.811973 -189.107999 
L 155.143819 -191.366403 
L 153.475665 -193.920612 
L 151.807511 -196.723072 
L 150.139356 -199.676721 
L 148.471202 -202.636113 
L 146.803048 -205.412591 
L 145.134894 -207.783917 
L 143.466739 -209.50829 
L 141.798585 -210.342087 
L 140.130431 -210.059858 
L 138.462277 -208.474494 
L 136.794122 -205.455148 
L 135.125968 -200.940583 
L 133.457814 -194.946203 
L 131.789659 -187.563914 
L 130.121505 -178.955014 
L 128.453351 -169.337289 
L 126.785197 -158.968184 
L 125.117042 -148.126229 
L 123.448888 -137.092803 
L 121.780734 -126.135935 
L 120.11258 -115.497256 
L 118.444425 -105.382607 
L 116.776271 -95.956329 
L 115.108117 -87.338873 
L 113.439962 -79.607225 
L 111.771808 -72.797562 
L 110.103654 -66.90958 
L 108.4355 -61.912023 
L 106.767345 -57.748938 
L 105.099191 -54.346263 
L 103.431037 -51.618328 
L 101.762883 -49.473942 
L 100.094728 -47.821707 
L 98.426574 -46.574364 
L 96.75842 -45.652013 
L 95.090265 -44.984188 
L 93.422111 -44.510869 
L 91.753957 -44.182583 
L 90.085803 -43.959819 
L 88.417648 -43.811964 
L 86.749494 -43.715993 
L 85.08134 -43.655086 
z
" style="stroke: #7b9ff9"/>
    </defs>
    <g clip-path="url(#pf1e2a4be83)">
     <use xlink:href="#m7599e3c7c7" x="0" y="301.263281" style="fill: #7b9ff9; fill-opacity: 0.25; stroke: #7b9ff9"/>
    </g>
   </g>
  </g>
  <g id="text_16">
   <!-- Pair Plot of Tweets Distribution per Branch and Sentiment -->
   <g style="fill: #262626" transform="translate(7.2 21.759375) scale(0.2 -0.2)">
    <defs>
     <path id="ArialMT-50" d="M 494 0 
L 494 4581 
L 2222 4581 
Q 2678 4581 2919 4538 
Q 3256 4481 3484 4323 
Q 3713 4166 3852 3881 
Q 3991 3597 3991 3256 
Q 3991 2672 3619 2267 
Q 3247 1863 2275 1863 
L 1100 1863 
L 1100 0 
L 494 0 
z
M 1100 2403 
L 2284 2403 
Q 2872 2403 3119 2622 
Q 3366 2841 3366 3238 
Q 3366 3525 3220 3729 
Q 3075 3934 2838 4000 
Q 2684 4041 2272 4041 
L 1100 4041 
L 1100 2403 
z
" transform="scale(0.015625)"/>
     <path id="ArialMT-61" d="M 2588 409 
Q 2275 144 1986 34 
Q 1697 -75 1366 -75 
Q 819 -75 525 192 
Q 231 459 231 875 
Q 231 1119 342 1320 
Q 453 1522 633 1644 
Q 813 1766 1038 1828 
Q 1203 1872 1538 1913 
Q 2219 1994 2541 2106 
Q 2544 2222 2544 2253 
Q 2544 2597 2384 2738 
Q 2169 2928 1744 2928 
Q 1347 2928 1158 2789 
Q 969 2650 878 2297 
L 328 2372 
Q 403 2725 575 2942 
Q 747 3159 1072 3276 
Q 1397 3394 1825 3394 
Q 2250 3394 2515 3294 
Q 2781 3194 2906 3042 
Q 3031 2891 3081 2659 
Q 3109 2516 3109 2141 
L 3109 1391 
Q 3109 606 3145 398 
Q 3181 191 3288 0 
L 2700 0 
Q 2613 175 2588 409 
z
M 2541 1666 
Q 2234 1541 1622 1453 
Q 1275 1403 1131 1340 
Q 988 1278 909 1158 
Q 831 1038 831 891 
Q 831 666 1001 516 
Q 1172 366 1500 366 
Q 1825 366 2078 508 
Q 2331 650 2450 897 
Q 2541 1088 2541 1459 
L 2541 1666 
z
" transform="scale(0.015625)"/>
     <path id="ArialMT-72" d="M 416 0 
L 416 3319 
L 922 3319 
L 922 2816 
Q 1116 3169 1280 3281 
Q 1444 3394 1641 3394 
Q 1925 3394 2219 3213 
L 2025 2691 
Q 1819 2813 1613 2813 
Q 1428 2813 1281 2702 
Q 1134 2591 1072 2394 
Q 978 2094 978 1738 
L 978 0 
L 416 0 
z
" transform="scale(0.015625)"/>
     <path id="ArialMT-20" transform="scale(0.015625)"/>
     <path id="ArialMT-6c" d="M 409 0 
L 409 4581 
L 972 4581 
L 972 0 
L 409 0 
z
" transform="scale(0.015625)"/>
     <path id="ArialMT-6f" d="M 213 1659 
Q 213 2581 725 3025 
Q 1153 3394 1769 3394 
Q 2453 3394 2887 2945 
Q 3322 2497 3322 1706 
Q 3322 1066 3130 698 
Q 2938 331 2570 128 
Q 2203 -75 1769 -75 
Q 1072 -75 642 372 
Q 213 819 213 1659 
z
M 791 1659 
Q 791 1022 1069 705 
Q 1347 388 1769 388 
Q 2188 388 2466 706 
Q 2744 1025 2744 1678 
Q 2744 2294 2464 2611 
Q 2184 2928 1769 2928 
Q 1347 2928 1069 2612 
Q 791 2297 791 1659 
z
" transform="scale(0.015625)"/>
     <path id="ArialMT-74" d="M 1650 503 
L 1731 6 
Q 1494 -44 1306 -44 
Q 1000 -44 831 53 
Q 663 150 594 308 
Q 525 466 525 972 
L 525 2881 
L 113 2881 
L 113 3319 
L 525 3319 
L 525 4141 
L 1084 4478 
L 1084 3319 
L 1650 3319 
L 1650 2881 
L 1084 2881 
L 1084 941 
Q 1084 700 1114 631 
Q 1144 563 1211 522 
Q 1278 481 1403 481 
Q 1497 481 1650 503 
z
" transform="scale(0.015625)"/>
     <path id="ArialMT-66" d="M 556 0 
L 556 2881 
L 59 2881 
L 59 3319 
L 556 3319 
L 556 3672 
Q 556 4006 616 4169 
Q 697 4388 901 4523 
Q 1106 4659 1475 4659 
Q 1713 4659 2000 4603 
L 1916 4113 
Q 1741 4144 1584 4144 
Q 1328 4144 1222 4034 
Q 1116 3925 1116 3625 
L 1116 3319 
L 1763 3319 
L 1763 2881 
L 1116 2881 
L 1116 0 
L 556 0 
z
" transform="scale(0.015625)"/>
     <path id="ArialMT-54" d="M 1659 0 
L 1659 4041 
L 150 4041 
L 150 4581 
L 3781 4581 
L 3781 4041 
L 2266 4041 
L 2266 0 
L 1659 0 
z
" transform="scale(0.015625)"/>
     <path id="ArialMT-77" d="M 1034 0 
L 19 3319 
L 600 3319 
L 1128 1403 
L 1325 691 
Q 1338 744 1497 1375 
L 2025 3319 
L 2603 3319 
L 3100 1394 
L 3266 759 
L 3456 1400 
L 4025 3319 
L 4572 3319 
L 3534 0 
L 2950 0 
L 2422 1988 
L 2294 2553 
L 1622 0 
L 1034 0 
z
" transform="scale(0.015625)"/>
     <path id="ArialMT-65" d="M 2694 1069 
L 3275 997 
Q 3138 488 2766 206 
Q 2394 -75 1816 -75 
Q 1088 -75 661 373 
Q 234 822 234 1631 
Q 234 2469 665 2931 
Q 1097 3394 1784 3394 
Q 2450 3394 2872 2941 
Q 3294 2488 3294 1666 
Q 3294 1616 3291 1516 
L 816 1516 
Q 847 969 1125 678 
Q 1403 388 1819 388 
Q 2128 388 2347 550 
Q 2566 713 2694 1069 
z
M 847 1978 
L 2700 1978 
Q 2663 2397 2488 2606 
Q 2219 2931 1791 2931 
Q 1403 2931 1139 2672 
Q 875 2413 847 1978 
z
" transform="scale(0.015625)"/>
     <path id="ArialMT-73" d="M 197 991 
L 753 1078 
Q 800 744 1014 566 
Q 1228 388 1613 388 
Q 2000 388 2187 545 
Q 2375 703 2375 916 
Q 2375 1106 2209 1216 
Q 2094 1291 1634 1406 
Q 1016 1563 777 1677 
Q 538 1791 414 1992 
Q 291 2194 291 2438 
Q 291 2659 392 2848 
Q 494 3038 669 3163 
Q 800 3259 1026 3326 
Q 1253 3394 1513 3394 
Q 1903 3394 2198 3281 
Q 2494 3169 2634 2976 
Q 2775 2784 2828 2463 
L 2278 2388 
Q 2241 2644 2061 2787 
Q 1881 2931 1553 2931 
Q 1166 2931 1000 2803 
Q 834 2675 834 2503 
Q 834 2394 903 2306 
Q 972 2216 1119 2156 
Q 1203 2125 1616 2013 
Q 2213 1853 2448 1751 
Q 2684 1650 2818 1456 
Q 2953 1263 2953 975 
Q 2953 694 2789 445 
Q 2625 197 2315 61 
Q 2006 -75 1616 -75 
Q 969 -75 630 194 
Q 291 463 197 991 
z
" transform="scale(0.015625)"/>
     <path id="ArialMT-44" d="M 494 0 
L 494 4581 
L 2072 4581 
Q 2606 4581 2888 4516 
Q 3281 4425 3559 4188 
Q 3922 3881 4101 3404 
Q 4281 2928 4281 2316 
Q 4281 1794 4159 1391 
Q 4038 988 3847 723 
Q 3656 459 3429 307 
Q 3203 156 2883 78 
Q 2563 0 2147 0 
L 494 0 
z
M 1100 541 
L 2078 541 
Q 2531 541 2789 625 
Q 3047 709 3200 863 
Q 3416 1078 3536 1442 
Q 3656 1806 3656 2325 
Q 3656 3044 3420 3430 
Q 3184 3816 2847 3947 
Q 2603 4041 2063 4041 
L 1100 4041 
L 1100 541 
z
" transform="scale(0.015625)"/>
     <path id="ArialMT-62" d="M 941 0 
L 419 0 
L 419 4581 
L 981 4581 
L 981 2947 
Q 1338 3394 1891 3394 
Q 2197 3394 2470 3270 
Q 2744 3147 2920 2923 
Q 3097 2700 3197 2384 
Q 3297 2069 3297 1709 
Q 3297 856 2875 390 
Q 2453 -75 1863 -75 
Q 1275 -75 941 416 
L 941 0 
z
M 934 1684 
Q 934 1088 1097 822 
Q 1363 388 1816 388 
Q 2184 388 2453 708 
Q 2722 1028 2722 1663 
Q 2722 2313 2464 2622 
Q 2206 2931 1841 2931 
Q 1472 2931 1203 2611 
Q 934 2291 934 1684 
z
" transform="scale(0.015625)"/>
     <path id="ArialMT-75" d="M 2597 0 
L 2597 488 
Q 2209 -75 1544 -75 
Q 1250 -75 995 37 
Q 741 150 617 320 
Q 494 491 444 738 
Q 409 903 409 1263 
L 409 3319 
L 972 3319 
L 972 1478 
Q 972 1038 1006 884 
Q 1059 663 1231 536 
Q 1403 409 1656 409 
Q 1909 409 2131 539 
Q 2353 669 2445 892 
Q 2538 1116 2538 1541 
L 2538 3319 
L 3100 3319 
L 3100 0 
L 2597 0 
z
" transform="scale(0.015625)"/>
     <path id="ArialMT-6e" d="M 422 0 
L 422 3319 
L 928 3319 
L 928 2847 
Q 1294 3394 1984 3394 
Q 2284 3394 2536 3286 
Q 2788 3178 2913 3003 
Q 3038 2828 3088 2588 
Q 3119 2431 3119 2041 
L 3119 0 
L 2556 0 
L 2556 2019 
Q 2556 2363 2490 2533 
Q 2425 2703 2258 2804 
Q 2091 2906 1866 2906 
Q 1506 2906 1245 2678 
Q 984 2450 984 1813 
L 984 0 
L 422 0 
z
" transform="scale(0.015625)"/>
     <path id="ArialMT-70" d="M 422 -1272 
L 422 3319 
L 934 3319 
L 934 2888 
Q 1116 3141 1344 3267 
Q 1572 3394 1897 3394 
Q 2322 3394 2647 3175 
Q 2972 2956 3137 2557 
Q 3303 2159 3303 1684 
Q 3303 1175 3120 767 
Q 2938 359 2589 142 
Q 2241 -75 1856 -75 
Q 1575 -75 1351 44 
Q 1128 163 984 344 
L 984 -1272 
L 422 -1272 
z
M 931 1641 
Q 931 1000 1190 694 
Q 1450 388 1819 388 
Q 2194 388 2461 705 
Q 2728 1022 2728 1688 
Q 2728 2322 2467 2637 
Q 2206 2953 1844 2953 
Q 1484 2953 1207 2617 
Q 931 2281 931 1641 
z
" transform="scale(0.015625)"/>
     <path id="ArialMT-42" d="M 469 0 
L 469 4581 
L 2188 4581 
Q 2713 4581 3030 4442 
Q 3347 4303 3526 4014 
Q 3706 3725 3706 3409 
Q 3706 3116 3547 2856 
Q 3388 2597 3066 2438 
Q 3481 2316 3704 2022 
Q 3928 1728 3928 1328 
Q 3928 1006 3792 729 
Q 3656 453 3456 303 
Q 3256 153 2954 76 
Q 2653 0 2216 0 
L 469 0 
z
M 1075 2656 
L 2066 2656 
Q 2469 2656 2644 2709 
Q 2875 2778 2992 2937 
Q 3109 3097 3109 3338 
Q 3109 3566 3000 3739 
Q 2891 3913 2687 3977 
Q 2484 4041 1991 4041 
L 1075 4041 
L 1075 2656 
z
M 1075 541 
L 2216 541 
Q 2509 541 2628 563 
Q 2838 600 2978 687 
Q 3119 775 3209 942 
Q 3300 1109 3300 1328 
Q 3300 1584 3169 1773 
Q 3038 1963 2805 2039 
Q 2572 2116 2134 2116 
L 1075 2116 
L 1075 541 
z
" transform="scale(0.015625)"/>
     <path id="ArialMT-63" d="M 2588 1216 
L 3141 1144 
Q 3050 572 2676 248 
Q 2303 -75 1759 -75 
Q 1078 -75 664 370 
Q 250 816 250 1647 
Q 250 2184 428 2587 
Q 606 2991 970 3192 
Q 1334 3394 1763 3394 
Q 2303 3394 2647 3120 
Q 2991 2847 3088 2344 
L 2541 2259 
Q 2463 2594 2264 2762 
Q 2066 2931 1784 2931 
Q 1359 2931 1093 2626 
Q 828 2322 828 1663 
Q 828 994 1084 691 
Q 1341 388 1753 388 
Q 2084 388 2306 591 
Q 2528 794 2588 1216 
z
" transform="scale(0.015625)"/>
     <path id="ArialMT-68" d="M 422 0 
L 422 4581 
L 984 4581 
L 984 2938 
Q 1378 3394 1978 3394 
Q 2347 3394 2619 3248 
Q 2891 3103 3008 2847 
Q 3125 2591 3125 2103 
L 3125 0 
L 2563 0 
L 2563 2103 
Q 2563 2525 2380 2717 
Q 2197 2909 1863 2909 
Q 1613 2909 1392 2779 
Q 1172 2650 1078 2428 
Q 984 2206 984 1816 
L 984 0 
L 422 0 
z
" transform="scale(0.015625)"/>
     <path id="ArialMT-53" d="M 288 1472 
L 859 1522 
Q 900 1178 1048 958 
Q 1197 738 1509 602 
Q 1822 466 2213 466 
Q 2559 466 2825 569 
Q 3091 672 3220 851 
Q 3350 1031 3350 1244 
Q 3350 1459 3225 1620 
Q 3100 1781 2813 1891 
Q 2628 1963 1997 2114 
Q 1366 2266 1113 2400 
Q 784 2572 623 2826 
Q 463 3081 463 3397 
Q 463 3744 659 4045 
Q 856 4347 1234 4503 
Q 1613 4659 2075 4659 
Q 2584 4659 2973 4495 
Q 3363 4331 3572 4012 
Q 3781 3694 3797 3291 
L 3216 3247 
Q 3169 3681 2898 3903 
Q 2628 4125 2100 4125 
Q 1550 4125 1298 3923 
Q 1047 3722 1047 3438 
Q 1047 3191 1225 3031 
Q 1400 2872 2139 2705 
Q 2878 2538 3153 2413 
Q 3553 2228 3743 1945 
Q 3934 1663 3934 1294 
Q 3934 928 3725 604 
Q 3516 281 3123 101 
Q 2731 -78 2241 -78 
Q 1619 -78 1198 103 
Q 778 284 539 648 
Q 300 1013 288 1472 
z
" transform="scale(0.015625)"/>
     <path id="ArialMT-6d" d="M 422 0 
L 422 3319 
L 925 3319 
L 925 2853 
Q 1081 3097 1340 3245 
Q 1600 3394 1931 3394 
Q 2300 3394 2536 3241 
Q 2772 3088 2869 2813 
Q 3263 3394 3894 3394 
Q 4388 3394 4653 3120 
Q 4919 2847 4919 2278 
L 4919 0 
L 4359 0 
L 4359 2091 
Q 4359 2428 4304 2576 
Q 4250 2725 4106 2815 
Q 3963 2906 3769 2906 
Q 3419 2906 3187 2673 
Q 2956 2441 2956 1928 
L 2956 0 
L 2394 0 
L 2394 2156 
Q 2394 2531 2256 2718 
Q 2119 2906 1806 2906 
Q 1569 2906 1367 2781 
Q 1166 2656 1075 2415 
Q 984 2175 984 1722 
L 984 0 
L 422 0 
z
" transform="scale(0.015625)"/>
    </defs>
    <use xlink:href="#ArialMT-50"/>
    <use xlink:href="#ArialMT-61" x="66.699219"/>
    <use xlink:href="#ArialMT-69" x="122.314453"/>
    <use xlink:href="#ArialMT-72" x="144.53125"/>
    <use xlink:href="#ArialMT-20" x="177.832031"/>
    <use xlink:href="#ArialMT-50" x="205.615234"/>
    <use xlink:href="#ArialMT-6c" x="272.314453"/>
    <use xlink:href="#ArialMT-6f" x="294.53125"/>
    <use xlink:href="#ArialMT-74" x="350.146484"/>
    <use xlink:href="#ArialMT-20" x="377.929688"/>
    <use xlink:href="#ArialMT-6f" x="405.712891"/>
    <use xlink:href="#ArialMT-66" x="461.328125"/>
    <use xlink:href="#ArialMT-20" x="489.111328"/>
    <use xlink:href="#ArialMT-54" x="515.144531"/>
    <use xlink:href="#ArialMT-77" x="570.728516"/>
    <use xlink:href="#ArialMT-65" x="642.945312"/>
    <use xlink:href="#ArialMT-65" x="698.560547"/>
    <use xlink:href="#ArialMT-74" x="754.175781"/>
    <use xlink:href="#ArialMT-73" x="781.958984"/>
    <use xlink:href="#ArialMT-20" x="831.958984"/>
    <use xlink:href="#ArialMT-44" x="859.742188"/>
    <use xlink:href="#ArialMT-69" x="931.958984"/>
    <use xlink:href="#ArialMT-73" x="954.175781"/>
    <use xlink:href="#ArialMT-74" x="1004.175781"/>
    <use xlink:href="#ArialMT-72" x="1031.958984"/>
    <use xlink:href="#ArialMT-69" x="1065.259766"/>
    <use xlink:href="#ArialMT-62" x="1087.476562"/>
    <use xlink:href="#ArialMT-75" x="1143.091797"/>
    <use xlink:href="#ArialMT-74" x="1198.707031"/>
    <use xlink:href="#ArialMT-69" x="1226.490234"/>
    <use xlink:href="#ArialMT-6f" x="1248.707031"/>
    <use xlink:href="#ArialMT-6e" x="1304.322266"/>
    <use xlink:href="#ArialMT-20" x="1359.9375"/>
    <use xlink:href="#ArialMT-70" x="1387.720703"/>
    <use xlink:href="#ArialMT-65" x="1443.335938"/>
    <use xlink:href="#ArialMT-72" x="1498.951172"/>
    <use xlink:href="#ArialMT-20" x="1532.251953"/>
    <use xlink:href="#ArialMT-42" x="1560.035156"/>
    <use xlink:href="#ArialMT-72" x="1626.734375"/>
    <use xlink:href="#ArialMT-61" x="1660.035156"/>
    <use xlink:href="#ArialMT-6e" x="1715.650391"/>
    <use xlink:href="#ArialMT-63" x="1771.265625"/>
    <use xlink:href="#ArialMT-68" x="1821.265625"/>
    <use xlink:href="#ArialMT-20" x="1876.880859"/>
    <use xlink:href="#ArialMT-61" x="1904.664062"/>
    <use xlink:href="#ArialMT-6e" x="1960.279297"/>
    <use xlink:href="#ArialMT-64" x="2015.894531"/>
    <use xlink:href="#ArialMT-20" x="2071.509766"/>
    <use xlink:href="#ArialMT-53" x="2099.292969"/>
    <use xlink:href="#ArialMT-65" x="2165.992188"/>
    <use xlink:href="#ArialMT-6e" x="2221.607422"/>
    <use xlink:href="#ArialMT-74" x="2277.222656"/>
    <use xlink:href="#ArialMT-69" x="2305.005859"/>
    <use xlink:href="#ArialMT-6d" x="2327.222656"/>
    <use xlink:href="#ArialMT-65" x="2410.523438"/>
    <use xlink:href="#ArialMT-6e" x="2466.138672"/>
    <use xlink:href="#ArialMT-74" x="2521.753906"/>
   </g>
  </g>
  <g id="legend_1">
   <g id="text_17">
    <!-- sentiment -->
    <g style="fill: #262626" transform="translate(462.35625 150.983828) scale(0.12 -0.12)">
     <use xlink:href="#ArialMT-73"/>
     <use xlink:href="#ArialMT-65" x="50"/>
     <use xlink:href="#ArialMT-6e" x="105.615234"/>
     <use xlink:href="#ArialMT-74" x="161.230469"/>
     <use xlink:href="#ArialMT-69" x="189.013672"/>
     <use xlink:href="#ArialMT-6d" x="211.230469"/>
     <use xlink:href="#ArialMT-65" x="294.53125"/>
     <use xlink:href="#ArialMT-6e" x="350.146484"/>
     <use xlink:href="#ArialMT-74" x="405.761719"/>
    </g>
   </g>
  </g>
 </g>
 <defs>
  <clipPath id="pf1e2a4be83">
   <rect x="66.347262" y="25.8" width="369.227795" height="231.9"/>
  </clipPath>
 </defs>
</svg>
