<?xml version="1.0" encoding="utf-8" standalone="no"?>
<!DOCTYPE svg PUBLIC "-//W3C//DTD SVG 1.1//EN"
  "http://www.w3.org/Graphics/SVG/1.1/DTD/svg11.dtd">
<svg xmlns:xlink="http://www.w3.org/1999/xlink" width="897.383906pt" height="507.31875pt" viewBox="0 0 897.383906 507.31875" xmlns="http://www.w3.org/2000/svg" version="1.1">
 <metadata>
  <rdf:RDF xmlns:dc="http://purl.org/dc/elements/1.1/" xmlns:cc="http://creativecommons.org/ns#" xmlns:rdf="http://www.w3.org/1999/02/22-rdf-syntax-ns#">
   <cc:Work>
    <dc:type rdf:resource="http://purl.org/dc/dcmitype/StillImage"/>
    <dc:date>2024-06-06T17:56:13.999930</dc:date>
    <dc:format>image/svg+xml</dc:format>
    <dc:creator>
     <cc:Agent>
      <dc:title>Matplotlib v3.9.0, https://matplotlib.org/</dc:title>
     </cc:Agent>
    </dc:creator>
   </cc:Work>
  </rdf:RDF>
 </metadata>
 <defs>
  <style type="text/css">*{stroke-linejoin: round; stroke-linecap: butt}</style>
 </defs>
 <g id="figure_1">
  <g id="patch_1">
   <path d="M 0 507.31875 
L 897.383906 507.31875 
L 897.383906 0 
L 0 0 
z
" style="fill: #ffffff"/>
  </g>
  <g id="axes_1">
   <g id="patch_2">
    <path d="M 220.583906 465.455625 
L 890.183906 465.455625 
L 890.183906 21.935625 
L 220.583906 21.935625 
z
" style="fill: #ffffff"/>
   </g>
   <g id="matplotlib.axis_1">
    <g id="xtick_1">
     <g id="text_1">
      <!-- Positive -->
      <g style="fill: #262626" transform="translate(285.026172 482.829219) scale(0.11 -0.11)">
       <defs>
        <path id="ArialMT-50" d="M 494 0 
L 494 4581 
L 2222 4581 
Q 2678 4581 2919 4538 
Q 3256 4481 3484 4323 
Q 3713 4166 3852 3881 
Q 3991 3597 3991 3256 
Q 3991 2672 3619 2267 
Q 3247 1863 2275 1863 
L 1100 1863 
L 1100 0 
L 494 0 
z
M 1100 2403 
L 2284 2403 
Q 2872 2403 3119 2622 
Q 3366 2841 3366 3238 
Q 3366 3525 3220 3729 
Q 3075 3934 2838 4000 
Q 2684 4041 2272 4041 
L 1100 4041 
L 1100 2403 
z
" transform="scale(0.015625)"/>
        <path id="ArialMT-6f" d="M 213 1659 
Q 213 2581 725 3025 
Q 1153 3394 1769 3394 
Q 2453 3394 2887 2945 
Q 3322 2497 3322 1706 
Q 3322 1066 3130 698 
Q 2938 331 2570 128 
Q 2203 -75 1769 -75 
Q 1072 -75 642 372 
Q 213 819 213 1659 
z
M 791 1659 
Q 791 1022 1069 705 
Q 1347 388 1769 388 
Q 2188 388 2466 706 
Q 2744 1025 2744 1678 
Q 2744 2294 2464 2611 
Q 2184 2928 1769 2928 
Q 1347 2928 1069 2612 
Q 791 2297 791 1659 
z
" transform="scale(0.015625)"/>
        <path id="ArialMT-73" d="M 197 991 
L 753 1078 
Q 800 744 1014 566 
Q 1228 388 1613 388 
Q 2000 388 2187 545 
Q 2375 703 2375 916 
Q 2375 1106 2209 1216 
Q 2094 1291 1634 1406 
Q 1016 1563 777 1677 
Q 538 1791 414 1992 
Q 291 2194 291 2438 
Q 291 2659 392 2848 
Q 494 3038 669 3163 
Q 800 3259 1026 3326 
Q 1253 3394 1513 3394 
Q 1903 3394 2198 3281 
Q 2494 3169 2634 2976 
Q 2775 2784 2828 2463 
L 2278 2388 
Q 2241 2644 2061 2787 
Q 1881 2931 1553 2931 
Q 1166 2931 1000 2803 
Q 834 2675 834 2503 
Q 834 2394 903 2306 
Q 972 2216 1119 2156 
Q 1203 2125 1616 2013 
Q 2213 1853 2448 1751 
Q 2684 1650 2818 1456 
Q 2953 1263 2953 975 
Q 2953 694 2789 445 
Q 2625 197 2315 61 
Q 2006 -75 1616 -75 
Q 969 -75 630 194 
Q 291 463 197 991 
z
" transform="scale(0.015625)"/>
        <path id="ArialMT-69" d="M 425 3934 
L 425 4581 
L 988 4581 
L 988 3934 
L 425 3934 
z
M 425 0 
L 425 3319 
L 988 3319 
L 988 0 
L 425 0 
z
" transform="scale(0.015625)"/>
        <path id="ArialMT-74" d="M 1650 503 
L 1731 6 
Q 1494 -44 1306 -44 
Q 1000 -44 831 53 
Q 663 150 594 308 
Q 525 466 525 972 
L 525 2881 
L 113 2881 
L 113 3319 
L 525 3319 
L 525 4141 
L 1084 4478 
L 1084 3319 
L 1650 3319 
L 1650 2881 
L 1084 2881 
L 1084 941 
Q 1084 700 1114 631 
Q 1144 563 1211 522 
Q 1278 481 1403 481 
Q 1497 481 1650 503 
z
" transform="scale(0.015625)"/>
        <path id="ArialMT-76" d="M 1344 0 
L 81 3319 
L 675 3319 
L 1388 1331 
Q 1503 1009 1600 663 
Q 1675 925 1809 1294 
L 2547 3319 
L 3125 3319 
L 1869 0 
L 1344 0 
z
" transform="scale(0.015625)"/>
        <path id="ArialMT-65" d="M 2694 1069 
L 3275 997 
Q 3138 488 2766 206 
Q 2394 -75 1816 -75 
Q 1088 -75 661 373 
Q 234 822 234 1631 
Q 234 2469 665 2931 
Q 1097 3394 1784 3394 
Q 2450 3394 2872 2941 
Q 3294 2488 3294 1666 
Q 3294 1616 3291 1516 
L 816 1516 
Q 847 969 1125 678 
Q 1403 388 1819 388 
Q 2128 388 2347 550 
Q 2566 713 2694 1069 
z
M 847 1978 
L 2700 1978 
Q 2663 2397 2488 2606 
Q 2219 2931 1791 2931 
Q 1403 2931 1139 2672 
Q 875 2413 847 1978 
z
" transform="scale(0.015625)"/>
       </defs>
       <use xlink:href="#ArialMT-50"/>
       <use xlink:href="#ArialMT-6f" x="66.699219"/>
       <use xlink:href="#ArialMT-73" x="122.314453"/>
       <use xlink:href="#ArialMT-69" x="172.314453"/>
       <use xlink:href="#ArialMT-74" x="194.53125"/>
       <use xlink:href="#ArialMT-69" x="222.314453"/>
       <use xlink:href="#ArialMT-76" x="244.53125"/>
       <use xlink:href="#ArialMT-65" x="294.53125"/>
      </g>
     </g>
    </g>
    <g id="xtick_2">
     <g id="text_2">
      <!-- Neutral -->
      <g style="fill: #262626" transform="translate(453.955 482.829219) scale(0.11 -0.11)">
       <defs>
        <path id="ArialMT-4e" d="M 488 0 
L 488 4581 
L 1109 4581 
L 3516 984 
L 3516 4581 
L 4097 4581 
L 4097 0 
L 3475 0 
L 1069 3600 
L 1069 0 
L 488 0 
z
" transform="scale(0.015625)"/>
        <path id="ArialMT-75" d="M 2597 0 
L 2597 488 
Q 2209 -75 1544 -75 
Q 1250 -75 995 37 
Q 741 150 617 320 
Q 494 491 444 738 
Q 409 903 409 1263 
L 409 3319 
L 972 3319 
L 972 1478 
Q 972 1038 1006 884 
Q 1059 663 1231 536 
Q 1403 409 1656 409 
Q 1909 409 2131 539 
Q 2353 669 2445 892 
Q 2538 1116 2538 1541 
L 2538 3319 
L 3100 3319 
L 3100 0 
L 2597 0 
z
" transform="scale(0.015625)"/>
        <path id="ArialMT-72" d="M 416 0 
L 416 3319 
L 922 3319 
L 922 2816 
Q 1116 3169 1280 3281 
Q 1444 3394 1641 3394 
Q 1925 3394 2219 3213 
L 2025 2691 
Q 1819 2813 1613 2813 
Q 1428 2813 1281 2702 
Q 1134 2591 1072 2394 
Q 978 2094 978 1738 
L 978 0 
L 416 0 
z
" transform="scale(0.015625)"/>
        <path id="ArialMT-61" d="M 2588 409 
Q 2275 144 1986 34 
Q 1697 -75 1366 -75 
Q 819 -75 525 192 
Q 231 459 231 875 
Q 231 1119 342 1320 
Q 453 1522 633 1644 
Q 813 1766 1038 1828 
Q 1203 1872 1538 1913 
Q 2219 1994 2541 2106 
Q 2544 2222 2544 2253 
Q 2544 2597 2384 2738 
Q 2169 2928 1744 2928 
Q 1347 2928 1158 2789 
Q 969 2650 878 2297 
L 328 2372 
Q 403 2725 575 2942 
Q 747 3159 1072 3276 
Q 1397 3394 1825 3394 
Q 2250 3394 2515 3294 
Q 2781 3194 2906 3042 
Q 3031 2891 3081 2659 
Q 3109 2516 3109 2141 
L 3109 1391 
Q 3109 606 3145 398 
Q 3181 191 3288 0 
L 2700 0 
Q 2613 175 2588 409 
z
M 2541 1666 
Q 2234 1541 1622 1453 
Q 1275 1403 1131 1340 
Q 988 1278 909 1158 
Q 831 1038 831 891 
Q 831 666 1001 516 
Q 1172 366 1500 366 
Q 1825 366 2078 508 
Q 2331 650 2450 897 
Q 2541 1088 2541 1459 
L 2541 1666 
z
" transform="scale(0.015625)"/>
        <path id="ArialMT-6c" d="M 409 0 
L 409 4581 
L 972 4581 
L 972 0 
L 409 0 
z
" transform="scale(0.015625)"/>
       </defs>
       <use xlink:href="#ArialMT-4e"/>
       <use xlink:href="#ArialMT-65" x="72.216797"/>
       <use xlink:href="#ArialMT-75" x="127.832031"/>
       <use xlink:href="#ArialMT-74" x="183.447266"/>
       <use xlink:href="#ArialMT-72" x="211.230469"/>
       <use xlink:href="#ArialMT-61" x="244.53125"/>
       <use xlink:href="#ArialMT-6c" x="300.146484"/>
      </g>
     </g>
    </g>
    <g id="xtick_3">
     <g id="text_3">
      <!-- Negative -->
      <g style="fill: #262626" transform="translate(617.377813 482.829219) scale(0.11 -0.11)">
       <defs>
        <path id="ArialMT-67" d="M 319 -275 
L 866 -356 
Q 900 -609 1056 -725 
Q 1266 -881 1628 -881 
Q 2019 -881 2231 -725 
Q 2444 -569 2519 -288 
Q 2563 -116 2559 434 
Q 2191 0 1641 0 
Q 956 0 581 494 
Q 206 988 206 1678 
Q 206 2153 378 2554 
Q 550 2956 876 3175 
Q 1203 3394 1644 3394 
Q 2231 3394 2613 2919 
L 2613 3319 
L 3131 3319 
L 3131 450 
Q 3131 -325 2973 -648 
Q 2816 -972 2473 -1159 
Q 2131 -1347 1631 -1347 
Q 1038 -1347 672 -1080 
Q 306 -813 319 -275 
z
M 784 1719 
Q 784 1066 1043 766 
Q 1303 466 1694 466 
Q 2081 466 2343 764 
Q 2606 1063 2606 1700 
Q 2606 2309 2336 2618 
Q 2066 2928 1684 2928 
Q 1309 2928 1046 2623 
Q 784 2319 784 1719 
z
" transform="scale(0.015625)"/>
       </defs>
       <use xlink:href="#ArialMT-4e"/>
       <use xlink:href="#ArialMT-65" x="72.216797"/>
       <use xlink:href="#ArialMT-67" x="127.832031"/>
       <use xlink:href="#ArialMT-61" x="183.447266"/>
       <use xlink:href="#ArialMT-74" x="239.0625"/>
       <use xlink:href="#ArialMT-69" x="266.845703"/>
       <use xlink:href="#ArialMT-76" x="289.0625"/>
       <use xlink:href="#ArialMT-65" x="339.0625"/>
      </g>
     </g>
    </g>
    <g id="xtick_4">
     <g id="text_4">
      <!-- Irrelevant -->
      <g style="fill: #262626" transform="translate(783.559219 482.829219) scale(0.11 -0.11)">
       <defs>
        <path id="ArialMT-49" d="M 597 0 
L 597 4581 
L 1203 4581 
L 1203 0 
L 597 0 
z
" transform="scale(0.015625)"/>
        <path id="ArialMT-6e" d="M 422 0 
L 422 3319 
L 928 3319 
L 928 2847 
Q 1294 3394 1984 3394 
Q 2284 3394 2536 3286 
Q 2788 3178 2913 3003 
Q 3038 2828 3088 2588 
Q 3119 2431 3119 2041 
L 3119 0 
L 2556 0 
L 2556 2019 
Q 2556 2363 2490 2533 
Q 2425 2703 2258 2804 
Q 2091 2906 1866 2906 
Q 1506 2906 1245 2678 
Q 984 2450 984 1813 
L 984 0 
L 422 0 
z
" transform="scale(0.015625)"/>
       </defs>
       <use xlink:href="#ArialMT-49"/>
       <use xlink:href="#ArialMT-72" x="27.783203"/>
       <use xlink:href="#ArialMT-72" x="61.083984"/>
       <use xlink:href="#ArialMT-65" x="94.384766"/>
       <use xlink:href="#ArialMT-6c" x="150"/>
       <use xlink:href="#ArialMT-65" x="172.216797"/>
       <use xlink:href="#ArialMT-76" x="227.832031"/>
       <use xlink:href="#ArialMT-61" x="277.832031"/>
       <use xlink:href="#ArialMT-6e" x="333.447266"/>
       <use xlink:href="#ArialMT-74" x="389.0625"/>
      </g>
     </g>
    </g>
    <g id="text_5">
     <!-- Sentiment -->
     <g style="fill: #262626" transform="translate(528.370781 497.73375) scale(0.12 -0.12)">
      <defs>
       <path id="ArialMT-53" d="M 288 1472 
L 859 1522 
Q 900 1178 1048 958 
Q 1197 738 1509 602 
Q 1822 466 2213 466 
Q 2559 466 2825 569 
Q 3091 672 3220 851 
Q 3350 1031 3350 1244 
Q 3350 1459 3225 1620 
Q 3100 1781 2813 1891 
Q 2628 1963 1997 2114 
Q 1366 2266 1113 2400 
Q 784 2572 623 2826 
Q 463 3081 463 3397 
Q 463 3744 659 4045 
Q 856 4347 1234 4503 
Q 1613 4659 2075 4659 
Q 2584 4659 2973 4495 
Q 3363 4331 3572 4012 
Q 3781 3694 3797 3291 
L 3216 3247 
Q 3169 3681 2898 3903 
Q 2628 4125 2100 4125 
Q 1550 4125 1298 3923 
Q 1047 3722 1047 3438 
Q 1047 3191 1225 3031 
Q 1400 2872 2139 2705 
Q 2878 2538 3153 2413 
Q 3553 2228 3743 1945 
Q 3934 1663 3934 1294 
Q 3934 928 3725 604 
Q 3516 281 3123 101 
Q 2731 -78 2241 -78 
Q 1619 -78 1198 103 
Q 778 284 539 648 
Q 300 1013 288 1472 
z
" transform="scale(0.015625)"/>
       <path id="ArialMT-6d" d="M 422 0 
L 422 3319 
L 925 3319 
L 925 2853 
Q 1081 3097 1340 3245 
Q 1600 3394 1931 3394 
Q 2300 3394 2536 3241 
Q 2772 3088 2869 2813 
Q 3263 3394 3894 3394 
Q 4388 3394 4653 3120 
Q 4919 2847 4919 2278 
L 4919 0 
L 4359 0 
L 4359 2091 
Q 4359 2428 4304 2576 
Q 4250 2725 4106 2815 
Q 3963 2906 3769 2906 
Q 3419 2906 3187 2673 
Q 2956 2441 2956 1928 
L 2956 0 
L 2394 0 
L 2394 2156 
Q 2394 2531 2256 2718 
Q 2119 2906 1806 2906 
Q 1569 2906 1367 2781 
Q 1166 2656 1075 2415 
Q 984 2175 984 1722 
L 984 0 
L 422 0 
z
" transform="scale(0.015625)"/>
      </defs>
      <use xlink:href="#ArialMT-53"/>
      <use xlink:href="#ArialMT-65" x="66.699219"/>
      <use xlink:href="#ArialMT-6e" x="122.314453"/>
      <use xlink:href="#ArialMT-74" x="177.929688"/>
      <use xlink:href="#ArialMT-69" x="205.712891"/>
      <use xlink:href="#ArialMT-6d" x="227.929688"/>
      <use xlink:href="#ArialMT-65" x="311.230469"/>
      <use xlink:href="#ArialMT-6e" x="366.845703"/>
      <use xlink:href="#ArialMT-74" x="422.460938"/>
     </g>
    </g>
   </g>
   <g id="matplotlib.axis_2">
    <g id="ytick_1">
     <g id="line2d_1">
      <path d="M 220.583906 71.854573 
L 890.183906 71.854573 
" clip-path="url(#p944cbb0055)" style="fill: none; stroke: #cccccc; stroke-linecap: round"/>
     </g>
     <g id="text_6">
      <!-- Borderlands -->
      <g style="fill: #262626" transform="translate(151.775 75.791369) scale(0.11 -0.11)">
       <defs>
        <path id="ArialMT-42" d="M 469 0 
L 469 4581 
L 2188 4581 
Q 2713 4581 3030 4442 
Q 3347 4303 3526 4014 
Q 3706 3725 3706 3409 
Q 3706 3116 3547 2856 
Q 3388 2597 3066 2438 
Q 3481 2316 3704 2022 
Q 3928 1728 3928 1328 
Q 3928 1006 3792 729 
Q 3656 453 3456 303 
Q 3256 153 2954 76 
Q 2653 0 2216 0 
L 469 0 
z
M 1075 2656 
L 2066 2656 
Q 2469 2656 2644 2709 
Q 2875 2778 2992 2937 
Q 3109 3097 3109 3338 
Q 3109 3566 3000 3739 
Q 2891 3913 2687 3977 
Q 2484 4041 1991 4041 
L 1075 4041 
L 1075 2656 
z
M 1075 541 
L 2216 541 
Q 2509 541 2628 563 
Q 2838 600 2978 687 
Q 3119 775 3209 942 
Q 3300 1109 3300 1328 
Q 3300 1584 3169 1773 
Q 3038 1963 2805 2039 
Q 2572 2116 2134 2116 
L 1075 2116 
L 1075 541 
z
" transform="scale(0.015625)"/>
        <path id="ArialMT-64" d="M 2575 0 
L 2575 419 
Q 2259 -75 1647 -75 
Q 1250 -75 917 144 
Q 584 363 401 755 
Q 219 1147 219 1656 
Q 219 2153 384 2558 
Q 550 2963 881 3178 
Q 1213 3394 1622 3394 
Q 1922 3394 2156 3267 
Q 2391 3141 2538 2938 
L 2538 4581 
L 3097 4581 
L 3097 0 
L 2575 0 
z
M 797 1656 
Q 797 1019 1065 703 
Q 1334 388 1700 388 
Q 2069 388 2326 689 
Q 2584 991 2584 1609 
Q 2584 2291 2321 2609 
Q 2059 2928 1675 2928 
Q 1300 2928 1048 2622 
Q 797 2316 797 1656 
z
" transform="scale(0.015625)"/>
       </defs>
       <use xlink:href="#ArialMT-42"/>
       <use xlink:href="#ArialMT-6f" x="66.699219"/>
       <use xlink:href="#ArialMT-72" x="122.314453"/>
       <use xlink:href="#ArialMT-64" x="155.615234"/>
       <use xlink:href="#ArialMT-65" x="211.230469"/>
       <use xlink:href="#ArialMT-72" x="266.845703"/>
       <use xlink:href="#ArialMT-6c" x="300.146484"/>
       <use xlink:href="#ArialMT-61" x="322.363281"/>
       <use xlink:href="#ArialMT-6e" x="377.978516"/>
       <use xlink:href="#ArialMT-64" x="433.59375"/>
       <use xlink:href="#ArialMT-73" x="489.208984"/>
      </g>
     </g>
    </g>
    <g id="ytick_2">
     <g id="line2d_2">
      <path d="M 220.583906 82.941092 
L 890.183906 82.941092 
" clip-path="url(#p944cbb0055)" style="fill: none; stroke: #cccccc; stroke-linecap: round"/>
     </g>
     <g id="text_7">
      <!-- CallOfDutyBlackopsColdWar -->
      <g style="fill: #262626" transform="translate(70.900937 86.948358) scale(0.11 -0.11)">
       <defs>
        <path id="ArialMT-43" d="M 3763 1606 
L 4369 1453 
Q 4178 706 3683 314 
Q 3188 -78 2472 -78 
Q 1731 -78 1267 223 
Q 803 525 561 1097 
Q 319 1669 319 2325 
Q 319 3041 592 3573 
Q 866 4106 1370 4382 
Q 1875 4659 2481 4659 
Q 3169 4659 3637 4309 
Q 4106 3959 4291 3325 
L 3694 3184 
Q 3534 3684 3231 3912 
Q 2928 4141 2469 4141 
Q 1941 4141 1586 3887 
Q 1231 3634 1087 3207 
Q 944 2781 944 2328 
Q 944 1744 1114 1308 
Q 1284 872 1643 656 
Q 2003 441 2422 441 
Q 2931 441 3284 734 
Q 3638 1028 3763 1606 
z
" transform="scale(0.015625)"/>
        <path id="ArialMT-4f" d="M 309 2231 
Q 309 3372 921 4017 
Q 1534 4663 2503 4663 
Q 3138 4663 3647 4359 
Q 4156 4056 4423 3514 
Q 4691 2972 4691 2284 
Q 4691 1588 4409 1038 
Q 4128 488 3612 205 
Q 3097 -78 2500 -78 
Q 1853 -78 1343 234 
Q 834 547 571 1087 
Q 309 1628 309 2231 
z
M 934 2222 
Q 934 1394 1379 917 
Q 1825 441 2497 441 
Q 3181 441 3623 922 
Q 4066 1403 4066 2288 
Q 4066 2847 3877 3264 
Q 3688 3681 3323 3911 
Q 2959 4141 2506 4141 
Q 1863 4141 1398 3698 
Q 934 3256 934 2222 
z
" transform="scale(0.015625)"/>
        <path id="ArialMT-66" d="M 556 0 
L 556 2881 
L 59 2881 
L 59 3319 
L 556 3319 
L 556 3672 
Q 556 4006 616 4169 
Q 697 4388 901 4523 
Q 1106 4659 1475 4659 
Q 1713 4659 2000 4603 
L 1916 4113 
Q 1741 4144 1584 4144 
Q 1328 4144 1222 4034 
Q 1116 3925 1116 3625 
L 1116 3319 
L 1763 3319 
L 1763 2881 
L 1116 2881 
L 1116 0 
L 556 0 
z
" transform="scale(0.015625)"/>
        <path id="ArialMT-44" d="M 494 0 
L 494 4581 
L 2072 4581 
Q 2606 4581 2888 4516 
Q 3281 4425 3559 4188 
Q 3922 3881 4101 3404 
Q 4281 2928 4281 2316 
Q 4281 1794 4159 1391 
Q 4038 988 3847 723 
Q 3656 459 3429 307 
Q 3203 156 2883 78 
Q 2563 0 2147 0 
L 494 0 
z
M 1100 541 
L 2078 541 
Q 2531 541 2789 625 
Q 3047 709 3200 863 
Q 3416 1078 3536 1442 
Q 3656 1806 3656 2325 
Q 3656 3044 3420 3430 
Q 3184 3816 2847 3947 
Q 2603 4041 2063 4041 
L 1100 4041 
L 1100 541 
z
" transform="scale(0.015625)"/>
        <path id="ArialMT-79" d="M 397 -1278 
L 334 -750 
Q 519 -800 656 -800 
Q 844 -800 956 -737 
Q 1069 -675 1141 -563 
Q 1194 -478 1313 -144 
Q 1328 -97 1363 -6 
L 103 3319 
L 709 3319 
L 1400 1397 
Q 1534 1031 1641 628 
Q 1738 1016 1872 1384 
L 2581 3319 
L 3144 3319 
L 1881 -56 
Q 1678 -603 1566 -809 
Q 1416 -1088 1222 -1217 
Q 1028 -1347 759 -1347 
Q 597 -1347 397 -1278 
z
" transform="scale(0.015625)"/>
        <path id="ArialMT-63" d="M 2588 1216 
L 3141 1144 
Q 3050 572 2676 248 
Q 2303 -75 1759 -75 
Q 1078 -75 664 370 
Q 250 816 250 1647 
Q 250 2184 428 2587 
Q 606 2991 970 3192 
Q 1334 3394 1763 3394 
Q 2303 3394 2647 3120 
Q 2991 2847 3088 2344 
L 2541 2259 
Q 2463 2594 2264 2762 
Q 2066 2931 1784 2931 
Q 1359 2931 1093 2626 
Q 828 2322 828 1663 
Q 828 994 1084 691 
Q 1341 388 1753 388 
Q 2084 388 2306 591 
Q 2528 794 2588 1216 
z
" transform="scale(0.015625)"/>
        <path id="ArialMT-6b" d="M 425 0 
L 425 4581 
L 988 4581 
L 988 1969 
L 2319 3319 
L 3047 3319 
L 1778 2088 
L 3175 0 
L 2481 0 
L 1384 1697 
L 988 1316 
L 988 0 
L 425 0 
z
" transform="scale(0.015625)"/>
        <path id="ArialMT-70" d="M 422 -1272 
L 422 3319 
L 934 3319 
L 934 2888 
Q 1116 3141 1344 3267 
Q 1572 3394 1897 3394 
Q 2322 3394 2647 3175 
Q 2972 2956 3137 2557 
Q 3303 2159 3303 1684 
Q 3303 1175 3120 767 
Q 2938 359 2589 142 
Q 2241 -75 1856 -75 
Q 1575 -75 1351 44 
Q 1128 163 984 344 
L 984 -1272 
L 422 -1272 
z
M 931 1641 
Q 931 1000 1190 694 
Q 1450 388 1819 388 
Q 2194 388 2461 705 
Q 2728 1022 2728 1688 
Q 2728 2322 2467 2637 
Q 2206 2953 1844 2953 
Q 1484 2953 1207 2617 
Q 931 2281 931 1641 
z
" transform="scale(0.015625)"/>
        <path id="ArialMT-57" d="M 1294 0 
L 78 4581 
L 700 4581 
L 1397 1578 
Q 1509 1106 1591 641 
Q 1766 1375 1797 1488 
L 2669 4581 
L 3400 4581 
L 4056 2263 
Q 4303 1400 4413 641 
Q 4500 1075 4641 1638 
L 5359 4581 
L 5969 4581 
L 4713 0 
L 4128 0 
L 3163 3491 
Q 3041 3928 3019 4028 
Q 2947 3713 2884 3491 
L 1913 0 
L 1294 0 
z
" transform="scale(0.015625)"/>
       </defs>
       <use xlink:href="#ArialMT-43"/>
       <use xlink:href="#ArialMT-61" x="72.216797"/>
       <use xlink:href="#ArialMT-6c" x="127.832031"/>
       <use xlink:href="#ArialMT-6c" x="150.048828"/>
       <use xlink:href="#ArialMT-4f" x="172.265625"/>
       <use xlink:href="#ArialMT-66" x="250.048828"/>
       <use xlink:href="#ArialMT-44" x="277.832031"/>
       <use xlink:href="#ArialMT-75" x="350.048828"/>
       <use xlink:href="#ArialMT-74" x="405.664062"/>
       <use xlink:href="#ArialMT-79" x="433.447266"/>
       <use xlink:href="#ArialMT-42" x="483.447266"/>
       <use xlink:href="#ArialMT-6c" x="550.146484"/>
       <use xlink:href="#ArialMT-61" x="572.363281"/>
       <use xlink:href="#ArialMT-63" x="627.978516"/>
       <use xlink:href="#ArialMT-6b" x="677.978516"/>
       <use xlink:href="#ArialMT-6f" x="727.978516"/>
       <use xlink:href="#ArialMT-70" x="783.59375"/>
       <use xlink:href="#ArialMT-73" x="839.208984"/>
       <use xlink:href="#ArialMT-43" x="889.208984"/>
       <use xlink:href="#ArialMT-6f" x="961.425781"/>
       <use xlink:href="#ArialMT-6c" x="1017.041016"/>
       <use xlink:href="#ArialMT-64" x="1039.257812"/>
       <use xlink:href="#ArialMT-57" x="1094.873047"/>
       <use xlink:href="#ArialMT-61" x="1185.507812"/>
       <use xlink:href="#ArialMT-72" x="1241.123047"/>
      </g>
     </g>
    </g>
    <g id="ytick_3">
     <g id="line2d_3">
      <path d="M 220.583906 94.027612 
L 890.183906 94.027612 
" clip-path="url(#p944cbb0055)" style="fill: none; stroke: #cccccc; stroke-linecap: round"/>
     </g>
     <g id="text_8">
      <!-- Amazon -->
      <g style="fill: #262626" transform="translate(170.732813 97.964408) scale(0.11 -0.11)">
       <defs>
        <path id="ArialMT-41" d="M -9 0 
L 1750 4581 
L 2403 4581 
L 4278 0 
L 3588 0 
L 3053 1388 
L 1138 1388 
L 634 0 
L -9 0 
z
M 1313 1881 
L 2866 1881 
L 2388 3150 
Q 2169 3728 2063 4100 
Q 1975 3659 1816 3225 
L 1313 1881 
z
" transform="scale(0.015625)"/>
        <path id="ArialMT-7a" d="M 125 0 
L 125 456 
L 2238 2881 
Q 1878 2863 1603 2863 
L 250 2863 
L 250 3319 
L 2963 3319 
L 2963 2947 
L 1166 841 
L 819 456 
Q 1197 484 1528 484 
L 3063 484 
L 3063 0 
L 125 0 
z
" transform="scale(0.015625)"/>
       </defs>
       <use xlink:href="#ArialMT-41"/>
       <use xlink:href="#ArialMT-6d" x="66.699219"/>
       <use xlink:href="#ArialMT-61" x="150"/>
       <use xlink:href="#ArialMT-7a" x="205.615234"/>
       <use xlink:href="#ArialMT-6f" x="255.615234"/>
       <use xlink:href="#ArialMT-6e" x="311.230469"/>
      </g>
     </g>
    </g>
    <g id="ytick_4">
     <g id="line2d_4">
      <path d="M 220.583906 105.114131 
L 890.183906 105.114131 
" clip-path="url(#p944cbb0055)" style="fill: none; stroke: #cccccc; stroke-linecap: round"/>
     </g>
     <g id="text_9">
      <!-- Overwatch -->
      <g style="fill: #262626" transform="translate(158.514219 109.050928) scale(0.11 -0.11)">
       <defs>
        <path id="ArialMT-77" d="M 1034 0 
L 19 3319 
L 600 3319 
L 1128 1403 
L 1325 691 
Q 1338 744 1497 1375 
L 2025 3319 
L 2603 3319 
L 3100 1394 
L 3266 759 
L 3456 1400 
L 4025 3319 
L 4572 3319 
L 3534 0 
L 2950 0 
L 2422 1988 
L 2294 2553 
L 1622 0 
L 1034 0 
z
" transform="scale(0.015625)"/>
        <path id="ArialMT-68" d="M 422 0 
L 422 4581 
L 984 4581 
L 984 2938 
Q 1378 3394 1978 3394 
Q 2347 3394 2619 3248 
Q 2891 3103 3008 2847 
Q 3125 2591 3125 2103 
L 3125 0 
L 2563 0 
L 2563 2103 
Q 2563 2525 2380 2717 
Q 2197 2909 1863 2909 
Q 1613 2909 1392 2779 
Q 1172 2650 1078 2428 
Q 984 2206 984 1816 
L 984 0 
L 422 0 
z
" transform="scale(0.015625)"/>
       </defs>
       <use xlink:href="#ArialMT-4f"/>
       <use xlink:href="#ArialMT-76" x="77.783203"/>
       <use xlink:href="#ArialMT-65" x="127.783203"/>
       <use xlink:href="#ArialMT-72" x="183.398438"/>
       <use xlink:href="#ArialMT-77" x="216.699219"/>
       <use xlink:href="#ArialMT-61" x="288.916016"/>
       <use xlink:href="#ArialMT-74" x="344.53125"/>
       <use xlink:href="#ArialMT-63" x="372.314453"/>
       <use xlink:href="#ArialMT-68" x="422.314453"/>
      </g>
     </g>
    </g>
    <g id="ytick_5">
     <g id="line2d_5">
      <path d="M 220.583906 116.200651 
L 890.183906 116.200651 
" clip-path="url(#p944cbb0055)" style="fill: none; stroke: #cccccc; stroke-linecap: round"/>
     </g>
     <g id="text_10">
      <!-- Xbox(Xseries) -->
      <g style="fill: #262626" transform="translate(142.009063 120.204479) scale(0.11 -0.11)">
       <defs>
        <path id="ArialMT-58" d="M 28 0 
L 1800 2388 
L 238 4581 
L 959 4581 
L 1791 3406 
Q 2050 3041 2159 2844 
Q 2313 3094 2522 3366 
L 3444 4581 
L 4103 4581 
L 2494 2422 
L 4228 0 
L 3478 0 
L 2325 1634 
Q 2228 1775 2125 1941 
Q 1972 1691 1906 1597 
L 756 0 
L 28 0 
z
" transform="scale(0.015625)"/>
        <path id="ArialMT-62" d="M 941 0 
L 419 0 
L 419 4581 
L 981 4581 
L 981 2947 
Q 1338 3394 1891 3394 
Q 2197 3394 2470 3270 
Q 2744 3147 2920 2923 
Q 3097 2700 3197 2384 
Q 3297 2069 3297 1709 
Q 3297 856 2875 390 
Q 2453 -75 1863 -75 
Q 1275 -75 941 416 
L 941 0 
z
M 934 1684 
Q 934 1088 1097 822 
Q 1363 388 1816 388 
Q 2184 388 2453 708 
Q 2722 1028 2722 1663 
Q 2722 2313 2464 2622 
Q 2206 2931 1841 2931 
Q 1472 2931 1203 2611 
Q 934 2291 934 1684 
z
" transform="scale(0.015625)"/>
        <path id="ArialMT-78" d="M 47 0 
L 1259 1725 
L 138 3319 
L 841 3319 
L 1350 2541 
Q 1494 2319 1581 2169 
Q 1719 2375 1834 2534 
L 2394 3319 
L 3066 3319 
L 1919 1756 
L 3153 0 
L 2463 0 
L 1781 1031 
L 1600 1309 
L 728 0 
L 47 0 
z
" transform="scale(0.015625)"/>
        <path id="ArialMT-28" d="M 1497 -1347 
Q 1031 -759 709 28 
Q 388 816 388 1659 
Q 388 2403 628 3084 
Q 909 3875 1497 4659 
L 1900 4659 
Q 1522 4009 1400 3731 
Q 1209 3300 1100 2831 
Q 966 2247 966 1656 
Q 966 153 1900 -1347 
L 1497 -1347 
z
" transform="scale(0.015625)"/>
        <path id="ArialMT-29" d="M 791 -1347 
L 388 -1347 
Q 1322 153 1322 1656 
Q 1322 2244 1188 2822 
Q 1081 3291 891 3722 
Q 769 4003 388 4659 
L 791 4659 
Q 1378 3875 1659 3084 
Q 1900 2403 1900 1659 
Q 1900 816 1576 28 
Q 1253 -759 791 -1347 
z
" transform="scale(0.015625)"/>
       </defs>
       <use xlink:href="#ArialMT-58"/>
       <use xlink:href="#ArialMT-62" x="66.699219"/>
       <use xlink:href="#ArialMT-6f" x="122.314453"/>
       <use xlink:href="#ArialMT-78" x="177.929688"/>
       <use xlink:href="#ArialMT-28" x="227.929688"/>
       <use xlink:href="#ArialMT-58" x="261.230469"/>
       <use xlink:href="#ArialMT-73" x="327.929688"/>
       <use xlink:href="#ArialMT-65" x="377.929688"/>
       <use xlink:href="#ArialMT-72" x="433.544922"/>
       <use xlink:href="#ArialMT-69" x="466.845703"/>
       <use xlink:href="#ArialMT-65" x="489.0625"/>
       <use xlink:href="#ArialMT-73" x="544.677734"/>
       <use xlink:href="#ArialMT-29" x="594.677734"/>
      </g>
     </g>
    </g>
    <g id="ytick_6">
     <g id="line2d_6">
      <path d="M 220.583906 127.28717 
L 890.183906 127.28717 
" clip-path="url(#p944cbb0055)" style="fill: none; stroke: #cccccc; stroke-linecap: round"/>
     </g>
     <g id="text_11">
      <!-- NBA2K -->
      <g style="fill: #262626" transform="translate(175.010781 131.223967) scale(0.11 -0.11)">
       <defs>
        <path id="ArialMT-32" d="M 3222 541 
L 3222 0 
L 194 0 
Q 188 203 259 391 
Q 375 700 629 1000 
Q 884 1300 1366 1694 
Q 2113 2306 2375 2664 
Q 2638 3022 2638 3341 
Q 2638 3675 2398 3904 
Q 2159 4134 1775 4134 
Q 1369 4134 1125 3890 
Q 881 3647 878 3216 
L 300 3275 
Q 359 3922 746 4261 
Q 1134 4600 1788 4600 
Q 2447 4600 2831 4234 
Q 3216 3869 3216 3328 
Q 3216 3053 3103 2787 
Q 2991 2522 2730 2228 
Q 2469 1934 1863 1422 
Q 1356 997 1212 845 
Q 1069 694 975 541 
L 3222 541 
z
" transform="scale(0.015625)"/>
        <path id="ArialMT-4b" d="M 469 0 
L 469 4581 
L 1075 4581 
L 1075 2309 
L 3350 4581 
L 4172 4581 
L 2250 2725 
L 4256 0 
L 3456 0 
L 1825 2319 
L 1075 1588 
L 1075 0 
L 469 0 
z
" transform="scale(0.015625)"/>
       </defs>
       <use xlink:href="#ArialMT-4e"/>
       <use xlink:href="#ArialMT-42" x="72.216797"/>
       <use xlink:href="#ArialMT-41" x="138.916016"/>
       <use xlink:href="#ArialMT-32" x="205.615234"/>
       <use xlink:href="#ArialMT-4b" x="261.230469"/>
      </g>
     </g>
    </g>
    <g id="ytick_7">
     <g id="line2d_7">
      <path d="M 220.583906 138.37369 
L 890.183906 138.37369 
" clip-path="url(#p944cbb0055)" style="fill: none; stroke: #cccccc; stroke-linecap: round"/>
     </g>
     <g id="text_12">
      <!-- Dota2 -->
      <g style="fill: #262626" transform="translate(181.732813 142.310487) scale(0.11 -0.11)">
       <use xlink:href="#ArialMT-44"/>
       <use xlink:href="#ArialMT-6f" x="72.216797"/>
       <use xlink:href="#ArialMT-74" x="127.832031"/>
       <use xlink:href="#ArialMT-61" x="155.615234"/>
       <use xlink:href="#ArialMT-32" x="211.230469"/>
      </g>
     </g>
    </g>
    <g id="ytick_8">
     <g id="line2d_8">
      <path d="M 220.583906 149.460209 
L 890.183906 149.460209 
" clip-path="url(#p944cbb0055)" style="fill: none; stroke: #cccccc; stroke-linecap: round"/>
     </g>
     <g id="text_13">
      <!-- PlayStation5(PS5) -->
      <g style="fill: #262626" transform="translate(121.207031 153.464037) scale(0.11 -0.11)">
       <defs>
        <path id="ArialMT-35" d="M 266 1200 
L 856 1250 
Q 922 819 1161 601 
Q 1400 384 1738 384 
Q 2144 384 2425 690 
Q 2706 997 2706 1503 
Q 2706 1984 2436 2262 
Q 2166 2541 1728 2541 
Q 1456 2541 1237 2417 
Q 1019 2294 894 2097 
L 366 2166 
L 809 4519 
L 3088 4519 
L 3088 3981 
L 1259 3981 
L 1013 2750 
Q 1425 3038 1878 3038 
Q 2478 3038 2890 2622 
Q 3303 2206 3303 1553 
Q 3303 931 2941 478 
Q 2500 -78 1738 -78 
Q 1113 -78 717 272 
Q 322 622 266 1200 
z
" transform="scale(0.015625)"/>
       </defs>
       <use xlink:href="#ArialMT-50"/>
       <use xlink:href="#ArialMT-6c" x="66.699219"/>
       <use xlink:href="#ArialMT-61" x="88.916016"/>
       <use xlink:href="#ArialMT-79" x="144.53125"/>
       <use xlink:href="#ArialMT-53" x="194.53125"/>
       <use xlink:href="#ArialMT-74" x="261.230469"/>
       <use xlink:href="#ArialMT-61" x="289.013672"/>
       <use xlink:href="#ArialMT-74" x="344.628906"/>
       <use xlink:href="#ArialMT-69" x="372.412109"/>
       <use xlink:href="#ArialMT-6f" x="394.628906"/>
       <use xlink:href="#ArialMT-6e" x="450.244141"/>
       <use xlink:href="#ArialMT-35" x="505.859375"/>
       <use xlink:href="#ArialMT-28" x="561.474609"/>
       <use xlink:href="#ArialMT-50" x="594.775391"/>
       <use xlink:href="#ArialMT-53" x="661.474609"/>
       <use xlink:href="#ArialMT-35" x="728.173828"/>
       <use xlink:href="#ArialMT-29" x="783.789062"/>
      </g>
     </g>
    </g>
    <g id="ytick_9">
     <g id="line2d_9">
      <path d="M 220.583906 160.546729 
L 890.183906 160.546729 
" clip-path="url(#p944cbb0055)" style="fill: none; stroke: #cccccc; stroke-linecap: round"/>
     </g>
     <g id="text_14">
      <!-- WorldOfCraft -->
      <g style="fill: #262626" transform="translate(147.105156 164.483526) scale(0.11 -0.11)">
       <use xlink:href="#ArialMT-57"/>
       <use xlink:href="#ArialMT-6f" x="92.634766"/>
       <use xlink:href="#ArialMT-72" x="148.25"/>
       <use xlink:href="#ArialMT-6c" x="181.550781"/>
       <use xlink:href="#ArialMT-64" x="203.767578"/>
       <use xlink:href="#ArialMT-4f" x="259.382812"/>
       <use xlink:href="#ArialMT-66" x="337.166016"/>
       <use xlink:href="#ArialMT-43" x="364.949219"/>
       <use xlink:href="#ArialMT-72" x="437.166016"/>
       <use xlink:href="#ArialMT-61" x="470.466797"/>
       <use xlink:href="#ArialMT-66" x="526.082031"/>
       <use xlink:href="#ArialMT-74" x="553.865234"/>
      </g>
     </g>
    </g>
    <g id="ytick_10">
     <g id="line2d_10">
      <path d="M 220.583906 171.633248 
L 890.183906 171.633248 
" clip-path="url(#p944cbb0055)" style="fill: none; stroke: #cccccc; stroke-linecap: round"/>
     </g>
     <g id="text_15">
      <!-- CS-GO -->
      <g style="fill: #262626" transform="translate(175.027969 175.570045) scale(0.11 -0.11)">
       <defs>
        <path id="ArialMT-2d" d="M 203 1375 
L 203 1941 
L 1931 1941 
L 1931 1375 
L 203 1375 
z
" transform="scale(0.015625)"/>
        <path id="ArialMT-47" d="M 2638 1797 
L 2638 2334 
L 4578 2338 
L 4578 638 
Q 4131 281 3656 101 
Q 3181 -78 2681 -78 
Q 2006 -78 1454 211 
Q 903 500 622 1047 
Q 341 1594 341 2269 
Q 341 2938 620 3517 
Q 900 4097 1425 4378 
Q 1950 4659 2634 4659 
Q 3131 4659 3532 4498 
Q 3934 4338 4162 4050 
Q 4391 3763 4509 3300 
L 3963 3150 
Q 3859 3500 3706 3700 
Q 3553 3900 3268 4020 
Q 2984 4141 2638 4141 
Q 2222 4141 1919 4014 
Q 1616 3888 1430 3681 
Q 1244 3475 1141 3228 
Q 966 2803 966 2306 
Q 966 1694 1177 1281 
Q 1388 869 1791 669 
Q 2194 469 2647 469 
Q 3041 469 3416 620 
Q 3791 772 3984 944 
L 3984 1797 
L 2638 1797 
z
" transform="scale(0.015625)"/>
       </defs>
       <use xlink:href="#ArialMT-43"/>
       <use xlink:href="#ArialMT-53" x="72.216797"/>
       <use xlink:href="#ArialMT-2d" x="138.916016"/>
       <use xlink:href="#ArialMT-47" x="172.216797"/>
       <use xlink:href="#ArialMT-4f" x="250"/>
      </g>
     </g>
    </g>
    <g id="ytick_11">
     <g id="line2d_11">
      <path d="M 220.583906 182.719768 
L 890.183906 182.719768 
" clip-path="url(#p944cbb0055)" style="fill: none; stroke: #cccccc; stroke-linecap: round"/>
     </g>
     <g id="text_16">
      <!-- Google -->
      <g style="fill: #262626" transform="translate(175.615781 186.723596) scale(0.11 -0.11)">
       <use xlink:href="#ArialMT-47"/>
       <use xlink:href="#ArialMT-6f" x="77.783203"/>
       <use xlink:href="#ArialMT-6f" x="133.398438"/>
       <use xlink:href="#ArialMT-67" x="189.013672"/>
       <use xlink:href="#ArialMT-6c" x="244.628906"/>
       <use xlink:href="#ArialMT-65" x="266.845703"/>
      </g>
     </g>
    </g>
    <g id="ytick_12">
     <g id="line2d_12">
      <path d="M 220.583906 193.806287 
L 890.183906 193.806287 
" clip-path="url(#p944cbb0055)" style="fill: none; stroke: #cccccc; stroke-linecap: round"/>
     </g>
     <g id="text_17">
      <!-- AssassinsCreed -->
      <g style="fill: #262626" transform="translate(131.610625 197.743084) scale(0.11 -0.11)">
       <use xlink:href="#ArialMT-41"/>
       <use xlink:href="#ArialMT-73" x="66.699219"/>
       <use xlink:href="#ArialMT-73" x="116.699219"/>
       <use xlink:href="#ArialMT-61" x="166.699219"/>
       <use xlink:href="#ArialMT-73" x="222.314453"/>
       <use xlink:href="#ArialMT-73" x="272.314453"/>
       <use xlink:href="#ArialMT-69" x="322.314453"/>
       <use xlink:href="#ArialMT-6e" x="344.53125"/>
       <use xlink:href="#ArialMT-73" x="400.146484"/>
       <use xlink:href="#ArialMT-43" x="450.146484"/>
       <use xlink:href="#ArialMT-72" x="522.363281"/>
       <use xlink:href="#ArialMT-65" x="555.664062"/>
       <use xlink:href="#ArialMT-65" x="611.279297"/>
       <use xlink:href="#ArialMT-64" x="666.894531"/>
      </g>
     </g>
    </g>
    <g id="ytick_13">
     <g id="line2d_13">
      <path d="M 220.583906 204.892807 
L 890.183906 204.892807 
" clip-path="url(#p944cbb0055)" style="fill: none; stroke: #cccccc; stroke-linecap: round"/>
     </g>
     <g id="text_18">
      <!-- ApexLegends -->
      <g style="fill: #262626" transform="translate(143.810313 208.829604) scale(0.11 -0.11)">
       <defs>
        <path id="ArialMT-4c" d="M 469 0 
L 469 4581 
L 1075 4581 
L 1075 541 
L 3331 541 
L 3331 0 
L 469 0 
z
" transform="scale(0.015625)"/>
       </defs>
       <use xlink:href="#ArialMT-41"/>
       <use xlink:href="#ArialMT-70" x="66.699219"/>
       <use xlink:href="#ArialMT-65" x="122.314453"/>
       <use xlink:href="#ArialMT-78" x="177.929688"/>
       <use xlink:href="#ArialMT-4c" x="227.929688"/>
       <use xlink:href="#ArialMT-65" x="283.544922"/>
       <use xlink:href="#ArialMT-67" x="339.160156"/>
       <use xlink:href="#ArialMT-65" x="394.775391"/>
       <use xlink:href="#ArialMT-6e" x="450.390625"/>
       <use xlink:href="#ArialMT-64" x="506.005859"/>
       <use xlink:href="#ArialMT-73" x="561.621094"/>
      </g>
     </g>
    </g>
    <g id="ytick_14">
     <g id="line2d_14">
      <path d="M 220.583906 215.979326 
L 890.183906 215.979326 
" clip-path="url(#p944cbb0055)" style="fill: none; stroke: #cccccc; stroke-linecap: round"/>
     </g>
     <g id="text_19">
      <!-- LeagueOfLegends -->
      <g style="fill: #262626" transform="translate(120.567656 219.986592) scale(0.11 -0.11)">
       <use xlink:href="#ArialMT-4c"/>
       <use xlink:href="#ArialMT-65" x="55.615234"/>
       <use xlink:href="#ArialMT-61" x="111.230469"/>
       <use xlink:href="#ArialMT-67" x="166.845703"/>
       <use xlink:href="#ArialMT-75" x="222.460938"/>
       <use xlink:href="#ArialMT-65" x="278.076172"/>
       <use xlink:href="#ArialMT-4f" x="333.691406"/>
       <use xlink:href="#ArialMT-66" x="411.474609"/>
       <use xlink:href="#ArialMT-4c" x="439.257812"/>
       <use xlink:href="#ArialMT-65" x="494.873047"/>
       <use xlink:href="#ArialMT-67" x="550.488281"/>
       <use xlink:href="#ArialMT-65" x="606.103516"/>
       <use xlink:href="#ArialMT-6e" x="661.71875"/>
       <use xlink:href="#ArialMT-64" x="717.333984"/>
       <use xlink:href="#ArialMT-73" x="772.949219"/>
      </g>
     </g>
    </g>
    <g id="ytick_15">
     <g id="line2d_15">
      <path d="M 220.583906 227.065846 
L 890.183906 227.065846 
" clip-path="url(#p944cbb0055)" style="fill: none; stroke: #cccccc; stroke-linecap: round"/>
     </g>
     <g id="text_20">
      <!-- Fortnite -->
      <g style="fill: #262626" transform="translate(173.795625 231.002643) scale(0.11 -0.11)">
       <defs>
        <path id="ArialMT-46" d="M 525 0 
L 525 4581 
L 3616 4581 
L 3616 4041 
L 1131 4041 
L 1131 2622 
L 3281 2622 
L 3281 2081 
L 1131 2081 
L 1131 0 
L 525 0 
z
" transform="scale(0.015625)"/>
       </defs>
       <use xlink:href="#ArialMT-46"/>
       <use xlink:href="#ArialMT-6f" x="61.083984"/>
       <use xlink:href="#ArialMT-72" x="116.699219"/>
       <use xlink:href="#ArialMT-74" x="150"/>
       <use xlink:href="#ArialMT-6e" x="177.783203"/>
       <use xlink:href="#ArialMT-69" x="233.398438"/>
       <use xlink:href="#ArialMT-74" x="255.615234"/>
       <use xlink:href="#ArialMT-65" x="283.398438"/>
      </g>
     </g>
    </g>
    <g id="ytick_16">
     <g id="line2d_16">
      <path d="M 220.583906 238.152365 
L 890.183906 238.152365 
" clip-path="url(#p944cbb0055)" style="fill: none; stroke: #cccccc; stroke-linecap: round"/>
     </g>
     <g id="text_21">
      <!-- Microsoft -->
      <g style="fill: #262626" transform="translate(166.468594 242.089162) scale(0.11 -0.11)">
       <defs>
        <path id="ArialMT-4d" d="M 475 0 
L 475 4581 
L 1388 4581 
L 2472 1338 
Q 2622 884 2691 659 
Q 2769 909 2934 1394 
L 4031 4581 
L 4847 4581 
L 4847 0 
L 4263 0 
L 4263 3834 
L 2931 0 
L 2384 0 
L 1059 3900 
L 1059 0 
L 475 0 
z
" transform="scale(0.015625)"/>
       </defs>
       <use xlink:href="#ArialMT-4d"/>
       <use xlink:href="#ArialMT-69" x="83.300781"/>
       <use xlink:href="#ArialMT-63" x="105.517578"/>
       <use xlink:href="#ArialMT-72" x="155.517578"/>
       <use xlink:href="#ArialMT-6f" x="188.818359"/>
       <use xlink:href="#ArialMT-73" x="244.433594"/>
       <use xlink:href="#ArialMT-6f" x="294.433594"/>
       <use xlink:href="#ArialMT-66" x="350.048828"/>
       <use xlink:href="#ArialMT-74" x="377.832031"/>
      </g>
     </g>
    </g>
    <g id="ytick_17">
     <g id="line2d_17">
      <path d="M 220.583906 249.238885 
L 890.183906 249.238885 
" clip-path="url(#p944cbb0055)" style="fill: none; stroke: #cccccc; stroke-linecap: round"/>
     </g>
     <g id="text_22">
      <!-- Hearthstone -->
      <g style="fill: #262626" transform="translate(151.163125 253.175682) scale(0.11 -0.11)">
       <defs>
        <path id="ArialMT-48" d="M 513 0 
L 513 4581 
L 1119 4581 
L 1119 2700 
L 3500 2700 
L 3500 4581 
L 4106 4581 
L 4106 0 
L 3500 0 
L 3500 2159 
L 1119 2159 
L 1119 0 
L 513 0 
z
" transform="scale(0.015625)"/>
       </defs>
       <use xlink:href="#ArialMT-48"/>
       <use xlink:href="#ArialMT-65" x="72.216797"/>
       <use xlink:href="#ArialMT-61" x="127.832031"/>
       <use xlink:href="#ArialMT-72" x="183.447266"/>
       <use xlink:href="#ArialMT-74" x="216.748047"/>
       <use xlink:href="#ArialMT-68" x="244.53125"/>
       <use xlink:href="#ArialMT-73" x="300.146484"/>
       <use xlink:href="#ArialMT-74" x="350.146484"/>
       <use xlink:href="#ArialMT-6f" x="377.929688"/>
       <use xlink:href="#ArialMT-6e" x="433.544922"/>
       <use xlink:href="#ArialMT-65" x="489.160156"/>
      </g>
     </g>
    </g>
    <g id="ytick_18">
     <g id="line2d_18">
      <path d="M 220.583906 260.325404 
L 890.183906 260.325404 
" clip-path="url(#p944cbb0055)" style="fill: none; stroke: #cccccc; stroke-linecap: round"/>
     </g>
     <g id="text_23">
      <!-- Battlefield -->
      <g style="fill: #262626" transform="translate(162.778437 264.262201) scale(0.11 -0.11)">
       <use xlink:href="#ArialMT-42"/>
       <use xlink:href="#ArialMT-61" x="66.699219"/>
       <use xlink:href="#ArialMT-74" x="122.314453"/>
       <use xlink:href="#ArialMT-74" x="150.097656"/>
       <use xlink:href="#ArialMT-6c" x="177.880859"/>
       <use xlink:href="#ArialMT-65" x="200.097656"/>
       <use xlink:href="#ArialMT-66" x="255.712891"/>
       <use xlink:href="#ArialMT-69" x="283.496094"/>
       <use xlink:href="#ArialMT-65" x="305.712891"/>
       <use xlink:href="#ArialMT-6c" x="361.328125"/>
       <use xlink:href="#ArialMT-64" x="383.544922"/>
      </g>
     </g>
    </g>
    <g id="ytick_19">
     <g id="line2d_19">
      <path d="M 220.583906 271.411924 
L 890.183906 271.411924 
" clip-path="url(#p944cbb0055)" style="fill: none; stroke: #cccccc; stroke-linecap: round"/>
     </g>
     <g id="text_24">
      <!-- PlayerUnknownsBattlegrounds(PUBG) -->
      <g style="fill: #262626" transform="translate(22.174375 275.415752) scale(0.11 -0.11)">
       <defs>
        <path id="ArialMT-55" d="M 3500 4581 
L 4106 4581 
L 4106 1934 
Q 4106 1244 3950 837 
Q 3794 431 3386 176 
Q 2978 -78 2316 -78 
Q 1672 -78 1262 144 
Q 853 366 678 786 
Q 503 1206 503 1934 
L 503 4581 
L 1109 4581 
L 1109 1938 
Q 1109 1341 1220 1058 
Q 1331 775 1601 622 
Q 1872 469 2263 469 
Q 2931 469 3215 772 
Q 3500 1075 3500 1938 
L 3500 4581 
z
" transform="scale(0.015625)"/>
       </defs>
       <use xlink:href="#ArialMT-50"/>
       <use xlink:href="#ArialMT-6c" x="66.699219"/>
       <use xlink:href="#ArialMT-61" x="88.916016"/>
       <use xlink:href="#ArialMT-79" x="144.53125"/>
       <use xlink:href="#ArialMT-65" x="194.53125"/>
       <use xlink:href="#ArialMT-72" x="250.146484"/>
       <use xlink:href="#ArialMT-55" x="283.447266"/>
       <use xlink:href="#ArialMT-6e" x="355.664062"/>
       <use xlink:href="#ArialMT-6b" x="411.279297"/>
       <use xlink:href="#ArialMT-6e" x="461.279297"/>
       <use xlink:href="#ArialMT-6f" x="516.894531"/>
       <use xlink:href="#ArialMT-77" x="572.509766"/>
       <use xlink:href="#ArialMT-6e" x="644.726562"/>
       <use xlink:href="#ArialMT-73" x="700.341797"/>
       <use xlink:href="#ArialMT-42" x="750.341797"/>
       <use xlink:href="#ArialMT-61" x="817.041016"/>
       <use xlink:href="#ArialMT-74" x="872.65625"/>
       <use xlink:href="#ArialMT-74" x="900.439453"/>
       <use xlink:href="#ArialMT-6c" x="928.222656"/>
       <use xlink:href="#ArialMT-65" x="950.439453"/>
       <use xlink:href="#ArialMT-67" x="1006.054688"/>
       <use xlink:href="#ArialMT-72" x="1061.669922"/>
       <use xlink:href="#ArialMT-6f" x="1094.970703"/>
       <use xlink:href="#ArialMT-75" x="1150.585938"/>
       <use xlink:href="#ArialMT-6e" x="1206.201172"/>
       <use xlink:href="#ArialMT-64" x="1261.816406"/>
       <use xlink:href="#ArialMT-73" x="1317.431641"/>
       <use xlink:href="#ArialMT-28" x="1367.431641"/>
       <use xlink:href="#ArialMT-50" x="1400.732422"/>
       <use xlink:href="#ArialMT-55" x="1467.431641"/>
       <use xlink:href="#ArialMT-42" x="1539.648438"/>
       <use xlink:href="#ArialMT-47" x="1606.347656"/>
       <use xlink:href="#ArialMT-29" x="1684.130859"/>
      </g>
     </g>
    </g>
    <g id="ytick_20">
     <g id="line2d_20">
      <path d="M 220.583906 282.498443 
L 890.183906 282.498443 
" clip-path="url(#p944cbb0055)" style="fill: none; stroke: #cccccc; stroke-linecap: round"/>
     </g>
     <g id="text_25">
      <!-- Verizon -->
      <g style="fill: #262626" transform="translate(174.39375 286.43524) scale(0.11 -0.11)">
       <defs>
        <path id="ArialMT-56" d="M 1803 0 
L 28 4581 
L 684 4581 
L 1875 1253 
Q 2019 853 2116 503 
Q 2222 878 2363 1253 
L 3600 4581 
L 4219 4581 
L 2425 0 
L 1803 0 
z
" transform="scale(0.015625)"/>
       </defs>
       <use xlink:href="#ArialMT-56"/>
       <use xlink:href="#ArialMT-65" x="61.199219"/>
       <use xlink:href="#ArialMT-72" x="116.814453"/>
       <use xlink:href="#ArialMT-69" x="150.115234"/>
       <use xlink:href="#ArialMT-7a" x="172.332031"/>
       <use xlink:href="#ArialMT-6f" x="222.332031"/>
       <use xlink:href="#ArialMT-6e" x="277.947266"/>
      </g>
     </g>
    </g>
    <g id="ytick_21">
     <g id="line2d_21">
      <path d="M 220.583906 293.584963 
L 890.183906 293.584963 
" clip-path="url(#p944cbb0055)" style="fill: none; stroke: #cccccc; stroke-linecap: round"/>
     </g>
     <g id="text_26">
      <!-- HomeDepot -->
      <g style="fill: #262626" transform="translate(152.392031 297.52176) scale(0.11 -0.11)">
       <use xlink:href="#ArialMT-48"/>
       <use xlink:href="#ArialMT-6f" x="72.216797"/>
       <use xlink:href="#ArialMT-6d" x="127.832031"/>
       <use xlink:href="#ArialMT-65" x="211.132812"/>
       <use xlink:href="#ArialMT-44" x="266.748047"/>
       <use xlink:href="#ArialMT-65" x="338.964844"/>
       <use xlink:href="#ArialMT-70" x="394.580078"/>
       <use xlink:href="#ArialMT-6f" x="450.195312"/>
       <use xlink:href="#ArialMT-74" x="505.810547"/>
      </g>
     </g>
    </g>
    <g id="ytick_22">
     <g id="line2d_22">
      <path d="M 220.583906 304.671482 
L 890.183906 304.671482 
" clip-path="url(#p944cbb0055)" style="fill: none; stroke: #cccccc; stroke-linecap: round"/>
     </g>
     <g id="text_27">
      <!-- FIFA -->
      <g style="fill: #262626" transform="translate(187.858438 308.608279) scale(0.11 -0.11)">
       <use xlink:href="#ArialMT-46"/>
       <use xlink:href="#ArialMT-49" x="61.083984"/>
       <use xlink:href="#ArialMT-46" x="88.867188"/>
       <use xlink:href="#ArialMT-41" x="144.451172"/>
      </g>
     </g>
    </g>
    <g id="ytick_23">
     <g id="line2d_23">
      <path d="M 220.583906 315.758002 
L 890.183906 315.758002 
" clip-path="url(#p944cbb0055)" style="fill: none; stroke: #cccccc; stroke-linecap: round"/>
     </g>
     <g id="text_28">
      <!-- RedDeadRedemption(RDR) -->
      <g style="fill: #262626" transform="translate(74.144219 319.76183) scale(0.11 -0.11)">
       <defs>
        <path id="ArialMT-52" d="M 503 0 
L 503 4581 
L 2534 4581 
Q 3147 4581 3465 4457 
Q 3784 4334 3975 4021 
Q 4166 3709 4166 3331 
Q 4166 2844 3850 2509 
Q 3534 2175 2875 2084 
Q 3116 1969 3241 1856 
Q 3506 1613 3744 1247 
L 4541 0 
L 3778 0 
L 3172 953 
Q 2906 1366 2734 1584 
Q 2563 1803 2427 1890 
Q 2291 1978 2150 2013 
Q 2047 2034 1813 2034 
L 1109 2034 
L 1109 0 
L 503 0 
z
M 1109 2559 
L 2413 2559 
Q 2828 2559 3062 2645 
Q 3297 2731 3419 2920 
Q 3541 3109 3541 3331 
Q 3541 3656 3305 3865 
Q 3069 4075 2559 4075 
L 1109 4075 
L 1109 2559 
z
" transform="scale(0.015625)"/>
       </defs>
       <use xlink:href="#ArialMT-52"/>
       <use xlink:href="#ArialMT-65" x="72.216797"/>
       <use xlink:href="#ArialMT-64" x="127.832031"/>
       <use xlink:href="#ArialMT-44" x="183.447266"/>
       <use xlink:href="#ArialMT-65" x="255.664062"/>
       <use xlink:href="#ArialMT-61" x="311.279297"/>
       <use xlink:href="#ArialMT-64" x="366.894531"/>
       <use xlink:href="#ArialMT-52" x="422.509766"/>
       <use xlink:href="#ArialMT-65" x="494.726562"/>
       <use xlink:href="#ArialMT-64" x="550.341797"/>
       <use xlink:href="#ArialMT-65" x="605.957031"/>
       <use xlink:href="#ArialMT-6d" x="661.572266"/>
       <use xlink:href="#ArialMT-70" x="744.873047"/>
       <use xlink:href="#ArialMT-74" x="800.488281"/>
       <use xlink:href="#ArialMT-69" x="828.271484"/>
       <use xlink:href="#ArialMT-6f" x="850.488281"/>
       <use xlink:href="#ArialMT-6e" x="906.103516"/>
       <use xlink:href="#ArialMT-28" x="961.71875"/>
       <use xlink:href="#ArialMT-52" x="995.019531"/>
       <use xlink:href="#ArialMT-44" x="1067.236328"/>
       <use xlink:href="#ArialMT-52" x="1139.453125"/>
       <use xlink:href="#ArialMT-29" x="1211.669922"/>
      </g>
     </g>
    </g>
    <g id="ytick_24">
     <g id="line2d_24">
      <path d="M 220.583906 326.844521 
L 890.183906 326.844521 
" clip-path="url(#p944cbb0055)" style="fill: none; stroke: #cccccc; stroke-linecap: round"/>
     </g>
     <g id="text_29">
      <!-- CallOfDuty -->
      <g style="fill: #262626" transform="translate(157.905781 330.851787) scale(0.11 -0.11)">
       <use xlink:href="#ArialMT-43"/>
       <use xlink:href="#ArialMT-61" x="72.216797"/>
       <use xlink:href="#ArialMT-6c" x="127.832031"/>
       <use xlink:href="#ArialMT-6c" x="150.048828"/>
       <use xlink:href="#ArialMT-4f" x="172.265625"/>
       <use xlink:href="#ArialMT-66" x="250.048828"/>
       <use xlink:href="#ArialMT-44" x="277.832031"/>
       <use xlink:href="#ArialMT-75" x="350.048828"/>
       <use xlink:href="#ArialMT-74" x="405.664062"/>
       <use xlink:href="#ArialMT-79" x="433.447266"/>
      </g>
     </g>
    </g>
    <g id="ytick_25">
     <g id="line2d_25">
      <path d="M 220.583906 337.931041 
L 890.183906 337.931041 
" clip-path="url(#p944cbb0055)" style="fill: none; stroke: #cccccc; stroke-linecap: round"/>
     </g>
     <g id="text_30">
      <!-- TomClancysRainbowSix -->
      <g style="fill: #262626" transform="translate(93.105469 341.934869) scale(0.11 -0.11)">
       <defs>
        <path id="ArialMT-54" d="M 1659 0 
L 1659 4041 
L 150 4041 
L 150 4581 
L 3781 4581 
L 3781 4041 
L 2266 4041 
L 2266 0 
L 1659 0 
z
" transform="scale(0.015625)"/>
       </defs>
       <use xlink:href="#ArialMT-54"/>
       <use xlink:href="#ArialMT-6f" x="49.958984"/>
       <use xlink:href="#ArialMT-6d" x="105.574219"/>
       <use xlink:href="#ArialMT-43" x="188.875"/>
       <use xlink:href="#ArialMT-6c" x="261.091797"/>
       <use xlink:href="#ArialMT-61" x="283.308594"/>
       <use xlink:href="#ArialMT-6e" x="338.923828"/>
       <use xlink:href="#ArialMT-63" x="394.539062"/>
       <use xlink:href="#ArialMT-79" x="444.539062"/>
       <use xlink:href="#ArialMT-73" x="494.539062"/>
       <use xlink:href="#ArialMT-52" x="544.539062"/>
       <use xlink:href="#ArialMT-61" x="616.755859"/>
       <use xlink:href="#ArialMT-69" x="672.371094"/>
       <use xlink:href="#ArialMT-6e" x="694.587891"/>
       <use xlink:href="#ArialMT-62" x="750.203125"/>
       <use xlink:href="#ArialMT-6f" x="805.818359"/>
       <use xlink:href="#ArialMT-77" x="861.433594"/>
       <use xlink:href="#ArialMT-53" x="933.650391"/>
       <use xlink:href="#ArialMT-69" x="1000.349609"/>
       <use xlink:href="#ArialMT-78" x="1022.566406"/>
      </g>
     </g>
    </g>
    <g id="ytick_26">
     <g id="line2d_26">
      <path d="M 220.583906 349.01756 
L 890.183906 349.01756 
" clip-path="url(#p944cbb0055)" style="fill: none; stroke: #cccccc; stroke-linecap: round"/>
     </g>
     <g id="text_31">
      <!-- Facebook -->
      <g style="fill: #262626" transform="translate(162.780156 352.954357) scale(0.11 -0.11)">
       <use xlink:href="#ArialMT-46"/>
       <use xlink:href="#ArialMT-61" x="61.083984"/>
       <use xlink:href="#ArialMT-63" x="116.699219"/>
       <use xlink:href="#ArialMT-65" x="166.699219"/>
       <use xlink:href="#ArialMT-62" x="222.314453"/>
       <use xlink:href="#ArialMT-6f" x="277.929688"/>
       <use xlink:href="#ArialMT-6f" x="333.544922"/>
       <use xlink:href="#ArialMT-6b" x="389.160156"/>
      </g>
     </g>
    </g>
    <g id="ytick_27">
     <g id="line2d_27">
      <path d="M 220.583906 360.10408 
L 890.183906 360.10408 
" clip-path="url(#p944cbb0055)" style="fill: none; stroke: #cccccc; stroke-linecap: round"/>
     </g>
     <g id="text_32">
      <!-- GrandTheftAuto(GTA) -->
      <g style="fill: #262626" transform="translate(103.696406 364.107908) scale(0.11 -0.11)">
       <use xlink:href="#ArialMT-47"/>
       <use xlink:href="#ArialMT-72" x="77.783203"/>
       <use xlink:href="#ArialMT-61" x="111.083984"/>
       <use xlink:href="#ArialMT-6e" x="166.699219"/>
       <use xlink:href="#ArialMT-64" x="222.314453"/>
       <use xlink:href="#ArialMT-54" x="277.929688"/>
       <use xlink:href="#ArialMT-68" x="339.013672"/>
       <use xlink:href="#ArialMT-65" x="394.628906"/>
       <use xlink:href="#ArialMT-66" x="450.244141"/>
       <use xlink:href="#ArialMT-74" x="478.027344"/>
       <use xlink:href="#ArialMT-41" x="505.810547"/>
       <use xlink:href="#ArialMT-75" x="572.509766"/>
       <use xlink:href="#ArialMT-74" x="628.125"/>
       <use xlink:href="#ArialMT-6f" x="655.908203"/>
       <use xlink:href="#ArialMT-28" x="711.523438"/>
       <use xlink:href="#ArialMT-47" x="744.824219"/>
       <use xlink:href="#ArialMT-54" x="822.607422"/>
       <use xlink:href="#ArialMT-41" x="876.316406"/>
       <use xlink:href="#ArialMT-29" x="943.015625"/>
      </g>
     </g>
    </g>
    <g id="ytick_28">
     <g id="line2d_28">
      <path d="M 220.583906 371.190599 
L 890.183906 371.190599 
" clip-path="url(#p944cbb0055)" style="fill: none; stroke: #cccccc; stroke-linecap: round"/>
     </g>
     <g id="text_33">
      <!-- MaddenNFL -->
      <g style="fill: #262626" transform="translate(150.556406 375.127396) scale(0.11 -0.11)">
       <use xlink:href="#ArialMT-4d"/>
       <use xlink:href="#ArialMT-61" x="83.300781"/>
       <use xlink:href="#ArialMT-64" x="138.916016"/>
       <use xlink:href="#ArialMT-64" x="194.53125"/>
       <use xlink:href="#ArialMT-65" x="250.146484"/>
       <use xlink:href="#ArialMT-6e" x="305.761719"/>
       <use xlink:href="#ArialMT-4e" x="361.376953"/>
       <use xlink:href="#ArialMT-46" x="433.59375"/>
       <use xlink:href="#ArialMT-4c" x="494.677734"/>
      </g>
     </g>
    </g>
    <g id="ytick_29">
     <g id="line2d_29">
      <path d="M 220.583906 382.277119 
L 890.183906 382.277119 
" clip-path="url(#p944cbb0055)" style="fill: none; stroke: #cccccc; stroke-linecap: round"/>
     </g>
     <g id="text_34">
      <!-- johnson&amp;johnson -->
      <g style="fill: #262626" transform="translate(126.688125 386.280947) scale(0.11 -0.11)">
       <defs>
        <path id="ArialMT-6a" d="M 419 3928 
L 419 4581 
L 981 4581 
L 981 3928 
L 419 3928 
z
M -294 -1288 
L -188 -809 
Q -19 -853 78 -853 
Q 250 -853 334 -739 
Q 419 -625 419 -169 
L 419 3319 
L 981 3319 
L 981 -181 
Q 981 -794 822 -1034 
Q 619 -1347 147 -1347 
Q -81 -1347 -294 -1288 
z
" transform="scale(0.015625)"/>
        <path id="ArialMT-26" d="M 3041 541 
Q 2763 231 2434 76 
Q 2106 -78 1725 -78 
Q 1022 -78 609 397 
Q 275 784 275 1263 
Q 275 1688 548 2030 
Q 822 2372 1366 2631 
Q 1056 2988 953 3209 
Q 850 3431 850 3638 
Q 850 4050 1173 4354 
Q 1497 4659 1988 4659 
Q 2456 4659 2754 4371 
Q 3053 4084 3053 3681 
Q 3053 3028 2188 2566 
L 3009 1519 
Q 3150 1794 3228 2156 
L 3813 2031 
Q 3663 1431 3406 1044 
Q 3722 625 4122 341 
L 3744 -106 
Q 3403 113 3041 541 
z
M 1897 2928 
Q 2263 3144 2370 3306 
Q 2478 3469 2478 3666 
Q 2478 3900 2329 4048 
Q 2181 4197 1959 4197 
Q 1731 4197 1579 4050 
Q 1428 3903 1428 3691 
Q 1428 3584 1483 3467 
Q 1538 3350 1647 3219 
L 1897 2928 
z
M 2688 984 
L 1656 2263 
Q 1200 1991 1040 1758 
Q 881 1525 881 1297 
Q 881 1019 1103 719 
Q 1325 419 1731 419 
Q 1984 419 2254 576 
Q 2525 734 2688 984 
z
" transform="scale(0.015625)"/>
       </defs>
       <use xlink:href="#ArialMT-6a"/>
       <use xlink:href="#ArialMT-6f" x="22.216797"/>
       <use xlink:href="#ArialMT-68" x="77.832031"/>
       <use xlink:href="#ArialMT-6e" x="133.447266"/>
       <use xlink:href="#ArialMT-73" x="189.0625"/>
       <use xlink:href="#ArialMT-6f" x="239.0625"/>
       <use xlink:href="#ArialMT-6e" x="294.677734"/>
       <use xlink:href="#ArialMT-26" x="350.292969"/>
       <use xlink:href="#ArialMT-6a" x="416.992188"/>
       <use xlink:href="#ArialMT-6f" x="439.208984"/>
       <use xlink:href="#ArialMT-68" x="494.824219"/>
       <use xlink:href="#ArialMT-6e" x="550.439453"/>
       <use xlink:href="#ArialMT-73" x="606.054688"/>
       <use xlink:href="#ArialMT-6f" x="656.054688"/>
       <use xlink:href="#ArialMT-6e" x="711.669922"/>
      </g>
     </g>
    </g>
    <g id="ytick_30">
     <g id="line2d_30">
      <path d="M 220.583906 393.363638 
L 890.183906 393.363638 
" clip-path="url(#p944cbb0055)" style="fill: none; stroke: #cccccc; stroke-linecap: round"/>
     </g>
     <g id="text_35">
      <!-- Cyberpunk2077 -->
      <g style="fill: #262626" transform="translate(133.423906 397.367467) scale(0.11 -0.11)">
       <defs>
        <path id="ArialMT-30" d="M 266 2259 
Q 266 3072 433 3567 
Q 600 4063 929 4331 
Q 1259 4600 1759 4600 
Q 2128 4600 2406 4451 
Q 2684 4303 2865 4023 
Q 3047 3744 3150 3342 
Q 3253 2941 3253 2259 
Q 3253 1453 3087 958 
Q 2922 463 2592 192 
Q 2263 -78 1759 -78 
Q 1097 -78 719 397 
Q 266 969 266 2259 
z
M 844 2259 
Q 844 1131 1108 757 
Q 1372 384 1759 384 
Q 2147 384 2411 759 
Q 2675 1134 2675 2259 
Q 2675 3391 2411 3762 
Q 2147 4134 1753 4134 
Q 1366 4134 1134 3806 
Q 844 3388 844 2259 
z
" transform="scale(0.015625)"/>
        <path id="ArialMT-37" d="M 303 3981 
L 303 4522 
L 3269 4522 
L 3269 4084 
Q 2831 3619 2401 2847 
Q 1972 2075 1738 1259 
Q 1569 684 1522 0 
L 944 0 
Q 953 541 1156 1306 
Q 1359 2072 1739 2783 
Q 2119 3494 2547 3981 
L 303 3981 
z
" transform="scale(0.015625)"/>
       </defs>
       <use xlink:href="#ArialMT-43"/>
       <use xlink:href="#ArialMT-79" x="72.216797"/>
       <use xlink:href="#ArialMT-62" x="122.216797"/>
       <use xlink:href="#ArialMT-65" x="177.832031"/>
       <use xlink:href="#ArialMT-72" x="233.447266"/>
       <use xlink:href="#ArialMT-70" x="266.748047"/>
       <use xlink:href="#ArialMT-75" x="322.363281"/>
       <use xlink:href="#ArialMT-6e" x="377.978516"/>
       <use xlink:href="#ArialMT-6b" x="433.59375"/>
       <use xlink:href="#ArialMT-32" x="483.59375"/>
       <use xlink:href="#ArialMT-30" x="539.208984"/>
       <use xlink:href="#ArialMT-37" x="594.824219"/>
       <use xlink:href="#ArialMT-37" x="650.439453"/>
      </g>
     </g>
    </g>
    <g id="ytick_31">
     <g id="line2d_31">
      <path d="M 220.583906 404.450158 
L 890.183906 404.450158 
" clip-path="url(#p944cbb0055)" style="fill: none; stroke: #cccccc; stroke-linecap: round"/>
     </g>
     <g id="text_36">
      <!-- TomClancysGhostRecon -->
      <g style="fill: #262626" transform="translate(90.046094 408.453986) scale(0.11 -0.11)">
       <use xlink:href="#ArialMT-54"/>
       <use xlink:href="#ArialMT-6f" x="49.958984"/>
       <use xlink:href="#ArialMT-6d" x="105.574219"/>
       <use xlink:href="#ArialMT-43" x="188.875"/>
       <use xlink:href="#ArialMT-6c" x="261.091797"/>
       <use xlink:href="#ArialMT-61" x="283.308594"/>
       <use xlink:href="#ArialMT-6e" x="338.923828"/>
       <use xlink:href="#ArialMT-63" x="394.539062"/>
       <use xlink:href="#ArialMT-79" x="444.539062"/>
       <use xlink:href="#ArialMT-73" x="494.539062"/>
       <use xlink:href="#ArialMT-47" x="544.539062"/>
       <use xlink:href="#ArialMT-68" x="622.322266"/>
       <use xlink:href="#ArialMT-6f" x="677.9375"/>
       <use xlink:href="#ArialMT-73" x="733.552734"/>
       <use xlink:href="#ArialMT-74" x="783.552734"/>
       <use xlink:href="#ArialMT-52" x="811.335938"/>
       <use xlink:href="#ArialMT-65" x="883.552734"/>
       <use xlink:href="#ArialMT-63" x="939.167969"/>
       <use xlink:href="#ArialMT-6f" x="989.167969"/>
       <use xlink:href="#ArialMT-6e" x="1044.783203"/>
      </g>
     </g>
    </g>
    <g id="ytick_32">
     <g id="line2d_32">
      <path d="M 220.583906 415.536677 
L 890.183906 415.536677 
" clip-path="url(#p944cbb0055)" style="fill: none; stroke: #cccccc; stroke-linecap: round"/>
     </g>
     <g id="text_37">
      <!-- Nvidia -->
      <g style="fill: #262626" transform="translate(180.517656 419.473474) scale(0.11 -0.11)">
       <use xlink:href="#ArialMT-4e"/>
       <use xlink:href="#ArialMT-76" x="72.216797"/>
       <use xlink:href="#ArialMT-69" x="122.216797"/>
       <use xlink:href="#ArialMT-64" x="144.433594"/>
       <use xlink:href="#ArialMT-69" x="200.048828"/>
       <use xlink:href="#ArialMT-61" x="222.265625"/>
      </g>
     </g>
    </g>
    <g id="text_38">
     <!-- Branch -->
     <g style="fill: #262626" transform="translate(15.789375 262.705312) rotate(-90) scale(0.12 -0.12)">
      <use xlink:href="#ArialMT-42"/>
      <use xlink:href="#ArialMT-72" x="66.699219"/>
      <use xlink:href="#ArialMT-61" x="100"/>
      <use xlink:href="#ArialMT-6e" x="155.615234"/>
      <use xlink:href="#ArialMT-63" x="211.230469"/>
      <use xlink:href="#ArialMT-68" x="261.230469"/>
     </g>
    </g>
   </g>
   <g id="PolyCollection_1">
    <defs>
     <path id="m45991ba24f" d="M 307.569802 -463.734486 
L 300.99801 -463.734486 
L 298.521626 -459.691832 
L 294.904991 -455.649179 
L 290.091674 -451.606525 
L 284.27663 -447.563871 
L 277.938591 -443.521217 
L 271.769729 -439.478564 
L 266.504618 -435.43591 
L 262.703611 -431.393256 
L 260.578649 -427.350602 
L 259.939315 -423.307949 
L 260.285694 -419.265295 
L 261.008218 -415.222641 
L 261.607529 -411.179987 
L 261.842362 -407.137334 
L 261.751163 -403.09468 
L 261.553007 -399.052026 
L 261.485703 -395.009372 
L 261.660253 -390.966719 
L 261.994838 -386.924065 
L 262.249696 -382.881411 
L 262.138136 -378.838757 
L 261.458581 -374.796103 
L 260.18886 -370.75345 
L 258.505346 -366.710796 
L 256.724268 -362.668142 
L 255.194066 -358.625488 
L 254.182478 -354.582835 
L 253.795986 -350.540181 
L 253.95012 -346.497527 
L 254.39102 -342.454873 
L 254.761174 -338.41222 
L 254.701505 -334.369566 
L 253.97505 -330.326912 
L 252.578269 -326.284258 
L 250.788205 -322.241605 
L 249.102361 -318.198951 
L 248.07429 -314.156297 
L 248.108713 -310.113643 
L 249.311643 -306.07099 
L 251.465132 -302.028336 
L 254.127756 -297.985682 
L 256.798184 -293.943028 
L 259.061115 -289.900374 
L 260.665686 -285.857721 
L 261.535231 -281.815067 
L 261.738543 -277.772413 
L 261.452833 -273.729759 
L 260.929038 -269.687106 
L 260.452479 -265.644452 
L 260.289776 -261.601798 
L 260.625391 -257.559144 
L 261.506376 -253.516491 
L 262.819412 -249.473837 
L 264.31533 -245.431183 
L 265.677662 -241.388529 
L 266.613534 -237.345876 
L 266.935914 -233.303222 
L 266.609161 -229.260568 
L 265.743427 -225.217914 
L 264.543163 -221.17526 
L 263.234004 -217.132607 
L 262.00188 -213.089953 
L 260.971088 -209.047299 
L 260.224679 -205.004645 
L 259.843394 -200.961992 
L 259.927459 -196.919338 
L 260.579193 -192.876684 
L 261.854649 -188.83403 
L 263.715943 -184.791377 
L 266.01477 -180.748723 
L 268.515477 -176.706069 
L 270.943768 -172.663415 
L 273.041284 -168.620762 
L 274.614493 -164.578108 
L 275.572753 -160.535454 
L 275.946261 -156.4928 
L 275.868444 -152.450147 
L 275.51498 -148.407493 
L 275.016372 -144.364839 
L 274.386242 -140.322185 
L 273.510407 -136.279531 
L 272.213625 -132.236878 
L 270.376573 -128.194224 
L 268.04373 -124.15157 
L 265.465268 -120.108916 
L 263.052538 -116.066263 
L 261.273579 -112.023609 
L 260.541356 -107.980955 
L 261.137484 -103.938301 
L 263.180392 -99.895648 
L 266.619358 -95.852994 
L 271.235969 -91.81034 
L 276.656071 -87.767686 
L 282.391625 -83.725033 
L 287.922993 -79.682379 
L 292.804034 -75.639725 
L 296.750353 -71.597071 
L 299.674862 -67.554418 
L 301.661749 -63.511764 
L 306.906064 -63.511764 
L 306.906064 -63.511764 
L 308.89295 -67.554418 
L 311.81746 -71.597071 
L 315.763779 -75.639725 
L 320.64482 -79.682379 
L 326.176187 -83.725033 
L 331.911742 -87.767686 
L 337.331843 -91.81034 
L 341.948454 -95.852994 
L 345.38742 -99.895648 
L 347.430328 -103.938301 
L 348.026457 -107.980955 
L 347.294234 -112.023609 
L 345.515274 -116.066263 
L 343.102544 -120.108916 
L 340.524083 -124.15157 
L 338.19124 -128.194224 
L 336.354187 -132.236878 
L 335.057405 -136.279531 
L 334.181571 -140.322185 
L 333.55144 -144.364839 
L 333.052832 -148.407493 
L 332.699369 -152.450147 
L 332.621552 -156.4928 
L 332.99506 -160.535454 
L 333.953319 -164.578108 
L 335.526528 -168.620762 
L 337.624044 -172.663415 
L 340.052335 -176.706069 
L 342.553043 -180.748723 
L 344.851869 -184.791377 
L 346.713164 -188.83403 
L 347.98862 -192.876684 
L 348.640354 -196.919338 
L 348.724418 -200.961992 
L 348.343133 -205.004645 
L 347.596725 -209.047299 
L 346.565933 -213.089953 
L 345.333808 -217.132607 
L 344.024649 -221.17526 
L 342.824386 -225.217914 
L 341.958651 -229.260568 
L 341.631898 -233.303222 
L 341.954278 -237.345876 
L 342.89015 -241.388529 
L 344.252482 -245.431183 
L 345.748401 -249.473837 
L 347.061437 -253.516491 
L 347.942421 -257.559144 
L 348.278037 -261.601798 
L 348.115334 -265.644452 
L 347.638775 -269.687106 
L 347.11498 -273.729759 
L 346.829269 -277.772413 
L 347.032582 -281.815067 
L 347.902127 -285.857721 
L 349.506697 -289.900374 
L 351.769628 -293.943028 
L 354.440056 -297.985682 
L 357.10268 -302.028336 
L 359.25617 -306.07099 
L 360.459099 -310.113643 
L 360.493522 -314.156297 
L 359.465451 -318.198951 
L 357.779608 -322.241605 
L 355.989544 -326.284258 
L 354.592763 -330.326912 
L 353.866307 -334.369566 
L 353.806639 -338.41222 
L 354.176793 -342.454873 
L 354.617692 -346.497527 
L 354.771826 -350.540181 
L 354.385334 -354.582835 
L 353.373746 -358.625488 
L 351.843545 -362.668142 
L 350.062467 -366.710796 
L 348.378953 -370.75345 
L 347.109231 -374.796103 
L 346.429676 -378.838757 
L 346.318116 -382.881411 
L 346.572974 -386.924065 
L 346.907559 -390.966719 
L 347.082109 -395.009372 
L 347.014805 -399.052026 
L 346.81665 -403.09468 
L 346.725451 -407.137334 
L 346.960283 -411.179987 
L 347.559594 -415.222641 
L 348.282119 -419.265295 
L 348.628497 -423.307949 
L 347.989163 -427.350602 
L 345.864201 -431.393256 
L 342.063194 -435.43591 
L 336.798083 -439.478564 
L 330.629221 -443.521217 
L 324.291182 -447.563871 
L 318.476139 -451.606525 
L 313.662821 -455.649179 
L 310.046187 -459.691832 
L 307.569802 -463.734486 
z
" style="stroke: #4c4c4c; stroke-width: 1.25"/>
    </defs>
    <g clip-path="url(#p944cbb0055)">
     <use xlink:href="#m45991ba24f" x="0" y="507.31875" style="fill: #5875a4; stroke: #4c4c4c; stroke-width: 1.25"/>
    </g>
   </g>
   <g id="PolyCollection_2">
    <defs>
     <path id="m9507bc5f74" d="M 473.778255 -465.223125 
L 469.589558 -465.223125 
L 468.070744 -461.150398 
L 465.839423 -457.07767 
L 462.792528 -453.004943 
L 458.91381 -448.932216 
L 454.293112 -444.859489 
L 449.120838 -440.786761 
L 443.664981 -436.714034 
L 438.246875 -432.641307 
L 433.225972 -428.56858 
L 428.985885 -424.495852 
L 425.900057 -420.423125 
L 424.262414 -416.350398 
L 424.196267 -412.27767 
L 425.582895 -408.204943 
L 428.054404 -404.132216 
L 431.066562 -400.059489 
L 434.025456 -395.986761 
L 436.416184 -391.914034 
L 437.887715 -387.841307 
L 438.276714 -383.76858 
L 437.582798 -379.695852 
L 435.922088 -375.623125 
L 433.483665 -371.550398 
L 430.502215 -367.47767 
L 427.24702 -363.404943 
L 424.016865 -359.332216 
L 421.12572 -355.259489 
L 418.868957 -351.186761 
L 417.473278 -347.114034 
L 417.047209 -343.041307 
L 417.552214 -338.96858 
L 418.804758 -334.895852 
L 420.506068 -330.823125 
L 422.291006 -326.750398 
L 423.791983 -322.67767 
L 424.716971 -318.604943 
L 424.9309 -314.532216 
L 424.511028 -310.459489 
L 423.738356 -306.386761 
L 423.0061 -302.314034 
L 422.669136 -298.241307 
L 422.899026 -294.16858 
L 423.617779 -290.095852 
L 424.54889 -286.023125 
L 425.363934 -281.950398 
L 425.851973 -277.87767 
L 426.027149 -273.804943 
L 426.12337 -269.732216 
L 426.48373 -265.659489 
L 427.402881 -261.586761 
L 428.997529 -257.514034 
L 431.15939 -253.441307 
L 433.602444 -249.36858 
L 435.975413 -245.295852 
L 437.987887 -241.223125 
L 439.499121 -237.150398 
L 440.537611 -233.07767 
L 441.248623 -229.004943 
L 441.795917 -224.932216 
L 442.263151 -220.859489 
L 442.601199 -216.786761 
L 442.647299 -212.714034 
L 442.207301 -208.641307 
L 441.159634 -204.56858 
L 439.526925 -200.495852 
L 437.478265 -196.423125 
L 435.264062 -192.350398 
L 433.123864 -188.27767 
L 431.220955 -184.204943 
L 429.636678 -180.132216 
L 428.416104 -176.059489 
L 427.62244 -171.986761 
L 427.352943 -167.914034 
L 427.696112 -163.841307 
L 428.650353 -159.76858 
L 430.053067 -155.695852 
L 431.56962 -151.623125 
L 432.763831 -147.550398 
L 433.229876 -143.47767 
L 432.731203 -139.404943 
L 431.283516 -135.332216 
L 429.142922 -131.259489 
L 426.706945 -127.186761 
L 424.380675 -123.114034 
L 422.476508 -119.041307 
L 421.192122 -114.96858 
L 420.660985 -110.895852 
L 421.024374 -106.823125 
L 422.462757 -102.750398 
L 425.153998 -98.67767 
L 429.176182 -94.604943 
L 434.411493 -90.532216 
L 440.511032 -86.459489 
L 446.948419 -82.386761 
L 453.143296 -78.314034 
L 458.602003 -74.241307 
L 463.019147 -70.16858 
L 466.308356 -66.095852 
L 468.565702 -62.023125 
L 474.80211 -62.023125 
L 474.80211 -62.023125 
L 477.059457 -66.095852 
L 480.348666 -70.16858 
L 484.765809 -74.241307 
L 490.224516 -78.314034 
L 496.419394 -82.386761 
L 502.856781 -86.459489 
L 508.956319 -90.532216 
L 514.191631 -94.604943 
L 518.213815 -98.67767 
L 520.905055 -102.750398 
L 522.343438 -106.823125 
L 522.706827 -110.895852 
L 522.17569 -114.96858 
L 520.891305 -119.041307 
L 518.987138 -123.114034 
L 516.660868 -127.186761 
L 514.224891 -131.259489 
L 512.084297 -135.332216 
L 510.636609 -139.404943 
L 510.137937 -143.47767 
L 510.603981 -147.550398 
L 511.798192 -151.623125 
L 513.314746 -155.695852 
L 514.717459 -159.76858 
L 515.671701 -163.841307 
L 516.01487 -167.914034 
L 515.745373 -171.986761 
L 514.951708 -176.059489 
L 513.731134 -180.132216 
L 512.146857 -184.204943 
L 510.243949 -188.27767 
L 508.103751 -192.350398 
L 505.889547 -196.423125 
L 503.840888 -200.495852 
L 502.208179 -204.56858 
L 501.160511 -208.641307 
L 500.720514 -212.714034 
L 500.766613 -216.786761 
L 501.104662 -220.859489 
L 501.571895 -224.932216 
L 502.119189 -229.004943 
L 502.830201 -233.07767 
L 503.868691 -237.150398 
L 505.379925 -241.223125 
L 507.3924 -245.295852 
L 509.765368 -249.36858 
L 512.208422 -253.441307 
L 514.370284 -257.514034 
L 515.964931 -261.586761 
L 516.884082 -265.659489 
L 517.244443 -269.732216 
L 517.340664 -273.804943 
L 517.51584 -277.87767 
L 518.003879 -281.950398 
L 518.818922 -286.023125 
L 519.750033 -290.095852 
L 520.468786 -294.16858 
L 520.698676 -298.241307 
L 520.361712 -302.314034 
L 519.629456 -306.386761 
L 518.856784 -310.459489 
L 518.436913 -314.532216 
L 518.650841 -318.604943 
L 519.57583 -322.67767 
L 521.076807 -326.750398 
L 522.861744 -330.823125 
L 524.563055 -334.895852 
L 525.815598 -338.96858 
L 526.320603 -343.041307 
L 525.894534 -347.114034 
L 524.498856 -351.186761 
L 522.242092 -355.259489 
L 519.350947 -359.332216 
L 516.120792 -363.404943 
L 512.865598 -367.47767 
L 509.884147 -371.550398 
L 507.445725 -375.623125 
L 505.785014 -379.695852 
L 505.091099 -383.76858 
L 505.480098 -387.841307 
L 506.951628 -391.914034 
L 509.342357 -395.986761 
L 512.30125 -400.059489 
L 515.313408 -404.132216 
L 517.784917 -408.204943 
L 519.171545 -412.27767 
L 519.105398 -416.350398 
L 517.467756 -420.423125 
L 514.381928 -424.495852 
L 510.14184 -428.56858 
L 505.120938 -432.641307 
L 499.702831 -436.714034 
L 494.246974 -440.786761 
L 489.074701 -444.859489 
L 484.454003 -448.932216 
L 480.575285 -453.004943 
L 477.528389 -457.07767 
L 475.297069 -461.150398 
L 473.778255 -465.223125 
z
" style="stroke: #4c4c4c; stroke-width: 1.25"/>
    </defs>
    <g clip-path="url(#p944cbb0055)">
     <use xlink:href="#m9507bc5f74" x="0" y="507.31875" style="fill: #5875a4; stroke: #4c4c4c; stroke-width: 1.25"/>
    </g>
   </g>
   <g id="PolyCollection_3">
    <defs>
     <path id="m1b9be099b4" d="M 640.483456 -462.671297 
L 637.684356 -462.671297 
L 636.541838 -458.650122 
L 634.799027 -454.628946 
L 632.361023 -450.607771 
L 629.229906 -446.586596 
L 625.532935 -442.565421 
L 621.513168 -438.544246 
L 617.480305 -434.52307 
L 613.738638 -430.501895 
L 610.519124 -426.48072 
L 607.937038 -422.459545 
L 605.98003 -418.43837 
L 604.516619 -414.417195 
L 603.313743 -410.396019 
L 602.064997 -406.374844 
L 600.446031 -402.353669 
L 598.211336 -398.332494 
L 595.317967 -394.311319 
L 592.02174 -390.290143 
L 588.874766 -386.268968 
L 586.587568 -382.247793 
L 585.793775 -378.226618 
L 586.820961 -374.205443 
L 589.576384 -370.184267 
L 593.594097 -366.163092 
L 598.203926 -362.141917 
L 602.731563 -358.120742 
L 606.647787 -354.099567 
L 609.633718 -350.078392 
L 611.576887 -346.057216 
L 612.532366 -342.036041 
L 612.6741 -338.014866 
L 612.242977 -333.993691 
L 611.489122 -329.972516 
L 610.612535 -325.95134 
L 609.718986 -321.930165 
L 608.811537 -317.90899 
L 607.824185 -313.887815 
L 606.680946 -309.86664 
L 605.349118 -305.845464 
L 603.861573 -301.824289 
L 602.30488 -297.803114 
L 600.790635 -293.781939 
L 599.431894 -289.760764 
L 598.334636 -285.739589 
L 597.597484 -281.718413 
L 597.304604 -277.697238 
L 597.502087 -273.676063 
L 598.162282 -269.654888 
L 599.153413 -265.633713 
L 600.234696 -261.612537 
L 601.08817 -257.591362 
L 601.382946 -253.570187 
L 600.854163 -249.549012 
L 599.373305 -245.527837 
L 596.989049 -241.506661 
L 593.925767 -237.485486 
L 590.538458 -233.464311 
L 587.237114 -229.443136 
L 584.406019 -225.421961 
L 582.345243 -221.400786 
L 581.246435 -217.37961 
L 581.189802 -213.358435 
L 582.134855 -209.33726 
L 583.89204 -205.316085 
L 586.099119 -201.29491 
L 588.251675 -197.273734 
L 589.819354 -193.252559 
L 590.421328 -189.231384 
L 589.978444 -185.210209 
L 588.752794 -181.189034 
L 587.238604 -177.167858 
L 585.947014 -173.146683 
L 585.182322 -169.125508 
L 584.911176 -165.104333 
L 584.784427 -161.083158 
L 584.307666 -157.061983 
L 583.094684 -153.040807 
L 581.097201 -149.019632 
L 578.701609 -144.998457 
L 576.630566 -140.977282 
L 575.674991 -136.956107 
L 576.371526 -132.934931 
L 578.778856 -128.913756 
L 582.46317 -124.892581 
L 586.698303 -120.871406 
L 590.779446 -116.850231 
L 594.299981 -112.829055 
L 597.270585 -108.80788 
L 600.0445 -104.786705 
L 603.104684 -100.76553 
L 606.822684 -96.744355 
L 611.295576 -92.72318 
L 616.316628 -88.702004 
L 621.468869 -84.680829 
L 626.281939 -80.659654 
L 630.379479 -76.638479 
L 633.564752 -72.617304 
L 635.829303 -68.596128 
L 637.30316 -64.574953 
L 640.864653 -64.574953 
L 640.864653 -64.574953 
L 642.33851 -68.596128 
L 644.60306 -72.617304 
L 647.788333 -76.638479 
L 651.885873 -80.659654 
L 656.698944 -84.680829 
L 661.851185 -88.702004 
L 666.872236 -92.72318 
L 671.345129 -96.744355 
L 675.063128 -100.76553 
L 678.123312 -104.786705 
L 680.897228 -108.80788 
L 683.867832 -112.829055 
L 687.388367 -116.850231 
L 691.469509 -120.871406 
L 695.704643 -124.892581 
L 699.388956 -128.913756 
L 701.796286 -132.934931 
L 702.492822 -136.956107 
L 701.537246 -140.977282 
L 699.466203 -144.998457 
L 697.070612 -149.019632 
L 695.073128 -153.040807 
L 693.860146 -157.061983 
L 693.383386 -161.083158 
L 693.256637 -165.104333 
L 692.985491 -169.125508 
L 692.220798 -173.146683 
L 690.929208 -177.167858 
L 689.415019 -181.189034 
L 688.189369 -185.210209 
L 687.746485 -189.231384 
L 688.348459 -193.252559 
L 689.916137 -197.273734 
L 692.068693 -201.29491 
L 694.275773 -205.316085 
L 696.032958 -209.33726 
L 696.97801 -213.358435 
L 696.921378 -217.37961 
L 695.822569 -221.400786 
L 693.761793 -225.421961 
L 690.930698 -229.443136 
L 687.629354 -233.464311 
L 684.242045 -237.485486 
L 681.178764 -241.506661 
L 678.794507 -245.527837 
L 677.313649 -249.549012 
L 676.784867 -253.570187 
L 677.079643 -257.591362 
L 677.933116 -261.612537 
L 679.014399 -265.633713 
L 680.005531 -269.654888 
L 680.665726 -273.676063 
L 680.863208 -277.697238 
L 680.570328 -281.718413 
L 679.833177 -285.739589 
L 678.735919 -289.760764 
L 677.377177 -293.781939 
L 675.862933 -297.803114 
L 674.30624 -301.824289 
L 672.818694 -305.845464 
L 671.486866 -309.86664 
L 670.343627 -313.887815 
L 669.356275 -317.90899 
L 668.448826 -321.930165 
L 667.555277 -325.95134 
L 666.678691 -329.972516 
L 665.924836 -333.993691 
L 665.493712 -338.014866 
L 665.635447 -342.036041 
L 666.590926 -346.057216 
L 668.534095 -350.078392 
L 671.520025 -354.099567 
L 675.43625 -358.120742 
L 679.963886 -362.141917 
L 684.573716 -366.163092 
L 688.591429 -370.184267 
L 691.346852 -374.205443 
L 692.374037 -378.226618 
L 691.580245 -382.247793 
L 689.293046 -386.268968 
L 686.146073 -390.290143 
L 682.849846 -394.311319 
L 679.956477 -398.332494 
L 677.721781 -402.353669 
L 676.102816 -406.374844 
L 674.854069 -410.396019 
L 673.651194 -414.417195 
L 672.187783 -418.43837 
L 670.230775 -422.459545 
L 667.648689 -426.48072 
L 664.429175 -430.501895 
L 660.687508 -434.52307 
L 656.654645 -438.544246 
L 652.634878 -442.565421 
L 648.937906 -446.586596 
L 645.80679 -450.607771 
L 643.368786 -454.628946 
L 641.625975 -458.650122 
L 640.483456 -462.671297 
z
" style="stroke: #4c4c4c; stroke-width: 1.25"/>
    </defs>
    <g clip-path="url(#p944cbb0055)">
     <use xlink:href="#m1b9be099b4" x="0" y="507.31875" style="fill: #5875a4; stroke: #4c4c4c; stroke-width: 1.25"/>
    </g>
   </g>
   <g id="PolyCollection_4">
    <defs>
     <path id="mb8d3c15bff" d="M 807.986869 -464.003927 
L 804.980943 -464.003927 
L 803.754038 -459.95583 
L 801.850169 -455.907733 
L 799.120101 -451.859636 
L 795.505041 -447.811539 
L 791.088393 -443.763442 
L 786.112363 -439.715345 
L 780.937002 -435.667248 
L 775.942171 -431.619151 
L 771.405807 -427.571054 
L 767.416486 -423.522957 
L 763.874119 -419.47486 
L 760.592486 -415.426763 
L 757.458507 -411.378666 
L 754.561556 -407.330569 
L 752.212651 -403.282472 
L 750.830156 -399.234375 
L 750.74414 -395.186278 
L 752.020159 -391.138181 
L 754.395297 -387.090084 
L 757.359111 -383.041987 
L 760.334765 -378.99389 
L 762.865704 -374.945793 
L 764.718131 -370.897696 
L 765.86408 -366.849599 
L 766.379478 -362.801502 
L 766.334718 -358.753405 
L 765.748767 -354.705308 
L 764.629619 -350.657211 
L 763.065599 -346.609114 
L 761.298886 -342.561017 
L 759.722559 -338.51292 
L 758.78713 -334.464823 
L 758.853655 -330.416726 
L 760.058302 -326.368629 
L 762.245211 -322.320532 
L 764.990559 -318.272435 
L 767.703991 -314.224338 
L 769.772477 -310.176241 
L 770.709597 -306.128144 
L 770.280358 -302.080047 
L 768.576037 -298.03195 
L 766.013161 -293.983853 
L 763.23572 -289.935756 
L 760.923414 -285.887659 
L 759.55172 -281.839562 
L 759.191396 -277.791465 
L 759.443832 -273.743368 
L 759.565408 -269.695271 
L 758.752346 -265.647174 
L 756.478895 -261.599076 
L 752.74952 -257.550979 
L 748.157547 -253.502882 
L 743.721641 -249.454785 
L 740.560063 -245.406688 
L 739.523906 -241.358591 
L 740.923087 -237.310494 
L 744.441075 -233.262397 
L 749.261792 -229.2143 
L 754.352056 -225.166203 
L 758.786364 -221.118106 
L 761.991423 -217.070009 
L 763.830364 -213.021912 
L 764.521574 -208.973815 
L 764.458265 -204.925718 
L 764.026469 -200.877621 
L 763.496601 -196.829524 
L 763.004366 -192.781427 
L 762.581363 -188.73333 
L 762.182255 -184.685233 
L 761.689782 -180.637136 
L 760.927064 -176.589039 
L 759.72117 -172.540942 
L 758.023317 -168.492845 
L 756.028643 -164.444748 
L 754.207254 -160.396651 
L 753.191874 -156.348554 
L 753.54917 -152.300457 
L 755.537466 -148.25236 
L 758.973129 -144.204263 
L 763.278489 -140.156166 
L 767.695082 -136.108069 
L 771.56614 -132.059972 
L 774.562253 -128.011875 
L 776.756031 -123.963778 
L 778.526264 -119.915681 
L 780.350755 -115.867584 
L 782.591316 -111.819487 
L 785.365171 -107.77139 
L 788.543151 -103.723293 
L 791.848799 -99.675196 
L 794.990358 -95.627099 
L 797.758782 -91.579002 
L 800.060469 -87.530905 
L 801.895266 -83.482808 
L 803.312835 -79.434711 
L 804.376804 -75.386614 
L 805.148001 -71.338517 
L 805.682042 -67.29042 
L 806.031316 -63.242323 
L 806.936497 -63.242323 
L 806.936497 -63.242323 
L 807.285771 -67.29042 
L 807.819812 -71.338517 
L 808.591008 -75.386614 
L 809.654978 -79.434711 
L 811.072547 -83.482808 
L 812.907343 -87.530905 
L 815.20903 -91.579002 
L 817.977455 -95.627099 
L 821.119013 -99.675196 
L 824.424661 -103.723293 
L 827.602642 -107.77139 
L 830.376497 -111.819487 
L 832.617058 -115.867584 
L 834.441548 -119.915681 
L 836.211782 -123.963778 
L 838.40556 -128.011875 
L 841.401672 -132.059972 
L 845.27273 -136.108069 
L 849.689324 -140.156166 
L 853.994684 -144.204263 
L 857.430346 -148.25236 
L 859.418643 -152.300457 
L 859.775938 -156.348554 
L 858.760559 -160.396651 
L 856.939169 -164.444748 
L 854.944495 -168.492845 
L 853.246642 -172.540942 
L 852.040748 -176.589039 
L 851.27803 -180.637136 
L 850.785558 -184.685233 
L 850.38645 -188.73333 
L 849.963446 -192.781427 
L 849.471212 -196.829524 
L 848.941343 -200.877621 
L 848.509547 -204.925718 
L 848.446239 -208.973815 
L 849.137448 -213.021912 
L 850.976389 -217.070009 
L 854.181449 -221.118106 
L 858.615756 -225.166203 
L 863.706021 -229.2143 
L 868.526738 -233.262397 
L 872.044725 -237.310494 
L 873.443906 -241.358591 
L 872.407749 -245.406688 
L 869.246171 -249.454785 
L 864.810266 -253.502882 
L 860.218293 -257.550979 
L 856.488918 -261.599076 
L 854.215467 -265.647174 
L 853.402405 -269.695271 
L 853.52398 -273.743368 
L 853.776416 -277.791465 
L 853.416093 -281.839562 
L 852.044398 -285.887659 
L 849.732093 -289.935756 
L 846.954652 -293.983853 
L 844.391775 -298.03195 
L 842.687454 -302.080047 
L 842.258216 -306.128144 
L 843.195336 -310.176241 
L 845.263822 -314.224338 
L 847.977254 -318.272435 
L 850.722602 -322.320532 
L 852.909511 -326.368629 
L 854.114158 -330.416726 
L 854.180682 -334.464823 
L 853.245254 -338.51292 
L 851.668926 -342.561017 
L 849.902214 -346.609114 
L 848.338194 -350.657211 
L 847.219046 -354.705308 
L 846.633095 -358.753405 
L 846.588334 -362.801502 
L 847.103733 -366.849599 
L 848.249681 -370.897696 
L 850.102108 -374.945793 
L 852.633047 -378.99389 
L 855.608702 -383.041987 
L 858.572516 -387.090084 
L 860.947654 -391.138181 
L 862.223672 -395.186278 
L 862.137656 -399.234375 
L 860.755162 -403.282472 
L 858.406256 -407.330569 
L 855.509306 -411.378666 
L 852.375327 -415.426763 
L 849.093694 -419.47486 
L 845.551327 -423.522957 
L 841.562005 -427.571054 
L 837.025641 -431.619151 
L 832.030811 -435.667248 
L 826.85545 -439.715345 
L 821.87942 -443.763442 
L 817.462771 -447.811539 
L 813.847711 -451.859636 
L 811.117644 -455.907733 
L 809.213774 -459.95583 
L 807.986869 -464.003927 
z
" style="stroke: #4c4c4c; stroke-width: 1.25"/>
    </defs>
    <g clip-path="url(#p944cbb0055)">
     <use xlink:href="#mb8d3c15bff" x="0" y="507.31875" style="fill: #5875a4; stroke: #4c4c4c; stroke-width: 1.25"/>
    </g>
   </g>
   <g id="line2d_33">
    <path d="M 304.283906 71.854573 
L 304.283906 415.536677 
" clip-path="url(#p944cbb0055)" style="fill: none; stroke: #4c4c4c; stroke-width: 1.875; stroke-linecap: round"/>
   </g>
   <g id="line2d_34">
    <path d="M 304.283906 149.460209 
L 304.283906 315.758002 
" clip-path="url(#p944cbb0055)" style="fill: none; stroke: #4c4c4c; stroke-width: 5.625; stroke-linecap: round"/>
   </g>
   <g id="line2d_35">
    <path d="M 304.283906 227.065846 
" clip-path="url(#p944cbb0055)" style="fill: none; stroke: #4c4c4c; stroke-width: 1.5; stroke-linecap: round"/>
    <defs>
     <path id="m1da5656dee" d="M 2.34375 0 
L -2.34375 -0 
" style="stroke: #ffffff; stroke-width: 1.125"/>
    </defs>
    <g clip-path="url(#p944cbb0055)">
     <use xlink:href="#m1da5656dee" x="304.283906" y="227.065846" style="fill: #ffffff; stroke: #ffffff; stroke-width: 1.125"/>
    </g>
   </g>
   <g id="line2d_36">
    <path d="M 471.683906 71.854573 
L 471.683906 415.536677 
" clip-path="url(#p944cbb0055)" style="fill: none; stroke: #4c4c4c; stroke-width: 1.875; stroke-linecap: round"/>
   </g>
   <g id="line2d_37">
    <path d="M 471.683906 160.546729 
L 471.683906 337.931041 
" clip-path="url(#p944cbb0055)" style="fill: none; stroke: #4c4c4c; stroke-width: 5.625; stroke-linecap: round"/>
   </g>
   <g id="line2d_38">
    <path d="M 471.683906 238.152365 
" clip-path="url(#p944cbb0055)" style="fill: none; stroke: #4c4c4c; stroke-width: 1.5; stroke-linecap: round"/>
    <g clip-path="url(#p944cbb0055)">
     <use xlink:href="#m1da5656dee" x="471.683906" y="238.152365" style="fill: #ffffff; stroke: #ffffff; stroke-width: 1.125"/>
    </g>
   </g>
   <g id="line2d_39">
    <path d="M 639.083906 71.854573 
L 639.083906 415.536677 
" clip-path="url(#p944cbb0055)" style="fill: none; stroke: #4c4c4c; stroke-width: 1.875; stroke-linecap: round"/>
   </g>
   <g id="line2d_40">
    <path d="M 639.083906 171.633248 
L 639.083906 349.01756 
" clip-path="url(#p944cbb0055)" style="fill: none; stroke: #4c4c4c; stroke-width: 5.625; stroke-linecap: round"/>
   </g>
   <g id="line2d_41">
    <path d="M 639.083906 271.411924 
" clip-path="url(#p944cbb0055)" style="fill: none; stroke: #4c4c4c; stroke-width: 1.5; stroke-linecap: round"/>
    <g clip-path="url(#p944cbb0055)">
     <use xlink:href="#m1da5656dee" x="639.083906" y="271.411924" style="fill: #ffffff; stroke: #ffffff; stroke-width: 1.125"/>
    </g>
   </g>
   <g id="line2d_42">
    <path d="M 806.483906 71.854573 
L 806.483906 415.536677 
" clip-path="url(#p944cbb0055)" style="fill: none; stroke: #4c4c4c; stroke-width: 1.875; stroke-linecap: round"/>
   </g>
   <g id="line2d_43">
    <path d="M 806.483906 149.460209 
L 806.483906 315.758002 
" clip-path="url(#p944cbb0055)" style="fill: none; stroke: #4c4c4c; stroke-width: 5.625; stroke-linecap: round"/>
   </g>
   <g id="line2d_44">
    <path d="M 806.483906 238.152365 
" clip-path="url(#p944cbb0055)" style="fill: none; stroke: #4c4c4c; stroke-width: 1.5; stroke-linecap: round"/>
    <g clip-path="url(#p944cbb0055)">
     <use xlink:href="#m1da5656dee" x="806.483906" y="238.152365" style="fill: #ffffff; stroke: #ffffff; stroke-width: 1.125"/>
    </g>
   </g>
   <g id="patch_3">
    <path d="M 220.583906 465.455625 
L 220.583906 21.935625 
" style="fill: none; stroke: #cccccc; stroke-width: 1.25; stroke-linejoin: miter; stroke-linecap: square"/>
   </g>
   <g id="patch_4">
    <path d="M 890.183906 465.455625 
L 890.183906 21.935625 
" style="fill: none; stroke: #cccccc; stroke-width: 1.25; stroke-linejoin: miter; stroke-linecap: square"/>
   </g>
   <g id="patch_5">
    <path d="M 220.583906 465.455625 
L 890.183906 465.455625 
" style="fill: none; stroke: #cccccc; stroke-width: 1.25; stroke-linejoin: miter; stroke-linecap: square"/>
   </g>
   <g id="patch_6">
    <path d="M 220.583906 21.935625 
L 890.183906 21.935625 
" style="fill: none; stroke: #cccccc; stroke-width: 1.25; stroke-linejoin: miter; stroke-linecap: square"/>
   </g>
   <g id="text_39">
    <!-- Violin Plot of Tweets Distribution per Branch and Sentiment -->
    <g style="fill: #262626" transform="translate(398.520469 15.935625) scale(0.12 -0.12)">
     <defs>
      <path id="ArialMT-20" transform="scale(0.015625)"/>
     </defs>
     <use xlink:href="#ArialMT-56"/>
     <use xlink:href="#ArialMT-69" x="64.949219"/>
     <use xlink:href="#ArialMT-6f" x="87.166016"/>
     <use xlink:href="#ArialMT-6c" x="142.78125"/>
     <use xlink:href="#ArialMT-69" x="164.998047"/>
     <use xlink:href="#ArialMT-6e" x="187.214844"/>
     <use xlink:href="#ArialMT-20" x="242.830078"/>
     <use xlink:href="#ArialMT-50" x="270.613281"/>
     <use xlink:href="#ArialMT-6c" x="337.3125"/>
     <use xlink:href="#ArialMT-6f" x="359.529297"/>
     <use xlink:href="#ArialMT-74" x="415.144531"/>
     <use xlink:href="#ArialMT-20" x="442.927734"/>
     <use xlink:href="#ArialMT-6f" x="470.710938"/>
     <use xlink:href="#ArialMT-66" x="526.326172"/>
     <use xlink:href="#ArialMT-20" x="554.109375"/>
     <use xlink:href="#ArialMT-54" x="580.142578"/>
     <use xlink:href="#ArialMT-77" x="635.726562"/>
     <use xlink:href="#ArialMT-65" x="707.943359"/>
     <use xlink:href="#ArialMT-65" x="763.558594"/>
     <use xlink:href="#ArialMT-74" x="819.173828"/>
     <use xlink:href="#ArialMT-73" x="846.957031"/>
     <use xlink:href="#ArialMT-20" x="896.957031"/>
     <use xlink:href="#ArialMT-44" x="924.740234"/>
     <use xlink:href="#ArialMT-69" x="996.957031"/>
     <use xlink:href="#ArialMT-73" x="1019.173828"/>
     <use xlink:href="#ArialMT-74" x="1069.173828"/>
     <use xlink:href="#ArialMT-72" x="1096.957031"/>
     <use xlink:href="#ArialMT-69" x="1130.257812"/>
     <use xlink:href="#ArialMT-62" x="1152.474609"/>
     <use xlink:href="#ArialMT-75" x="1208.089844"/>
     <use xlink:href="#ArialMT-74" x="1263.705078"/>
     <use xlink:href="#ArialMT-69" x="1291.488281"/>
     <use xlink:href="#ArialMT-6f" x="1313.705078"/>
     <use xlink:href="#ArialMT-6e" x="1369.320312"/>
     <use xlink:href="#ArialMT-20" x="1424.935547"/>
     <use xlink:href="#ArialMT-70" x="1452.71875"/>
     <use xlink:href="#ArialMT-65" x="1508.333984"/>
     <use xlink:href="#ArialMT-72" x="1563.949219"/>
     <use xlink:href="#ArialMT-20" x="1597.25"/>
     <use xlink:href="#ArialMT-42" x="1625.033203"/>
     <use xlink:href="#ArialMT-72" x="1691.732422"/>
     <use xlink:href="#ArialMT-61" x="1725.033203"/>
     <use xlink:href="#ArialMT-6e" x="1780.648438"/>
     <use xlink:href="#ArialMT-63" x="1836.263672"/>
     <use xlink:href="#ArialMT-68" x="1886.263672"/>
     <use xlink:href="#ArialMT-20" x="1941.878906"/>
     <use xlink:href="#ArialMT-61" x="1969.662109"/>
     <use xlink:href="#ArialMT-6e" x="2025.277344"/>
     <use xlink:href="#ArialMT-64" x="2080.892578"/>
     <use xlink:href="#ArialMT-20" x="2136.507812"/>
     <use xlink:href="#ArialMT-53" x="2164.291016"/>
     <use xlink:href="#ArialMT-65" x="2230.990234"/>
     <use xlink:href="#ArialMT-6e" x="2286.605469"/>
     <use xlink:href="#ArialMT-74" x="2342.220703"/>
     <use xlink:href="#ArialMT-69" x="2370.003906"/>
     <use xlink:href="#ArialMT-6d" x="2392.220703"/>
     <use xlink:href="#ArialMT-65" x="2475.521484"/>
     <use xlink:href="#ArialMT-6e" x="2531.136719"/>
     <use xlink:href="#ArialMT-74" x="2586.751953"/>
    </g>
   </g>
  </g>
 </g>
 <defs>
  <clipPath id="p944cbb0055">
   <rect x="220.583906" y="21.935625" width="669.6" height="443.52"/>
  </clipPath>
 </defs>
</svg>
