<?xml version="1.0" encoding="utf-8" standalone="no"?>
<!DOCTYPE svg PUBLIC "-//W3C//DTD SVG 1.1//EN"
  "http://www.w3.org/Graphics/SVG/1.1/DTD/svg11.dtd">
<svg xmlns:xlink="http://www.w3.org/1999/xlink" width="433.55125pt" height="325.986375pt" viewBox="0 0 433.55125 325.986375" xmlns="http://www.w3.org/2000/svg" version="1.1">
 <metadata>
  <rdf:RDF xmlns:dc="http://purl.org/dc/elements/1.1/" xmlns:cc="http://creativecommons.org/ns#" xmlns:rdf="http://www.w3.org/1999/02/22-rdf-syntax-ns#">
   <cc:Work>
    <dc:type rdf:resource="http://purl.org/dc/dcmitype/StillImage"/>
    <dc:date>2024-06-06T20:25:18.664390</dc:date>
    <dc:format>image/svg+xml</dc:format>
    <dc:creator>
     <cc:Agent>
      <dc:title>Matplotlib v3.9.0, https://matplotlib.org/</dc:title>
     </cc:Agent>
    </dc:creator>
   </cc:Work>
  </rdf:RDF>
 </metadata>
 <defs>
  <style type="text/css">*{stroke-linejoin: round; stroke-linecap: butt}</style>
 </defs>
 <g id="figure_1">
  <g id="patch_1">
   <path d="M 0 325.986375 
L 433.55125 325.986375 
L 433.55125 0 
L 0 0 
z
" style="fill: #ffffff"/>
  </g>
  <g id="axes_1">
   <g id="patch_2">
    <path d="M 69.23125 288.430125 
L 426.35125 288.430125 
L 426.35125 22.318125 
L 69.23125 22.318125 
z
" style="fill: #ffffff"/>
   </g>
   <g id="patch_3">
    <path d="M 272.548643 288.430125 
L 286.305631 288.430125 
L 286.305631 34.990125 
L 272.548643 34.990125 
z
" clip-path="url(#p81b1ba12c5)" style="fill: #008000; opacity: 0.5"/>
   </g>
   <g id="patch_4">
    <path d="M 286.305631 288.430125 
L 300.062619 288.430125 
L 300.062619 288.430125 
L 286.305631 288.430125 
z
" clip-path="url(#p81b1ba12c5)" style="fill: #008000; opacity: 0.5"/>
   </g>
   <g id="patch_5">
    <path d="M 300.062619 288.430125 
L 313.819607 288.430125 
L 313.819607 288.430125 
L 300.062619 288.430125 
z
" clip-path="url(#p81b1ba12c5)" style="fill: #008000; opacity: 0.5"/>
   </g>
   <g id="patch_6">
    <path d="M 313.819607 288.430125 
L 327.576595 288.430125 
L 327.576595 288.430125 
L 313.819607 288.430125 
z
" clip-path="url(#p81b1ba12c5)" style="fill: #008000; opacity: 0.5"/>
   </g>
   <g id="patch_7">
    <path d="M 327.576595 288.430125 
L 341.333583 288.430125 
L 341.333583 288.430125 
L 327.576595 288.430125 
z
" clip-path="url(#p81b1ba12c5)" style="fill: #008000; opacity: 0.5"/>
   </g>
   <g id="patch_8">
    <path d="M 341.333583 288.430125 
L 355.090571 288.430125 
L 355.090571 34.990125 
L 341.333583 34.990125 
z
" clip-path="url(#p81b1ba12c5)" style="fill: #008000; opacity: 0.5"/>
   </g>
   <g id="patch_9">
    <path d="M 355.090571 288.430125 
L 368.847559 288.430125 
L 368.847559 288.430125 
L 355.090571 288.430125 
z
" clip-path="url(#p81b1ba12c5)" style="fill: #008000; opacity: 0.5"/>
   </g>
   <g id="patch_10">
    <path d="M 368.847559 288.430125 
L 382.604547 288.430125 
L 382.604547 288.430125 
L 368.847559 288.430125 
z
" clip-path="url(#p81b1ba12c5)" style="fill: #008000; opacity: 0.5"/>
   </g>
   <g id="patch_11">
    <path d="M 382.604547 288.430125 
L 396.361535 288.430125 
L 396.361535 34.990125 
L 382.604547 34.990125 
z
" clip-path="url(#p81b1ba12c5)" style="fill: #008000; opacity: 0.5"/>
   </g>
   <g id="patch_12">
    <path d="M 396.361535 288.430125 
L 410.118523 288.430125 
L 410.118523 34.990125 
L 396.361535 34.990125 
z
" clip-path="url(#p81b1ba12c5)" style="fill: #008000; opacity: 0.5"/>
   </g>
   <g id="matplotlib.axis_1">
    <g id="xtick_1">
     <g id="line2d_1">
      <defs>
       <path id="m715e8248c8" d="M 0 0 
L 0 3.5 
" style="stroke: #000000; stroke-width: 0.8"/>
      </defs>
      <g>
       <use xlink:href="#m715e8248c8" x="85.463977" y="288.430125" style="stroke: #000000; stroke-width: 0.8"/>
      </g>
     </g>
     <g id="text_1">
      <!-- 0 -->
      <g transform="translate(82.282727 303.028562) scale(0.1 -0.1)">
       <defs>
        <path id="DejaVuSans-30" d="M 2034 4250 
Q 1547 4250 1301 3770 
Q 1056 3291 1056 2328 
Q 1056 1369 1301 889 
Q 1547 409 2034 409 
Q 2525 409 2770 889 
Q 3016 1369 3016 2328 
Q 3016 3291 2770 3770 
Q 2525 4250 2034 4250 
z
M 2034 4750 
Q 2819 4750 3233 4129 
Q 3647 3509 3647 2328 
Q 3647 1150 3233 529 
Q 2819 -91 2034 -91 
Q 1250 -91 836 529 
Q 422 1150 422 2328 
Q 422 3509 836 4129 
Q 1250 4750 2034 4750 
z
" transform="scale(0.015625)"/>
       </defs>
       <use xlink:href="#DejaVuSans-30"/>
      </g>
     </g>
    </g>
    <g id="xtick_2">
     <g id="line2d_2">
      <g>
       <use xlink:href="#m715e8248c8" x="157.475011" y="288.430125" style="stroke: #000000; stroke-width: 0.8"/>
      </g>
     </g>
     <g id="text_2">
      <!-- 5000 -->
      <g transform="translate(144.750011 303.028562) scale(0.1 -0.1)">
       <defs>
        <path id="DejaVuSans-35" d="M 691 4666 
L 3169 4666 
L 3169 4134 
L 1269 4134 
L 1269 2991 
Q 1406 3038 1543 3061 
Q 1681 3084 1819 3084 
Q 2600 3084 3056 2656 
Q 3513 2228 3513 1497 
Q 3513 744 3044 326 
Q 2575 -91 1722 -91 
Q 1428 -91 1123 -41 
Q 819 9 494 109 
L 494 744 
Q 775 591 1075 516 
Q 1375 441 1709 441 
Q 2250 441 2565 725 
Q 2881 1009 2881 1497 
Q 2881 1984 2565 2268 
Q 2250 2553 1709 2553 
Q 1456 2553 1204 2497 
Q 953 2441 691 2322 
L 691 4666 
z
" transform="scale(0.015625)"/>
       </defs>
       <use xlink:href="#DejaVuSans-35"/>
       <use xlink:href="#DejaVuSans-30" x="63.623047"/>
       <use xlink:href="#DejaVuSans-30" x="127.246094"/>
       <use xlink:href="#DejaVuSans-30" x="190.869141"/>
      </g>
     </g>
    </g>
    <g id="xtick_3">
     <g id="line2d_3">
      <g>
       <use xlink:href="#m715e8248c8" x="229.486045" y="288.430125" style="stroke: #000000; stroke-width: 0.8"/>
      </g>
     </g>
     <g id="text_3">
      <!-- 10000 -->
      <g transform="translate(213.579795 303.028562) scale(0.1 -0.1)">
       <defs>
        <path id="DejaVuSans-31" d="M 794 531 
L 1825 531 
L 1825 4091 
L 703 3866 
L 703 4441 
L 1819 4666 
L 2450 4666 
L 2450 531 
L 3481 531 
L 3481 0 
L 794 0 
L 794 531 
z
" transform="scale(0.015625)"/>
       </defs>
       <use xlink:href="#DejaVuSans-31"/>
       <use xlink:href="#DejaVuSans-30" x="63.623047"/>
       <use xlink:href="#DejaVuSans-30" x="127.246094"/>
       <use xlink:href="#DejaVuSans-30" x="190.869141"/>
       <use xlink:href="#DejaVuSans-30" x="254.492188"/>
      </g>
     </g>
    </g>
    <g id="xtick_4">
     <g id="line2d_4">
      <g>
       <use xlink:href="#m715e8248c8" x="301.497079" y="288.430125" style="stroke: #000000; stroke-width: 0.8"/>
      </g>
     </g>
     <g id="text_4">
      <!-- 15000 -->
      <g transform="translate(285.590829 303.028562) scale(0.1 -0.1)">
       <use xlink:href="#DejaVuSans-31"/>
       <use xlink:href="#DejaVuSans-35" x="63.623047"/>
       <use xlink:href="#DejaVuSans-30" x="127.246094"/>
       <use xlink:href="#DejaVuSans-30" x="190.869141"/>
       <use xlink:href="#DejaVuSans-30" x="254.492188"/>
      </g>
     </g>
    </g>
    <g id="xtick_5">
     <g id="line2d_5">
      <g>
       <use xlink:href="#m715e8248c8" x="373.508113" y="288.430125" style="stroke: #000000; stroke-width: 0.8"/>
      </g>
     </g>
     <g id="text_5">
      <!-- 20000 -->
      <g transform="translate(357.601863 303.028562) scale(0.1 -0.1)">
       <defs>
        <path id="DejaVuSans-32" d="M 1228 531 
L 3431 531 
L 3431 0 
L 469 0 
L 469 531 
Q 828 903 1448 1529 
Q 2069 2156 2228 2338 
Q 2531 2678 2651 2914 
Q 2772 3150 2772 3378 
Q 2772 3750 2511 3984 
Q 2250 4219 1831 4219 
Q 1534 4219 1204 4116 
Q 875 4013 500 3803 
L 500 4441 
Q 881 4594 1212 4672 
Q 1544 4750 1819 4750 
Q 2544 4750 2975 4387 
Q 3406 4025 3406 3419 
Q 3406 3131 3298 2873 
Q 3191 2616 2906 2266 
Q 2828 2175 2409 1742 
Q 1991 1309 1228 531 
z
" transform="scale(0.015625)"/>
       </defs>
       <use xlink:href="#DejaVuSans-32"/>
       <use xlink:href="#DejaVuSans-30" x="63.623047"/>
       <use xlink:href="#DejaVuSans-30" x="127.246094"/>
       <use xlink:href="#DejaVuSans-30" x="190.869141"/>
       <use xlink:href="#DejaVuSans-30" x="254.492188"/>
      </g>
     </g>
    </g>
    <g id="text_6">
     <!-- Sentiment Counts -->
     <g transform="translate(202.904531 316.706687) scale(0.1 -0.1)">
      <defs>
       <path id="DejaVuSans-53" d="M 3425 4513 
L 3425 3897 
Q 3066 4069 2747 4153 
Q 2428 4238 2131 4238 
Q 1616 4238 1336 4038 
Q 1056 3838 1056 3469 
Q 1056 3159 1242 3001 
Q 1428 2844 1947 2747 
L 2328 2669 
Q 3034 2534 3370 2195 
Q 3706 1856 3706 1288 
Q 3706 609 3251 259 
Q 2797 -91 1919 -91 
Q 1588 -91 1214 -16 
Q 841 59 441 206 
L 441 856 
Q 825 641 1194 531 
Q 1563 422 1919 422 
Q 2459 422 2753 634 
Q 3047 847 3047 1241 
Q 3047 1584 2836 1778 
Q 2625 1972 2144 2069 
L 1759 2144 
Q 1053 2284 737 2584 
Q 422 2884 422 3419 
Q 422 4038 858 4394 
Q 1294 4750 2059 4750 
Q 2388 4750 2728 4690 
Q 3069 4631 3425 4513 
z
" transform="scale(0.015625)"/>
       <path id="DejaVuSans-65" d="M 3597 1894 
L 3597 1613 
L 953 1613 
Q 991 1019 1311 708 
Q 1631 397 2203 397 
Q 2534 397 2845 478 
Q 3156 559 3463 722 
L 3463 178 
Q 3153 47 2828 -22 
Q 2503 -91 2169 -91 
Q 1331 -91 842 396 
Q 353 884 353 1716 
Q 353 2575 817 3079 
Q 1281 3584 2069 3584 
Q 2775 3584 3186 3129 
Q 3597 2675 3597 1894 
z
M 3022 2063 
Q 3016 2534 2758 2815 
Q 2500 3097 2075 3097 
Q 1594 3097 1305 2825 
Q 1016 2553 972 2059 
L 3022 2063 
z
" transform="scale(0.015625)"/>
       <path id="DejaVuSans-6e" d="M 3513 2113 
L 3513 0 
L 2938 0 
L 2938 2094 
Q 2938 2591 2744 2837 
Q 2550 3084 2163 3084 
Q 1697 3084 1428 2787 
Q 1159 2491 1159 1978 
L 1159 0 
L 581 0 
L 581 3500 
L 1159 3500 
L 1159 2956 
Q 1366 3272 1645 3428 
Q 1925 3584 2291 3584 
Q 2894 3584 3203 3211 
Q 3513 2838 3513 2113 
z
" transform="scale(0.015625)"/>
       <path id="DejaVuSans-74" d="M 1172 4494 
L 1172 3500 
L 2356 3500 
L 2356 3053 
L 1172 3053 
L 1172 1153 
Q 1172 725 1289 603 
Q 1406 481 1766 481 
L 2356 481 
L 2356 0 
L 1766 0 
Q 1100 0 847 248 
Q 594 497 594 1153 
L 594 3053 
L 172 3053 
L 172 3500 
L 594 3500 
L 594 4494 
L 1172 4494 
z
" transform="scale(0.015625)"/>
       <path id="DejaVuSans-69" d="M 603 3500 
L 1178 3500 
L 1178 0 
L 603 0 
L 603 3500 
z
M 603 4863 
L 1178 4863 
L 1178 4134 
L 603 4134 
L 603 4863 
z
" transform="scale(0.015625)"/>
       <path id="DejaVuSans-6d" d="M 3328 2828 
Q 3544 3216 3844 3400 
Q 4144 3584 4550 3584 
Q 5097 3584 5394 3201 
Q 5691 2819 5691 2113 
L 5691 0 
L 5113 0 
L 5113 2094 
Q 5113 2597 4934 2840 
Q 4756 3084 4391 3084 
Q 3944 3084 3684 2787 
Q 3425 2491 3425 1978 
L 3425 0 
L 2847 0 
L 2847 2094 
Q 2847 2600 2669 2842 
Q 2491 3084 2119 3084 
Q 1678 3084 1418 2786 
Q 1159 2488 1159 1978 
L 1159 0 
L 581 0 
L 581 3500 
L 1159 3500 
L 1159 2956 
Q 1356 3278 1631 3431 
Q 1906 3584 2284 3584 
Q 2666 3584 2933 3390 
Q 3200 3197 3328 2828 
z
" transform="scale(0.015625)"/>
       <path id="DejaVuSans-20" transform="scale(0.015625)"/>
       <path id="DejaVuSans-43" d="M 4122 4306 
L 4122 3641 
Q 3803 3938 3442 4084 
Q 3081 4231 2675 4231 
Q 1875 4231 1450 3742 
Q 1025 3253 1025 2328 
Q 1025 1406 1450 917 
Q 1875 428 2675 428 
Q 3081 428 3442 575 
Q 3803 722 4122 1019 
L 4122 359 
Q 3791 134 3420 21 
Q 3050 -91 2638 -91 
Q 1578 -91 968 557 
Q 359 1206 359 2328 
Q 359 3453 968 4101 
Q 1578 4750 2638 4750 
Q 3056 4750 3426 4639 
Q 3797 4528 4122 4306 
z
" transform="scale(0.015625)"/>
       <path id="DejaVuSans-6f" d="M 1959 3097 
Q 1497 3097 1228 2736 
Q 959 2375 959 1747 
Q 959 1119 1226 758 
Q 1494 397 1959 397 
Q 2419 397 2687 759 
Q 2956 1122 2956 1747 
Q 2956 2369 2687 2733 
Q 2419 3097 1959 3097 
z
M 1959 3584 
Q 2709 3584 3137 3096 
Q 3566 2609 3566 1747 
Q 3566 888 3137 398 
Q 2709 -91 1959 -91 
Q 1206 -91 779 398 
Q 353 888 353 1747 
Q 353 2609 779 3096 
Q 1206 3584 1959 3584 
z
" transform="scale(0.015625)"/>
       <path id="DejaVuSans-75" d="M 544 1381 
L 544 3500 
L 1119 3500 
L 1119 1403 
Q 1119 906 1312 657 
Q 1506 409 1894 409 
Q 2359 409 2629 706 
Q 2900 1003 2900 1516 
L 2900 3500 
L 3475 3500 
L 3475 0 
L 2900 0 
L 2900 538 
Q 2691 219 2414 64 
Q 2138 -91 1772 -91 
Q 1169 -91 856 284 
Q 544 659 544 1381 
z
M 1991 3584 
L 1991 3584 
z
" transform="scale(0.015625)"/>
       <path id="DejaVuSans-73" d="M 2834 3397 
L 2834 2853 
Q 2591 2978 2328 3040 
Q 2066 3103 1784 3103 
Q 1356 3103 1142 2972 
Q 928 2841 928 2578 
Q 928 2378 1081 2264 
Q 1234 2150 1697 2047 
L 1894 2003 
Q 2506 1872 2764 1633 
Q 3022 1394 3022 966 
Q 3022 478 2636 193 
Q 2250 -91 1575 -91 
Q 1294 -91 989 -36 
Q 684 19 347 128 
L 347 722 
Q 666 556 975 473 
Q 1284 391 1588 391 
Q 1994 391 2212 530 
Q 2431 669 2431 922 
Q 2431 1156 2273 1281 
Q 2116 1406 1581 1522 
L 1381 1569 
Q 847 1681 609 1914 
Q 372 2147 372 2553 
Q 372 3047 722 3315 
Q 1072 3584 1716 3584 
Q 2034 3584 2315 3537 
Q 2597 3491 2834 3397 
z
" transform="scale(0.015625)"/>
      </defs>
      <use xlink:href="#DejaVuSans-53"/>
      <use xlink:href="#DejaVuSans-65" x="63.476562"/>
      <use xlink:href="#DejaVuSans-6e" x="125"/>
      <use xlink:href="#DejaVuSans-74" x="188.378906"/>
      <use xlink:href="#DejaVuSans-69" x="227.587891"/>
      <use xlink:href="#DejaVuSans-6d" x="255.371094"/>
      <use xlink:href="#DejaVuSans-65" x="352.783203"/>
      <use xlink:href="#DejaVuSans-6e" x="414.306641"/>
      <use xlink:href="#DejaVuSans-74" x="477.685547"/>
      <use xlink:href="#DejaVuSans-20" x="516.894531"/>
      <use xlink:href="#DejaVuSans-43" x="548.681641"/>
      <use xlink:href="#DejaVuSans-6f" x="618.505859"/>
      <use xlink:href="#DejaVuSans-75" x="679.6875"/>
      <use xlink:href="#DejaVuSans-6e" x="743.066406"/>
      <use xlink:href="#DejaVuSans-74" x="806.445312"/>
      <use xlink:href="#DejaVuSans-73" x="845.654297"/>
     </g>
    </g>
   </g>
   <g id="matplotlib.axis_2">
    <g id="ytick_1">
     <g id="line2d_6">
      <defs>
       <path id="m27ba7ef6e1" d="M 0 0 
L -3.5 0 
" style="stroke: #000000; stroke-width: 0.8"/>
      </defs>
      <g>
       <use xlink:href="#m27ba7ef6e1" x="69.23125" y="288.430125" style="stroke: #000000; stroke-width: 0.8"/>
      </g>
     </g>
     <g id="text_7">
      <!-- 0.00000 -->
      <g transform="translate(20.878125 292.229344) scale(0.1 -0.1)">
       <defs>
        <path id="DejaVuSans-2e" d="M 684 794 
L 1344 794 
L 1344 0 
L 684 0 
L 684 794 
z
" transform="scale(0.015625)"/>
       </defs>
       <use xlink:href="#DejaVuSans-30"/>
       <use xlink:href="#DejaVuSans-2e" x="63.623047"/>
       <use xlink:href="#DejaVuSans-30" x="95.410156"/>
       <use xlink:href="#DejaVuSans-30" x="159.033203"/>
       <use xlink:href="#DejaVuSans-30" x="222.65625"/>
       <use xlink:href="#DejaVuSans-30" x="286.279297"/>
       <use xlink:href="#DejaVuSans-30" x="349.902344"/>
      </g>
     </g>
    </g>
    <g id="ytick_2">
     <g id="line2d_7">
      <g>
       <use xlink:href="#m27ba7ef6e1" x="69.23125" y="240.012947" style="stroke: #000000; stroke-width: 0.8"/>
      </g>
     </g>
     <g id="text_8">
      <!-- 0.00005 -->
      <g transform="translate(20.878125 243.812166) scale(0.1 -0.1)">
       <use xlink:href="#DejaVuSans-30"/>
       <use xlink:href="#DejaVuSans-2e" x="63.623047"/>
       <use xlink:href="#DejaVuSans-30" x="95.410156"/>
       <use xlink:href="#DejaVuSans-30" x="159.033203"/>
       <use xlink:href="#DejaVuSans-30" x="222.65625"/>
       <use xlink:href="#DejaVuSans-30" x="286.279297"/>
       <use xlink:href="#DejaVuSans-35" x="349.902344"/>
      </g>
     </g>
    </g>
    <g id="ytick_3">
     <g id="line2d_8">
      <g>
       <use xlink:href="#m27ba7ef6e1" x="69.23125" y="191.59577" style="stroke: #000000; stroke-width: 0.8"/>
      </g>
     </g>
     <g id="text_9">
      <!-- 0.00010 -->
      <g transform="translate(20.878125 195.394989) scale(0.1 -0.1)">
       <use xlink:href="#DejaVuSans-30"/>
       <use xlink:href="#DejaVuSans-2e" x="63.623047"/>
       <use xlink:href="#DejaVuSans-30" x="95.410156"/>
       <use xlink:href="#DejaVuSans-30" x="159.033203"/>
       <use xlink:href="#DejaVuSans-30" x="222.65625"/>
       <use xlink:href="#DejaVuSans-31" x="286.279297"/>
       <use xlink:href="#DejaVuSans-30" x="349.902344"/>
      </g>
     </g>
    </g>
    <g id="ytick_4">
     <g id="line2d_9">
      <g>
       <use xlink:href="#m27ba7ef6e1" x="69.23125" y="143.178592" style="stroke: #000000; stroke-width: 0.8"/>
      </g>
     </g>
     <g id="text_10">
      <!-- 0.00015 -->
      <g transform="translate(20.878125 146.977811) scale(0.1 -0.1)">
       <use xlink:href="#DejaVuSans-30"/>
       <use xlink:href="#DejaVuSans-2e" x="63.623047"/>
       <use xlink:href="#DejaVuSans-30" x="95.410156"/>
       <use xlink:href="#DejaVuSans-30" x="159.033203"/>
       <use xlink:href="#DejaVuSans-30" x="222.65625"/>
       <use xlink:href="#DejaVuSans-31" x="286.279297"/>
       <use xlink:href="#DejaVuSans-35" x="349.902344"/>
      </g>
     </g>
    </g>
    <g id="ytick_5">
     <g id="line2d_10">
      <g>
       <use xlink:href="#m27ba7ef6e1" x="69.23125" y="94.761415" style="stroke: #000000; stroke-width: 0.8"/>
      </g>
     </g>
     <g id="text_11">
      <!-- 0.00020 -->
      <g transform="translate(20.878125 98.560633) scale(0.1 -0.1)">
       <use xlink:href="#DejaVuSans-30"/>
       <use xlink:href="#DejaVuSans-2e" x="63.623047"/>
       <use xlink:href="#DejaVuSans-30" x="95.410156"/>
       <use xlink:href="#DejaVuSans-30" x="159.033203"/>
       <use xlink:href="#DejaVuSans-30" x="222.65625"/>
       <use xlink:href="#DejaVuSans-32" x="286.279297"/>
       <use xlink:href="#DejaVuSans-30" x="349.902344"/>
      </g>
     </g>
    </g>
    <g id="ytick_6">
     <g id="line2d_11">
      <g>
       <use xlink:href="#m27ba7ef6e1" x="69.23125" y="46.344237" style="stroke: #000000; stroke-width: 0.8"/>
      </g>
     </g>
     <g id="text_12">
      <!-- 0.00025 -->
      <g transform="translate(20.878125 50.143456) scale(0.1 -0.1)">
       <use xlink:href="#DejaVuSans-30"/>
       <use xlink:href="#DejaVuSans-2e" x="63.623047"/>
       <use xlink:href="#DejaVuSans-30" x="95.410156"/>
       <use xlink:href="#DejaVuSans-30" x="159.033203"/>
       <use xlink:href="#DejaVuSans-30" x="222.65625"/>
       <use xlink:href="#DejaVuSans-32" x="286.279297"/>
       <use xlink:href="#DejaVuSans-35" x="349.902344"/>
      </g>
     </g>
    </g>
    <g id="text_13">
     <!-- Density -->
     <g transform="translate(14.798438 174.382719) rotate(-90) scale(0.1 -0.1)">
      <defs>
       <path id="DejaVuSans-44" d="M 1259 4147 
L 1259 519 
L 2022 519 
Q 2988 519 3436 956 
Q 3884 1394 3884 2338 
Q 3884 3275 3436 3711 
Q 2988 4147 2022 4147 
L 1259 4147 
z
M 628 4666 
L 1925 4666 
Q 3281 4666 3915 4102 
Q 4550 3538 4550 2338 
Q 4550 1131 3912 565 
Q 3275 0 1925 0 
L 628 0 
L 628 4666 
z
" transform="scale(0.015625)"/>
       <path id="DejaVuSans-79" d="M 2059 -325 
Q 1816 -950 1584 -1140 
Q 1353 -1331 966 -1331 
L 506 -1331 
L 506 -850 
L 844 -850 
Q 1081 -850 1212 -737 
Q 1344 -625 1503 -206 
L 1606 56 
L 191 3500 
L 800 3500 
L 1894 763 
L 2988 3500 
L 3597 3500 
L 2059 -325 
z
" transform="scale(0.015625)"/>
      </defs>
      <use xlink:href="#DejaVuSans-44"/>
      <use xlink:href="#DejaVuSans-65" x="77.001953"/>
      <use xlink:href="#DejaVuSans-6e" x="138.525391"/>
      <use xlink:href="#DejaVuSans-73" x="201.904297"/>
      <use xlink:href="#DejaVuSans-69" x="254.003906"/>
      <use xlink:href="#DejaVuSans-74" x="281.787109"/>
      <use xlink:href="#DejaVuSans-79" x="320.996094"/>
     </g>
    </g>
   </g>
   <g id="line2d_12">
    <path d="M 85.463977 288.429962 
L 88.743316 288.429899 
L 92.022655 288.429814 
L 95.301994 288.429698 
L 98.581333 288.429541 
L 101.860671 288.429329 
L 105.14001 288.429046 
L 108.419349 288.428667 
L 111.698688 288.428163 
L 114.978027 288.427496 
L 118.257366 288.426615 
L 121.536705 288.425459 
L 124.816043 288.423946 
L 128.095382 288.421975 
L 131.374721 288.419417 
L 134.65406 288.416113 
L 137.933399 288.411863 
L 141.212738 288.406418 
L 144.492076 288.399472 
L 147.771415 288.390648 
L 151.050754 288.379487 
L 154.330093 288.365428 
L 157.609432 288.347795 
L 160.888771 288.325772 
L 164.16811 288.298384 
L 167.447448 288.264469 
L 170.726787 288.222652 
L 174.006126 288.171311 
L 177.285465 288.10855 
L 180.564804 288.032158 
L 183.844143 287.939578 
L 187.123481 287.827864 
L 190.40282 287.69365 
L 193.682159 287.533106 
L 196.961498 287.34191 
L 200.240837 287.11521 
L 203.520176 286.847602 
L 206.799514 286.533103 
L 210.078853 286.165145 
L 213.358192 285.736568 
L 216.637531 285.239633 
L 219.91687 284.666045 
L 223.196209 284.006994 
L 226.475548 283.253217 
L 229.754886 282.395075 
L 233.034225 281.422659 
L 236.313564 280.325912 
L 239.592903 279.094778 
L 242.872242 277.719377 
L 246.151581 276.190197 
L 249.430919 274.498312 
L 252.710258 272.635615 
L 255.989597 270.595071 
L 259.268936 268.370981 
L 262.548275 265.959243 
L 265.827614 263.357629 
L 269.106952 260.566043 
L 272.386291 257.586767 
L 275.66563 254.424694 
L 278.944969 251.087516 
L 282.224308 247.585891 
L 285.503647 243.933549 
L 288.782986 240.147358 
L 292.062324 236.247317 
L 295.341663 232.256498 
L 298.621002 228.200907 
L 301.900341 224.109284 
L 305.17968 220.012825 
L 308.459019 215.944835 
L 311.738357 211.940319 
L 315.017696 208.035508 
L 318.297035 204.267337 
L 321.576374 200.672879 
L 324.855713 197.288747 
L 328.135052 194.150483 
L 331.41439 191.291938 
L 334.693729 188.744671 
L 337.973068 186.537367 
L 341.252407 184.6953 
L 344.531746 183.239856 
L 347.811085 182.188112 
L 351.090424 181.552513 
L 354.369762 181.340617 
L 357.649101 181.55495 
L 360.92844 182.192957 
L 364.207779 183.24705 
L 367.487118 184.70476 
L 370.766457 186.548982 
L 374.045795 188.758307 
L 377.325134 191.30744 
L 380.604473 194.167678 
L 383.883812 197.307447 
L 387.163151 200.692885 
L 390.44249 204.288442 
L 393.721829 208.057501 
L 397.001167 211.962987 
L 400.280506 215.967968 
L 403.559845 220.036219 
L 406.839184 224.132744 
L 410.118523 228.224247 
" clip-path="url(#p81b1ba12c5)" style="fill: none; stroke: #1f77b4; stroke-width: 1.5; stroke-linecap: square"/>
   </g>
   <g id="line2d_13">
    <path d="M 85.463977 288.430125 
L 88.743316 288.430125 
L 92.022655 288.430125 
L 95.301994 288.430125 
L 98.581333 288.430125 
L 101.860671 288.430125 
L 105.14001 288.430125 
L 108.419349 288.430125 
L 111.698688 288.430125 
L 114.978027 288.430125 
L 118.257366 288.430125 
L 121.536705 288.430125 
L 124.816043 288.430125 
L 128.095382 288.430125 
L 131.374721 288.430125 
L 134.65406 288.430125 
L 137.933399 288.430125 
L 141.212738 288.430125 
L 144.492076 288.430125 
L 147.771415 288.430125 
L 151.050754 288.430125 
L 154.330093 288.430125 
L 157.609432 288.430125 
L 160.888771 288.430125 
L 164.16811 288.430125 
L 167.447448 288.430125 
L 170.726787 288.430125 
L 174.006126 288.430125 
L 177.285465 288.430125 
L 180.564804 288.430125 
L 183.844143 288.430125 
L 187.123481 288.430125 
L 190.40282 288.430125 
L 193.682159 288.430125 
L 196.961498 288.430125 
L 200.240837 288.430125 
L 203.520176 288.430125 
L 206.799514 288.430125 
L 210.078853 288.430125 
L 213.358192 288.430125 
L 216.637531 288.430125 
L 219.91687 288.430125 
L 223.196209 288.430125 
L 226.475548 288.430125 
L 229.754886 288.430125 
L 233.034225 288.430125 
L 236.313564 288.430125 
L 239.592903 288.430125 
L 242.872242 288.430125 
L 246.151581 288.430125 
L 249.430919 288.430125 
L 252.710258 288.430125 
L 255.989597 288.430125 
L 259.268936 288.430125 
L 262.548275 288.430125 
L 265.827614 288.430125 
L 269.106952 288.430125 
L 272.386291 288.430125 
L 275.66563 124.334691 
L 278.944969 130.782203 
L 282.224308 136.976384 
L 285.503647 142.927188 
L 288.782986 148.644178 
L 292.062324 154.13654 
L 295.341663 159.4131 
L 298.621002 164.482338 
L 301.900341 169.352399 
L 305.17968 174.031109 
L 308.459019 178.525987 
L 311.738357 182.844256 
L 315.017696 186.992855 
L 318.297035 190.97845 
L 321.576374 194.807447 
L 324.855713 198.485997 
L 328.135052 202.020012 
L 331.41439 205.415172 
L 334.693729 208.676932 
L 337.973068 211.810533 
L 341.252407 214.821011 
L 344.531746 217.713204 
L 347.811085 220.491759 
L 351.090424 223.161141 
L 354.369762 225.72564 
L 357.649101 228.189376 
L 360.92844 230.556309 
L 364.207779 232.830243 
L 367.487118 235.014831 
L 370.766457 237.113583 
L 374.045795 239.129873 
L 377.325134 241.066941 
L 380.604473 242.927899 
L 383.883812 244.715737 
L 387.163151 246.433329 
L 390.44249 248.083435 
L 393.721829 249.668706 
L 397.001167 251.19169 
L 400.280506 252.654834 
L 403.559845 254.060489 
L 406.839184 255.410915 
L 410.118523 256.70828 
" clip-path="url(#p81b1ba12c5)" style="fill: none; stroke: #ff7f0e; stroke-width: 1.5; stroke-linecap: square"/>
   </g>
   <g id="line2d_14">
    <path d="M 85.463977 288.430112 
L 88.743316 288.430105 
L 92.022655 288.430095 
L 95.301994 288.430078 
L 98.581333 288.430054 
L 101.860671 288.430017 
L 105.14001 288.429963 
L 108.419349 288.429884 
L 111.698688 288.429768 
L 114.978027 288.429601 
L 118.257366 288.429362 
L 121.536705 288.429021 
L 124.816043 288.428539 
L 128.095382 288.427863 
L 131.374721 288.426921 
L 134.65406 288.425619 
L 137.933399 288.423831 
L 141.212738 288.421392 
L 144.492076 288.41809 
L 147.771415 288.41365 
L 151.050754 288.407719 
L 154.330093 288.39985 
L 157.609432 288.389482 
L 160.888771 288.375909 
L 164.16811 288.358261 
L 167.447448 288.335463 
L 170.726787 288.306203 
L 174.006126 288.268891 
L 177.285465 288.221618 
L 180.564804 288.162104 
L 183.844143 288.087652 
L 187.123481 287.995096 
L 190.40282 287.880752 
L 193.682159 287.740363 
L 196.961498 287.569058 
L 200.240837 287.361306 
L 203.520176 287.110886 
L 206.799514 286.81086 
L 210.078853 286.453567 
L 213.358192 286.030626 
L 216.637531 285.532962 
L 219.91687 284.950857 
L 223.196209 284.274017 
L 226.475548 283.491677 
L 229.754886 282.592724 
L 233.034225 281.565855 
L 236.313564 280.399766 
L 239.592903 279.083362 
L 242.872242 277.606005 
L 246.151581 275.957771 
L 249.430919 274.129741 
L 252.710258 272.114293 
L 255.989597 269.90541 
L 259.268936 267.498982 
L 262.548275 264.893105 
L 265.827614 262.088354 
L 269.106952 259.088035 
L 272.386291 255.898402 
L 275.66563 252.528824 
L 278.944969 248.991901 
L 282.224308 245.303518 
L 285.503647 241.482836 
L 288.782986 237.552205 
L 292.062324 233.537008 
L 295.341663 229.46543 
L 298.621002 225.368152 
L 301.900341 221.277977 
L 305.17968 217.229394 
L 308.459019 213.258086 
L 311.738357 209.400394 
L 315.017696 205.692746 
L 318.297035 202.171071 
L 321.576374 198.870196 
L 324.855713 195.823266 
L 328.135052 193.061169 
L 331.41439 190.612013 
L 334.693729 188.500637 
L 337.973068 186.748196 
L 341.252407 185.371805 
L 344.531746 184.384269 
L 347.811085 183.793893 
L 351.090424 183.604383 
L 354.369762 183.814833 
L 357.649101 184.4198 
L 360.92844 185.409467 
L 364.207779 186.769877 
L 367.487118 188.483247 
L 370.766457 190.528332 
L 374.045795 192.880856 
L 377.325134 195.513965 
L 380.604473 198.398726 
L 383.883812 201.504626 
L 387.163151 204.800089 
L 390.44249 208.252979 
L 393.721829 211.831086 
L 397.001167 215.502587 
L 400.280506 219.236477 
L 403.559845 223.002946 
L 406.839184 226.773724 
L 410.118523 230.522366 
" clip-path="url(#p81b1ba12c5)" style="fill: none; stroke: #2ca02c; stroke-width: 1.5; stroke-linecap: square"/>
   </g>
   <g id="line2d_15">
    <path d="M 85.463977 288.430125 
L 88.743316 288.430125 
L 92.022655 288.430125 
L 95.301994 288.430125 
L 98.581333 288.430125 
L 101.860671 288.430125 
L 105.14001 288.430125 
L 108.419349 288.430125 
L 111.698688 288.430125 
L 114.978027 288.430125 
L 118.257366 288.430125 
L 121.536705 288.430125 
L 124.816043 288.430125 
L 128.095382 288.430125 
L 131.374721 288.430125 
L 134.65406 288.430125 
L 137.933399 288.430125 
L 141.212738 288.430125 
L 144.492076 288.430125 
L 147.771415 288.430125 
L 151.050754 288.430125 
L 154.330093 288.430125 
L 157.609432 288.430125 
L 160.888771 288.430125 
L 164.16811 288.430125 
L 167.447448 288.430125 
L 170.726787 288.430125 
L 174.006126 288.430125 
L 177.285465 288.430125 
L 180.564804 288.430125 
L 183.844143 288.430125 
L 187.123481 288.430125 
L 190.40282 288.430125 
L 193.682159 288.430125 
L 196.961498 288.430125 
L 200.240837 288.430125 
L 203.520176 288.430125 
L 206.799514 288.430125 
L 210.078853 288.430125 
L 213.358192 288.430125 
L 216.637531 288.430125 
L 219.91687 288.430125 
L 223.196209 288.430125 
L 226.475548 288.430125 
L 229.754886 288.430125 
L 233.034225 288.430125 
L 236.313564 288.430125 
L 239.592903 288.430125 
L 242.872242 288.430125 
L 246.151581 288.430125 
L 249.430919 288.430125 
L 252.710258 288.430125 
L 255.989597 288.430125 
L 259.268936 288.430125 
L 262.548275 288.430125 
L 265.827614 288.430125 
L 269.106952 288.430125 
L 272.386291 288.430125 
L 275.66563 288.430125 
L 278.944969 288.430125 
L 282.224308 288.430125 
L 285.503647 288.430125 
L 288.782986 288.430125 
L 292.062324 288.430125 
L 295.341663 288.430125 
L 298.621002 288.430125 
L 301.900341 288.430125 
L 305.17968 288.430125 
L 308.459019 288.430125 
L 311.738357 288.430125 
L 315.017696 288.430125 
L 318.297035 288.430125 
L 321.576374 288.430125 
L 324.855713 288.430125 
L 328.135052 288.430125 
L 331.41439 288.430125 
L 334.693729 288.430125 
L 337.973068 288.430125 
L 341.252407 288.430125 
L 344.531746 288.430125 
L 347.811085 288.430125 
L 351.090424 288.430125 
L 354.369762 288.430125 
L 357.649101 288.430125 
L 360.92844 288.430125 
L 364.207779 288.430125 
L 367.487118 288.430125 
L 370.766457 288.430125 
L 374.045795 288.430125 
L 377.325134 288.430125 
L 380.604473 288.430125 
L 383.883812 288.430125 
L 387.163151 288.430125 
L 390.44249 288.430125 
L 393.721829 288.430125 
L 397.001167 288.430125 
L 400.280506 288.430125 
L 403.559845 288.430125 
L 406.839184 288.430125 
L 410.118523 288.430125 
" clip-path="url(#p81b1ba12c5)" style="fill: none; stroke: #d62728; stroke-width: 1.5; stroke-linecap: square"/>
   </g>
   <g id="patch_13">
    <path d="M 69.23125 288.430125 
L 69.23125 22.318125 
" style="fill: none; stroke: #000000; stroke-width: 0.8; stroke-linejoin: miter; stroke-linecap: square"/>
   </g>
   <g id="patch_14">
    <path d="M 426.35125 288.430125 
L 426.35125 22.318125 
" style="fill: none; stroke: #000000; stroke-width: 0.8; stroke-linejoin: miter; stroke-linecap: square"/>
   </g>
   <g id="patch_15">
    <path d="M 69.23125 288.430125 
L 426.35125 288.430125 
" style="fill: none; stroke: #000000; stroke-width: 0.8; stroke-linejoin: miter; stroke-linecap: square"/>
   </g>
   <g id="patch_16">
    <path d="M 69.23125 22.318125 
L 426.35125 22.318125 
" style="fill: none; stroke: #000000; stroke-width: 0.8; stroke-linejoin: miter; stroke-linecap: square"/>
   </g>
   <g id="text_14">
    <!-- Fitted Distributions to Sentiment Counts -->
    <g transform="translate(127.166875 16.318125) scale(0.12 -0.12)">
     <defs>
      <path id="DejaVuSans-46" d="M 628 4666 
L 3309 4666 
L 3309 4134 
L 1259 4134 
L 1259 2759 
L 3109 2759 
L 3109 2228 
L 1259 2228 
L 1259 0 
L 628 0 
L 628 4666 
z
" transform="scale(0.015625)"/>
      <path id="DejaVuSans-64" d="M 2906 2969 
L 2906 4863 
L 3481 4863 
L 3481 0 
L 2906 0 
L 2906 525 
Q 2725 213 2448 61 
Q 2172 -91 1784 -91 
Q 1150 -91 751 415 
Q 353 922 353 1747 
Q 353 2572 751 3078 
Q 1150 3584 1784 3584 
Q 2172 3584 2448 3432 
Q 2725 3281 2906 2969 
z
M 947 1747 
Q 947 1113 1208 752 
Q 1469 391 1925 391 
Q 2381 391 2643 752 
Q 2906 1113 2906 1747 
Q 2906 2381 2643 2742 
Q 2381 3103 1925 3103 
Q 1469 3103 1208 2742 
Q 947 2381 947 1747 
z
" transform="scale(0.015625)"/>
      <path id="DejaVuSans-72" d="M 2631 2963 
Q 2534 3019 2420 3045 
Q 2306 3072 2169 3072 
Q 1681 3072 1420 2755 
Q 1159 2438 1159 1844 
L 1159 0 
L 581 0 
L 581 3500 
L 1159 3500 
L 1159 2956 
Q 1341 3275 1631 3429 
Q 1922 3584 2338 3584 
Q 2397 3584 2469 3576 
Q 2541 3569 2628 3553 
L 2631 2963 
z
" transform="scale(0.015625)"/>
      <path id="DejaVuSans-62" d="M 3116 1747 
Q 3116 2381 2855 2742 
Q 2594 3103 2138 3103 
Q 1681 3103 1420 2742 
Q 1159 2381 1159 1747 
Q 1159 1113 1420 752 
Q 1681 391 2138 391 
Q 2594 391 2855 752 
Q 3116 1113 3116 1747 
z
M 1159 2969 
Q 1341 3281 1617 3432 
Q 1894 3584 2278 3584 
Q 2916 3584 3314 3078 
Q 3713 2572 3713 1747 
Q 3713 922 3314 415 
Q 2916 -91 2278 -91 
Q 1894 -91 1617 61 
Q 1341 213 1159 525 
L 1159 0 
L 581 0 
L 581 4863 
L 1159 4863 
L 1159 2969 
z
" transform="scale(0.015625)"/>
     </defs>
     <use xlink:href="#DejaVuSans-46"/>
     <use xlink:href="#DejaVuSans-69" x="50.269531"/>
     <use xlink:href="#DejaVuSans-74" x="78.052734"/>
     <use xlink:href="#DejaVuSans-74" x="117.261719"/>
     <use xlink:href="#DejaVuSans-65" x="156.470703"/>
     <use xlink:href="#DejaVuSans-64" x="217.994141"/>
     <use xlink:href="#DejaVuSans-20" x="281.470703"/>
     <use xlink:href="#DejaVuSans-44" x="313.257812"/>
     <use xlink:href="#DejaVuSans-69" x="390.259766"/>
     <use xlink:href="#DejaVuSans-73" x="418.042969"/>
     <use xlink:href="#DejaVuSans-74" x="470.142578"/>
     <use xlink:href="#DejaVuSans-72" x="509.351562"/>
     <use xlink:href="#DejaVuSans-69" x="550.464844"/>
     <use xlink:href="#DejaVuSans-62" x="578.248047"/>
     <use xlink:href="#DejaVuSans-75" x="641.724609"/>
     <use xlink:href="#DejaVuSans-74" x="705.103516"/>
     <use xlink:href="#DejaVuSans-69" x="744.3125"/>
     <use xlink:href="#DejaVuSans-6f" x="772.095703"/>
     <use xlink:href="#DejaVuSans-6e" x="833.277344"/>
     <use xlink:href="#DejaVuSans-73" x="896.65625"/>
     <use xlink:href="#DejaVuSans-20" x="948.755859"/>
     <use xlink:href="#DejaVuSans-74" x="980.542969"/>
     <use xlink:href="#DejaVuSans-6f" x="1019.751953"/>
     <use xlink:href="#DejaVuSans-20" x="1080.933594"/>
     <use xlink:href="#DejaVuSans-53" x="1112.720703"/>
     <use xlink:href="#DejaVuSans-65" x="1176.197266"/>
     <use xlink:href="#DejaVuSans-6e" x="1237.720703"/>
     <use xlink:href="#DejaVuSans-74" x="1301.099609"/>
     <use xlink:href="#DejaVuSans-69" x="1340.308594"/>
     <use xlink:href="#DejaVuSans-6d" x="1368.091797"/>
     <use xlink:href="#DejaVuSans-65" x="1465.503906"/>
     <use xlink:href="#DejaVuSans-6e" x="1527.027344"/>
     <use xlink:href="#DejaVuSans-74" x="1590.40625"/>
     <use xlink:href="#DejaVuSans-20" x="1629.615234"/>
     <use xlink:href="#DejaVuSans-43" x="1661.402344"/>
     <use xlink:href="#DejaVuSans-6f" x="1731.226562"/>
     <use xlink:href="#DejaVuSans-75" x="1792.408203"/>
     <use xlink:href="#DejaVuSans-6e" x="1855.787109"/>
     <use xlink:href="#DejaVuSans-74" x="1919.166016"/>
     <use xlink:href="#DejaVuSans-73" x="1958.375"/>
    </g>
   </g>
   <g id="legend_1">
    <g id="patch_17">
     <path d="M 76.23125 103.70875 
L 146.351563 103.70875 
Q 148.351563 103.70875 148.351563 101.70875 
L 148.351563 29.318125 
Q 148.351563 27.318125 146.351563 27.318125 
L 76.23125 27.318125 
Q 74.23125 27.318125 74.23125 29.318125 
L 74.23125 101.70875 
Q 74.23125 103.70875 76.23125 103.70875 
z
" style="fill: #ffffff; opacity: 0.8; stroke: #cccccc; stroke-linejoin: miter"/>
    </g>
    <g id="patch_18">
     <path d="M 78.23125 38.916562 
L 98.23125 38.916562 
L 98.23125 31.916562 
L 78.23125 31.916562 
z
" style="fill: #008000; opacity: 0.5"/>
    </g>
    <g id="text_15">
     <!-- Data -->
     <g transform="translate(106.23125 38.916562) scale(0.1 -0.1)">
      <defs>
       <path id="DejaVuSans-61" d="M 2194 1759 
Q 1497 1759 1228 1600 
Q 959 1441 959 1056 
Q 959 750 1161 570 
Q 1363 391 1709 391 
Q 2188 391 2477 730 
Q 2766 1069 2766 1631 
L 2766 1759 
L 2194 1759 
z
M 3341 1997 
L 3341 0 
L 2766 0 
L 2766 531 
Q 2569 213 2275 61 
Q 1981 -91 1556 -91 
Q 1019 -91 701 211 
Q 384 513 384 1019 
Q 384 1609 779 1909 
Q 1175 2209 1959 2209 
L 2766 2209 
L 2766 2266 
Q 2766 2663 2505 2880 
Q 2244 3097 1772 3097 
Q 1472 3097 1187 3025 
Q 903 2953 641 2809 
L 641 3341 
Q 956 3463 1253 3523 
Q 1550 3584 1831 3584 
Q 2591 3584 2966 3190 
Q 3341 2797 3341 1997 
z
" transform="scale(0.015625)"/>
      </defs>
      <use xlink:href="#DejaVuSans-44"/>
      <use xlink:href="#DejaVuSans-61" x="77.001953"/>
      <use xlink:href="#DejaVuSans-74" x="138.28125"/>
      <use xlink:href="#DejaVuSans-61" x="177.490234"/>
     </g>
    </g>
    <g id="line2d_16">
     <path d="M 78.23125 50.094688 
L 88.23125 50.094688 
L 98.23125 50.094688 
" style="fill: none; stroke: #1f77b4; stroke-width: 1.5; stroke-linecap: square"/>
    </g>
    <g id="text_16">
     <!-- norm -->
     <g transform="translate(106.23125 53.594688) scale(0.1 -0.1)">
      <use xlink:href="#DejaVuSans-6e"/>
      <use xlink:href="#DejaVuSans-6f" x="63.378906"/>
      <use xlink:href="#DejaVuSans-72" x="124.560547"/>
      <use xlink:href="#DejaVuSans-6d" x="163.923828"/>
     </g>
    </g>
    <g id="line2d_17">
     <path d="M 78.23125 64.772812 
L 88.23125 64.772812 
L 98.23125 64.772812 
" style="fill: none; stroke: #ff7f0e; stroke-width: 1.5; stroke-linecap: square"/>
    </g>
    <g id="text_17">
     <!-- expon -->
     <g transform="translate(106.23125 68.272812) scale(0.1 -0.1)">
      <defs>
       <path id="DejaVuSans-78" d="M 3513 3500 
L 2247 1797 
L 3578 0 
L 2900 0 
L 1881 1375 
L 863 0 
L 184 0 
L 1544 1831 
L 300 3500 
L 978 3500 
L 1906 2253 
L 2834 3500 
L 3513 3500 
z
" transform="scale(0.015625)"/>
       <path id="DejaVuSans-70" d="M 1159 525 
L 1159 -1331 
L 581 -1331 
L 581 3500 
L 1159 3500 
L 1159 2969 
Q 1341 3281 1617 3432 
Q 1894 3584 2278 3584 
Q 2916 3584 3314 3078 
Q 3713 2572 3713 1747 
Q 3713 922 3314 415 
Q 2916 -91 2278 -91 
Q 1894 -91 1617 61 
Q 1341 213 1159 525 
z
M 3116 1747 
Q 3116 2381 2855 2742 
Q 2594 3103 2138 3103 
Q 1681 3103 1420 2742 
Q 1159 2381 1159 1747 
Q 1159 1113 1420 752 
Q 1681 391 2138 391 
Q 2594 391 2855 752 
Q 3116 1113 3116 1747 
z
" transform="scale(0.015625)"/>
      </defs>
      <use xlink:href="#DejaVuSans-65"/>
      <use xlink:href="#DejaVuSans-78" x="59.773438"/>
      <use xlink:href="#DejaVuSans-70" x="118.953125"/>
      <use xlink:href="#DejaVuSans-6f" x="182.429688"/>
      <use xlink:href="#DejaVuSans-6e" x="243.611328"/>
     </g>
    </g>
    <g id="line2d_18">
     <path d="M 78.23125 79.450938 
L 88.23125 79.450938 
L 98.23125 79.450938 
" style="fill: none; stroke: #2ca02c; stroke-width: 1.5; stroke-linecap: square"/>
    </g>
    <g id="text_18">
     <!-- gamma -->
     <g transform="translate(106.23125 82.950938) scale(0.1 -0.1)">
      <defs>
       <path id="DejaVuSans-67" d="M 2906 1791 
Q 2906 2416 2648 2759 
Q 2391 3103 1925 3103 
Q 1463 3103 1205 2759 
Q 947 2416 947 1791 
Q 947 1169 1205 825 
Q 1463 481 1925 481 
Q 2391 481 2648 825 
Q 2906 1169 2906 1791 
z
M 3481 434 
Q 3481 -459 3084 -895 
Q 2688 -1331 1869 -1331 
Q 1566 -1331 1297 -1286 
Q 1028 -1241 775 -1147 
L 775 -588 
Q 1028 -725 1275 -790 
Q 1522 -856 1778 -856 
Q 2344 -856 2625 -561 
Q 2906 -266 2906 331 
L 2906 616 
Q 2728 306 2450 153 
Q 2172 0 1784 0 
Q 1141 0 747 490 
Q 353 981 353 1791 
Q 353 2603 747 3093 
Q 1141 3584 1784 3584 
Q 2172 3584 2450 3431 
Q 2728 3278 2906 2969 
L 2906 3500 
L 3481 3500 
L 3481 434 
z
" transform="scale(0.015625)"/>
      </defs>
      <use xlink:href="#DejaVuSans-67"/>
      <use xlink:href="#DejaVuSans-61" x="63.476562"/>
      <use xlink:href="#DejaVuSans-6d" x="124.755859"/>
      <use xlink:href="#DejaVuSans-6d" x="222.167969"/>
      <use xlink:href="#DejaVuSans-61" x="319.580078"/>
     </g>
    </g>
    <g id="line2d_19">
     <path d="M 78.23125 94.129063 
L 88.23125 94.129063 
L 98.23125 94.129063 
" style="fill: none; stroke: #d62728; stroke-width: 1.5; stroke-linecap: square"/>
    </g>
    <g id="text_19">
     <!-- poisson -->
     <g transform="translate(106.23125 97.629063) scale(0.1 -0.1)">
      <use xlink:href="#DejaVuSans-70"/>
      <use xlink:href="#DejaVuSans-6f" x="63.476562"/>
      <use xlink:href="#DejaVuSans-69" x="124.658203"/>
      <use xlink:href="#DejaVuSans-73" x="152.441406"/>
      <use xlink:href="#DejaVuSans-73" x="204.541016"/>
      <use xlink:href="#DejaVuSans-6f" x="256.640625"/>
      <use xlink:href="#DejaVuSans-6e" x="317.822266"/>
     </g>
    </g>
   </g>
  </g>
 </g>
 <defs>
  <clipPath id="p81b1ba12c5">
   <rect x="69.23125" y="22.318125" width="357.12" height="266.112"/>
  </clipPath>
 </defs>
</svg>
